G04*
G04 #@! TF.GenerationSoftware,Altium Limited,Altium Designer,21.1.1 (26)*
G04*
G04 Layer_Color=128*
%FSLAX44Y44*%
%MOMM*%
G71*
G04*
G04 #@! TF.SameCoordinates,E069ABF9-E8C7-48A9-8C9A-FF8294D84A43*
G04*
G04*
G04 #@! TF.FilePolarity,Positive*
G04*
G01*
G75*
%ADD19R,1.0000X0.9000*%
%ADD27R,0.3500X0.4000*%
G04:AMPARAMS|DCode=67|XSize=1.424mm|YSize=3.9mm|CornerRadius=0.331mm|HoleSize=0mm|Usage=FLASHONLY|Rotation=0.000|XOffset=0mm|YOffset=0mm|HoleType=Round|Shape=RoundedRectangle|*
%AMROUNDEDRECTD67*
21,1,1.4240,3.2380,0,0,0.0*
21,1,0.7620,3.9000,0,0,0.0*
1,1,0.6620,0.3810,-1.6190*
1,1,0.6620,-0.3810,-1.6190*
1,1,0.6620,-0.3810,1.6190*
1,1,0.6620,0.3810,1.6190*
%
%ADD67ROUNDEDRECTD67*%
%ADD160R,0.5000X0.5000*%
%ADD161R,0.5500X0.8000*%
%ADD162R,0.9500X1.1000*%
%ADD163R,1.1000X1.1000*%
%ADD166C,0.9160*%
G04:AMPARAMS|DCode=167|XSize=0.916mm|YSize=0.916mm|CornerRadius=0.204mm|HoleSize=0mm|Usage=FLASHONLY|Rotation=90.000|XOffset=0mm|YOffset=0mm|HoleType=Round|Shape=RoundedRectangle|*
%AMROUNDEDRECTD167*
21,1,0.9160,0.5080,0,0,90.0*
21,1,0.5080,0.9160,0,0,90.0*
1,1,0.4080,0.2540,0.2540*
1,1,0.4080,0.2540,-0.2540*
1,1,0.4080,-0.2540,-0.2540*
1,1,0.4080,-0.2540,0.2540*
%
%ADD167ROUNDEDRECTD167*%
D19*
X859790Y107950D02*
D03*
Y121951D02*
D03*
X785040Y107950D02*
D03*
Y121951D02*
D03*
X837749Y107950D02*
D03*
Y121951D02*
D03*
D27*
X294640Y110350D02*
D03*
Y102850D02*
D03*
D67*
X627380Y114300D02*
D03*
X650240D02*
D03*
D160*
X307340Y101680D02*
D03*
Y111680D02*
D03*
X878840Y116760D02*
D03*
Y106760D02*
D03*
X803910Y105490D02*
D03*
Y115490D02*
D03*
X819150Y105490D02*
D03*
Y115490D02*
D03*
D161*
X1029390Y359030D02*
D03*
X1020390D02*
D03*
Y375030D02*
D03*
X1029390D02*
D03*
D162*
X1011830Y595650D02*
D03*
D163*
X1011080Y628650D02*
D03*
D166*
X1016450Y422910D02*
D03*
X673100Y236220D02*
D03*
X885190Y195580D02*
D03*
X951230Y236220D02*
D03*
X930800Y236232D02*
D03*
X834390Y187960D02*
D03*
X1007110Y153670D02*
D03*
X688340Y114300D02*
D03*
X532130Y594360D02*
D03*
X720090Y619760D02*
D03*
X971550Y321310D02*
D03*
X876213Y643193D02*
D03*
X971550Y303530D02*
D03*
X629385Y426757D02*
D03*
X971550Y285750D02*
D03*
X775970Y636270D02*
D03*
X518922Y233895D02*
D03*
X500888D02*
D03*
X414020Y152400D02*
D03*
X536956Y233895D02*
D03*
X554990D02*
D03*
X464820D02*
D03*
X482854D02*
D03*
X297976Y221095D02*
D03*
X515666Y641350D02*
D03*
X534701D02*
D03*
X297976Y204006D02*
D03*
X553735Y641350D02*
D03*
X572770D02*
D03*
X631190Y648970D02*
D03*
X650240D02*
D03*
X1016450Y495046D02*
D03*
Y477012D02*
D03*
Y458978D02*
D03*
Y440944D02*
D03*
D167*
Y513080D02*
D03*
X507044Y594360D02*
D03*
X939800Y144780D02*
D03*
X689610Y143510D02*
D03*
X793751Y166370D02*
D03*
X970280Y111760D02*
D03*
X496631Y641350D02*
D03*
M02*
