G04*
G04 #@! TF.GenerationSoftware,Altium Limited,Altium Designer,21.1.1 (26)*
G04*
G04 Layer_Color=16711935*
%FSLAX44Y44*%
%MOMM*%
G71*
G04*
G04 #@! TF.SameCoordinates,9AE9D992-6700-435F-BEFF-D62808151BB7*
G04*
G04*
G04 #@! TF.FilePolarity,Positive*
G04*
G01*
G75*
%ADD168C,0.1000*%
%ADD169C,0.0000*%
D168*
X489732Y192485D02*
G03*
X490732Y191485I1000J0D01*
G01*
X450235Y177985D02*
G03*
X448235Y179985I-2000J0D01*
G01*
X524985Y124685D02*
G03*
X526985Y126685I0J2000D01*
G01*
X493985Y130685D02*
G03*
X491985Y132685I-2000J0D01*
G01*
X540985Y126685D02*
G03*
X542985Y124685I2000J0D01*
G01*
X546535Y92685D02*
G03*
X543535Y95685I-3000J0D01*
G01*
X517732Y191485D02*
G03*
X518732Y192485I0J1000D01*
G01*
X467135Y114785D02*
G03*
X461135Y120785I-6000J0D01*
G01*
X444235Y171985D02*
G03*
X446235Y169985I2000J0D01*
G01*
X513985Y124685D02*
G03*
X515985Y126685I0J2000D01*
G01*
X487985Y132685D02*
G03*
X485985Y130685I0J-2000D01*
G01*
X452635Y120785D02*
G03*
X446635Y114785I0J-6000D01*
G01*
X476985Y130685D02*
G03*
X474985Y128685I0J-2000D01*
G01*
X542885Y192485D02*
G03*
X547885Y197485I0J5000D01*
G01*
X448235Y169985D02*
G03*
X450235Y171985I0J2000D01*
G01*
X550885Y206485D02*
G03*
X547885Y203485I0J-3000D01*
G01*
X515985Y130685D02*
G03*
X513985Y132685I-2000J0D01*
G01*
X446635Y102785D02*
G03*
X450635Y98785I4000J0D01*
G01*
X520985Y135185D02*
G03*
X518985Y133185I0J-2000D01*
G01*
X461135Y98785D02*
G03*
X467135Y104785I0J6000D01*
G01*
X543335Y95685D02*
G03*
X542335Y94685I0J-1000D01*
G01*
X498985Y135185D02*
G03*
X496985Y133185I0J-2000D01*
G01*
X461285Y201485D02*
G03*
X456285Y206485I-5000J0D01*
G01*
X518985Y126685D02*
G03*
X520985Y124685I2000J0D01*
G01*
X507985Y126685D02*
G03*
X509985Y124685I2000J0D01*
G01*
X535985D02*
G03*
X537985Y126685I0J2000D01*
G01*
X496985D02*
G03*
X498985Y124685I2000J0D01*
G01*
X480985Y122685D02*
G03*
X482985Y124685I0J2000D01*
G01*
X548985Y130685D02*
G03*
X546985Y132685I-2000J0D01*
G01*
X516732Y192485D02*
G03*
X517732Y191485I1000J0D01*
G01*
X451135Y136785D02*
G03*
X454135Y139785I0J3000D01*
G01*
X482985Y128685D02*
G03*
X480985Y130685I-2000J0D01*
G01*
X469985Y124685D02*
G03*
X471985Y126685I0J2000D01*
G01*
X537985Y130685D02*
G03*
X535985Y132685I-2000J0D01*
G01*
X509985D02*
G03*
X507985Y130685I0J-2000D01*
G01*
X529985Y126685D02*
G03*
X531985Y124685I2000J0D01*
G01*
X542985Y132685D02*
G03*
X540985Y130685I0J-2000D01*
G01*
X531985Y132685D02*
G03*
X529985Y130685I0J-2000D01*
G01*
X504985Y133185D02*
G03*
X502985Y135185I-2000J0D01*
G01*
X555535Y95685D02*
G03*
X552535Y92685I0J-3000D01*
G01*
X471985Y130685D02*
G03*
X469985Y132685I-2000J0D01*
G01*
X446235Y179985D02*
G03*
X444235Y177985I0J-2000D01*
G01*
X446135Y139785D02*
G03*
X449135Y136785I3000J0D01*
G01*
X546985Y124685D02*
G03*
X548985Y126685I0J2000D01*
G01*
X526985Y133185D02*
G03*
X524985Y135185I-2000J0D01*
G01*
X463985Y126685D02*
G03*
X465985Y124685I2000J0D01*
G01*
X490732Y191485D02*
G03*
X491732Y192485I0J1000D01*
G01*
X454135Y142785D02*
G03*
X451135Y145785I-3000J0D01*
G01*
X465985Y132685D02*
G03*
X463985Y130685I0J-2000D01*
G01*
X461285Y197485D02*
G03*
X466285Y192485I5000J0D01*
G01*
X449135Y145785D02*
G03*
X446135Y142785I0J-3000D01*
G01*
X485985Y126685D02*
G03*
X487985Y124685I2000J0D01*
G01*
X491985D02*
G03*
X493985Y126685I0J2000D01*
G01*
X474985Y124685D02*
G03*
X476985Y122685I2000J0D01*
G01*
X502985Y124685D02*
G03*
X504985Y126685I0J2000D01*
G01*
X984110Y147310D02*
Y177810D01*
X966610Y147310D02*
Y177810D01*
Y147310D02*
X984110D01*
X966610Y177810D02*
X984110D01*
X658370Y184660D02*
Y216660D01*
X690370Y184660D02*
Y216660D01*
X658370Y184660D02*
X690370D01*
X658370Y216660D02*
X690370D01*
X664290Y318880D02*
X674290D01*
X664290Y300880D02*
X674290D01*
Y318880D01*
X664290Y300880D02*
Y318880D01*
X236360Y307010D02*
X253860D01*
X236360Y297510D02*
X253860D01*
X236360D02*
Y307010D01*
X253860Y297510D02*
Y307010D01*
X855560Y169877D02*
Y175877D01*
X866560Y169877D02*
Y175877D01*
X855560D02*
X866560D01*
X855560Y169877D02*
X866560D01*
X713570Y170390D02*
X724070D01*
X713570Y164890D02*
X724070D01*
X713570D02*
Y170390D01*
X724070Y164890D02*
Y170390D01*
X724960Y246057D02*
X730460D01*
X724960Y235558D02*
X730460D01*
Y246057D01*
X724960Y235558D02*
Y246057D01*
X813650Y617010D02*
X824150D01*
X813650Y622510D02*
X824150D01*
Y617010D02*
Y622510D01*
X813650Y617010D02*
Y622510D01*
X919690Y634830D02*
Y645330D01*
X914190Y634830D02*
Y645330D01*
X919690D01*
X914190Y634830D02*
X919690D01*
X983790Y136370D02*
X989790D01*
X983790Y125370D02*
X989790D01*
Y136370D01*
X983790Y125370D02*
Y136370D01*
X252520Y316060D02*
Y326560D01*
X258020Y316060D02*
Y326560D01*
X252520Y316060D02*
X258020D01*
X252520Y326560D02*
X258020D01*
X611930Y105580D02*
X617430D01*
X611930Y95080D02*
X617430D01*
Y105580D01*
X611930Y95080D02*
Y105580D01*
X708000Y243460D02*
Y246760D01*
X701700Y243460D02*
Y246760D01*
Y243460D02*
X708000D01*
X701700Y246760D02*
X708000D01*
X467135Y104785D02*
Y114785D01*
X491732Y192485D02*
X516732D01*
X535685Y198614D02*
Y200529D01*
X493985Y126685D02*
Y130685D01*
X491685Y202176D02*
Y205985D01*
X498985Y135185D02*
X502985D01*
X477285Y201410D02*
Y202176D01*
X543285Y196485D02*
Y198614D01*
X499285Y202176D02*
Y205985D01*
X441485Y206485D02*
X456285D01*
X543285Y200529D02*
Y201410D01*
X518985Y126685D02*
Y133185D01*
X476985Y122685D02*
X480985D01*
X513685Y196485D02*
X521285D01*
X542985Y124685D02*
X546985D01*
X480685Y202176D02*
Y205985D01*
X521285Y202176D02*
Y205985D01*
X546535Y92485D02*
X552535D01*
X513685Y201410D02*
Y202176D01*
X546685Y196485D02*
Y198614D01*
X520985Y124685D02*
X524985D01*
X477285Y198614D02*
Y200529D01*
X491685Y196485D02*
Y198614D01*
X546685Y200529D02*
Y201410D01*
X504985Y126685D02*
Y133185D01*
X532285Y196485D02*
Y198614D01*
X526985Y126685D02*
Y133185D01*
X488285Y205985D02*
X491685D01*
X521285Y198614D02*
Y200529D01*
X498985Y124685D02*
X502985D01*
X513685Y196485D02*
Y198614D01*
X440485Y92485D02*
Y95685D01*
X439285D02*
X441485D01*
X476985Y130685D02*
X480985D01*
X444235Y171985D02*
Y177985D01*
X499285Y198614D02*
Y200529D01*
X452635Y120785D02*
X461135D01*
X466285Y201410D02*
Y202176D01*
X477285Y200529D02*
Y201410D01*
Y205985D02*
X480685D01*
X547885Y197485D02*
Y203485D01*
X465985Y132685D02*
X469985D01*
X543285Y201410D02*
Y202176D01*
X469685Y196485D02*
X477285D01*
X470335Y92485D02*
Y94685D01*
X532285Y202176D02*
Y205985D01*
X535685Y196485D02*
Y198614D01*
X469685Y196485D02*
Y198614D01*
X440485Y92485D02*
X442335D01*
X449135Y145785D02*
X451135D01*
X535685Y202176D02*
Y205985D01*
X450235Y171985D02*
Y177985D01*
X510285Y205985D02*
X513685D01*
X552535Y92485D02*
Y92685D01*
X450635Y98785D02*
X461135D01*
X531985Y124685D02*
X535985D01*
X488285Y201410D02*
Y202176D01*
X513685D02*
Y205985D01*
X480685Y196485D02*
Y198614D01*
X449135Y136785D02*
X451135D01*
X502685Y202176D02*
Y205985D01*
X480685Y201410D02*
Y202176D01*
X543285Y198614D02*
Y200529D01*
X507985Y126685D02*
Y130685D01*
X454135Y139785D02*
Y142785D01*
X470635Y92485D02*
X542335D01*
X461386Y196485D02*
X466285D01*
X487985Y124685D02*
X491985D01*
X502685Y196485D02*
Y198614D01*
X471985Y126685D02*
Y130685D01*
X524685Y198614D02*
Y200529D01*
X543285Y205985D02*
X546685D01*
X542335Y92485D02*
Y94685D01*
X466285Y196485D02*
Y198614D01*
X535685Y201410D02*
Y202176D01*
X474985Y124685D02*
Y128685D01*
X499285Y205985D02*
X502685D01*
X513685Y198614D02*
Y200529D01*
X446135Y139785D02*
Y142785D01*
X466285Y198614D02*
Y200529D01*
X557585Y92485D02*
Y95685D01*
X480685Y200529D02*
Y201410D01*
X442335Y92485D02*
Y95685D01*
X487985Y132685D02*
X491985D01*
X510285Y201410D02*
Y202176D01*
X542985Y132685D02*
X546985D01*
X446235Y179985D02*
X448235D01*
X463985Y126685D02*
Y130685D01*
X521285Y196485D02*
Y198614D01*
X499285Y200529D02*
Y201410D01*
X480685Y198614D02*
Y200529D01*
X496985Y126685D02*
Y133185D01*
X521285Y205985D02*
X524685D01*
X439285Y206485D02*
X441485D01*
X469685Y200529D02*
Y201410D01*
X509985Y124685D02*
X513985D01*
X524685Y202176D02*
Y205985D01*
X469685Y201410D02*
Y202176D01*
X477285Y196485D02*
Y198614D01*
X510285Y196485D02*
Y198614D01*
X488285Y200529D02*
Y201410D01*
X558785Y95685D02*
Y206485D01*
X552535Y92485D02*
X557585D01*
X537985Y126685D02*
Y130685D01*
X546685Y202176D02*
Y205985D01*
X491685Y201410D02*
Y202176D01*
X461285Y197485D02*
Y201485D01*
X532285Y201410D02*
Y202176D01*
X556585Y206485D02*
X558785D01*
X470635Y92485D02*
Y92725D01*
X535685Y196485D02*
X543285D01*
X509985Y132685D02*
X513985D01*
X521285Y201410D02*
Y202176D01*
X465985Y124685D02*
X469985D01*
X535685Y200529D02*
Y201410D01*
X532285Y205985D02*
X535685D01*
X442335Y92485D02*
X470335D01*
X524685Y201410D02*
Y202176D01*
X477285D02*
Y205985D01*
X446635Y102785D02*
Y114785D01*
X529985Y126685D02*
Y130685D01*
X548985Y126685D02*
Y130685D01*
X491685Y196485D02*
X499285D01*
X543335Y95685D02*
X543535D01*
X524685Y196485D02*
X532285D01*
X550885Y206485D02*
X556585D01*
X469685Y202176D02*
Y205985D01*
X446235Y169985D02*
X448235D01*
X488285Y196485D02*
Y198614D01*
X466285Y202176D02*
Y205985D01*
X491685Y200529D02*
Y201410D01*
X532285Y200529D02*
Y201410D01*
X469685Y198614D02*
Y200529D01*
X513685D02*
Y201410D01*
X546685D02*
Y202176D01*
X466285Y200529D02*
Y201410D01*
X510285Y200529D02*
Y201410D01*
X441485Y95685D02*
X442335D01*
X439285D02*
Y206485D01*
X502685Y198614D02*
Y200529D01*
X470335Y92725D02*
X470635D01*
X546685Y196485D02*
X547784D01*
X502685Y200529D02*
Y201410D01*
X546535Y92485D02*
Y92685D01*
X502685Y201410D02*
Y202176D01*
X515985Y126685D02*
Y130685D01*
X510285Y202176D02*
Y205985D01*
X482985Y124685D02*
Y128685D01*
X491685Y198614D02*
Y200529D01*
X532285Y198614D02*
Y200529D01*
X524685Y196485D02*
Y198614D01*
X480685Y196485D02*
X488285D01*
Y198614D02*
Y200529D01*
X531985Y132685D02*
X535985D01*
X466285Y205985D02*
X469685D01*
X524685Y200529D02*
Y201410D01*
X518732Y192485D02*
X542885D01*
X499285Y201410D02*
Y202176D01*
X546685Y198614D02*
Y200529D01*
X488285Y202176D02*
Y205985D01*
X556585Y95685D02*
X558785D01*
X485985Y126685D02*
Y130685D01*
X502685Y196485D02*
X510285D01*
X542335Y93685D02*
X546364D01*
X540985Y126685D02*
Y130685D01*
X510285Y198614D02*
Y200529D01*
X543285Y202176D02*
Y205985D01*
X499285Y196485D02*
Y198614D01*
X466285Y192485D02*
X489732D01*
X555535Y95685D02*
X556585D01*
X521285Y200529D02*
Y201410D01*
X520985Y135185D02*
X524985D01*
X102170Y149630D02*
X332170D01*
X102170Y279630D02*
X332170D01*
X102170Y149630D02*
Y279630D01*
X332170Y149630D02*
Y279630D01*
X256680Y392710D02*
X274180D01*
X256680Y402310D02*
X274180D01*
Y392710D02*
Y402310D01*
X256680Y392710D02*
Y402310D01*
X710320Y144090D02*
Y153090D01*
X727320Y144090D02*
Y153090D01*
X710320D02*
X727320D01*
X710320Y144090D02*
X727320D01*
X455510Y397970D02*
X466510D01*
X455510Y391970D02*
X466510D01*
X455510D02*
Y397970D01*
X466510Y391970D02*
Y397970D01*
X493630Y404243D02*
Y436242D01*
X443630Y404243D02*
Y436242D01*
Y404243D02*
X493630D01*
X443630Y436242D02*
X493630D01*
X754660Y210960D02*
Y228460D01*
X764260Y210960D02*
Y228460D01*
X754660Y210960D02*
X764260D01*
X754660Y228460D02*
X764260D01*
X234138Y369850D02*
Y379450D01*
X216638Y369850D02*
Y379450D01*
Y369850D02*
X234138D01*
X216638Y379450D02*
X234138D01*
X456350Y466900D02*
Y472900D01*
X445350Y466900D02*
Y472900D01*
Y466900D02*
X456350D01*
X445350Y472900D02*
X456350D01*
Y457897D02*
Y463898D01*
X445350Y457897D02*
Y463898D01*
Y457897D02*
X456350D01*
X445350Y463898D02*
X456350D01*
X455510Y441500D02*
Y447500D01*
X466510Y441500D02*
Y447500D01*
X455510D02*
X466510D01*
X455510Y441500D02*
X466510D01*
X720958Y236050D02*
Y246550D01*
X715458Y236050D02*
Y246550D01*
X720958D01*
X715458Y236050D02*
X720958D01*
X766870Y180170D02*
Y190670D01*
X772370Y180170D02*
Y190670D01*
X766870Y180170D02*
X772370D01*
X766870Y190670D02*
X772370D01*
X756868Y180170D02*
Y190670D01*
X762368Y180170D02*
Y190670D01*
X756868Y180170D02*
X762368D01*
X756868Y190670D02*
X762368D01*
X854790Y105950D02*
X864790D01*
X854790Y123951D02*
X864790D01*
Y105950D02*
Y123951D01*
X854790Y105950D02*
Y123951D01*
X780040D02*
X790040D01*
X780040Y105950D02*
X790040D01*
X780040D02*
Y123951D01*
X790040Y105950D02*
Y123951D01*
X832749D02*
X842749D01*
X832749Y105950D02*
X842749D01*
X832749D02*
Y123951D01*
X842749Y105950D02*
Y123951D01*
X943345Y203385D02*
X948845D01*
X943345Y213885D02*
X948845D01*
X943345Y203385D02*
Y213885D01*
X948845Y203385D02*
Y213885D01*
X927720Y203385D02*
X933220D01*
X927720Y213885D02*
X933220D01*
X927720Y203385D02*
Y213885D01*
X933220Y203385D02*
Y213885D01*
X912095Y203385D02*
X917595D01*
X912095Y213885D02*
X917595D01*
X912095Y203385D02*
Y213885D01*
X917595Y203385D02*
Y213885D01*
X755860Y111590D02*
Y122090D01*
X750360Y111590D02*
Y122090D01*
X755860D01*
X750360Y111590D02*
X755860D01*
X894355Y181149D02*
Y186648D01*
X904855Y181149D02*
Y186648D01*
X894355D02*
X904855D01*
X894355Y181149D02*
X904855D01*
X855810Y159125D02*
Y164625D01*
X866310Y159125D02*
Y164625D01*
X855810D02*
X866310D01*
X855810Y159125D02*
X866310D01*
Y180130D02*
Y185630D01*
X855810Y180130D02*
Y185630D01*
Y180130D02*
X866310D01*
X855810Y185630D02*
X866310D01*
X758420Y155887D02*
Y161388D01*
X747920Y155887D02*
Y161388D01*
Y155887D02*
X758420D01*
X747920Y161388D02*
X758420D01*
X973630Y136370D02*
X979630D01*
X973630Y125370D02*
X979630D01*
Y136370D01*
X973630Y125370D02*
Y136370D01*
X758420Y164890D02*
Y170390D01*
X747920Y164890D02*
Y170390D01*
Y164890D02*
X758420D01*
X747920Y170390D02*
X758420D01*
X813900Y653945D02*
X824400D01*
X813900Y659445D02*
X824400D01*
Y653945D02*
Y659445D01*
X813900Y653945D02*
Y659445D01*
X994240Y357080D02*
X1004740D01*
X994240Y351580D02*
X1004740D01*
X994240D02*
Y357080D01*
X1004740Y351580D02*
Y357080D01*
X792319Y265260D02*
Y275760D01*
X786819Y265260D02*
Y275760D01*
X792319D01*
X786819Y265260D02*
X792319D01*
X994240Y367240D02*
X1004740D01*
X994240Y361740D02*
X1004740D01*
X994240D02*
Y367240D01*
X1004740Y361740D02*
Y367240D01*
X815650Y633940D02*
X826150D01*
X815650Y628440D02*
X826150D01*
X815650D02*
Y633940D01*
X826150Y628440D02*
Y633940D01*
X908260Y634830D02*
Y645330D01*
X902760Y634830D02*
Y645330D01*
X908260D01*
X902760Y634830D02*
X908260D01*
X994240Y377400D02*
X1004740D01*
X994240Y371900D02*
X1004740D01*
X994240D02*
Y377400D01*
X1004740Y371900D02*
Y377400D01*
X571290Y105580D02*
X576790D01*
X571290Y95080D02*
X576790D01*
Y105580D01*
X571290Y95080D02*
Y105580D01*
X581450D02*
X586950D01*
X581450Y95080D02*
X586950D01*
Y105580D01*
X581450Y95080D02*
Y105580D01*
X591610D02*
X597110D01*
X591610Y95080D02*
X597110D01*
Y105580D01*
X591610Y95080D02*
Y105580D01*
X601770D02*
X607270D01*
X601770Y95080D02*
X607270D01*
Y105580D01*
X601770Y95080D02*
Y105580D01*
X401150Y139910D02*
X411650D01*
X401150Y134410D02*
X411650D01*
X401150D02*
Y139910D01*
X411650Y134410D02*
Y139910D01*
X401150Y129750D02*
X411650D01*
X401150Y124250D02*
X411650D01*
X401150D02*
Y129750D01*
X411650Y124250D02*
Y129750D01*
X291890Y111850D02*
X297390D01*
X291890Y101350D02*
X297390D01*
X291890D02*
Y111850D01*
X297390Y101350D02*
Y111850D01*
X253890Y379650D02*
X271890D01*
X253890Y369650D02*
X271890D01*
X253890D02*
Y379650D01*
X271890Y369650D02*
Y379650D01*
X351900Y391240D02*
Y401240D01*
X333900Y391240D02*
Y401240D01*
Y391240D02*
X351900D01*
X333900Y401240D02*
X351900D01*
X424010Y562243D02*
X434510D01*
X424010Y567742D02*
X434510D01*
Y562243D02*
Y567742D01*
X424010Y562243D02*
Y567742D01*
Y552240D02*
X434510D01*
X424010Y557740D02*
X434510D01*
Y552240D02*
Y557740D01*
X424010Y552240D02*
Y557740D01*
X387270Y562500D02*
Y580500D01*
X377270Y562500D02*
Y580500D01*
X387270D01*
X377270Y562500D02*
X387270D01*
X424010Y540810D02*
X434510D01*
X424010Y546310D02*
X434510D01*
Y540810D02*
Y546310D01*
X424010Y540810D02*
Y546310D01*
Y524300D02*
X434510D01*
X424010Y529800D02*
X434510D01*
Y524300D02*
Y529800D01*
X424010Y524300D02*
Y529800D01*
Y514140D02*
X434510D01*
X424010Y519640D02*
X434510D01*
Y514140D02*
Y519640D01*
X424010Y514140D02*
Y519640D01*
Y503980D02*
X434510D01*
X424010Y509480D02*
X434510D01*
Y503980D02*
Y509480D01*
X424010Y503980D02*
Y509480D01*
X718650Y263950D02*
Y269450D01*
X729150Y263950D02*
Y269450D01*
X718650D02*
X729150D01*
X718650Y263950D02*
X729150D01*
X645664Y571610D02*
X655664D01*
X645664Y553610D02*
X655664D01*
Y571610D01*
X645664Y553610D02*
Y571610D01*
X484402Y468420D02*
Y473920D01*
X494903Y468420D02*
Y473920D01*
X484402D02*
X494903D01*
X484402Y468420D02*
X494903D01*
X484402Y458260D02*
Y463760D01*
X494903Y458260D02*
Y463760D01*
X484402D02*
X494903D01*
X484402Y458260D02*
X494903D01*
X550080Y369037D02*
Y374537D01*
X539580Y369037D02*
Y374537D01*
Y369037D02*
X550080D01*
X539580Y374537D02*
X550080D01*
X476080Y441995D02*
Y447495D01*
X486580Y441995D02*
Y447495D01*
X476080D02*
X486580D01*
X476080Y441995D02*
X486580D01*
X476080Y392220D02*
Y397720D01*
X486580Y392220D02*
Y397720D01*
X476080D02*
X486580D01*
X476080Y392220D02*
X486580D01*
X371050Y331300D02*
Y341800D01*
X365550Y331300D02*
Y341800D01*
X371050D01*
X365550Y331300D02*
X371050D01*
X356547Y331360D02*
Y341860D01*
X362048Y331360D02*
Y341860D01*
X356547Y331360D02*
X362048D01*
X356547Y341860D02*
X362048D01*
X406610Y331300D02*
Y341800D01*
X401110Y331300D02*
Y341800D01*
X406610D01*
X401110Y331300D02*
X406610D01*
X392107D02*
Y341800D01*
X397607Y331300D02*
Y341800D01*
X392107Y331300D02*
X397607D01*
X392107Y341800D02*
X397607D01*
D169*
X902653Y154943D02*
G03*
X896557Y154943I-3048J0D01*
G01*
X884619Y174755D02*
X914591D01*
X884619Y154943D02*
Y174755D01*
Y154943D02*
X896557D01*
X902653D01*
X914591D01*
Y174755D01*
M02*
