G04*
G04 #@! TF.GenerationSoftware,Altium Limited,Altium Designer,21.1.1 (26)*
G04*
G04 Layer_Physical_Order=1*
G04 Layer_Color=255*
%FSLAX44Y44*%
%MOMM*%
G71*
G04*
G04 #@! TF.SameCoordinates,9AE9D992-6700-435F-BEFF-D62808151BB7*
G04*
G04*
G04 #@! TF.FilePolarity,Positive*
G04*
G01*
G75*
%ADD11C,0.2000*%
%ADD12C,0.2540*%
%ADD22R,0.5000X0.4500*%
%ADD23R,0.4500X0.4500*%
%ADD36R,0.5900X0.4500*%
%ADD37R,4.0000X1.2000*%
%ADD38R,0.8500X0.6000*%
%ADD39R,1.2000X0.3000*%
%ADD40R,0.3000X1.2000*%
%ADD41R,0.7000X0.6500*%
%ADD42R,1.0062X1.1051*%
%ADD43R,0.6153X0.5725*%
%ADD44R,0.4556X0.3612*%
%ADD45R,0.4500X0.6000*%
%ADD46R,0.9000X2.0000*%
%ADD47R,2.0000X0.9000*%
%ADD48R,1.3300X1.3300*%
G04:AMPARAMS|DCode=49|XSize=0.6mm|YSize=0.24mm|CornerRadius=0.12mm|HoleSize=0mm|Usage=FLASHONLY|Rotation=270.000|XOffset=0mm|YOffset=0mm|HoleType=Round|Shape=RoundedRectangle|*
%AMROUNDEDRECTD49*
21,1,0.6000,0.0000,0,0,270.0*
21,1,0.3600,0.2400,0,0,270.0*
1,1,0.2400,0.0000,-0.1800*
1,1,0.2400,0.0000,0.1800*
1,1,0.2400,0.0000,0.1800*
1,1,0.2400,0.0000,-0.1800*
%
%ADD49ROUNDEDRECTD49*%
%ADD50R,0.7581X0.8121*%
%ADD51R,0.6250X0.8250*%
%ADD52R,0.5000X0.5000*%
%ADD53R,1.3061X1.0582*%
%ADD54R,1.0000X0.5000*%
%ADD55R,0.4500X1.3800*%
%ADD56R,1.6500X1.3000*%
%ADD57R,1.0000X1.9000*%
%ADD58R,1.8000X1.9000*%
%ADD59R,1.4250X1.5500*%
%ADD70R,0.6000X0.4500*%
%ADD71R,0.8250X0.6250*%
%ADD72R,0.8121X0.7581*%
%ADD73R,0.3612X0.4556*%
%ADD74R,0.5725X0.6153*%
%ADD75R,0.4500X0.5000*%
%ADD78R,0.3500X0.3500*%
%ADD81R,0.6500X0.7000*%
%ADD101R,0.6000X0.7000*%
%ADD102C,1.4220*%
%ADD113R,0.7000X0.6000*%
%ADD120C,0.7000*%
%ADD123C,0.3500*%
%ADD124C,0.1500*%
%ADD125R,1.2000X0.6000*%
%ADD126R,3.4000X1.3000*%
%ADD127R,1.1000X1.0000*%
%ADD128R,0.7000X0.8500*%
%ADD129R,0.6500X0.6000*%
%ADD130R,0.6000X0.5500*%
%ADD131R,0.5500X0.5500*%
%ADD132R,0.6500X0.6500*%
%ADD133R,0.5000X0.5500*%
%ADD134R,0.8500X1.1000*%
%ADD135R,1.2000X1.0000*%
%ADD136R,0.7500X1.1000*%
%ADD137R,1.1700X1.8000*%
%ADD138R,1.5500X1.3500*%
%ADD139R,1.9000X1.3500*%
%ADD140R,0.8636X0.3048*%
%ADD141R,0.7874X1.1938*%
%ADD142R,1.0000X2.4500*%
%ADD143R,2.4500X1.0000*%
%ADD144R,1.2500X1.1000*%
%ADD145R,0.6500X1.0500*%
%ADD146R,0.5800X0.5400*%
G04:AMPARAMS|DCode=147|XSize=1.524mm|YSize=4mm|CornerRadius=0.381mm|HoleSize=0mm|Usage=FLASHONLY|Rotation=0.000|XOffset=0mm|YOffset=0mm|HoleType=Round|Shape=RoundedRectangle|*
%AMROUNDEDRECTD147*
21,1,1.5240,3.2380,0,0,0.0*
21,1,0.7620,4.0000,0,0,0.0*
1,1,0.7620,0.3810,-1.6190*
1,1,0.7620,-0.3810,-1.6190*
1,1,0.7620,-0.3810,1.6190*
1,1,0.7620,0.3810,1.6190*
%
%ADD147ROUNDEDRECTD147*%
%ADD148R,1.8000X1.2000*%
%ADD149R,1.1000X1.2500*%
%ADD150R,0.5500X0.6000*%
%ADD151R,0.6500X0.6500*%
%ADD152R,0.4500X0.4500*%
%ADD153R,1.0000X1.1000*%
%ADD154C,0.4000*%
%ADD155C,0.3810*%
%ADD156C,3.4000*%
%ADD157C,0.4000*%
G36*
X1018081Y661866D02*
X1023223Y660456D01*
X1028033Y658156D01*
X1032358Y655038D01*
X1036061Y651202D01*
X1039025Y646770D01*
X1041155Y641882D01*
X1042486Y636262D01*
X1042487Y636258D01*
X1042487Y636258D01*
X1042487Y636258D01*
X1042534Y636155D01*
X1042588Y636037D01*
X1042701Y635469D01*
X1042711Y635454D01*
Y119641D01*
X1042237Y114224D01*
X1040887Y109186D01*
X1038683Y104459D01*
X1035692Y100187D01*
X1032003Y96499D01*
X1027731Y93507D01*
X1023004Y91303D01*
X1017966Y89953D01*
X1012549Y89479D01*
X952563D01*
X951550Y90100D01*
X951550Y90749D01*
Y97100D01*
X932050D01*
Y90575D01*
X930902Y89805D01*
X930050Y90117D01*
Y97100D01*
X917050D01*
Y89479D01*
X907050D01*
Y97100D01*
X886050D01*
Y90117D01*
X885198Y89805D01*
X884050Y90575D01*
Y97100D01*
X864550D01*
Y90749D01*
X864550Y90100D01*
X863537Y89479D01*
X753436D01*
X752416Y90347D01*
X752411Y90701D01*
X752462Y90823D01*
Y91125D01*
X752420Y91227D01*
X752442Y91336D01*
X752425Y91420D01*
X752442Y91505D01*
X752420Y91613D01*
X752462Y91716D01*
Y91802D01*
X752495Y91881D01*
Y91992D01*
X752557Y92084D01*
X752574Y92169D01*
X752621Y92240D01*
X752643Y92349D01*
X752721Y92427D01*
X752754Y92507D01*
X752815Y92567D01*
X752858Y92670D01*
X752950Y92731D01*
X753117Y92982D01*
X753151Y93151D01*
X753314Y93396D01*
X753292Y93507D01*
X753335Y93612D01*
X753332Y94317D01*
X754280Y94964D01*
X755273Y95627D01*
X755936Y96620D01*
X756169Y97790D01*
Y108590D01*
X756860D01*
Y116590D01*
X756860Y116590D01*
Y117090D01*
X756860D01*
X756860Y117860D01*
Y119656D01*
X757265Y119927D01*
X757266Y119927D01*
X757266Y119927D01*
X757266Y119927D01*
X757470Y120131D01*
X767399D01*
Y117267D01*
X766899Y116204D01*
X766899Y115602D01*
Y110178D01*
X773430D01*
X779961D01*
X779961Y116204D01*
X779461Y117267D01*
Y120131D01*
X788305D01*
Y117267D01*
X787805Y116204D01*
X787805Y115602D01*
Y110178D01*
X794336D01*
X800867D01*
X800867Y116204D01*
X800367Y117267D01*
Y120131D01*
X809212D01*
Y117267D01*
X808711Y116204D01*
X808711Y115602D01*
Y110178D01*
X815242D01*
X821774D01*
X821774Y116204D01*
X821273Y117267D01*
Y120131D01*
X829299D01*
X830057Y119175D01*
X830057Y118861D01*
Y114885D01*
X835618D01*
X841179D01*
Y118791D01*
X841179Y118791D01*
X841451Y119174D01*
X842211Y119748D01*
X842279Y119718D01*
X842329Y119737D01*
X842380Y119719D01*
X859880Y120859D01*
X860222Y121028D01*
X860575Y121174D01*
X891667Y152266D01*
X891749Y152465D01*
X891901Y152617D01*
Y152832D01*
X891984Y153031D01*
X891901Y153230D01*
Y153434D01*
X891901Y153446D01*
X892223Y154705D01*
X892223D01*
X892223Y154705D01*
Y158514D01*
X892223Y159753D01*
X892223D01*
Y159785D01*
X892223Y159785D01*
X892223Y164832D01*
X892223Y166103D01*
Y169445D01*
X892723D01*
Y171469D01*
X886905D01*
Y172468D01*
X885905D01*
Y175492D01*
X881087D01*
Y172372D01*
X879914Y171886D01*
X877322Y174478D01*
Y185544D01*
X877701Y185797D01*
X878364Y186789D01*
X878597Y187960D01*
X878508Y188407D01*
X891952Y201851D01*
X910595D01*
Y199385D01*
X919095D01*
Y207885D01*
X912867D01*
X912166Y209155D01*
X912311Y209385D01*
X919095D01*
Y211320D01*
X926220D01*
Y209385D01*
X934720D01*
Y211320D01*
X941845D01*
Y209385D01*
X950345D01*
Y211320D01*
X960075D01*
Y209905D01*
X969743D01*
Y209550D01*
X970060Y208785D01*
X970825Y208468D01*
X993140D01*
X993905Y208785D01*
X994222Y209550D01*
Y215452D01*
X1040895Y262125D01*
X1041212Y262890D01*
Y264213D01*
X1041165Y264327D01*
X1041187Y264448D01*
X1041012Y264697D01*
X1040895Y264978D01*
X1040782Y265026D01*
X1040711Y265126D01*
X1040222Y265437D01*
X1039736Y266532D01*
Y342234D01*
X1040248Y342999D01*
X1040481Y344170D01*
X1040248Y345340D01*
X1039736Y346106D01*
Y376088D01*
X1039560Y376974D01*
X1039058Y377725D01*
X1034036Y382747D01*
X1033286Y383248D01*
X1032400Y383425D01*
X1028870D01*
Y385110D01*
X1024665D01*
Y594671D01*
X1031607Y601613D01*
X1032108Y602364D01*
X1032284Y603250D01*
Y628396D01*
X1032108Y629282D01*
X1031607Y630033D01*
X1024085Y637554D01*
X1023906Y638456D01*
X1023243Y639449D01*
X1022251Y640112D01*
X1021080Y640345D01*
X1019910Y640112D01*
X1018917Y639449D01*
X1018254Y638456D01*
X1018021Y637286D01*
X1018254Y636115D01*
X1018917Y635123D01*
X1019910Y634460D01*
X1020812Y634281D01*
X1027655Y627437D01*
Y604209D01*
X1020713Y597267D01*
X1020212Y596516D01*
X1020035Y595630D01*
Y413957D01*
X1018862Y413471D01*
X952250Y480083D01*
Y483310D01*
X949325D01*
Y484279D01*
X949149Y485165D01*
X948647Y485916D01*
X941303Y493260D01*
X941829Y494530D01*
X954450D01*
Y508530D01*
X912450D01*
Y494530D01*
X935768D01*
Y493208D01*
X935944Y492322D01*
X936445Y491571D01*
X943704Y484313D01*
X944350Y483310D01*
Y476810D01*
X948977D01*
X1018765Y407021D01*
Y387178D01*
X1018162Y387058D01*
X1017411Y386557D01*
X1016910Y385806D01*
X1016733Y384920D01*
Y381110D01*
X1016910Y380224D01*
X1017411Y379474D01*
X1018162Y378972D01*
X1018370Y378931D01*
Y377380D01*
X1018370Y377110D01*
Y376110D01*
X1018370Y375840D01*
Y373894D01*
X1013336D01*
X1013083Y374273D01*
X1012091Y374936D01*
X1010920Y375169D01*
X1009750Y374936D01*
X1008757Y374273D01*
X1008504Y373894D01*
X1006769D01*
X1006740Y373923D01*
Y377900D01*
X1000240D01*
Y371400D01*
X1004217D01*
X1004768Y370848D01*
X1005347Y370462D01*
X1006030Y370326D01*
X1008504D01*
X1008757Y369947D01*
X1009750Y369284D01*
X1010920Y369051D01*
X1012091Y369284D01*
X1013083Y369947D01*
X1013336Y370326D01*
X1018370D01*
Y368380D01*
X1018370Y368110D01*
Y367110D01*
X1018370Y366840D01*
Y364894D01*
X1013336D01*
X1013083Y365273D01*
X1012091Y365936D01*
X1010920Y366169D01*
X1009750Y365936D01*
X1008757Y365273D01*
X1008504Y364894D01*
X1006740D01*
Y367740D01*
X1000240D01*
Y361240D01*
X1006740D01*
Y361326D01*
X1008504D01*
X1008757Y360947D01*
X1009750Y360284D01*
X1010920Y360051D01*
X1012091Y360284D01*
X1013083Y360947D01*
X1013336Y361326D01*
X1018370D01*
Y359380D01*
X1018370Y359110D01*
Y358110D01*
X1018370Y357840D01*
Y356114D01*
X1013336D01*
X1013083Y356493D01*
X1012091Y357156D01*
X1010920Y357389D01*
X1009750Y357156D01*
X1008757Y356493D01*
X1008504Y356114D01*
X1006740D01*
Y357580D01*
X1000240D01*
Y351080D01*
X1006740D01*
Y352546D01*
X1008504D01*
X1008757Y352167D01*
X1009750Y351504D01*
X1010920Y351271D01*
X1012091Y351504D01*
X1013083Y352167D01*
X1013336Y352546D01*
X1018370D01*
Y350110D01*
X1028870D01*
Y357840D01*
X1028870Y358110D01*
Y359110D01*
X1028870Y359380D01*
Y366840D01*
X1028870Y367110D01*
Y368110D01*
X1028870Y368380D01*
Y375840D01*
X1028870Y376110D01*
Y377110D01*
X1028870Y377380D01*
Y378796D01*
X1031441D01*
X1035107Y375130D01*
Y346106D01*
X1034596Y345340D01*
X1034363Y344170D01*
X1034596Y342999D01*
X1035107Y342234D01*
Y285562D01*
X1031240D01*
X1031240Y285562D01*
X1030475Y285245D01*
X1030474Y285245D01*
X969832Y224602D01*
X917160D01*
Y281495D01*
X916983Y282381D01*
X916482Y283132D01*
X911973Y287641D01*
X911222Y288142D01*
X910336Y288319D01*
X816422D01*
Y290830D01*
X816105Y291595D01*
X815340Y291912D01*
X787400D01*
X786635Y291595D01*
X786635Y291595D01*
X769172Y274132D01*
X732547D01*
X731910Y275402D01*
X732218Y275816D01*
X745014D01*
X745900Y275992D01*
X746651Y276493D01*
X753001Y282843D01*
X753503Y283594D01*
X753679Y284480D01*
Y312928D01*
X753503Y313814D01*
X753001Y314565D01*
X751764Y315802D01*
X751013Y316304D01*
X750127Y316480D01*
X749352D01*
Y318242D01*
X741628D01*
Y315223D01*
X733056D01*
Y316186D01*
X732564D01*
Y324161D01*
X738310Y329907D01*
X738811Y330658D01*
X738988Y331543D01*
Y347300D01*
X739173D01*
Y361300D01*
X737746D01*
X737581Y362126D01*
X737079Y362877D01*
X735157Y364800D01*
Y367259D01*
X735663Y367576D01*
X736427Y367740D01*
X757145Y347021D01*
X757896Y346520D01*
X758782Y346343D01*
X778603D01*
X778736Y346211D01*
Y344836D01*
X778224Y344071D01*
X777991Y342900D01*
X778224Y341730D01*
X778887Y340737D01*
X779880Y340074D01*
X781050Y339841D01*
X782221Y340074D01*
X783213Y340737D01*
X783967D01*
X784959Y340074D01*
X786130Y339841D01*
X787300Y340074D01*
X788293Y340737D01*
X788956Y341730D01*
X789189Y342900D01*
X788956Y344071D01*
X788445Y344836D01*
Y349274D01*
X788268Y350160D01*
X787767Y350911D01*
X783303Y355374D01*
X782552Y355876D01*
X781666Y356052D01*
X761845D01*
X749771Y368127D01*
X750257Y369300D01*
X761173D01*
Y370016D01*
X873331D01*
X890278Y353068D01*
X890857Y352682D01*
X891540Y352546D01*
X936114D01*
X936367Y352167D01*
X937359Y351504D01*
X938530Y351271D01*
X939700Y351504D01*
X940693Y352167D01*
X941356Y353159D01*
X941589Y354330D01*
X941356Y355500D01*
X940693Y356493D01*
X939700Y357156D01*
X938530Y357389D01*
X937359Y357156D01*
X936367Y356493D01*
X936114Y356114D01*
X892279D01*
X886861Y361532D01*
X887347Y362706D01*
X908174D01*
X908427Y362327D01*
X909419Y361664D01*
X910590Y361431D01*
X911760Y361664D01*
X912753Y362327D01*
X913416Y363320D01*
X913649Y364490D01*
X913416Y365661D01*
X912753Y366653D01*
X911760Y367316D01*
X910590Y367549D01*
X909419Y367316D01*
X908427Y366653D01*
X908174Y366274D01*
X885655D01*
X876300Y375629D01*
X876926Y376799D01*
X877570Y376671D01*
X878740Y376904D01*
X879733Y377567D01*
X880396Y378559D01*
X880629Y379730D01*
X880396Y380900D01*
X879733Y381893D01*
X878740Y382556D01*
X877570Y382789D01*
X877123Y382700D01*
X876762Y383062D01*
X876183Y383449D01*
X875500Y383584D01*
X761173D01*
X761173Y389300D01*
X761173Y390868D01*
X762071Y391766D01*
X805517D01*
X806200Y391901D01*
X806779Y392288D01*
X823420Y408929D01*
X823807Y409508D01*
X823942Y410191D01*
Y505951D01*
X897189Y579198D01*
X897636Y579109D01*
X898807Y579342D01*
X899799Y580005D01*
X900462Y580998D01*
X900695Y582168D01*
X900462Y583339D01*
X899799Y584331D01*
X898807Y584994D01*
X897636Y585227D01*
X896466Y584994D01*
X895473Y584331D01*
X894810Y583339D01*
X894577Y582168D01*
X894666Y581721D01*
X822616Y509671D01*
X821442Y510157D01*
Y512087D01*
X896681Y587326D01*
X897128Y587237D01*
X898298Y587470D01*
X899291Y588133D01*
X899954Y589126D01*
X900187Y590296D01*
X899954Y591466D01*
X899291Y592459D01*
X898298Y593122D01*
X897128Y593355D01*
X895957Y593122D01*
X894965Y592459D01*
X894302Y591466D01*
X894069Y590296D01*
X894158Y589849D01*
X818396Y514088D01*
X818009Y513509D01*
X817874Y512826D01*
Y420119D01*
X816604Y419734D01*
X816261Y420247D01*
X815268Y420910D01*
X814098Y421143D01*
X813651Y421054D01*
X771644Y463062D01*
X771065Y463448D01*
X770382Y463584D01*
X762147D01*
X761173Y464300D01*
Y469300D01*
X761173Y474300D01*
X762147Y475016D01*
X763394D01*
X763647Y474637D01*
X764640Y473974D01*
X765810Y473741D01*
X766981Y473974D01*
X767973Y474637D01*
X768636Y475630D01*
X768825Y476581D01*
X769493Y476950D01*
X770105Y477097D01*
X782672Y464530D01*
X783251Y464143D01*
X783934Y464007D01*
X792850D01*
Y460731D01*
X802431D01*
Y470852D01*
X792850D01*
Y467576D01*
X784673D01*
X769187Y483062D01*
X768608Y483448D01*
X767925Y483584D01*
X762854D01*
X761673Y483800D01*
Y485800D01*
X746673D01*
Y483800D01*
X747173D01*
Y479300D01*
X747173Y474513D01*
X746171Y473987D01*
X746049Y473949D01*
X745243Y473788D01*
X744492Y473287D01*
X736427Y465221D01*
X735663Y465386D01*
X735157Y465703D01*
Y480423D01*
X743989Y489255D01*
X746673D01*
Y487800D01*
X761673D01*
Y489485D01*
X784448D01*
X785213Y488974D01*
X786384Y488741D01*
X787554Y488974D01*
X788320Y489485D01*
X793584D01*
X794470Y489662D01*
X795221Y490163D01*
X796137Y491079D01*
X797310Y490593D01*
Y483385D01*
X797361Y483127D01*
X797369Y482864D01*
X797449Y482689D01*
X797486Y482500D01*
X797604Y482324D01*
Y479794D01*
X803160D01*
Y479294D01*
X805938D01*
Y482600D01*
Y485906D01*
X803160D01*
Y485906D01*
X801939Y486024D01*
Y493978D01*
X803619D01*
Y493478D01*
X807196D01*
Y497840D01*
Y502202D01*
X803619D01*
Y501702D01*
X795548D01*
Y497036D01*
X792626Y494114D01*
X788320D01*
X787554Y494626D01*
X786384Y494859D01*
X785213Y494626D01*
X784448Y494114D01*
X761173D01*
Y494300D01*
X747173D01*
Y493884D01*
X743030D01*
X742144Y493708D01*
X741393Y493206D01*
X731206Y483019D01*
X730704Y482268D01*
X730528Y481382D01*
Y414252D01*
X729258Y413726D01*
X702740Y440243D01*
X702829Y440690D01*
X702596Y441861D01*
X701933Y442853D01*
X700940Y443516D01*
X699992Y443705D01*
X699621Y444378D01*
X699477Y444985D01*
X710435Y455943D01*
X710821Y456522D01*
X710957Y457205D01*
Y462814D01*
X712227Y463493D01*
X712570Y463264D01*
X713740Y463031D01*
X714911Y463264D01*
X715903Y463927D01*
X716566Y464920D01*
X716799Y466090D01*
X716566Y467261D01*
X715903Y468253D01*
X715524Y468506D01*
Y474422D01*
X737935Y496832D01*
X738322Y497411D01*
X738457Y498094D01*
Y502300D01*
X739173D01*
Y516300D01*
X734173D01*
X733457Y517273D01*
Y563294D01*
X761045Y590882D01*
X761492Y590793D01*
X762663Y591026D01*
X763655Y591689D01*
X764318Y592682D01*
X764551Y593852D01*
X764318Y595023D01*
X763655Y596015D01*
X762663Y596678D01*
X761492Y596911D01*
X760322Y596678D01*
X759329Y596015D01*
X758666Y595023D01*
X758433Y593852D01*
X758522Y593405D01*
X730411Y565295D01*
X730024Y564716D01*
X729889Y564033D01*
Y516300D01*
X725443D01*
X724173Y516300D01*
Y516300D01*
X724173D01*
Y516300D01*
X715443D01*
X714173Y516300D01*
X712903Y516300D01*
X705443D01*
X704173Y516300D01*
X702903Y516300D01*
X695443D01*
X694173Y516300D01*
X692903Y516300D01*
X685443D01*
X684173Y516300D01*
X682903Y516300D01*
X679173Y516300D01*
X677903Y516300D01*
X670443D01*
X669173Y516300D01*
X667903Y516300D01*
X660148Y516300D01*
X659622Y517570D01*
X666896Y524844D01*
X667283Y525423D01*
X667419Y526106D01*
Y604366D01*
X667283Y605048D01*
X666896Y605627D01*
X640002Y632521D01*
X640091Y632968D01*
X639858Y634138D01*
X639195Y635131D01*
X638203Y635794D01*
X637032Y636027D01*
X635862Y635794D01*
X634869Y635131D01*
X634206Y634138D01*
X633973Y632968D01*
X634206Y631797D01*
X634869Y630805D01*
X635862Y630142D01*
X637032Y629909D01*
X637479Y629998D01*
X663850Y603627D01*
Y579596D01*
X662677Y579110D01*
X656326Y585462D01*
X655747Y585849D01*
X655064Y585984D01*
X605485D01*
X604802Y585849D01*
X604223Y585462D01*
X564106Y545344D01*
X437510D01*
Y547310D01*
X435294D01*
Y551240D01*
X437510D01*
Y558740D01*
X435294D01*
Y561242D01*
X437510D01*
Y568742D01*
X434957D01*
X434772Y569020D01*
X423848Y579943D01*
X423937Y580390D01*
X423704Y581561D01*
X423041Y582553D01*
X422048Y583216D01*
X420878Y583449D01*
X419707Y583216D01*
X418715Y582553D01*
X418052Y581561D01*
X417819Y580390D01*
X418052Y579220D01*
X418715Y578227D01*
X419707Y577564D01*
X420878Y577331D01*
X421325Y577420D01*
X428732Y570013D01*
X428206Y568742D01*
X421010D01*
Y566777D01*
X408783D01*
X408100Y566641D01*
X407521Y566254D01*
X406787Y565520D01*
X406340Y565609D01*
X405169Y565376D01*
X404177Y564713D01*
X403514Y563721D01*
X403281Y562550D01*
X403514Y561380D01*
X404177Y560387D01*
X405169Y559724D01*
X406340Y559491D01*
X407511Y559724D01*
X408503Y560387D01*
X409166Y561380D01*
X409399Y562550D01*
X410563Y563208D01*
X421010D01*
Y561242D01*
X428240D01*
X429010Y561242D01*
X430280Y561242D01*
X431726D01*
Y559638D01*
X430828Y558740D01*
X429510Y558740D01*
X428240Y558740D01*
X421010D01*
Y556774D01*
X416360D01*
X415677Y556638D01*
X415098Y556252D01*
X369741Y510894D01*
X363830D01*
Y514610D01*
X341830D01*
Y503610D01*
X363830D01*
Y507326D01*
X370480D01*
X371163Y507462D01*
X371741Y507848D01*
X417099Y553206D01*
X421010D01*
Y551240D01*
X428240D01*
X429010Y551240D01*
X430280Y551240D01*
X431726D01*
Y548208D01*
X430828Y547310D01*
X429510Y547310D01*
X428240Y547310D01*
X421010D01*
Y545344D01*
X414020D01*
X413337Y545209D01*
X412758Y544822D01*
X400497Y532560D01*
X400050Y532649D01*
X398880Y532416D01*
X397887Y531753D01*
X397224Y530760D01*
X396991Y529590D01*
X397224Y528419D01*
X397887Y527427D01*
X398880Y526764D01*
X400050Y526531D01*
X401221Y526764D01*
X402213Y527427D01*
X402876Y528419D01*
X403109Y529590D01*
X403020Y530037D01*
X414759Y541776D01*
X421010D01*
Y539810D01*
X428240D01*
X429010Y539810D01*
X430280Y539810D01*
X437510D01*
Y541776D01*
X564845D01*
X565527Y541912D01*
X566106Y542298D01*
X606224Y582416D01*
X654325D01*
X661350Y575391D01*
Y569110D01*
X660080Y568324D01*
X659384Y568463D01*
X658934Y568373D01*
X658599Y568610D01*
X651664D01*
Y563110D01*
X656396D01*
X656552Y562880D01*
X655878Y561610D01*
X644164D01*
Y549610D01*
X648879D01*
Y544723D01*
X645411Y541255D01*
X645024Y540676D01*
X644889Y539993D01*
Y516300D01*
X639173Y516300D01*
X637903Y516300D01*
X630443D01*
X629173Y516300D01*
X627903Y516300D01*
X624673D01*
Y516800D01*
X622673D01*
Y509300D01*
Y501800D01*
X624673D01*
Y501800D01*
X625173Y502300D01*
X629173Y502300D01*
X630443Y502300D01*
X637903D01*
X639173Y502300D01*
X640443Y502300D01*
X647903D01*
X649173Y502300D01*
Y502300D01*
X649173D01*
Y502300D01*
X657903D01*
X659173Y502300D01*
X660443Y502300D01*
X667903D01*
X669173Y502300D01*
X669889Y501326D01*
Y461394D01*
X669510Y461141D01*
X668847Y460149D01*
X668614Y458978D01*
X668847Y457808D01*
X669510Y456815D01*
X670502Y456152D01*
X671673Y455919D01*
X672844Y456152D01*
X673836Y456815D01*
X674499Y457808D01*
X674732Y458978D01*
X674499Y460149D01*
X673836Y461141D01*
X673457Y461394D01*
Y502300D01*
X679173Y502300D01*
X680443Y502300D01*
X684173Y502300D01*
X685443Y502300D01*
X692903D01*
X694173Y502300D01*
X695443Y502300D01*
X699889D01*
Y469547D01*
X665081Y434739D01*
X654597Y424255D01*
X654575Y424222D01*
X653548Y423797D01*
X652467Y424255D01*
X651569Y425153D01*
X649592Y427130D01*
X649638Y427176D01*
X647971Y428290D01*
X646004Y428681D01*
X644038Y428290D01*
X642371Y427176D01*
X642371Y427176D01*
X642371Y427176D01*
X642371Y427176D01*
X641257Y425508D01*
X640865Y423542D01*
X641257Y421576D01*
X642371Y419908D01*
X642416Y419954D01*
X645291Y417079D01*
X645324Y417057D01*
X645756Y416014D01*
X645324Y414971D01*
X645291Y414949D01*
X637785Y407443D01*
X637398Y406864D01*
X637262Y406181D01*
Y399025D01*
X632266Y394030D01*
X632244Y393997D01*
X631202Y393565D01*
X630159Y393997D01*
X630137Y394030D01*
X627398Y396768D01*
X627444Y396814D01*
X625777Y397928D01*
X623810Y398319D01*
X621844Y397928D01*
X620177Y396814D01*
X620177Y396814D01*
X620177Y396814D01*
X619063Y395147D01*
X618672Y393180D01*
X619063Y391214D01*
X620177Y389547D01*
X620177Y389547D01*
X621120Y388694D01*
X624375Y385440D01*
X624375Y385440D01*
X624407Y385418D01*
X624808Y384451D01*
X624300Y383256D01*
X623310Y382846D01*
X622267Y383278D01*
X622245Y383310D01*
X615164Y390392D01*
X615209Y390437D01*
X613542Y391551D01*
X611576Y391942D01*
X609609Y391551D01*
X607942Y390438D01*
Y390438D01*
X607443Y389690D01*
X606173Y390076D01*
Y393800D01*
X606673D01*
Y395800D01*
X591673D01*
Y393800D01*
X590492Y393584D01*
X582300D01*
X581617Y393448D01*
X581038Y393062D01*
X561548Y373571D01*
X553080D01*
Y375537D01*
X550864D01*
Y381040D01*
X551136D01*
Y386652D01*
X551136D01*
X550476Y387382D01*
X551275Y395405D01*
X553330D01*
Y402405D01*
X546330D01*
Y395405D01*
X546742D01*
X547595Y394463D01*
X546850Y386987D01*
X545580Y387050D01*
Y387152D01*
X542802D01*
Y383846D01*
X540802D01*
Y387152D01*
X538024D01*
X536984Y387709D01*
Y394905D01*
X538830D01*
Y398904D01*
Y402905D01*
X536984D01*
Y409251D01*
X538447Y410714D01*
X540802D01*
Y414020D01*
X542802D01*
Y410714D01*
X545580D01*
Y411214D01*
X551136D01*
Y411706D01*
X558556D01*
X570098Y400163D01*
X570849Y399662D01*
X571735Y399486D01*
X591673D01*
Y397800D01*
X606673D01*
Y399800D01*
X606173D01*
Y409300D01*
X606173D01*
Y409300D01*
X606173D01*
X606173Y414300D01*
X606579Y414599D01*
X607945Y414637D01*
X608937Y413974D01*
X610108Y413741D01*
X611278Y413974D01*
X612271Y414637D01*
X612934Y415630D01*
X613167Y416800D01*
X612934Y417971D01*
X612271Y418963D01*
X611278Y419626D01*
X610108Y419859D01*
X608937Y419626D01*
X607945Y418963D01*
X607692Y418585D01*
X606173D01*
X606173Y424300D01*
X606579Y424599D01*
X607945Y424637D01*
X608937Y423974D01*
X610108Y423741D01*
X611278Y423974D01*
X612271Y424637D01*
X612934Y425630D01*
X613167Y426800D01*
X612934Y427971D01*
X612271Y428963D01*
X611278Y429626D01*
X610108Y429859D01*
X608937Y429626D01*
X607945Y428963D01*
X607692Y428585D01*
X606173D01*
Y434300D01*
X606173Y439300D01*
X607366Y439486D01*
X610964D01*
X611850Y439662D01*
X612601Y440163D01*
X617841Y445403D01*
X618342Y446154D01*
X618518Y447040D01*
Y460196D01*
Y470100D01*
X618811Y470538D01*
X618987Y471424D01*
Y482382D01*
X619030Y482445D01*
X619263Y483616D01*
X619030Y484786D01*
X618987Y484850D01*
Y501800D01*
X620673D01*
Y509300D01*
Y516800D01*
X618987D01*
Y528084D01*
X620127Y529223D01*
X620628Y529974D01*
X620804Y530860D01*
Y556304D01*
X621296D01*
Y557267D01*
X629799D01*
Y556304D01*
X635411D01*
Y561860D01*
X635911D01*
Y564638D01*
X632605D01*
X629299D01*
Y561896D01*
X621796D01*
Y564638D01*
X618490D01*
X615184D01*
Y561860D01*
X615684D01*
Y556304D01*
X616175D01*
Y531819D01*
X615036Y530680D01*
X614535Y529929D01*
X614358Y529043D01*
Y516300D01*
X614173D01*
Y502300D01*
X614358D01*
Y485991D01*
X614041Y485779D01*
X613378Y484786D01*
X613145Y483616D01*
X613378Y482445D01*
X613890Y481680D01*
Y471914D01*
X610743Y468767D01*
X610486Y468938D01*
X610485Y468938D01*
X610485Y468939D01*
X610040Y469027D01*
X609600Y469115D01*
X607071D01*
X606173Y470013D01*
X606173Y474300D01*
X606173Y475570D01*
Y479300D01*
X606173Y484300D01*
X606173Y485570D01*
Y494300D01*
X592173D01*
Y489300D01*
X592173Y484300D01*
X592173Y483030D01*
Y479300D01*
X592173Y474300D01*
X592173Y473030D01*
Y465570D01*
X592173Y464300D01*
X592173D01*
Y464300D01*
X592173D01*
Y458585D01*
X550774D01*
X536927Y472432D01*
X536348Y472818D01*
X535666Y472954D01*
X497902D01*
Y474920D01*
X490673D01*
X489902Y474920D01*
X488633Y474920D01*
X481403D01*
Y472954D01*
X475900D01*
Y475090D01*
X463900D01*
Y471684D01*
X458650D01*
Y473600D01*
X451350D01*
Y474100D01*
X447950D01*
Y469900D01*
X446950D01*
Y468900D01*
X442550D01*
Y466367D01*
X442550Y465700D01*
X442550Y464430D01*
Y461897D01*
X446950D01*
Y460897D01*
X447950D01*
Y456697D01*
X451350D01*
Y457197D01*
X458650D01*
Y459113D01*
X461394D01*
X461651Y458941D01*
X462333Y458806D01*
X463900D01*
Y457090D01*
X475900D01*
Y459226D01*
X481403D01*
Y457260D01*
X488633D01*
X489403Y457260D01*
X490673Y457260D01*
X497902D01*
Y459226D01*
X541551D01*
X548648Y452128D01*
X549227Y451741D01*
X549910Y451606D01*
X592173D01*
Y449800D01*
X591673D01*
Y447800D01*
X599173D01*
Y445800D01*
X591673D01*
Y444114D01*
X562459D01*
X560437Y446137D01*
X559686Y446638D01*
X558800Y446814D01*
X551136D01*
Y447306D01*
X545580D01*
Y447806D01*
X542802D01*
Y444500D01*
Y441194D01*
X544617D01*
X545511Y440292D01*
X545441Y431112D01*
X535573Y421245D01*
X535072Y420494D01*
X534896Y419608D01*
Y417062D01*
X533625Y416677D01*
X533277Y417199D01*
X532285Y417862D01*
X531114Y418095D01*
X529944Y417862D01*
X528951Y417199D01*
X528288Y416207D01*
X528055Y415036D01*
X528144Y414589D01*
X510309Y396754D01*
X489580D01*
Y398720D01*
X482350D01*
X481580Y398720D01*
X480310Y398720D01*
X478922D01*
X478302Y399599D01*
X478850Y400742D01*
X479202Y400742D01*
X487630D01*
Y407243D01*
X478130D01*
Y401903D01*
X478130Y401219D01*
X476895Y400659D01*
X468049Y409504D01*
X467470Y409891D01*
X466787Y410027D01*
X458630D01*
Y415243D01*
X438630D01*
Y401242D01*
X458630D01*
Y406458D01*
X466048D01*
X469211Y403296D01*
Y399774D01*
X468810Y398670D01*
X461510D01*
Y399170D01*
X458110D01*
Y394970D01*
Y390770D01*
X461510D01*
Y391270D01*
X468810D01*
Y393186D01*
X469725D01*
X470408Y393321D01*
X470987Y393708D01*
X471810Y394532D01*
X473080Y394005D01*
Y391220D01*
X480310D01*
X481080Y391220D01*
X482350Y391220D01*
X489580D01*
Y393186D01*
X511048D01*
X511731Y393321D01*
X512310Y393708D01*
X530494Y411893D01*
X531704Y411873D01*
X532484Y410856D01*
X532355Y410210D01*
Y365111D01*
X532409Y364840D01*
X532421Y364565D01*
X532915Y362533D01*
X532130Y361535D01*
X529539D01*
Y348952D01*
X544599D01*
Y348952D01*
X545061D01*
Y348952D01*
X550806D01*
Y339143D01*
X546330D01*
Y332143D01*
X546742D01*
X547595Y331202D01*
X546850Y323726D01*
X545580Y323789D01*
Y323891D01*
X542802D01*
Y320585D01*
Y317278D01*
X545580D01*
Y317778D01*
X551136D01*
Y323391D01*
X551136D01*
X550476Y324121D01*
X550766Y327041D01*
X552049Y327104D01*
X552135Y326674D01*
X553248Y325006D01*
X554916Y323893D01*
X556882Y323501D01*
Y323566D01*
X559574D01*
X559613Y323573D01*
X560656Y323142D01*
X561087Y322099D01*
X561080Y322060D01*
Y317122D01*
X560701Y316869D01*
X560038Y315877D01*
X559805Y314706D01*
X560038Y313535D01*
X560701Y312543D01*
X561693Y311880D01*
X562864Y311647D01*
X564035Y311880D01*
X565027Y312543D01*
X565690Y313535D01*
X565923Y314706D01*
X565690Y315877D01*
X565027Y316869D01*
X564648Y317122D01*
Y322060D01*
X564713D01*
X564322Y324027D01*
X563208Y325694D01*
X561540Y326808D01*
X559574Y327199D01*
Y327134D01*
X556882D01*
X556843Y327127D01*
X555876Y327527D01*
X555391Y328732D01*
X555801Y329722D01*
X556843Y330154D01*
X556882Y330146D01*
X571327D01*
Y330081D01*
X573294Y330473D01*
X573945Y330908D01*
X573945Y330908D01*
X574961Y331586D01*
X574916Y331632D01*
X582382Y339098D01*
X588262Y344979D01*
X588308Y344933D01*
X589422Y346600D01*
X589813Y348567D01*
X589422Y350533D01*
X588308Y352200D01*
X588262Y352155D01*
X574954Y365462D01*
X574954Y365463D01*
X574954Y365463D01*
X574528Y366468D01*
X574991Y367556D01*
X576095Y368025D01*
X577062Y367625D01*
X577084Y367592D01*
X598605Y346071D01*
X598560Y346025D01*
X600227Y344911D01*
X602193Y344520D01*
X604160Y344911D01*
X605827Y346025D01*
X605827Y346025D01*
X605827Y346025D01*
X606292Y346252D01*
X607562Y345537D01*
Y337797D01*
X587695Y317930D01*
X587248Y318019D01*
X586077Y317786D01*
X585085Y317123D01*
X584422Y316131D01*
X584189Y314960D01*
X584422Y313790D01*
X585085Y312797D01*
X586077Y312134D01*
X587248Y311901D01*
X588419Y312134D01*
X589411Y312797D01*
X590074Y313790D01*
X590307Y314960D01*
X590218Y315407D01*
X610368Y335557D01*
X611305Y335308D01*
X611638Y335074D01*
Y300783D01*
X611774Y300100D01*
X612161Y299522D01*
X616896Y294787D01*
Y117605D01*
X616872Y117586D01*
X615626Y117148D01*
X557960Y174813D01*
X558049Y175260D01*
X557816Y176430D01*
X557153Y177423D01*
X556161Y178086D01*
X554990Y178319D01*
X554543Y178230D01*
X546269Y186504D01*
Y196587D01*
X547167Y197485D01*
X549235Y197485D01*
X549235Y196215D01*
Y189985D01*
X555585D01*
Y200485D01*
Y210985D01*
X550298D01*
X549235Y210985D01*
X548172Y210485D01*
X539735D01*
Y210485D01*
X539235D01*
Y210485D01*
X529798D01*
X528735Y210985D01*
X527672Y210985D01*
X523985D01*
Y203985D01*
Y196985D01*
X527672D01*
X528735Y196985D01*
X529798Y197485D01*
X532201D01*
Y180841D01*
X531822Y180588D01*
X531159Y179595D01*
X530926Y178425D01*
X531159Y177254D01*
X531822Y176262D01*
X532815Y175599D01*
X533985Y175366D01*
X535156Y175599D01*
X536148Y176262D01*
X536811Y177254D01*
X537044Y178425D01*
X536811Y179595D01*
X537255Y180440D01*
X537570Y180745D01*
X538151Y180686D01*
X602736Y116101D01*
Y107580D01*
X601270D01*
Y102114D01*
X597610D01*
Y107580D01*
X596144D01*
Y116840D01*
X596008Y117523D01*
X595622Y118102D01*
X566452Y147271D01*
X565873Y147658D01*
X565190Y147794D01*
X506960D01*
X491769Y162985D01*
Y176009D01*
X492148Y176262D01*
X492811Y177254D01*
X493044Y178425D01*
X492811Y179595D01*
X492148Y180588D01*
X491769Y180841D01*
Y197485D01*
X495235D01*
Y197485D01*
X495735D01*
Y197485D01*
X505465D01*
X506235Y197485D01*
X507505Y197485D01*
X510201D01*
Y180841D01*
X509822Y180588D01*
X509159Y179595D01*
X508927Y178425D01*
X509159Y177254D01*
X509822Y176262D01*
X510815Y175599D01*
X511985Y175366D01*
X513156Y175599D01*
X514148Y176262D01*
X514811Y177254D01*
X515044Y178425D01*
X514811Y179595D01*
X514148Y180588D01*
X513769Y180841D01*
Y197485D01*
X517235D01*
Y196985D01*
X521985D01*
Y203985D01*
Y210985D01*
X517235D01*
Y210485D01*
X507505D01*
X506735Y210485D01*
X505465Y210485D01*
X501037D01*
X498130Y213392D01*
X497379Y213894D01*
X496493Y214070D01*
X461464D01*
X460578Y213894D01*
X459828Y213392D01*
X459326Y212641D01*
X459150Y211756D01*
Y185956D01*
X407476D01*
X407444Y185950D01*
X406175Y186914D01*
Y328930D01*
Y329300D01*
X407110D01*
Y335530D01*
X407110Y336300D01*
X407110Y337570D01*
Y343800D01*
X405644D01*
Y372530D01*
X407860D01*
Y381530D01*
X399860D01*
Y372530D01*
X402076D01*
Y343800D01*
X400610D01*
Y337570D01*
X400610Y336800D01*
X400610Y335530D01*
Y329720D01*
X398107D01*
Y335530D01*
X398107Y336300D01*
X398107D01*
Y336800D01*
X398107D01*
Y343800D01*
X396144D01*
Y352530D01*
X398360D01*
Y361530D01*
X390360D01*
Y352530D01*
X392576D01*
Y343800D01*
X391607D01*
Y340483D01*
X390434Y339996D01*
X387864Y342566D01*
Y375920D01*
X387729Y376603D01*
X387342Y377182D01*
X373894Y390629D01*
Y411604D01*
X374273Y411857D01*
X374936Y412850D01*
X375169Y414020D01*
X374936Y415191D01*
X374273Y416183D01*
X373280Y416846D01*
X372110Y417079D01*
X370939Y416846D01*
X369947Y416183D01*
X369668Y415765D01*
X368202D01*
X367923Y416183D01*
X366931Y416846D01*
X365760Y417079D01*
X364590Y416846D01*
X363597Y416183D01*
X362934Y415191D01*
X362701Y414020D01*
X362934Y412850D01*
X363597Y411857D01*
X363976Y411604D01*
Y389359D01*
X351888Y377271D01*
X350509Y377689D01*
X350463Y377924D01*
X359015Y386475D01*
X359516Y387226D01*
X359692Y388112D01*
Y403956D01*
X360204Y404721D01*
X360437Y405892D01*
X360204Y407062D01*
X359541Y408055D01*
X358549Y408718D01*
X357378Y408951D01*
X356208Y408718D01*
X355215Y408055D01*
X354552Y407062D01*
X354319Y405892D01*
X354552Y404721D01*
X355027Y404010D01*
X354771Y402740D01*
X346423D01*
X325634Y423529D01*
Y432160D01*
X335630D01*
Y454160D01*
X325634D01*
Y522501D01*
X340657Y537523D01*
X341830Y537037D01*
Y529010D01*
X363830D01*
Y539177D01*
X373391Y539236D01*
X373727Y539305D01*
X374063Y539371D01*
X374067Y539375D01*
X374073Y539376D01*
X374356Y539567D01*
X374642Y539758D01*
X399382Y564498D01*
X399769Y565077D01*
X399904Y565760D01*
Y593830D01*
X402120D01*
Y600307D01*
X405819Y604006D01*
X426844D01*
X427097Y603627D01*
X428089Y602964D01*
X429260Y602731D01*
X430430Y602964D01*
X431423Y603627D01*
X432086Y604619D01*
X432319Y605790D01*
X432086Y606960D01*
X431423Y607953D01*
X430430Y608616D01*
X429260Y608849D01*
X428089Y608616D01*
X427097Y607953D01*
X426844Y607574D01*
X425663D01*
X425322Y608230D01*
X425164Y608844D01*
X425736Y609700D01*
X425969Y610870D01*
X425736Y612040D01*
X425073Y613033D01*
X424081Y613696D01*
X422910Y613929D01*
X421740Y613696D01*
X420747Y613033D01*
X420494Y612654D01*
X398780D01*
X398097Y612519D01*
X397518Y612132D01*
X391168Y605782D01*
X390782Y605203D01*
X390646Y604520D01*
Y575653D01*
X390035Y575171D01*
X388770Y575738D01*
Y584500D01*
X380904D01*
Y593830D01*
X383120D01*
Y602830D01*
X375120D01*
Y593830D01*
X377336D01*
Y584500D01*
X375770D01*
Y572500D01*
X386004D01*
X386477Y571391D01*
X385742Y570500D01*
X375770D01*
Y561023D01*
X370245Y555498D01*
X364731Y555454D01*
X363830Y556348D01*
Y565410D01*
X341830D01*
Y555444D01*
X341570D01*
X340887Y555308D01*
X340308Y554922D01*
X333539Y548152D01*
X333152Y547573D01*
X333016Y546890D01*
Y541121D01*
X309918Y518024D01*
X309531Y517445D01*
X309396Y516762D01*
Y454160D01*
X299230D01*
Y432160D01*
X309450D01*
X309531Y431752D01*
X309918Y431173D01*
X314286Y426806D01*
Y418408D01*
X311570D01*
Y410408D01*
X320570D01*
Y418408D01*
X317854D01*
Y427545D01*
X317718Y428228D01*
X317332Y428807D01*
X315152Y430987D01*
X315638Y432160D01*
X322066D01*
Y422790D01*
X322201Y422107D01*
X322588Y421528D01*
X340204Y403913D01*
X339717Y402740D01*
X329900D01*
Y397192D01*
X320570D01*
Y399407D01*
X311570D01*
Y391407D01*
X320570D01*
Y393623D01*
X329900D01*
Y389740D01*
X341900D01*
Y400471D01*
X343010Y400945D01*
X343900Y400210D01*
Y389740D01*
X353937D01*
X354463Y388470D01*
X345835Y379843D01*
X345334Y379092D01*
X345158Y378206D01*
Y333248D01*
X345334Y332362D01*
X345835Y331611D01*
X351169Y326277D01*
X351920Y325776D01*
X352806Y325600D01*
X367030D01*
X367188Y325631D01*
X367349Y325622D01*
X367627Y325718D01*
X367916Y325776D01*
X368050Y325865D01*
X368202Y325918D01*
X368422Y326114D01*
X368667Y326277D01*
X368756Y326412D01*
X368877Y326519D01*
X369005Y326784D01*
X369168Y327028D01*
X369200Y327187D01*
X369270Y327332D01*
X369782Y329300D01*
X371550D01*
X371550Y329300D01*
Y329300D01*
X372509Y328620D01*
X375359Y325769D01*
X376110Y325268D01*
X376996Y325092D01*
X401545D01*
Y180026D01*
Y161715D01*
X400372Y161229D01*
X388115Y173485D01*
X387350Y173802D01*
X343804D01*
X343373Y174968D01*
X343370Y174984D01*
Y185630D01*
X316870D01*
Y174984D01*
X316867Y174968D01*
X316436Y173802D01*
X257810D01*
X257045Y173485D01*
X256728Y172720D01*
Y166344D01*
X256787Y166200D01*
X256500Y165501D01*
X256068Y164961D01*
X256022Y164930D01*
X245170D01*
Y138430D01*
X256022D01*
X256068Y138399D01*
X256501Y137859D01*
X256787Y137160D01*
X256728Y137016D01*
Y113030D01*
X257045Y112265D01*
X257810Y111948D01*
X283210D01*
X283210Y111948D01*
X283975Y112265D01*
X301930Y130219D01*
X302013Y130418D01*
X302165Y130570D01*
Y130786D01*
X302247Y130985D01*
X302467Y131538D01*
X303080Y132255D01*
X319202D01*
X320088Y132431D01*
X320520Y132300D01*
X320782Y131666D01*
X320934Y131514D01*
X321017Y131315D01*
X321216Y131232D01*
X321368Y131080D01*
X321583D01*
X321782Y130998D01*
X390700D01*
X390705Y131000D01*
X390874Y130909D01*
X391537Y129917D01*
X392529Y129254D01*
X393700Y129021D01*
X394147Y129110D01*
X397518Y125738D01*
X398097Y125351D01*
X398780Y125216D01*
X399150D01*
Y123750D01*
X405380D01*
X406150Y123750D01*
X407468Y123750D01*
X408366Y122852D01*
Y117737D01*
X407150Y117606D01*
Y117606D01*
X404372D01*
Y114300D01*
Y110994D01*
X407150D01*
Y111494D01*
X412706D01*
Y117106D01*
X411934D01*
Y123750D01*
X413650D01*
Y130250D01*
X411934D01*
Y133910D01*
X413650D01*
Y135376D01*
X425450D01*
X426133Y135512D01*
X426712Y135898D01*
X431514Y140701D01*
X434635D01*
Y136485D01*
X448635D01*
Y148485D01*
X434635D01*
Y144269D01*
X430775D01*
X430092Y144133D01*
X429513Y143747D01*
X424711Y138944D01*
X413650D01*
Y140410D01*
X406650Y140410D01*
X406175Y141483D01*
Y179067D01*
X408435Y181327D01*
X458273D01*
X459203Y180397D01*
Y116332D01*
X459380Y115446D01*
X459881Y114695D01*
X465723Y108853D01*
X466474Y108352D01*
X467360Y108175D01*
X500568D01*
Y89518D01*
X500542Y89479D01*
X487135D01*
Y103485D01*
X466135D01*
Y89479D01*
X208092D01*
Y118110D01*
X207775Y118875D01*
X207010Y119192D01*
X200472D01*
Y348799D01*
X201581Y353415D01*
X202038Y359222D01*
X201581Y365030D01*
X200221Y370695D01*
X197991Y376077D01*
X194947Y381044D01*
X191164Y385474D01*
X186734Y389257D01*
X181767Y392301D01*
X176385Y394531D01*
X170720Y395891D01*
X164912Y396348D01*
X164892Y396366D01*
Y437077D01*
X165832D01*
X166597Y437394D01*
X166915Y438160D01*
Y618160D01*
X166597Y618925D01*
X165832Y619242D01*
X164892D01*
Y632460D01*
X164575Y633225D01*
X163810Y633542D01*
X126384D01*
X125968Y634675D01*
X126007Y634812D01*
X126079Y634854D01*
X128714Y637206D01*
X128732Y637230D01*
X128951Y637376D01*
X129256Y637832D01*
X129421Y637983D01*
X129425Y637988D01*
X129425Y637989D01*
X129426Y637990D01*
X131399Y640673D01*
X131415Y640695D01*
X131415Y640695D01*
X131510Y640825D01*
X131511Y640825D01*
X131514Y640829D01*
X132054Y641734D01*
X132054Y641734D01*
X132049Y641745D01*
X133505Y644954D01*
X133513Y644951D01*
X133608Y645093D01*
X133685Y645483D01*
X133837Y645952D01*
X133874Y646116D01*
X133874Y646116D01*
X133874Y646116D01*
X133874Y646117D01*
X133874Y646117D01*
X134567Y649251D01*
X134600Y649401D01*
X134759Y650493D01*
X134732Y651752D01*
X134753Y653934D01*
X134779Y653960D01*
X134792Y654026D01*
X134752Y654231D01*
X134654Y655024D01*
X134622Y655181D01*
X133990Y658322D01*
X133956Y658487D01*
X133760Y659173D01*
X133707Y659440D01*
X133666Y659501D01*
X133140Y660657D01*
X132915Y661180D01*
X133789Y662361D01*
X823514D01*
X824193Y661091D01*
X824096Y660945D01*
X819900D01*
Y656631D01*
X819670Y656477D01*
X818400Y657156D01*
Y660945D01*
X809900D01*
Y652445D01*
X812366D01*
Y647193D01*
X811150D01*
Y639193D01*
X809922Y639092D01*
X801782D01*
X801016Y639604D01*
X799846Y639837D01*
X798676Y639604D01*
X797683Y638941D01*
X797020Y637948D01*
X796787Y636778D01*
X797020Y635607D01*
X797683Y634615D01*
X798676Y633952D01*
X799846Y633719D01*
X801016Y633952D01*
X801782Y634464D01*
X807727D01*
X808063Y633866D01*
X808245Y633194D01*
X807688Y632360D01*
X807455Y631190D01*
X807688Y630019D01*
X808351Y629027D01*
X809343Y628364D01*
X810514Y628131D01*
X811684Y628364D01*
X812380Y628829D01*
X813400Y628461D01*
X813650Y628266D01*
Y627940D01*
X819880D01*
X820650Y627940D01*
X821968Y627940D01*
X822866Y627042D01*
Y624010D01*
X819150D01*
Y624510D01*
X815150D01*
Y619760D01*
Y615010D01*
X819150D01*
Y615510D01*
X828150D01*
Y624010D01*
X826434D01*
Y627940D01*
X828150D01*
Y634440D01*
X825684D01*
Y639193D01*
X827150D01*
Y644669D01*
X838826Y656346D01*
X988321D01*
X995250Y649417D01*
X995161Y648970D01*
X995394Y647800D01*
X996057Y646807D01*
X997049Y646144D01*
X998220Y645911D01*
X999390Y646144D01*
X1000383Y646807D01*
X1001046Y647800D01*
X1001279Y648970D01*
X1001046Y650141D01*
X1000383Y651133D01*
X999390Y651796D01*
X998220Y652029D01*
X997773Y651940D01*
X993444Y656270D01*
X994069Y657440D01*
X994467Y657361D01*
X995637Y657594D01*
X996630Y658257D01*
X997293Y659249D01*
X997526Y660420D01*
X997392Y661091D01*
X998189Y662361D01*
X1012544D01*
X1018081Y661866D01*
D02*
G37*
G36*
X387163Y557326D02*
X372636Y542800D01*
X364731Y542752D01*
X363830Y543647D01*
Y551878D01*
X371005Y551936D01*
X371339Y552005D01*
X371673Y552071D01*
X371679Y552076D01*
X371687Y552077D01*
X371968Y552269D01*
X372252Y552458D01*
X378293Y558500D01*
X386677D01*
X387163Y557326D01*
D02*
G37*
G36*
X661350Y555684D02*
Y534333D01*
X650411Y523395D01*
X650025Y522816D01*
X649889Y522133D01*
Y517829D01*
X649173Y517530D01*
X649048Y517582D01*
X648457Y518241D01*
Y539254D01*
X651925Y542722D01*
X652312Y543301D01*
X652448Y543984D01*
Y549610D01*
X657164D01*
Y553867D01*
X657639Y553961D01*
X658217Y554348D01*
X660080Y556210D01*
X661350Y555684D01*
D02*
G37*
G36*
X712903Y502300D02*
X714173Y502300D01*
X714889Y501326D01*
Y489440D01*
X704631Y479181D01*
X703457Y479667D01*
Y501326D01*
X704173Y502300D01*
X705443Y502300D01*
X712903D01*
D02*
G37*
G36*
X540345Y463968D02*
X539859Y462794D01*
X497902D01*
Y464760D01*
X490673D01*
X489902Y464760D01*
X488633Y464760D01*
X481403D01*
Y462794D01*
X475900D01*
Y464090D01*
X463900D01*
Y462682D01*
X458650D01*
Y464597D01*
X452734D01*
X452271Y465399D01*
X452734Y466200D01*
X458650D01*
Y468116D01*
X463900D01*
Y468090D01*
X475900D01*
Y469386D01*
X481403D01*
Y467420D01*
X488633D01*
X489403Y467420D01*
X490673Y467420D01*
X497902D01*
Y469386D01*
X534927D01*
X540345Y463968D01*
D02*
G37*
G36*
X322088Y523350D02*
X322066Y523240D01*
Y454160D01*
X312964D01*
Y516023D01*
X320917Y523976D01*
X322088Y523350D01*
D02*
G37*
G36*
X559863Y440163D02*
X560614Y439662D01*
X561500Y439486D01*
X571608D01*
X571993Y438215D01*
X571762Y438061D01*
X560343Y426642D01*
X559896Y426731D01*
X558726Y426498D01*
X557733Y425835D01*
X557070Y424842D01*
X556838Y423672D01*
X557070Y422501D01*
X557733Y421509D01*
X558726Y420846D01*
X559896Y420613D01*
X561067Y420846D01*
X562059Y421509D01*
X562722Y422501D01*
X562955Y423672D01*
X562866Y424119D01*
X573763Y435015D01*
X592173D01*
Y433584D01*
X580644D01*
X579961Y433448D01*
X579382Y433062D01*
X575503Y429182D01*
X575056Y429271D01*
X573885Y429038D01*
X572893Y428375D01*
X572230Y427383D01*
X571997Y426212D01*
X572230Y425042D01*
X572893Y424049D01*
X573885Y423386D01*
X575056Y423153D01*
X576227Y423386D01*
X577219Y424049D01*
X577882Y425042D01*
X578115Y426212D01*
X578026Y426659D01*
X581383Y430016D01*
X592173D01*
X592173Y424300D01*
X591199Y423584D01*
X588170D01*
X587487Y423448D01*
X587025Y423139D01*
X586546Y423235D01*
X585375Y423002D01*
X584383Y422339D01*
X583720Y421347D01*
X583487Y420176D01*
X583720Y419005D01*
X584383Y418013D01*
X585375Y417350D01*
X586546Y417117D01*
X587716Y417350D01*
X588709Y418013D01*
X589372Y419005D01*
X589573Y420016D01*
X592173D01*
X592173Y414853D01*
X592008Y414607D01*
X591264Y414021D01*
X590903Y413910D01*
X590296Y414031D01*
X589126Y413798D01*
X588133Y413135D01*
X587470Y412142D01*
X587237Y410972D01*
X587460Y409854D01*
X587465Y409793D01*
X586756Y408584D01*
X584140D01*
X582090Y410634D01*
X582179Y411080D01*
X581946Y412251D01*
X581283Y413243D01*
X580290Y413906D01*
X579120Y414139D01*
X577949Y413906D01*
X576957Y413243D01*
X576294Y412251D01*
X576061Y411080D01*
X576294Y409910D01*
X576957Y408917D01*
X577949Y408254D01*
X579120Y408021D01*
X579567Y408110D01*
X582139Y405538D01*
X582369Y405384D01*
X581983Y404114D01*
X572693D01*
X561151Y415657D01*
X560401Y416158D01*
X559515Y416334D01*
X551136D01*
Y416826D01*
X550862D01*
X549967Y417728D01*
X550058Y429601D01*
X550192Y430276D01*
Y441694D01*
X551136D01*
Y442186D01*
X557841D01*
X559863Y440163D01*
D02*
G37*
G36*
X704889Y461946D02*
Y460289D01*
X649385Y404785D01*
X648399Y405595D01*
X648494Y405737D01*
X648727Y406908D01*
X648638Y407355D01*
X703715Y462432D01*
X704889Y461946D01*
D02*
G37*
G36*
X780620Y432755D02*
X780531Y432308D01*
X780764Y431138D01*
X781427Y430145D01*
X782420Y429482D01*
X783590Y429249D01*
X784761Y429482D01*
X785753Y430145D01*
X785870Y430320D01*
X787140Y429935D01*
Y413388D01*
X786761Y413135D01*
X786098Y412142D01*
X785865Y410972D01*
X786098Y409801D01*
X786761Y408809D01*
X787754Y408146D01*
X788924Y407913D01*
X790095Y408146D01*
X791087Y408809D01*
X791750Y409801D01*
X791983Y410972D01*
X791750Y412142D01*
X791087Y413135D01*
X790708Y413388D01*
Y436640D01*
X790573Y437323D01*
X791625Y438033D01*
X811128Y418531D01*
X811039Y418084D01*
X811272Y416913D01*
X811935Y415921D01*
X812927Y415258D01*
X814098Y415025D01*
X815268Y415258D01*
X816261Y415921D01*
X816604Y416434D01*
X817874Y416049D01*
Y411965D01*
X804493Y398584D01*
X770966D01*
X770650Y399055D01*
X770404Y399854D01*
X770922Y400630D01*
X771155Y401800D01*
X770922Y402971D01*
X770259Y403963D01*
X769267Y404626D01*
X768096Y404859D01*
X766926Y404626D01*
X765933Y403963D01*
X765680Y403584D01*
X761173D01*
X761173Y409300D01*
X761173Y410570D01*
Y414300D01*
X761173Y419300D01*
X761173Y420570D01*
X761173Y424300D01*
X761173Y425570D01*
Y434300D01*
X761173Y439300D01*
X762147Y440016D01*
X773359D01*
X780620Y432755D01*
D02*
G37*
G36*
X370326Y411277D02*
Y389890D01*
X370462Y389207D01*
X370848Y388628D01*
X380418Y379059D01*
X379608Y378072D01*
X378913Y378537D01*
X377743Y378769D01*
X376572Y378537D01*
X375580Y377874D01*
X374917Y376881D01*
X374684Y375711D01*
X374917Y374540D01*
X375580Y373548D01*
X375958Y373295D01*
Y361530D01*
X373743D01*
Y352530D01*
X381743D01*
Y361530D01*
X379527D01*
Y373295D01*
X379906Y373548D01*
X380569Y374540D01*
X380802Y375711D01*
X380569Y376881D01*
X380104Y377576D01*
X381091Y378386D01*
X384296Y375181D01*
Y341827D01*
X384431Y341144D01*
X384818Y340565D01*
X391607Y333777D01*
Y329720D01*
X377955D01*
X373239Y334436D01*
X372488Y334938D01*
X371602Y335114D01*
X371550Y335167D01*
X371550Y336300D01*
X371550Y337570D01*
Y343800D01*
X370027D01*
Y372530D01*
X372243D01*
Y381530D01*
X364243D01*
Y372530D01*
X366458D01*
Y343800D01*
X365050D01*
Y337570D01*
X365050Y336800D01*
X365050Y335530D01*
Y330229D01*
X362547D01*
Y335590D01*
X362547Y336360D01*
X362547D01*
Y336860D01*
X362547D01*
Y343860D01*
X360527D01*
Y352530D01*
X362743D01*
Y361530D01*
X354743D01*
Y352530D01*
X356958D01*
Y343860D01*
X356047D01*
Y340293D01*
X354874Y339807D01*
X352304Y342377D01*
Y372641D01*
X367022Y387358D01*
X367408Y387937D01*
X367544Y388620D01*
Y411604D01*
X367923Y411857D01*
X368117Y412148D01*
X369388Y412221D01*
X370326Y411277D01*
D02*
G37*
G36*
X747173Y460142D02*
Y459300D01*
X747173D01*
X747173Y459299D01*
X747173Y454300D01*
X747173Y453030D01*
Y445570D01*
X747173Y444300D01*
X747173Y443030D01*
X747173Y439300D01*
X747173Y438054D01*
Y429300D01*
X747173Y424300D01*
X747173Y423030D01*
X747173Y419300D01*
X747173Y418030D01*
Y414300D01*
X747173Y409300D01*
X747173Y408030D01*
Y404300D01*
X747173Y399300D01*
X747173Y398030D01*
Y394300D01*
X747173Y389300D01*
X747173Y388030D01*
Y384300D01*
X747173Y379300D01*
X747173Y378030D01*
Y372818D01*
X745948Y372276D01*
X745265Y372821D01*
Y460139D01*
X745947Y460684D01*
X747173Y460142D01*
D02*
G37*
G36*
X726437Y371828D02*
X725463Y371634D01*
X724471Y370971D01*
X724218Y370592D01*
X694721D01*
X694038Y370457D01*
X693459Y370070D01*
X690411Y367022D01*
X690024Y366443D01*
X689889Y365760D01*
Y362273D01*
X689173Y361300D01*
X679938D01*
X679813Y362570D01*
X680367Y362680D01*
X681359Y363343D01*
X682022Y364336D01*
X682255Y365506D01*
X682022Y366676D01*
X681359Y367669D01*
X680367Y368332D01*
X679196Y368565D01*
X678026Y368332D01*
X677033Y367669D01*
X676780Y367290D01*
X670483D01*
X669800Y367155D01*
X669221Y366768D01*
X665411Y362958D01*
X665024Y362379D01*
X664889Y361696D01*
Y361300D01*
X659173Y361300D01*
X657903Y361300D01*
X650443D01*
X649173Y361300D01*
X647903Y361300D01*
X643457D01*
Y362582D01*
X643836Y362835D01*
X644499Y363828D01*
X644732Y364998D01*
X644499Y366169D01*
X643836Y367161D01*
X642844Y367824D01*
X641673Y368057D01*
X640503Y367824D01*
X639510Y367161D01*
X638847Y366169D01*
X638614Y364998D01*
X638847Y363828D01*
X639510Y362835D01*
X639319Y361499D01*
X639173Y361300D01*
X637903Y361300D01*
X630443D01*
X629173Y361300D01*
X628987Y362493D01*
Y364359D01*
X637725Y373097D01*
X726312D01*
X726437Y371828D01*
D02*
G37*
G36*
X592173Y383584D02*
X589280D01*
X588597Y383449D01*
X588018Y383062D01*
X583446Y378490D01*
X583060Y377911D01*
X582924Y377228D01*
Y373764D01*
X582545Y373511D01*
X581882Y372519D01*
X581649Y371348D01*
X581882Y370177D01*
X582545Y369185D01*
X583537Y368522D01*
X584708Y368289D01*
X585878Y368522D01*
X586871Y369185D01*
X587534Y370177D01*
X587767Y371348D01*
X587534Y372519D01*
X586871Y373511D01*
X586492Y373764D01*
Y376489D01*
X590019Y380016D01*
X591199D01*
X592173Y379300D01*
X592173Y378030D01*
Y369300D01*
X593255D01*
X593912Y368030D01*
X593626Y367531D01*
X593626Y367531D01*
X593626D01*
X592513Y365864D01*
X592121Y363897D01*
X592513Y361931D01*
X593626Y360264D01*
X593672Y360309D01*
X603258Y350723D01*
X603291Y350701D01*
X603691Y349734D01*
X603195Y348567D01*
X602193Y348142D01*
X601129Y348594D01*
X601128Y348594D01*
X600230Y349492D01*
X579607Y370115D01*
X579653Y370161D01*
X577985Y371275D01*
X576019Y371666D01*
X574053Y371275D01*
X572385Y370161D01*
X572385Y370161D01*
X572385Y370161D01*
X572385Y370161D01*
X571272Y368494D01*
X570880Y366527D01*
X571272Y364561D01*
X572385Y362894D01*
X572431Y362939D01*
X585739Y349632D01*
X585739Y349632D01*
X585771Y349609D01*
X586203Y348567D01*
X585771Y347524D01*
X585739Y347502D01*
X579858Y341622D01*
X572392Y334155D01*
X572370Y334123D01*
X571366Y333707D01*
X571327Y333714D01*
X556882D01*
Y333779D01*
X554916Y333388D01*
X554450Y333077D01*
X553330Y333675D01*
Y336620D01*
X553852Y337142D01*
X554239Y337721D01*
X554375Y338404D01*
Y348952D01*
X560121D01*
Y360250D01*
X584886Y385016D01*
X592173D01*
Y383584D01*
D02*
G37*
G36*
X696082Y440839D02*
X696755Y440468D01*
X696944Y439520D01*
X697607Y438527D01*
X698599Y437864D01*
X699770Y437631D01*
X700217Y437720D01*
X726978Y410959D01*
Y383543D01*
X726409Y383163D01*
X725746Y382170D01*
X725513Y381000D01*
X725746Y379829D01*
X726303Y378997D01*
X726121Y378324D01*
X725786Y377727D01*
X636767D01*
X635881Y377550D01*
X635130Y377049D01*
X625036Y366955D01*
X624535Y366204D01*
X624358Y365318D01*
Y361800D01*
X622673D01*
Y354300D01*
Y346800D01*
X624358D01*
Y332277D01*
X620663Y328582D01*
X620162Y327831D01*
X619986Y326946D01*
Y316186D01*
X619494D01*
Y310630D01*
X618994D01*
Y307852D01*
X622300D01*
X625606D01*
Y310630D01*
X625106D01*
Y316186D01*
X624614D01*
Y325987D01*
X628309Y329682D01*
X628619Y330145D01*
X629889Y329837D01*
Y321694D01*
X629510Y321441D01*
X628847Y320448D01*
X628614Y319278D01*
X628847Y318107D01*
X629510Y317115D01*
X630503Y316452D01*
X631673Y316219D01*
X632844Y316452D01*
X633836Y317115D01*
X634499Y318107D01*
X634732Y319278D01*
X634499Y320448D01*
X633836Y321441D01*
X633457Y321694D01*
Y335965D01*
X633927Y336281D01*
X634727Y336528D01*
X635502Y336010D01*
X636673Y335777D01*
X637843Y336010D01*
X638836Y336673D01*
X639499Y337665D01*
X639732Y338836D01*
X639499Y340006D01*
X638836Y340999D01*
X638457Y341252D01*
Y346327D01*
X639173Y347300D01*
X640443Y347300D01*
X644889D01*
Y344424D01*
X645024Y343741D01*
X645411Y343162D01*
X650234Y338340D01*
Y313667D01*
X646453Y309886D01*
X638178D01*
X637925Y310265D01*
X636932Y310928D01*
X635762Y311161D01*
X634591Y310928D01*
X633599Y310265D01*
X632936Y309272D01*
X632703Y308102D01*
X632936Y306931D01*
X633599Y305939D01*
X634591Y305276D01*
X635762Y305043D01*
X636932Y305276D01*
X637925Y305939D01*
X638178Y306318D01*
X647192D01*
X647875Y306453D01*
X648454Y306840D01*
X653280Y311666D01*
X653667Y312245D01*
X653802Y312928D01*
Y339079D01*
X653667Y339762D01*
X653280Y340340D01*
X648457Y345163D01*
Y346327D01*
X649173Y347300D01*
X650443Y347300D01*
X657903D01*
X659173Y347300D01*
X659889Y346327D01*
Y309840D01*
X658976Y309658D01*
X657983Y308995D01*
X657320Y308002D01*
X657087Y306832D01*
X657320Y305662D01*
X657983Y304669D01*
X658976Y304006D01*
X660146Y303773D01*
X661020Y303947D01*
X662290Y303245D01*
Y296380D01*
X668290D01*
Y302880D01*
Y309380D01*
X663457D01*
Y310880D01*
X675790D01*
Y322880D01*
X671074D01*
Y328191D01*
X672935Y330051D01*
X673322Y330630D01*
X673457Y331313D01*
Y346327D01*
X674173Y347300D01*
X675443Y347300D01*
X684889D01*
Y260287D01*
X685024Y259604D01*
X685411Y259025D01*
X696369Y248068D01*
X695883Y246894D01*
X684406D01*
X684153Y247273D01*
X683160Y247936D01*
X681990Y248169D01*
X680819Y247936D01*
X679827Y247273D01*
X679164Y246280D01*
X678931Y245110D01*
X679164Y243939D01*
X679827Y242947D01*
X680041Y242804D01*
X679656Y241534D01*
X672798D01*
X671912Y241358D01*
X671161Y240856D01*
X650381Y220077D01*
X649880Y219326D01*
X649704Y218440D01*
Y128587D01*
X633446Y112329D01*
X632272Y112815D01*
Y118110D01*
X631955Y118875D01*
X631955Y118875D01*
X629415Y121415D01*
X628650Y121732D01*
X620464D01*
Y295526D01*
X620328Y296209D01*
X619942Y296788D01*
X615207Y301522D01*
Y347300D01*
X618673D01*
Y346800D01*
X620673D01*
Y354300D01*
Y361800D01*
X618673D01*
Y361300D01*
X617451D01*
X616965Y362473D01*
X695475Y440983D01*
X696082Y440839D01*
D02*
G37*
G36*
X732673Y346800D02*
X734359D01*
Y332502D01*
X728613Y326757D01*
X728112Y326006D01*
X727935Y325120D01*
Y316186D01*
X727444D01*
Y310630D01*
X726944D01*
Y307852D01*
X730250D01*
X733556D01*
Y310594D01*
X740033D01*
X741128Y310171D01*
Y306595D01*
X745490D01*
Y304594D01*
X741128D01*
Y301018D01*
X745697D01*
X745843Y299752D01*
X744851Y299089D01*
X744598Y298710D01*
X719002D01*
Y302610D01*
X713441D01*
X707881D01*
Y300501D01*
X706611Y299975D01*
X701808Y304777D01*
Y324889D01*
X707935Y331016D01*
X708322Y331594D01*
X708457Y332277D01*
Y347300D01*
X714173D01*
X714889Y346327D01*
Y343030D01*
X714510Y342777D01*
X713847Y341785D01*
X713614Y340614D01*
X713847Y339444D01*
X714510Y338451D01*
X715503Y337788D01*
X716673Y337555D01*
X717844Y337788D01*
X718836Y338451D01*
X719499Y339444D01*
X719732Y340614D01*
X719499Y341785D01*
X718836Y342777D01*
X718457Y343030D01*
Y347300D01*
X724173Y347300D01*
X724889Y346327D01*
Y340062D01*
X712180Y327353D01*
X711793Y326774D01*
X711657Y326091D01*
Y320940D01*
X708381D01*
Y311359D01*
X718502D01*
Y320940D01*
X715226D01*
Y325352D01*
X727935Y338061D01*
X728322Y338640D01*
X728457Y339323D01*
Y345619D01*
X728673Y346800D01*
X730673D01*
Y354300D01*
X732673D01*
Y346800D01*
D02*
G37*
G36*
X815340Y288319D02*
X798576D01*
X797690Y288142D01*
X796939Y287641D01*
X793383Y284085D01*
X792882Y283334D01*
X792706Y282448D01*
Y280260D01*
X790569D01*
Y275260D01*
X788569D01*
Y280260D01*
X784819D01*
Y277574D01*
X780720D01*
X779834Y277398D01*
X779083Y276896D01*
X773160Y270973D01*
Y266700D01*
X771160D01*
Y270450D01*
X767660D01*
Y269014D01*
X761420D01*
Y270450D01*
X757920D01*
Y266700D01*
X755920D01*
Y270450D01*
X752420D01*
Y269014D01*
X746180D01*
Y270450D01*
X742680D01*
Y266700D01*
X740680D01*
Y270450D01*
X737180D01*
Y269014D01*
X732650D01*
Y270950D01*
X728372D01*
X727886Y272123D01*
X728813Y273050D01*
X769620D01*
X787400Y290830D01*
X815340D01*
Y288319D01*
D02*
G37*
G36*
X694173Y347300D02*
X694889Y346327D01*
Y301770D01*
X694975Y301338D01*
X695025Y301088D01*
X695025Y301088D01*
X695025Y301087D01*
X695237Y300771D01*
X695411Y300509D01*
X697341Y298579D01*
Y297974D01*
X697477Y297291D01*
X697864Y296712D01*
X699111Y295465D01*
X698997Y294894D01*
X699230Y293724D01*
X699893Y292731D01*
X700885Y292068D01*
X702056Y291835D01*
X703226Y292068D01*
X704219Y292731D01*
X704882Y293724D01*
X705081Y294723D01*
X705101Y294748D01*
X705694Y295123D01*
X706315Y295370D01*
X706453Y295278D01*
X707136Y295142D01*
X744598D01*
X744851Y294763D01*
X745844Y294100D01*
X747014Y293867D01*
X747780Y294020D01*
X749050Y293267D01*
Y285439D01*
X744056Y280445D01*
X730620D01*
X729734Y280268D01*
X728983Y279767D01*
X722820Y273603D01*
X722008Y273611D01*
X721373Y273815D01*
X721174Y273898D01*
X721021Y274050D01*
X720806D01*
X720607Y274132D01*
X709664D01*
X708898Y273815D01*
X708898Y273815D01*
X702815Y267732D01*
X702498Y266966D01*
Y248964D01*
X702421Y248830D01*
X701045Y248438D01*
X688457Y261026D01*
Y346327D01*
X689173Y347300D01*
X694173Y347300D01*
D02*
G37*
G36*
X912531Y280536D02*
Y240010D01*
X911357Y239524D01*
X899829Y251052D01*
X899630Y251134D01*
X899478Y251287D01*
X899262D01*
X899063Y251369D01*
X898864Y251287D01*
X898649D01*
X897476Y250801D01*
X897324Y250648D01*
X897125Y250566D01*
X897042Y250367D01*
X896890Y250215D01*
Y250000D01*
X896808Y249801D01*
Y215900D01*
X897125Y215135D01*
X904745Y207515D01*
X905510Y207197D01*
X906275Y207515D01*
X906275Y207515D01*
X907228Y208468D01*
X909566D01*
X910264Y208072D01*
X910595Y207300D01*
Y205419D01*
X891213D01*
X890530Y205283D01*
X889951Y204897D01*
X875985Y190930D01*
X875538Y191019D01*
X874368Y190786D01*
X873375Y190123D01*
X872712Y189130D01*
X872479Y187960D01*
X872712Y186789D01*
X873375Y185797D01*
X873754Y185544D01*
Y173738D01*
X873889Y173056D01*
X874276Y172477D01*
X880626Y166127D01*
X881016Y165866D01*
X881383Y165203D01*
X881480Y164909D01*
X880877Y163659D01*
X870310D01*
Y166125D01*
X867094D01*
Y168878D01*
X869560D01*
Y176877D01*
X858594D01*
Y179130D01*
X860810D01*
Y178630D01*
X864310D01*
Y182880D01*
Y187130D01*
X860810D01*
Y186630D01*
X852810D01*
Y179130D01*
X855026D01*
Y176877D01*
X852560D01*
Y168878D01*
X863526D01*
Y166125D01*
X861873D01*
X860810Y166625D01*
X860810Y166625D01*
X860810Y166625D01*
X857060D01*
Y161875D01*
X855060D01*
Y166625D01*
X851310D01*
Y163817D01*
X851049Y163642D01*
X772160D01*
X771395Y163325D01*
X759965Y151895D01*
X759648Y151130D01*
X758695Y150625D01*
X748802Y140733D01*
X747424Y141151D01*
X747387Y141336D01*
X753875Y147825D01*
X754193Y148590D01*
X753875Y149355D01*
X753875Y149355D01*
X752840Y150391D01*
Y150502D01*
X752688Y150655D01*
X752605Y150854D01*
X752563Y150871D01*
X752232Y151444D01*
X752166Y152500D01*
X752246Y152619D01*
X752479Y153790D01*
X752479Y153790D01*
Y154594D01*
X753420Y155387D01*
X754190Y155387D01*
X760420D01*
Y161887D01*
X758704D01*
Y164390D01*
X760420D01*
Y164390D01*
X761690Y164475D01*
X761869Y164207D01*
X762861Y163544D01*
X764032Y163311D01*
X765202Y163544D01*
X766195Y164207D01*
X766858Y165200D01*
X767091Y166370D01*
X766858Y167540D01*
X766195Y168533D01*
X765202Y169196D01*
X764032Y169429D01*
X763386Y169300D01*
X762762Y169424D01*
X760420D01*
Y170890D01*
X754483D01*
X753420Y171390D01*
X752357Y171390D01*
X750420D01*
Y167640D01*
X749420D01*
Y166640D01*
X745420D01*
Y164764D01*
X745361Y164662D01*
X744150Y164161D01*
X735181Y173130D01*
X735193Y173227D01*
X735752Y174355D01*
X773293D01*
X773976Y174490D01*
X774555Y174877D01*
X779068Y179391D01*
X783582Y183904D01*
X783969Y184483D01*
X784104Y185166D01*
Y204470D01*
X783969Y205153D01*
X783582Y205732D01*
X776842Y212472D01*
X776263Y212859D01*
X775580Y212994D01*
X765960D01*
Y218460D01*
X752960D01*
Y212994D01*
X749649D01*
X746722Y215922D01*
X746143Y216308D01*
X745460Y216444D01*
X738603D01*
Y216460D01*
X738433Y217318D01*
X737946Y218046D01*
X737219Y218532D01*
X736360Y218703D01*
X735502Y218532D01*
X734968Y218176D01*
X734438Y218101D01*
X733397Y218271D01*
X733307Y218407D01*
X732413Y219003D01*
X732360Y219014D01*
Y214660D01*
Y210306D01*
X732413Y210317D01*
X733307Y210913D01*
X733397Y211049D01*
X734438Y211219D01*
X734968Y211144D01*
X735502Y210788D01*
X736360Y210617D01*
X737219Y210788D01*
X737946Y211274D01*
X738433Y212002D01*
X738603Y212860D01*
Y212876D01*
X744721D01*
X747648Y209949D01*
X748227Y209562D01*
X748910Y209426D01*
X752960D01*
Y203960D01*
X765960D01*
Y209426D01*
X774841D01*
X780536Y203731D01*
Y185905D01*
X778222Y183591D01*
X773370Y188443D01*
Y193670D01*
X765870D01*
Y186440D01*
X765870Y185670D01*
X765870D01*
Y185170D01*
X765870D01*
Y182954D01*
X763368D01*
Y185170D01*
X763868D01*
Y188670D01*
X755368D01*
Y185170D01*
X755868D01*
Y182954D01*
X739877D01*
X739123Y184168D01*
X739528Y184876D01*
X739735D01*
X740418Y185012D01*
X740996Y185398D01*
X741774Y186176D01*
X746884D01*
X747137Y185797D01*
X748130Y185134D01*
X749300Y184901D01*
X750471Y185134D01*
X751463Y185797D01*
X752126Y186789D01*
X752359Y187960D01*
X752126Y189130D01*
X751463Y190123D01*
X750471Y190786D01*
X749300Y191019D01*
X748130Y190786D01*
X747137Y190123D01*
X746884Y189744D01*
X741035D01*
X740352Y189608D01*
X739773Y189222D01*
X739751Y189200D01*
X739245Y189245D01*
X738289Y189534D01*
X737946Y190046D01*
X737219Y190532D01*
X736360Y190703D01*
X735502Y190532D01*
X734774Y190046D01*
X734566Y189734D01*
X734504Y189711D01*
X733216D01*
X733155Y189734D01*
X732946Y190046D01*
X732218Y190532D01*
X731360Y190703D01*
X730502Y190532D01*
X729774Y190046D01*
X729566Y189735D01*
X729504Y189712D01*
X728216D01*
X728155Y189735D01*
X727946Y190046D01*
X727219Y190532D01*
X726360Y190703D01*
X725502Y190532D01*
X724774Y190046D01*
X724566Y189734D01*
X724504Y189711D01*
X723217D01*
X723155Y189734D01*
X722946Y190046D01*
X722218Y190532D01*
X721360Y190703D01*
X720502Y190532D01*
X719774Y190046D01*
X719555Y189719D01*
X718165D01*
X717946Y190046D01*
X717219Y190532D01*
X716360Y190703D01*
X715502Y190532D01*
X714774Y190046D01*
X714566Y189734D01*
X714504Y189711D01*
X713217D01*
X713155Y189734D01*
X712946Y190046D01*
X712218Y190532D01*
X711360Y190703D01*
X710502Y190532D01*
X709774Y190046D01*
X709566Y189734D01*
X709503Y189711D01*
X708216D01*
X708154Y189734D01*
X707946Y190046D01*
X707218Y190532D01*
X706360Y190703D01*
X705501Y190532D01*
X705207Y190336D01*
X704121Y191422D01*
X703542Y191809D01*
X702860Y191944D01*
X692370D01*
Y195226D01*
X693870D01*
X695018Y195702D01*
X695494Y196850D01*
Y204470D01*
X695018Y205618D01*
X693870Y206094D01*
X692370D01*
Y209376D01*
X702860D01*
X703542Y209511D01*
X704121Y209898D01*
X705207Y210984D01*
X705501Y210788D01*
X706360Y210617D01*
X707218Y210788D01*
X707946Y211274D01*
X708154Y211586D01*
X708216Y211609D01*
X709503D01*
X709566Y211586D01*
X709774Y211274D01*
X710502Y210788D01*
X711360Y210617D01*
X712218Y210788D01*
X712946Y211274D01*
X713155Y211586D01*
X713217Y211609D01*
X714504D01*
X714566Y211586D01*
X714774Y211274D01*
X715502Y210788D01*
X716360Y210617D01*
X717219Y210788D01*
X717946Y211274D01*
X718155Y211585D01*
X718216Y211608D01*
X719504D01*
X719566Y211585D01*
X719774Y211274D01*
X720502Y210788D01*
X721360Y210617D01*
X722218Y210788D01*
X722946Y211274D01*
X723155Y211586D01*
X723217Y211609D01*
X724504D01*
X724566Y211586D01*
X724774Y211274D01*
X725502Y210788D01*
X726360Y210617D01*
X727219Y210788D01*
X727752Y211144D01*
X728284Y211219D01*
X729323Y211048D01*
X729413Y210913D01*
X730306Y210317D01*
X730360Y210306D01*
Y214660D01*
Y219014D01*
X730306Y219003D01*
X729413Y218407D01*
X728145Y218794D01*
Y229147D01*
X728009Y229830D01*
X727622Y230409D01*
X726647Y231384D01*
X727133Y232557D01*
X731460D01*
Y239788D01*
X731460Y239995D01*
X731960Y241058D01*
X731960Y241120D01*
Y244308D01*
X723460D01*
Y241120D01*
X723460Y241058D01*
X723960Y239995D01*
X723960Y239788D01*
Y238092D01*
X721457D01*
Y240550D01*
X714957D01*
Y234050D01*
X718934D01*
X724576Y228408D01*
Y217750D01*
X724566Y217734D01*
X724504Y217711D01*
X723217D01*
X723155Y217734D01*
X722946Y218046D01*
X722218Y218532D01*
X721360Y218703D01*
X721175Y218855D01*
Y223480D01*
X720998Y224366D01*
X720497Y225116D01*
X710164Y235449D01*
Y242360D01*
X710600D01*
Y242796D01*
X714957D01*
Y242050D01*
X721457D01*
Y248550D01*
X720522D01*
Y252429D01*
X729787Y261693D01*
X730288Y262444D01*
X730389Y262950D01*
X732150D01*
Y264386D01*
X737680D01*
Y263450D01*
X745680D01*
Y264386D01*
X752920D01*
Y263450D01*
X760920D01*
Y264386D01*
X768160D01*
Y263450D01*
X776160D01*
Y267427D01*
X781678Y272945D01*
X785319D01*
Y270760D01*
X785319Y270760D01*
Y270260D01*
X785319D01*
X785319Y269490D01*
Y263374D01*
X784049Y262803D01*
X783491Y263176D01*
X782320Y263409D01*
X781150Y263176D01*
X780157Y262513D01*
X779494Y261521D01*
X779261Y260350D01*
X779494Y259179D01*
X780157Y258187D01*
X781150Y257524D01*
X782320Y257291D01*
X783491Y257524D01*
X784483Y258187D01*
X784736Y258566D01*
X786290D01*
X786972Y258701D01*
X787551Y259088D01*
X788430Y259967D01*
X788817Y260546D01*
X788952Y261229D01*
Y261260D01*
X793819D01*
Y267487D01*
X800864Y274532D01*
X803130D01*
X803813Y274668D01*
X804392Y275055D01*
X804948Y275467D01*
X805631Y275331D01*
X832630D01*
X833313Y275467D01*
X833378Y275510D01*
X836880D01*
Y278226D01*
X847011D01*
X849690Y275546D01*
X849364Y274276D01*
X849364D01*
Y268720D01*
X848864D01*
Y265942D01*
X852170D01*
X855476D01*
Y268720D01*
X854976D01*
Y274276D01*
X853954D01*
Y275590D01*
X853819Y276273D01*
X853432Y276852D01*
X849012Y281272D01*
X848433Y281659D01*
X847750Y281794D01*
X836880D01*
Y283689D01*
X909377D01*
X912531Y280536D01*
D02*
G37*
G36*
X721093Y271877D02*
X719744Y270527D01*
X719692Y270450D01*
X715650D01*
Y262950D01*
X722701D01*
X723227Y261680D01*
X716571Y255024D01*
X716069Y254273D01*
X715893Y253387D01*
Y249050D01*
X714457D01*
Y247425D01*
X711100D01*
Y248360D01*
X708850D01*
Y245110D01*
X706850D01*
Y248360D01*
X704600D01*
X703580Y248964D01*
Y266966D01*
X709664Y273050D01*
X720607D01*
X721093Y271877D01*
D02*
G37*
G36*
X705535Y236681D02*
Y234490D01*
X705711Y233605D01*
X706213Y232854D01*
X716546Y222521D01*
Y218855D01*
X716360Y218703D01*
X715502Y218532D01*
X714774Y218046D01*
X714566Y217734D01*
X714504Y217711D01*
X713217D01*
X713155Y217734D01*
X712946Y218046D01*
X712218Y218532D01*
X711360Y218703D01*
X710502Y218532D01*
X709774Y218046D01*
X709566Y217734D01*
X709503Y217711D01*
X708216D01*
X708154Y217734D01*
X707946Y218046D01*
X707218Y218532D01*
X706360Y218703D01*
X705501Y218532D01*
X704774Y218046D01*
X704287Y217318D01*
X704117Y216460D01*
Y214940D01*
X702121Y212944D01*
X692370D01*
Y218660D01*
X657307D01*
X656781Y219930D01*
X673756Y236905D01*
X705262D01*
X705535Y236681D01*
D02*
G37*
G36*
X1035107Y267491D02*
X983961Y216345D01*
X970825D01*
Y218655D01*
X966200D01*
Y214030D01*
X964200D01*
Y218655D01*
X959575D01*
Y215949D01*
X950845D01*
Y218385D01*
X947095D01*
Y213635D01*
X945095D01*
Y218385D01*
X941345D01*
Y215949D01*
X935220D01*
Y218385D01*
X931470D01*
Y213635D01*
X929470D01*
Y218385D01*
X925720D01*
Y215949D01*
X919595D01*
Y218385D01*
X917160D01*
Y223520D01*
X970280D01*
X1031240Y284480D01*
X1035107D01*
Y267491D01*
D02*
G37*
G36*
X1039641Y264524D02*
X1040130Y264213D01*
Y262890D01*
X993140Y215900D01*
Y209550D01*
X970825D01*
Y211716D01*
X984920D01*
X985806Y211892D01*
X986557Y212393D01*
X1038860Y264697D01*
X1039641Y264524D01*
D02*
G37*
G36*
X912531Y236819D02*
Y218385D01*
X910095D01*
Y214635D01*
X914845D01*
Y212635D01*
X910095D01*
Y209550D01*
X906780D01*
X905510Y208280D01*
X897890Y215900D01*
Y249801D01*
X899063Y250287D01*
X912531Y236819D01*
D02*
G37*
G36*
X488200Y180841D02*
X487822Y180588D01*
X487159Y179595D01*
X486926Y178425D01*
X487159Y177254D01*
X487822Y176262D01*
X488200Y176009D01*
Y164678D01*
X487027Y164192D01*
X481139Y170080D01*
X481148Y170166D01*
X481811Y171158D01*
X482044Y172329D01*
X481811Y173499D01*
X481148Y174492D01*
X480769Y174745D01*
Y176009D01*
X481148Y176262D01*
X481811Y177254D01*
X482044Y178425D01*
X481811Y179595D01*
X481148Y180588D01*
X480769Y180841D01*
Y197485D01*
X484235D01*
Y197485D01*
X484735D01*
Y197485D01*
X488200D01*
Y180841D01*
D02*
G37*
G36*
X542701Y185765D02*
X542837Y185082D01*
X543223Y184503D01*
X552020Y175707D01*
X551931Y175260D01*
X552164Y174090D01*
X552827Y173097D01*
X553820Y172434D01*
X554990Y172201D01*
X555437Y172290D01*
X612896Y114831D01*
Y107580D01*
X611430D01*
Y102114D01*
X607770D01*
Y107580D01*
X606304D01*
Y116840D01*
X606169Y117523D01*
X605782Y118102D01*
X539926Y183957D01*
X540015Y184404D01*
X539782Y185574D01*
X539119Y186567D01*
X538126Y187230D01*
X536956Y187463D01*
X535770Y188522D01*
Y197485D01*
X539235D01*
Y197485D01*
X539735D01*
Y197485D01*
X542701D01*
Y185765D01*
D02*
G37*
G36*
X704117Y186380D02*
Y184860D01*
X704287Y184002D01*
X704774Y183274D01*
X705501Y182788D01*
X706360Y182617D01*
X707218Y182788D01*
X707946Y183274D01*
X708154Y183586D01*
X708216Y183609D01*
X709503D01*
X709566Y183586D01*
X709774Y183274D01*
X710502Y182788D01*
X711360Y182617D01*
X712091Y181467D01*
X711930Y181227D01*
X711697Y180056D01*
X711697Y180056D01*
Y171390D01*
X710570D01*
Y170699D01*
X698627D01*
X698014Y171416D01*
X697794Y171969D01*
X697711Y172168D01*
Y172383D01*
X697559Y172535D01*
X697477Y172734D01*
X688821Y181390D01*
X689347Y182660D01*
X692370D01*
Y188376D01*
X702121D01*
X704117Y186380D01*
D02*
G37*
G36*
X401545Y158525D02*
Y140910D01*
X398650D01*
Y139474D01*
X348729D01*
X348434Y139727D01*
X348052Y140269D01*
X347875Y140744D01*
X347932Y140881D01*
Y141182D01*
X347991Y141478D01*
X347932Y141774D01*
Y142075D01*
X347817Y142353D01*
X347758Y142648D01*
X347591Y142899D01*
X347475Y143177D01*
X347262Y143390D01*
X347095Y143641D01*
X346844Y143808D01*
X346631Y144021D01*
X346353Y144137D01*
X346102Y144304D01*
X345807Y144363D01*
X345529Y144478D01*
X345228D01*
X344932Y144537D01*
X313170D01*
Y164930D01*
X301170D01*
Y138430D01*
X307115D01*
X307170Y138419D01*
X310291D01*
X310468Y138154D01*
X309789Y136884D01*
X300209D01*
X299670Y137930D01*
Y150680D01*
X293170D01*
Y151680D01*
X292170D01*
Y165430D01*
X286670D01*
Y165430D01*
X285670D01*
Y165430D01*
X280170D01*
Y151680D01*
Y137930D01*
X285670D01*
Y137930D01*
X286670D01*
Y137930D01*
X290904D01*
X291031Y137290D01*
X291533Y136539D01*
X295140Y132933D01*
X295891Y132431D01*
X296777Y132255D01*
X300639D01*
X301165Y130985D01*
X283210Y113030D01*
X257810D01*
Y137016D01*
X258670Y137930D01*
X264170D01*
Y151680D01*
Y165430D01*
X258670D01*
X257810Y166344D01*
Y172720D01*
X316436D01*
X316870Y171630D01*
X316870Y171450D01*
Y159630D01*
X343370D01*
Y171450D01*
X343370Y171630D01*
X343804Y172720D01*
X387350D01*
X401545Y158525D01*
D02*
G37*
G36*
X744220Y162560D02*
X744221D01*
X745420Y162387D01*
Y159637D01*
X749420D01*
Y157637D01*
X745420D01*
Y154887D01*
X745420Y154887D01*
X745420D01*
X745045Y153741D01*
X742953Y151649D01*
X732070D01*
Y155340D01*
X730379D01*
Y161680D01*
X730146Y162851D01*
X729483Y163843D01*
X729483Y163843D01*
X727570Y165756D01*
Y166640D01*
X723070D01*
Y167640D01*
X722070D01*
Y171890D01*
X718820D01*
Y177800D01*
X726440D01*
X727710Y179070D01*
X744220Y162560D01*
D02*
G37*
G36*
X696711Y171969D02*
X696185Y170699D01*
X664210D01*
X663039Y170466D01*
X662047Y169803D01*
X661384Y168811D01*
X661151Y167640D01*
X661384Y166469D01*
X662047Y165477D01*
X663039Y164814D01*
X664210Y164581D01*
X710070D01*
Y163390D01*
X713570D01*
Y167640D01*
X715570D01*
Y163390D01*
X716280D01*
Y157480D01*
X668020D01*
X662940Y152400D01*
X657860Y157480D01*
Y181610D01*
X687070D01*
X696711Y171969D01*
D02*
G37*
G36*
X751840Y150088D02*
Y149860D01*
X753110Y148590D01*
X745490Y140970D01*
Y121920D01*
X749360D01*
Y117090D01*
X748860D01*
Y115589D01*
X743284D01*
Y128721D01*
X742872Y130792D01*
X741698Y132549D01*
X739942Y133722D01*
X737870Y134135D01*
X736822D01*
Y142147D01*
X736589Y143318D01*
X735958Y144261D01*
X736069Y144819D01*
X736364Y145531D01*
X744220D01*
X744220Y145531D01*
X745390Y145764D01*
X746383Y146427D01*
X750570Y150614D01*
X751840Y150088D01*
D02*
G37*
G36*
X390756Y134364D02*
X391072Y133575D01*
X390700Y132677D01*
Y132080D01*
X321782D01*
X321256Y133350D01*
X322752Y134846D01*
X390427D01*
X390756Y134364D01*
D02*
G37*
G36*
X724261Y160413D02*
Y155340D01*
X722570D01*
Y149590D01*
X727320D01*
Y148590D01*
X728320D01*
Y141840D01*
X729744D01*
X730704Y140880D01*
Y134135D01*
X730250D01*
X728178Y133722D01*
X726422Y132549D01*
X725248Y130792D01*
X725170Y130400D01*
X723900Y130525D01*
Y133350D01*
X718820Y138430D01*
Y163390D01*
X721284D01*
X724261Y160413D01*
D02*
G37*
G36*
X851810Y161799D02*
Y157625D01*
X855984D01*
X856731Y156878D01*
Y153670D01*
X856790Y153375D01*
Y153073D01*
X856905Y152795D01*
X856964Y152500D01*
X857131Y152249D01*
X857247Y151971D01*
X857460Y151758D01*
X857627Y151507D01*
X857878Y151340D01*
X858091Y151127D01*
X858369Y151011D01*
X858620Y150844D01*
X858915Y150785D01*
X859193Y150670D01*
X859494D01*
X859790Y150611D01*
X860086Y150670D01*
X860387D01*
X860665Y150785D01*
X860960Y150844D01*
X861211Y151011D01*
X861489Y151127D01*
X861702Y151340D01*
X861953Y151507D01*
X862120Y151758D01*
X862333Y151971D01*
X862449Y152249D01*
X862616Y152500D01*
X862675Y152795D01*
X862790Y153073D01*
Y153375D01*
X862849Y153670D01*
Y157625D01*
X870310D01*
Y160090D01*
X876599D01*
X877125Y158820D01*
X847787Y129483D01*
X841179D01*
Y131715D01*
X836618D01*
Y126424D01*
X834618D01*
Y131715D01*
X830057D01*
Y126249D01*
X821774D01*
Y130215D01*
X816243D01*
Y123190D01*
X814242D01*
Y130215D01*
X808711D01*
Y126249D01*
X800867D01*
Y130215D01*
X795336D01*
Y123190D01*
X793336D01*
Y130215D01*
X787805D01*
Y126249D01*
X779961D01*
Y130215D01*
X774430D01*
Y123190D01*
X772430D01*
Y130215D01*
X766899D01*
Y126249D01*
X756204D01*
X756204Y126249D01*
X756204Y126249D01*
X756203D01*
X755689Y126147D01*
X755033Y126016D01*
X755033Y126016D01*
X755033Y126016D01*
X754547Y125691D01*
X754395Y125590D01*
X754110D01*
Y121090D01*
X752110D01*
Y125590D01*
X748860D01*
Y137600D01*
X748030Y138430D01*
X759460Y149860D01*
X762000D01*
X760730Y151130D01*
X772160Y162560D01*
X851049D01*
X851810Y161799D01*
D02*
G37*
G36*
X890901Y153031D02*
X859809Y121939D01*
X842310Y120800D01*
X841179Y121999D01*
Y123366D01*
X849054D01*
X849054Y123366D01*
X850225Y123598D01*
X851217Y124262D01*
X881125Y154170D01*
X886905D01*
X887080Y154205D01*
X890415D01*
X890901Y153031D01*
D02*
G37*
G36*
X575611Y122906D02*
X575125Y121732D01*
X561903D01*
X561704Y121650D01*
X561488D01*
X561336Y121498D01*
X561137Y121415D01*
X560502Y121211D01*
X559690Y121203D01*
X540341Y140552D01*
X540827Y141726D01*
X556791D01*
X575611Y122906D01*
D02*
G37*
G36*
X465159Y177254D02*
X465822Y176262D01*
X466814Y175599D01*
X467093Y175543D01*
X502928Y139708D01*
X503507Y139321D01*
X504190Y139186D01*
X536661D01*
X552941Y122906D01*
X552455Y121732D01*
X501650D01*
X500885Y121415D01*
X500568Y120650D01*
Y112804D01*
X468319D01*
X463833Y117291D01*
Y177413D01*
X465103Y177538D01*
X465159Y177254D01*
D02*
G37*
G36*
X570203Y105644D02*
X570137Y105302D01*
X568762Y104881D01*
X561517Y112127D01*
X560766Y112628D01*
X559880Y112804D01*
X501650D01*
Y120650D01*
X555197D01*
X570203Y105644D01*
D02*
G37*
G36*
X582416Y116101D02*
Y107580D01*
X580950D01*
Y102547D01*
X579680Y102293D01*
X578858Y103116D01*
X578279Y103503D01*
X577596Y103638D01*
X577290D01*
Y107580D01*
X573313D01*
X561417Y119477D01*
X561903Y120650D01*
X577867D01*
X582416Y116101D01*
D02*
G37*
G36*
X592576D02*
Y107580D01*
X591110D01*
Y102114D01*
X587450D01*
Y107580D01*
X585984D01*
Y116840D01*
X585849Y117523D01*
X585462Y118102D01*
X560511Y143052D01*
X560997Y144226D01*
X564451D01*
X592576Y116101D01*
D02*
G37*
G36*
X631190Y118110D02*
Y110073D01*
X621734Y100617D01*
X620464Y101143D01*
Y120650D01*
X628650D01*
X631190Y118110D01*
D02*
G37*
G36*
X735060Y90927D02*
X737870D01*
X739942Y91339D01*
X741698Y92512D01*
X742872Y94269D01*
X743284Y96341D01*
Y109472D01*
X748860D01*
Y108090D01*
X750051D01*
Y97790D01*
X750284Y96620D01*
X750947Y95627D01*
X751939Y94964D01*
X752001Y94952D01*
X752250Y94312D01*
X752253Y93607D01*
X752217Y93583D01*
X752050Y93333D01*
X751837Y93120D01*
X751721Y92841D01*
X751554Y92591D01*
X751495Y92295D01*
X751380Y92017D01*
Y91716D01*
X751321Y91420D01*
X751380Y91125D01*
Y90823D01*
X751411Y90749D01*
X751156Y90113D01*
X750831Y89699D01*
X750542Y89479D01*
X727131D01*
X723900Y92710D01*
Y94536D01*
X725170Y94661D01*
X725248Y94269D01*
X726422Y92512D01*
X728178Y91339D01*
X730250Y90927D01*
X733060D01*
Y112531D01*
X735060D01*
Y90927D01*
D02*
G37*
G36*
X569767Y97330D02*
X574040D01*
Y96330D01*
X575040D01*
Y92580D01*
X577790D01*
Y94016D01*
X580450D01*
Y92580D01*
X583200D01*
Y96330D01*
X585200D01*
Y92580D01*
X587950D01*
Y94016D01*
X590610D01*
Y92580D01*
X593360D01*
Y96330D01*
X595360D01*
Y92580D01*
X598110D01*
Y94016D01*
X600770D01*
Y92580D01*
X603520D01*
Y96330D01*
X605520D01*
Y92580D01*
X608270D01*
Y94016D01*
X610930D01*
Y92580D01*
X613680D01*
Y96330D01*
X615680D01*
Y92580D01*
X618430D01*
Y94016D01*
X620720D01*
X621606Y94192D01*
X622357Y94693D01*
X630017Y102353D01*
X631190Y101867D01*
Y89518D01*
X546835D01*
Y103485D01*
X525835D01*
Y89518D01*
X501650D01*
Y108175D01*
X558921D01*
X569767Y97330D01*
D02*
G37*
G36*
X656370Y182660D02*
X656370Y182660D01*
X656370D01*
X656778Y181559D01*
Y157480D01*
X656777Y157480D01*
X657095Y156715D01*
X657095Y156714D01*
X662175Y151635D01*
X662940Y151318D01*
X663705Y151635D01*
X663706Y151635D01*
X668468Y156398D01*
X705057D01*
X705570Y155340D01*
X705570Y155128D01*
Y149590D01*
X710320D01*
X715070D01*
Y155128D01*
X715070Y155340D01*
X715376Y155970D01*
X716695Y156297D01*
X717738Y155580D01*
Y138430D01*
X717738Y138430D01*
X718055Y137665D01*
X718055Y137664D01*
X722818Y132902D01*
Y130525D01*
X722957Y130188D01*
X723063Y129838D01*
X723113Y129812D01*
X723135Y129760D01*
X723472Y129620D01*
X723794Y129448D01*
X724188Y129409D01*
X725182Y128818D01*
X725346Y128116D01*
Y96945D01*
X725182Y96243D01*
X724188Y95652D01*
X723794Y95613D01*
X723472Y95441D01*
X723135Y95302D01*
X723113Y95250D01*
X723063Y95223D01*
X722957Y94874D01*
X722818Y94536D01*
Y92710D01*
X723135Y91945D01*
X724427Y90652D01*
X723941Y89479D01*
X632298D01*
X632272Y89518D01*
Y101867D01*
X632190Y102066D01*
Y102282D01*
X632038Y102434D01*
X631955Y102633D01*
X631552Y103889D01*
X653655Y125991D01*
X654156Y126742D01*
X654333Y127628D01*
Y194867D01*
X654870Y195226D01*
X656370D01*
Y182660D01*
D02*
G37*
%LPC*%
G36*
X939380Y654850D02*
X930380D01*
Y652634D01*
X922710D01*
X922027Y652499D01*
X921448Y652112D01*
X918667Y649330D01*
X912690D01*
Y645614D01*
X908760D01*
Y647330D01*
X902260D01*
Y641100D01*
X902260Y640330D01*
X902260Y639012D01*
X901362Y638114D01*
X885491D01*
X885239Y638493D01*
X884246Y639156D01*
X883076Y639389D01*
X881905Y639156D01*
X880913Y638493D01*
X880250Y637500D01*
X880017Y636330D01*
X880250Y635159D01*
X880913Y634167D01*
X881905Y633504D01*
X883076Y633271D01*
X884246Y633504D01*
X885239Y634167D01*
X885491Y634546D01*
X902260D01*
Y632830D01*
X908760D01*
Y639060D01*
X908760Y639830D01*
X908760Y641148D01*
X909658Y642046D01*
X911792D01*
X912422Y641415D01*
X912635Y640776D01*
X912190Y639830D01*
X912190Y639767D01*
Y636080D01*
X916940D01*
X921690D01*
Y639767D01*
X921690Y639830D01*
X921190Y640893D01*
X921190Y641100D01*
Y646807D01*
X923449Y649066D01*
X930380D01*
Y646850D01*
X939380D01*
Y654850D01*
D02*
G37*
G36*
X939880Y636350D02*
X935880D01*
Y632850D01*
X939880D01*
Y636350D01*
D02*
G37*
G36*
X933880D02*
X929880D01*
Y632850D01*
X933880D01*
Y636350D01*
D02*
G37*
G36*
X921690Y634080D02*
X917940D01*
Y630330D01*
X921690D01*
Y634080D01*
D02*
G37*
G36*
X915940D02*
X912190D01*
Y630330D01*
X915940D01*
Y634080D01*
D02*
G37*
G36*
X959380Y645350D02*
X950380D01*
Y637350D01*
X953096D01*
Y634084D01*
X945990D01*
X945307Y633948D01*
X944728Y633562D01*
X941053Y629887D01*
X939880Y630373D01*
Y630850D01*
X935880D01*
Y627350D01*
X936857D01*
X937343Y626177D01*
X933329Y622163D01*
X932943Y621584D01*
X932807Y620901D01*
Y620530D01*
X912450D01*
Y606530D01*
X951005D01*
X951051Y606297D01*
X951438Y605718D01*
X967616Y589541D01*
Y483310D01*
X965450D01*
Y476810D01*
X973350D01*
Y483310D01*
X971184D01*
Y590280D01*
X971049Y590963D01*
X970662Y591541D01*
X954484Y607719D01*
Y608280D01*
X954450Y608452D01*
Y620530D01*
X938403D01*
X937916Y621703D01*
X946729Y630516D01*
X954880D01*
X955563Y630652D01*
X956142Y631038D01*
X956528Y631617D01*
X956664Y632300D01*
Y637350D01*
X959380D01*
Y645350D01*
D02*
G37*
G36*
X933880Y630850D02*
X929880D01*
Y627350D01*
X933880D01*
Y630850D01*
D02*
G37*
G36*
X813150Y624510D02*
X809150D01*
Y620760D01*
X813150D01*
Y624510D01*
D02*
G37*
G36*
X419180Y623520D02*
X410180D01*
Y615020D01*
X419180D01*
Y623520D01*
D02*
G37*
G36*
X813150Y618760D02*
X809150D01*
Y615010D01*
X813150D01*
Y618760D01*
D02*
G37*
G36*
X176730Y624660D02*
X171730D01*
Y614160D01*
X176730D01*
Y624660D01*
D02*
G37*
G36*
X1019580Y616738D02*
X1017824Y616389D01*
X1016336Y615395D01*
X1015341Y613906D01*
X1014992Y612150D01*
X1015341Y610394D01*
X1016336Y608906D01*
X1017824Y607911D01*
X1019580Y607562D01*
X1021336Y607911D01*
X1022824Y608906D01*
X1023819Y610394D01*
X1024168Y612150D01*
X1023819Y613906D01*
X1022824Y615395D01*
X1021336Y616389D01*
X1019580Y616738D01*
D02*
G37*
G36*
X999580D02*
X997824Y616389D01*
X996336Y615395D01*
X995341Y613906D01*
X994992Y612150D01*
X995341Y610394D01*
X996336Y608906D01*
X997824Y607911D01*
X999580Y607562D01*
X1001336Y607911D01*
X1002824Y608906D01*
X1003819Y610394D01*
X1004168Y612150D01*
X1003819Y613906D01*
X1002824Y615395D01*
X1001336Y616389D01*
X999580Y616738D01*
D02*
G37*
G36*
X430530Y629164D02*
X392430D01*
X391747Y629029D01*
X391168Y628642D01*
X387358Y624832D01*
X386972Y624253D01*
X386836Y623570D01*
Y622830D01*
X384620D01*
Y620114D01*
X365600D01*
X364917Y619978D01*
X364338Y619592D01*
X359691Y614944D01*
X348330D01*
Y624160D01*
X337330D01*
Y602160D01*
X348330D01*
Y611376D01*
X360430D01*
X361113Y611512D01*
X361692Y611898D01*
X366339Y616546D01*
X384620D01*
Y613830D01*
X392620D01*
Y622830D01*
X392199D01*
X391673Y624100D01*
X393169Y625596D01*
X429791D01*
X430694Y624693D01*
X430207Y623520D01*
X429180D01*
Y615020D01*
X438180D01*
Y617486D01*
X445521D01*
X449066Y613941D01*
Y610826D01*
X448044D01*
Y605270D01*
X447544D01*
Y602492D01*
X450850D01*
X454156D01*
Y605270D01*
X453656D01*
Y610826D01*
X452634D01*
Y614680D01*
X452499Y615363D01*
X452112Y615942D01*
X447522Y620531D01*
X446943Y620918D01*
X446260Y621054D01*
X438180D01*
Y623520D01*
X435464D01*
Y624230D01*
X435329Y624913D01*
X434942Y625492D01*
X431792Y628642D01*
X431213Y629029D01*
X430530Y629164D01*
D02*
G37*
G36*
X335630Y624160D02*
X324630D01*
Y602160D01*
X335630D01*
Y624160D01*
D02*
G37*
G36*
X297530D02*
X286530D01*
Y602160D01*
X297530D01*
Y624160D01*
D02*
G37*
G36*
X259430D02*
X248430D01*
Y602160D01*
X259430D01*
Y624160D01*
D02*
G37*
G36*
X208630D02*
X197630D01*
Y602160D01*
X208630D01*
Y624160D01*
D02*
G37*
G36*
X183730Y624660D02*
X178730D01*
Y613160D01*
Y601660D01*
X183730D01*
Y601991D01*
X184930Y602160D01*
X185000Y602160D01*
X195930D01*
Y624160D01*
X185000D01*
X184930Y624160D01*
X183730Y624329D01*
Y624660D01*
D02*
G37*
G36*
X176730Y612160D02*
X171730D01*
Y601660D01*
X176730D01*
Y612160D01*
D02*
G37*
G36*
X454156Y600492D02*
X451850D01*
Y597714D01*
X454156D01*
Y600492D01*
D02*
G37*
G36*
X449850D02*
X447544D01*
Y597714D01*
X449850D01*
Y600492D01*
D02*
G37*
G36*
X419680Y594520D02*
X415680D01*
Y590770D01*
X419680D01*
Y594520D01*
D02*
G37*
G36*
X413680D02*
X409680D01*
Y590770D01*
X413680D01*
Y594520D01*
D02*
G37*
G36*
X438180Y594020D02*
X429180D01*
Y585520D01*
X438180D01*
Y594020D01*
D02*
G37*
G36*
X419680Y588770D02*
X415680D01*
Y585020D01*
X419680D01*
Y588770D01*
D02*
G37*
G36*
X413680D02*
X409680D01*
Y585020D01*
X413680D01*
Y588770D01*
D02*
G37*
G36*
X363830Y590810D02*
X341830D01*
Y579810D01*
X363830D01*
Y590810D01*
D02*
G37*
G36*
X657664Y576110D02*
X651664D01*
Y570610D01*
X657664D01*
Y576110D01*
D02*
G37*
G36*
X649664D02*
X643664D01*
Y570610D01*
X649664D01*
Y576110D01*
D02*
G37*
G36*
X363830Y578110D02*
X341830D01*
Y567110D01*
X363830D01*
Y578110D01*
D02*
G37*
G36*
X635911Y569416D02*
X633605D01*
Y566638D01*
X635911D01*
Y569416D01*
D02*
G37*
G36*
X621796D02*
X619490D01*
Y566638D01*
X621796D01*
Y569416D01*
D02*
G37*
G36*
X631605D02*
X629299D01*
Y566638D01*
X631605D01*
Y569416D01*
D02*
G37*
G36*
X617490D02*
X615184D01*
Y566638D01*
X617490D01*
Y569416D01*
D02*
G37*
G36*
X511810Y636784D02*
X288290D01*
X287607Y636648D01*
X287028Y636262D01*
X278068Y627302D01*
X277681Y626723D01*
X277546Y626040D01*
Y624160D01*
X273830D01*
Y602160D01*
X284830D01*
Y624160D01*
X281426D01*
X281243Y625430D01*
X289029Y633216D01*
X511071D01*
X576150Y568137D01*
X576061Y567690D01*
X576294Y566520D01*
X576957Y565527D01*
X577949Y564864D01*
X579120Y564631D01*
X580290Y564864D01*
X581283Y565527D01*
X581946Y566520D01*
X582179Y567690D01*
X581946Y568861D01*
X581283Y569853D01*
X580290Y570516D01*
X579120Y570749D01*
X578673Y570660D01*
X513072Y636262D01*
X512493Y636648D01*
X511810Y636784D01*
D02*
G37*
G36*
X221330Y624160D02*
X210330D01*
Y602160D01*
X214046D01*
Y572840D01*
X214181Y572157D01*
X214568Y571578D01*
X218010Y568137D01*
X217921Y567690D01*
X218154Y566520D01*
X218817Y565527D01*
X219809Y564864D01*
X220980Y564631D01*
X222150Y564864D01*
X223143Y565527D01*
X223806Y566520D01*
X224039Y567690D01*
X223806Y568861D01*
X223143Y569853D01*
X222150Y570516D01*
X220980Y570749D01*
X220533Y570660D01*
X217614Y573579D01*
Y602160D01*
X221330D01*
Y624160D01*
D02*
G37*
G36*
X649664Y568610D02*
X643664D01*
Y563110D01*
X649664D01*
Y568610D01*
D02*
G37*
G36*
X272130Y624160D02*
X261130D01*
Y602160D01*
X264846D01*
Y559469D01*
X262067Y556690D01*
X261620Y556779D01*
X260450Y556546D01*
X259457Y555883D01*
X258794Y554891D01*
X258561Y553720D01*
X258794Y552550D01*
X259457Y551557D01*
X260450Y550894D01*
X261620Y550661D01*
X262791Y550894D01*
X263783Y551557D01*
X264446Y552550D01*
X264679Y553720D01*
X264590Y554167D01*
X267892Y557468D01*
X268278Y558047D01*
X268414Y558730D01*
Y602160D01*
X272130D01*
Y624160D01*
D02*
G37*
G36*
X234030D02*
X223030D01*
Y602160D01*
X226746D01*
Y567760D01*
X226881Y567077D01*
X227268Y566498D01*
X234520Y559247D01*
X234431Y558800D01*
X234664Y557630D01*
X235327Y556637D01*
X236320Y555974D01*
X237490Y555741D01*
X238661Y555974D01*
X239653Y556637D01*
X240316Y557630D01*
X240549Y558800D01*
X240316Y559971D01*
X239653Y560963D01*
X238661Y561626D01*
X237490Y561859D01*
X237043Y561770D01*
X230314Y568499D01*
Y602160D01*
X234030D01*
Y624160D01*
D02*
G37*
G36*
X322930D02*
X311930D01*
Y602160D01*
X315646D01*
Y545148D01*
X314992Y544721D01*
X314418Y544563D01*
X313591Y545116D01*
X312420Y545349D01*
X311973Y545260D01*
X306514Y550719D01*
Y602160D01*
X310230D01*
Y624160D01*
X299230D01*
Y602160D01*
X302946D01*
Y549980D01*
X303081Y549297D01*
X303468Y548718D01*
X309450Y542737D01*
X309361Y542290D01*
X309594Y541119D01*
X310257Y540127D01*
X311250Y539464D01*
X312420Y539231D01*
X313591Y539464D01*
X314583Y540127D01*
X315246Y541119D01*
X315479Y542290D01*
X315419Y542592D01*
X316589Y543218D01*
X320880Y538927D01*
X320791Y538480D01*
X321024Y537309D01*
X321687Y536317D01*
X322679Y535654D01*
X323850Y535421D01*
X325020Y535654D01*
X326013Y536317D01*
X326676Y537309D01*
X326909Y538480D01*
X326676Y539650D01*
X326013Y540643D01*
X325020Y541306D01*
X323850Y541539D01*
X323403Y541450D01*
X319214Y545639D01*
Y602160D01*
X322930D01*
Y624160D01*
D02*
G37*
G36*
X279230Y544660D02*
X272080D01*
Y537510D01*
X279230D01*
Y544660D01*
D02*
G37*
G36*
X242530D02*
X235380D01*
Y537510D01*
X242530D01*
Y544660D01*
D02*
G37*
G36*
X246730Y624160D02*
X235730D01*
Y602160D01*
X239446D01*
Y565220D01*
X239581Y564537D01*
X239968Y563958D01*
X257380Y546547D01*
X257291Y546100D01*
X257325Y545930D01*
X256293Y544660D01*
X253730D01*
Y537510D01*
X260880D01*
Y542468D01*
X261749Y542904D01*
X262930Y542214D01*
Y537510D01*
X270080D01*
Y544660D01*
X264407D01*
X263375Y545930D01*
X263409Y546100D01*
X263176Y547271D01*
X262513Y548263D01*
X261521Y548926D01*
X260350Y549159D01*
X259903Y549070D01*
X243014Y565959D01*
Y602160D01*
X246730D01*
Y624160D01*
D02*
G37*
G36*
X251730Y544660D02*
X244580D01*
Y537510D01*
X251730D01*
Y544660D01*
D02*
G37*
G36*
X233380D02*
X226230D01*
Y537510D01*
X233380D01*
Y544660D01*
D02*
G37*
G36*
X433578Y538491D02*
X432407Y538258D01*
X431415Y537595D01*
X430752Y536603D01*
X430519Y535432D01*
X430752Y534262D01*
X431415Y533269D01*
X431726Y533062D01*
Y531698D01*
X430828Y530800D01*
X429510Y530800D01*
X428240Y530800D01*
X421010D01*
Y528834D01*
X412626D01*
X412373Y529213D01*
X411381Y529876D01*
X410210Y530109D01*
X409039Y529876D01*
X408047Y529213D01*
X407384Y528220D01*
X407151Y527050D01*
X407384Y525880D01*
X408047Y524887D01*
X409039Y524224D01*
X410210Y523991D01*
X411381Y524224D01*
X412373Y524887D01*
X412626Y525266D01*
X421010D01*
Y523300D01*
X428240D01*
X429010Y523300D01*
X430280Y523300D01*
X431726D01*
Y521538D01*
X430828Y520640D01*
X429510Y520640D01*
X428240Y520640D01*
X421010D01*
Y518674D01*
X388620D01*
X387937Y518539D01*
X387358Y518152D01*
X367401Y498194D01*
X363830D01*
Y501910D01*
X341830D01*
Y490910D01*
X363830D01*
Y494626D01*
X368140D01*
X368823Y494762D01*
X369402Y495148D01*
X389359Y515106D01*
X421010D01*
Y513140D01*
X428240D01*
X429010Y513140D01*
X430280Y513140D01*
X431726D01*
Y511378D01*
X430828Y510480D01*
X429510Y510480D01*
X428240Y510480D01*
X421010D01*
Y508514D01*
X396116D01*
X395863Y508893D01*
X394870Y509556D01*
X393700Y509789D01*
X392529Y509556D01*
X391537Y508893D01*
X390874Y507901D01*
X390641Y506730D01*
X390874Y505560D01*
X391537Y504567D01*
X392529Y503904D01*
X393700Y503671D01*
X394870Y503904D01*
X395863Y504567D01*
X396116Y504946D01*
X421010D01*
Y502980D01*
X428240D01*
X429010Y502980D01*
X430280Y502980D01*
X437510D01*
Y510480D01*
X435294D01*
Y513140D01*
X437510D01*
Y520640D01*
X435294D01*
Y523300D01*
X437510D01*
Y530800D01*
X435294D01*
Y532971D01*
X435741Y533269D01*
X436404Y534262D01*
X436637Y535432D01*
X436404Y536603D01*
X435741Y537595D01*
X434748Y538258D01*
X433578Y538491D01*
D02*
G37*
G36*
X279230Y535510D02*
X272080D01*
Y528360D01*
X279230D01*
Y535510D01*
D02*
G37*
G36*
X270080D02*
X262930D01*
Y528360D01*
X270080D01*
Y535510D01*
D02*
G37*
G36*
X260880D02*
X253730D01*
Y528360D01*
X260880D01*
Y535510D01*
D02*
G37*
G36*
X251730D02*
X244580D01*
Y528360D01*
X251730D01*
Y535510D01*
D02*
G37*
G36*
X242530D02*
X235380D01*
Y528360D01*
X242530D01*
Y535510D01*
D02*
G37*
G36*
X233380D02*
X226230D01*
Y528360D01*
X233380D01*
Y535510D01*
D02*
G37*
G36*
X279230Y526310D02*
X272080D01*
Y519160D01*
X279230D01*
Y526310D01*
D02*
G37*
G36*
X260880D02*
X253730D01*
Y519160D01*
X260880D01*
Y526310D01*
D02*
G37*
G36*
X242530D02*
X235380D01*
Y519160D01*
X242530D01*
Y526310D01*
D02*
G37*
G36*
X270080D02*
X262930D01*
Y519160D01*
X270080D01*
Y526310D01*
D02*
G37*
G36*
X251730D02*
X244580D01*
Y519160D01*
X251730D01*
Y526310D01*
D02*
G37*
G36*
X233380D02*
X226230D01*
Y519160D01*
X233380D01*
Y526310D01*
D02*
G37*
G36*
X363830Y527310D02*
X341830D01*
Y516310D01*
X363830D01*
Y527310D01*
D02*
G37*
G36*
X279230Y517160D02*
X272080D01*
Y510010D01*
X279230D01*
Y517160D01*
D02*
G37*
G36*
X270080D02*
X262930D01*
Y510010D01*
X270080D01*
Y517160D01*
D02*
G37*
G36*
X260880D02*
X253730D01*
Y510010D01*
X260880D01*
Y517160D01*
D02*
G37*
G36*
X251730D02*
X244580D01*
Y510010D01*
X251730D01*
Y517160D01*
D02*
G37*
G36*
X242530D02*
X235380D01*
Y510010D01*
X242530D01*
Y517160D01*
D02*
G37*
G36*
X233380D02*
X226230D01*
Y510010D01*
X233380D01*
Y517160D01*
D02*
G37*
G36*
X279230Y507960D02*
X272080D01*
Y500810D01*
X279230D01*
Y507960D01*
D02*
G37*
G36*
X260880D02*
X253730D01*
Y500810D01*
X260880D01*
Y507960D01*
D02*
G37*
G36*
X242530D02*
X235380D01*
Y500810D01*
X242530D01*
Y507960D01*
D02*
G37*
G36*
X270080D02*
X262930D01*
Y500810D01*
X270080D01*
Y507960D01*
D02*
G37*
G36*
X251730D02*
X244580D01*
Y500810D01*
X251730D01*
Y507960D01*
D02*
G37*
G36*
X233380D02*
X226230D01*
Y500810D01*
X233380D01*
Y507960D01*
D02*
G37*
G36*
X812772Y502202D02*
X809195D01*
Y498840D01*
X812772D01*
Y502202D01*
D02*
G37*
G36*
Y496840D02*
X809195D01*
Y493478D01*
X812772D01*
Y496840D01*
D02*
G37*
G36*
X279230Y498810D02*
X272080D01*
Y491660D01*
X279230D01*
Y498810D01*
D02*
G37*
G36*
X270080D02*
X262930D01*
Y491660D01*
X270080D01*
Y498810D01*
D02*
G37*
G36*
X260880D02*
X253730D01*
Y491660D01*
X260880D01*
Y498810D01*
D02*
G37*
G36*
X251730D02*
X244580D01*
Y491660D01*
X251730D01*
Y498810D01*
D02*
G37*
G36*
X242530D02*
X235380D01*
Y491660D01*
X242530D01*
Y498810D01*
D02*
G37*
G36*
X233380D02*
X226230D01*
Y491660D01*
X233380D01*
Y498810D01*
D02*
G37*
G36*
X810716Y485906D02*
X807938D01*
Y483600D01*
X810716D01*
Y485906D01*
D02*
G37*
G36*
Y481600D02*
X807938D01*
Y479294D01*
X810716D01*
Y481600D01*
D02*
G37*
G36*
X363830Y489210D02*
X341830D01*
Y478280D01*
X341830Y478210D01*
X341661Y477010D01*
X341330D01*
Y472010D01*
X352830D01*
X364330D01*
Y477010D01*
X363999D01*
X363830Y478210D01*
X363830Y478280D01*
Y489210D01*
D02*
G37*
G36*
X445950Y474100D02*
X442550D01*
Y470900D01*
X445950D01*
Y474100D01*
D02*
G37*
G36*
X815470Y471352D02*
X811180D01*
Y466791D01*
X815470D01*
Y471352D01*
D02*
G37*
G36*
X809180D02*
X804889D01*
Y466791D01*
X809180D01*
Y471352D01*
D02*
G37*
G36*
X364330Y470010D02*
X353830D01*
Y465010D01*
X364330D01*
Y470010D01*
D02*
G37*
G36*
X351830D02*
X341330D01*
Y465010D01*
X351830D01*
Y470010D01*
D02*
G37*
G36*
X252730Y462092D02*
X237394D01*
X237312Y462058D01*
X237225Y462079D01*
X236939Y461904D01*
X236629Y461775D01*
X236614Y461761D01*
X235543Y461088D01*
X235195Y461318D01*
X234512Y461454D01*
X207264D01*
X206581Y461318D01*
X206002Y460932D01*
X201868Y456797D01*
X201481Y456219D01*
X201346Y455536D01*
Y454160D01*
X197630D01*
Y434478D01*
X197563Y434412D01*
X197200Y434276D01*
X195930Y435154D01*
Y454160D01*
X185000D01*
X184930Y454160D01*
X183730Y454329D01*
Y454660D01*
X178730D01*
Y443160D01*
Y431660D01*
X183730D01*
Y431991D01*
X184930Y432160D01*
X185000Y432160D01*
X188115D01*
Y425012D01*
X188292Y424126D01*
X188793Y423376D01*
X193435Y418733D01*
X194186Y418232D01*
X195072Y418055D01*
X207391D01*
X208004Y417339D01*
X208224Y416786D01*
X208306Y416587D01*
Y416371D01*
X208459Y416219D01*
X208541Y416020D01*
X222764Y401797D01*
X222238Y400527D01*
X217345D01*
Y395902D01*
X221970D01*
Y394902D01*
X222970D01*
Y389277D01*
X223946D01*
Y385679D01*
X223915Y385520D01*
X223939Y385399D01*
X223894Y385285D01*
X223896Y385210D01*
X223855Y385111D01*
Y385000D01*
X223793Y384908D01*
X223734Y384613D01*
X223755Y384508D01*
X223708Y384392D01*
Y381650D01*
X217887D01*
Y374650D01*
Y367650D01*
X223708D01*
Y365760D01*
X224025Y364995D01*
X224025Y364995D01*
X226565Y362455D01*
X227330Y362138D01*
X259333D01*
X260160Y361210D01*
Y352210D01*
X268160D01*
Y361210D01*
X265944D01*
Y368150D01*
X275890D01*
Y381150D01*
X275714D01*
Y391010D01*
X281180D01*
Y401486D01*
X282817Y403123D01*
X291570D01*
Y400908D01*
X294286D01*
Y379164D01*
X294422Y378481D01*
X294808Y377902D01*
X297442Y375268D01*
X298021Y374882D01*
X298704Y374746D01*
X303580D01*
Y372030D01*
X312080D01*
Y372030D01*
X312928Y372381D01*
X314192Y371117D01*
Y344170D01*
X314328Y343487D01*
X314714Y342908D01*
X315004Y342715D01*
Y341364D01*
X320560D01*
Y340864D01*
X323338D01*
Y344170D01*
Y347476D01*
X320560D01*
Y346976D01*
X317760D01*
Y371856D01*
X317624Y372539D01*
X317238Y373118D01*
X312564Y377792D01*
X312080Y378115D01*
Y381030D01*
X303580D01*
Y378314D01*
X299443D01*
X297854Y379903D01*
Y400908D01*
X300570D01*
Y408908D01*
X291570D01*
Y406692D01*
X282078D01*
X281395Y406556D01*
X280816Y406169D01*
X278657Y404010D01*
X275583D01*
X275578Y404035D01*
X275191Y404614D01*
X273668Y406138D01*
X273089Y406525D01*
X272406Y406660D01*
X262702D01*
Y432160D01*
X272130D01*
Y454160D01*
X261130D01*
X261130Y454160D01*
X261130Y454160D01*
X259936Y453976D01*
X259628Y453971D01*
X259430Y454160D01*
X259393Y455430D01*
X259310Y455629D01*
Y455844D01*
X259158Y455996D01*
X259076Y456195D01*
X253495Y461775D01*
X252730Y462092D01*
D02*
G37*
G36*
X815470Y464791D02*
X811180D01*
Y460231D01*
X815470D01*
Y464791D01*
D02*
G37*
G36*
X809180D02*
X804889D01*
Y460231D01*
X809180D01*
Y464791D01*
D02*
G37*
G36*
X445950Y459897D02*
X442550D01*
Y456697D01*
X445950D01*
Y459897D01*
D02*
G37*
G36*
X456110Y448700D02*
X452710D01*
Y445500D01*
X456110D01*
Y448700D01*
D02*
G37*
G36*
X540802Y447806D02*
X538024D01*
Y445500D01*
X540802D01*
Y447806D01*
D02*
G37*
G36*
X176730Y454660D02*
X171730D01*
Y444160D01*
X176730D01*
Y454660D01*
D02*
G37*
G36*
X461510Y448700D02*
X458110D01*
Y444500D01*
X457110D01*
Y443500D01*
X452710D01*
Y440300D01*
X451671Y439743D01*
X449630D01*
Y433242D01*
X459130D01*
Y439030D01*
X459130Y439742D01*
X460169Y440300D01*
X461510D01*
Y440800D01*
X463126D01*
Y440601D01*
X463261Y439918D01*
X463648Y439339D01*
X472006Y430981D01*
X472585Y430594D01*
X473268Y430458D01*
X478630D01*
Y425243D01*
X498630D01*
Y439243D01*
X479806D01*
X479280Y440513D01*
X479762Y440995D01*
X481080Y440995D01*
X482350Y440995D01*
X489580D01*
Y442961D01*
X515236D01*
X515489Y442582D01*
X516482Y441919D01*
X517652Y441686D01*
X518823Y441919D01*
X519815Y442582D01*
X520478Y443574D01*
X520711Y444745D01*
X520478Y445915D01*
X519815Y446908D01*
X518823Y447571D01*
X517652Y447804D01*
X516482Y447571D01*
X515489Y446908D01*
X515236Y446529D01*
X489580D01*
Y448495D01*
X482350D01*
X481580Y448495D01*
X480310Y448495D01*
X473080D01*
Y440995D01*
X475296D01*
Y434714D01*
X474138Y434027D01*
X474007D01*
X468348Y439686D01*
X468810Y440800D01*
X468810D01*
Y448200D01*
X461510D01*
Y448700D01*
D02*
G37*
G36*
X540802Y443500D02*
X538024D01*
Y441194D01*
X540802D01*
Y443500D01*
D02*
G37*
G36*
X447630Y439743D02*
X438130D01*
Y433242D01*
X447630D01*
Y439743D01*
D02*
G37*
G36*
X348330Y454160D02*
X337330D01*
Y432160D01*
X348330D01*
Y454160D01*
D02*
G37*
G36*
X297530D02*
X286530D01*
Y432160D01*
X297530D01*
Y454160D01*
D02*
G37*
G36*
X284830D02*
X273830D01*
Y432160D01*
X284830D01*
Y454160D01*
D02*
G37*
G36*
X176730Y442160D02*
X171730D01*
Y431660D01*
X176730D01*
Y442160D01*
D02*
G37*
G36*
X459130Y431242D02*
X449630D01*
Y424743D01*
X459130D01*
Y431242D01*
D02*
G37*
G36*
X447630D02*
X438130D01*
Y424743D01*
X447630D01*
Y431242D01*
D02*
G37*
G36*
X499130Y415742D02*
X489630D01*
Y409243D01*
X499130D01*
Y415742D01*
D02*
G37*
G36*
X487630D02*
X478130D01*
Y409243D01*
X487630D01*
Y415742D01*
D02*
G37*
G36*
X499130Y407243D02*
X489630D01*
Y400742D01*
X499130D01*
Y407243D01*
D02*
G37*
G36*
X543830Y402905D02*
X540830D01*
Y399905D01*
X543830D01*
Y402905D01*
D02*
G37*
G36*
X456110Y399170D02*
X452710D01*
Y395970D01*
X456110D01*
Y399170D01*
D02*
G37*
G36*
X543830Y397905D02*
X540830D01*
Y394905D01*
X543830D01*
Y397905D01*
D02*
G37*
G36*
X456110Y393970D02*
X452710D01*
Y390770D01*
X456110D01*
Y393970D01*
D02*
G37*
G36*
X220970Y393902D02*
X217345D01*
Y389277D01*
X220970D01*
Y393902D01*
D02*
G37*
G36*
X998740Y377900D02*
X992240D01*
Y376434D01*
X985396D01*
X985143Y376813D01*
X984150Y377476D01*
X982980Y377709D01*
X981809Y377476D01*
X980817Y376813D01*
X980154Y375821D01*
X979921Y374650D01*
X980154Y373479D01*
X980817Y372487D01*
X981809Y371824D01*
X982980Y371591D01*
X984150Y371824D01*
X985143Y372487D01*
X985396Y372866D01*
X992240D01*
Y371400D01*
X998740D01*
Y377900D01*
D02*
G37*
G36*
X215888Y381650D02*
X209138D01*
Y375650D01*
X215888D01*
Y381650D01*
D02*
G37*
G36*
X341580Y381030D02*
X333080D01*
Y372030D01*
X341580D01*
Y381030D01*
D02*
G37*
G36*
X215888Y373650D02*
X209138D01*
Y367650D01*
X215888D01*
Y373650D01*
D02*
G37*
G36*
X998740Y367740D02*
X992240D01*
Y366274D01*
X973966D01*
X973713Y366653D01*
X972720Y367316D01*
X971550Y367549D01*
X970379Y367316D01*
X969387Y366653D01*
X968724Y365661D01*
X968491Y364490D01*
X968724Y363320D01*
X969387Y362327D01*
X970379Y361664D01*
X971550Y361431D01*
X972720Y361664D01*
X973713Y362327D01*
X973966Y362706D01*
X992240D01*
Y361240D01*
X998740D01*
Y367740D01*
D02*
G37*
G36*
X342080Y362530D02*
X338330D01*
Y358530D01*
X342080D01*
Y362530D01*
D02*
G37*
G36*
X336330D02*
X332580D01*
Y358530D01*
X336330D01*
Y362530D01*
D02*
G37*
G36*
X312080Y362030D02*
X303580D01*
Y353030D01*
X312080D01*
Y362030D01*
D02*
G37*
G36*
X342080Y356530D02*
X338330D01*
Y352530D01*
X342080D01*
Y356530D01*
D02*
G37*
G36*
X336330D02*
X332580D01*
Y352530D01*
X336330D01*
Y356530D01*
D02*
G37*
G36*
X328116Y347476D02*
X325338D01*
Y345170D01*
X328116D01*
Y347476D01*
D02*
G37*
G36*
Y343170D02*
X325338D01*
Y340864D01*
X328116D01*
Y343170D01*
D02*
G37*
G36*
X278160Y341710D02*
X274660D01*
Y337710D01*
X278160D01*
Y341710D01*
D02*
G37*
G36*
X272660D02*
X269160D01*
Y337710D01*
X272660D01*
Y341710D01*
D02*
G37*
G36*
X543830Y339643D02*
X540830D01*
Y336643D01*
X543830D01*
Y339643D01*
D02*
G37*
G36*
X538830D02*
X535830D01*
Y336643D01*
X538830D01*
Y339643D01*
D02*
G37*
G36*
X242924Y340371D02*
X241754Y340138D01*
X240761Y339475D01*
X240098Y338483D01*
X239865Y337312D01*
X239954Y336865D01*
X237598Y334510D01*
X237212Y333931D01*
X237076Y333248D01*
Y307510D01*
X234360D01*
Y297010D01*
X235386D01*
Y290830D01*
X231170D01*
Y264330D01*
X243170D01*
Y290830D01*
X238954D01*
Y297010D01*
X243360D01*
Y307510D01*
X240644D01*
Y332509D01*
X242477Y334342D01*
X242924Y334253D01*
X244095Y334486D01*
X245087Y335149D01*
X245750Y336142D01*
X245983Y337312D01*
X245750Y338483D01*
X245087Y339475D01*
X244095Y340138D01*
X242924Y340371D01*
D02*
G37*
G36*
X998740Y357580D02*
X992240D01*
Y353603D01*
X971997Y333360D01*
X971550Y333449D01*
X970379Y333216D01*
X969387Y332553D01*
X968724Y331561D01*
X968491Y330390D01*
X968724Y329220D01*
X969387Y328227D01*
X970379Y327564D01*
X971550Y327331D01*
X972720Y327564D01*
X973713Y328227D01*
X974376Y329220D01*
X974609Y330390D01*
X974520Y330837D01*
X994763Y351080D01*
X998740D01*
Y357580D01*
D02*
G37*
G36*
X278160Y335710D02*
X274660D01*
Y331710D01*
X278160D01*
Y335710D01*
D02*
G37*
G36*
X272660D02*
X269160D01*
Y331710D01*
X272660D01*
Y335710D01*
D02*
G37*
G36*
X543830Y334643D02*
X540830D01*
Y331643D01*
X543830D01*
Y334643D01*
D02*
G37*
G36*
X538830D02*
X535830D01*
Y331643D01*
X538830D01*
Y334643D01*
D02*
G37*
G36*
X594614Y336053D02*
X593443Y335820D01*
X592451Y335157D01*
X591788Y334165D01*
X591555Y332994D01*
X591644Y332547D01*
X577281Y318184D01*
X576834Y318273D01*
X575663Y318040D01*
X574671Y317377D01*
X574008Y316385D01*
X573775Y315214D01*
X574008Y314044D01*
X574671Y313051D01*
X575663Y312388D01*
X576834Y312155D01*
X578004Y312388D01*
X578997Y313051D01*
X579660Y314044D01*
X579893Y315214D01*
X579804Y315661D01*
X594167Y330024D01*
X594614Y329935D01*
X595784Y330168D01*
X596777Y330831D01*
X597440Y331824D01*
X597673Y332994D01*
X597440Y334165D01*
X596777Y335157D01*
X595784Y335820D01*
X594614Y336053D01*
D02*
G37*
G36*
X319278Y334275D02*
X318107Y334042D01*
X317115Y333379D01*
X316862Y333000D01*
X303778D01*
X303095Y332864D01*
X302516Y332478D01*
X263908Y293870D01*
X263521Y293291D01*
X263386Y292608D01*
Y290830D01*
X259170D01*
Y264330D01*
X271170D01*
Y290830D01*
X267512D01*
X267185Y292100D01*
X304517Y329432D01*
X316862D01*
X317115Y329053D01*
X318107Y328390D01*
X319278Y328157D01*
X320448Y328390D01*
X321441Y329053D01*
X322104Y330046D01*
X322337Y331216D01*
X322104Y332387D01*
X321441Y333379D01*
X320448Y334042D01*
X319278Y334275D01*
D02*
G37*
G36*
X258660Y341210D02*
X250660D01*
Y332210D01*
X253486D01*
Y328560D01*
X252020D01*
Y322330D01*
X252020Y321560D01*
X252020Y320290D01*
Y314060D01*
X258520D01*
Y315866D01*
X258747Y315912D01*
X259326Y316298D01*
X267463Y324436D01*
X267910Y324347D01*
X269081Y324580D01*
X270073Y325243D01*
X270736Y326236D01*
X270969Y327406D01*
X270736Y328577D01*
X270073Y329569D01*
X269081Y330232D01*
X267910Y330465D01*
X266740Y330232D01*
X265747Y329569D01*
X265084Y328577D01*
X264851Y327406D01*
X264940Y326959D01*
X259790Y321809D01*
X258520Y322335D01*
Y328560D01*
X257054D01*
Y332210D01*
X258660D01*
Y341210D01*
D02*
G37*
G36*
X540802Y323891D02*
X538024D01*
Y321585D01*
X540802D01*
Y323891D01*
D02*
G37*
G36*
X417360Y361530D02*
X409360D01*
Y352530D01*
X411576D01*
Y325250D01*
X411197Y324997D01*
X410534Y324005D01*
X410301Y322834D01*
X410534Y321664D01*
X411197Y320671D01*
X412190Y320008D01*
X413360Y319775D01*
X414531Y320008D01*
X415523Y320671D01*
X416186Y321664D01*
X416419Y322834D01*
X416186Y324005D01*
X415523Y324997D01*
X415144Y325250D01*
Y352530D01*
X417360D01*
Y361530D01*
D02*
G37*
G36*
X540802Y319585D02*
X538024D01*
Y317278D01*
X540802D01*
Y319585D01*
D02*
G37*
G36*
X256360Y308010D02*
X252360D01*
Y303260D01*
X256360D01*
Y308010D01*
D02*
G37*
G36*
X250360D02*
X246360D01*
Y303260D01*
X250360D01*
Y308010D01*
D02*
G37*
G36*
X256360Y301260D02*
X252360D01*
Y296510D01*
X256360D01*
Y301260D01*
D02*
G37*
G36*
X250360D02*
X246360D01*
Y296510D01*
X250360D01*
Y301260D01*
D02*
G37*
G36*
X319278Y294397D02*
X318107Y294164D01*
X317115Y293501D01*
X316452Y292509D01*
X316219Y291338D01*
X316308Y290891D01*
X314343Y288927D01*
X313170Y289412D01*
Y290830D01*
X301170D01*
Y264330D01*
X313170D01*
Y283048D01*
X313357Y283085D01*
X313936Y283472D01*
X318831Y288368D01*
X319278Y288279D01*
X320448Y288512D01*
X321441Y289175D01*
X322104Y290168D01*
X322337Y291338D01*
X322104Y292509D01*
X321441Y293501D01*
X320448Y294164D01*
X319278Y294397D01*
D02*
G37*
G36*
X257670Y291330D02*
X252170D01*
Y278580D01*
X257670D01*
Y291330D01*
D02*
G37*
G36*
X224170D02*
Y278580D01*
X229670D01*
Y291330D01*
X224170D01*
D02*
G37*
G36*
X250170D02*
X244670D01*
Y278580D01*
X250170D01*
Y291330D01*
D02*
G37*
G36*
X208170D02*
X202670D01*
Y278580D01*
X208170D01*
Y291330D01*
D02*
G37*
G36*
X343870Y270130D02*
X331120D01*
Y264630D01*
X343870D01*
Y270130D01*
D02*
G37*
G36*
X329120D02*
X316370D01*
Y264630D01*
X329120D01*
Y270130D01*
D02*
G37*
G36*
X279170Y297675D02*
X277999Y297442D01*
X277007Y296779D01*
X276344Y295787D01*
X276111Y294616D01*
X276344Y293446D01*
X277007Y292453D01*
X277386Y292200D01*
Y290830D01*
X273170D01*
Y264330D01*
X285170D01*
Y290830D01*
X280954D01*
Y292200D01*
X281333Y292453D01*
X281996Y293446D01*
X282229Y294616D01*
X281996Y295787D01*
X281333Y296779D01*
X280340Y297442D01*
X279170Y297675D01*
D02*
G37*
G36*
X257670Y276580D02*
X252170D01*
Y263830D01*
X257670D01*
Y276580D01*
D02*
G37*
G36*
X250170D02*
X244670D01*
Y263830D01*
X250170D01*
Y276580D01*
D02*
G37*
G36*
X229670D02*
X224170D01*
Y263830D01*
X229670D01*
Y276580D01*
D02*
G37*
G36*
X208170D02*
X202670D01*
Y263830D01*
X208170D01*
Y276580D01*
D02*
G37*
G36*
X216670Y291330D02*
X215670D01*
X215400Y291330D01*
X210170D01*
Y277580D01*
Y263830D01*
X215400D01*
X215670Y263830D01*
X216670D01*
X216940Y263830D01*
X222170D01*
Y277580D01*
Y291330D01*
X216940D01*
X216670Y291330D01*
D02*
G37*
G36*
X343870Y262630D02*
X331120D01*
Y257130D01*
X343870D01*
Y262630D01*
D02*
G37*
G36*
X329120D02*
X316370D01*
Y257130D01*
X329120D01*
Y262630D01*
D02*
G37*
G36*
X299170Y290830D02*
X287170D01*
Y264330D01*
X291386D01*
Y247904D01*
X291521Y247221D01*
X291908Y246642D01*
X296988Y241562D01*
X297567Y241175D01*
X298250Y241040D01*
X316870D01*
Y229630D01*
X343370D01*
Y241040D01*
X365376D01*
X365629Y240661D01*
X366622Y239998D01*
X367792Y239765D01*
X368963Y239998D01*
X369955Y240661D01*
X370618Y241653D01*
X370851Y242824D01*
X370618Y243995D01*
X369955Y244987D01*
X368963Y245650D01*
X367792Y245883D01*
X366622Y245650D01*
X365629Y244987D01*
X365376Y244608D01*
X343370D01*
Y247846D01*
X358974D01*
X359227Y247467D01*
X360220Y246804D01*
X361390Y246571D01*
X362561Y246804D01*
X363553Y247467D01*
X364216Y248460D01*
X364449Y249630D01*
X364216Y250801D01*
X363553Y251793D01*
X362561Y252456D01*
X361390Y252689D01*
X360220Y252456D01*
X359227Y251793D01*
X358974Y251415D01*
X343370D01*
Y255630D01*
X316870D01*
Y244608D01*
X298989D01*
X294954Y248643D01*
Y264330D01*
X299170D01*
Y290830D01*
D02*
G37*
G36*
X241808Y250201D02*
X240637Y249968D01*
X239645Y249305D01*
X238982Y248312D01*
X238749Y247142D01*
X238838Y246695D01*
X221908Y229766D01*
X221521Y229187D01*
X221386Y228504D01*
Y164930D01*
X217170D01*
Y138430D01*
X229170D01*
Y164930D01*
X224954D01*
Y227765D01*
X232881Y235692D01*
X233240Y235643D01*
X234177Y235192D01*
X234344Y234354D01*
X235007Y233361D01*
X235386Y233108D01*
Y164930D01*
X231170D01*
Y138430D01*
X243170D01*
Y164930D01*
X238954D01*
Y233108D01*
X239333Y233361D01*
X239996Y234354D01*
X240229Y235524D01*
X239996Y236695D01*
X239333Y237687D01*
X238340Y238350D01*
X237502Y238517D01*
X237051Y239454D01*
X237002Y239813D01*
X241361Y244172D01*
X241808Y244083D01*
X242978Y244316D01*
X243971Y244979D01*
X244634Y245972D01*
X244867Y247142D01*
X244634Y248312D01*
X243971Y249305D01*
X242978Y249968D01*
X241808Y250201D01*
D02*
G37*
G36*
X343370Y227630D02*
X316870D01*
Y215630D01*
X343370D01*
Y219846D01*
X346591D01*
X347202Y218932D01*
X348194Y218269D01*
X349365Y218036D01*
X350535Y218269D01*
X351528Y218932D01*
X352191Y219924D01*
X352424Y221095D01*
X352191Y222265D01*
X351528Y223258D01*
X350535Y223921D01*
X349365Y224154D01*
X348194Y223921D01*
X347437Y223414D01*
X343370D01*
Y227630D01*
D02*
G37*
G36*
X452635Y210985D02*
X444385D01*
Y203735D01*
X452635D01*
Y210985D01*
D02*
G37*
G36*
X442385D02*
X434135D01*
Y203735D01*
X442385D01*
Y210985D01*
D02*
G37*
G36*
X970825Y207155D02*
X966200D01*
Y203530D01*
X970825D01*
Y207155D01*
D02*
G37*
G36*
X964200D02*
X959575D01*
Y203530D01*
X964200D01*
Y207155D01*
D02*
G37*
G36*
X557585Y210985D02*
Y201485D01*
X563935D01*
Y210985D01*
X557585D01*
D02*
G37*
G36*
X343370Y213630D02*
X316870D01*
Y201630D01*
X343370D01*
X343370Y201630D01*
X344589Y201506D01*
X345076Y201180D01*
X346246Y200947D01*
X347417Y201180D01*
X348409Y201843D01*
X349072Y202836D01*
X349305Y204006D01*
X349072Y205177D01*
X348409Y206169D01*
X347417Y206832D01*
X346246Y207065D01*
X345800Y206976D01*
X343884Y208892D01*
X343370Y209235D01*
Y213630D01*
D02*
G37*
G36*
X970825Y201530D02*
X966200D01*
Y197905D01*
X970825D01*
Y201530D01*
D02*
G37*
G36*
X964200D02*
X959575D01*
Y197905D01*
X964200D01*
Y201530D01*
D02*
G37*
G36*
X452635Y201735D02*
X444385D01*
Y194485D01*
X452635D01*
Y201735D01*
D02*
G37*
G36*
X442385D02*
X434135D01*
Y194485D01*
X442385D01*
Y201735D01*
D02*
G37*
G36*
X563935Y199485D02*
X557585D01*
Y189985D01*
X563935D01*
Y199485D01*
D02*
G37*
G36*
X343370Y199630D02*
X316870D01*
Y187630D01*
X343370D01*
Y199630D01*
D02*
G37*
G36*
X894355Y188148D02*
X890855D01*
Y184898D01*
X894355D01*
Y188148D01*
D02*
G37*
G36*
X946695Y185635D02*
X942070D01*
Y182010D01*
X946695D01*
Y185635D01*
D02*
G37*
G36*
X940070D02*
X935445D01*
Y182010D01*
X940070D01*
Y185635D01*
D02*
G37*
G36*
X894355Y182899D02*
X890855D01*
Y179649D01*
X894355D01*
Y182899D01*
D02*
G37*
G36*
X946695Y180010D02*
X942070D01*
Y176385D01*
X946695D01*
Y180010D01*
D02*
G37*
G36*
X940070D02*
X935445D01*
Y176385D01*
X940070D01*
Y180010D01*
D02*
G37*
G36*
X892723Y175492D02*
X887905D01*
Y173468D01*
X892723D01*
Y175492D01*
D02*
G37*
G36*
X1011972Y230171D02*
X1010802Y229938D01*
X1009809Y229275D01*
X1009146Y228283D01*
X1009039Y227743D01*
X1008380Y226579D01*
X1007209Y226346D01*
X1006217Y225683D01*
X1005554Y224690D01*
X1005321Y223520D01*
X1005554Y222349D01*
X1006217Y221357D01*
X1007209Y220694D01*
X1008112Y220515D01*
X1012415Y216211D01*
Y181299D01*
X998754Y167638D01*
X997354D01*
X997174Y167817D01*
X996767Y168427D01*
X993860Y171333D01*
Y176060D01*
X979860D01*
Y168123D01*
X979360Y167060D01*
X979360Y167060D01*
X979360Y167060D01*
Y163560D01*
X986860D01*
Y161560D01*
X979360D01*
Y159602D01*
X978090Y159076D01*
X973443Y163723D01*
X973443Y163723D01*
X973443Y163723D01*
X973048Y163987D01*
X972451Y164386D01*
X972451Y164386D01*
X972451Y164386D01*
X972136Y164449D01*
X971280Y164619D01*
X970860Y165749D01*
Y166560D01*
X961878D01*
X961199Y167830D01*
X961353Y168060D01*
X970860D01*
Y176060D01*
X956860D01*
Y172857D01*
X935555Y151552D01*
X934148D01*
X933622Y152822D01*
X943233Y162433D01*
X943896Y163425D01*
X944129Y164596D01*
Y165385D01*
X946195D01*
Y173635D01*
X935945D01*
Y165385D01*
X935945D01*
X936410Y164262D01*
X932124Y159975D01*
X930745Y160393D01*
X930688Y160683D01*
X930025Y161675D01*
X929033Y162338D01*
X927862Y162571D01*
X927415Y162482D01*
X926327Y163570D01*
X925748Y163957D01*
X925288Y164049D01*
X924943Y164545D01*
X924722Y165363D01*
X924939Y165687D01*
X925074Y166370D01*
Y180091D01*
X944369Y199385D01*
X950345D01*
Y207885D01*
X941845D01*
Y201908D01*
X927822Y187885D01*
X926651Y188510D01*
X926744Y188976D01*
X926511Y190147D01*
X925848Y191139D01*
X925470Y191392D01*
Y197332D01*
X925735Y197510D01*
X925988Y197888D01*
X926508D01*
X927190Y198024D01*
X927769Y198411D01*
X928743Y199385D01*
X934720D01*
Y207885D01*
X926220D01*
Y203039D01*
X924950Y202360D01*
X924743Y202498D01*
X923572Y202731D01*
X922402Y202498D01*
X921410Y201835D01*
X920747Y200843D01*
X920514Y199672D01*
X920747Y198502D01*
X920826Y198383D01*
X920147Y197113D01*
X919229D01*
X918546Y196977D01*
X917967Y196590D01*
X917580Y196011D01*
X917444Y195329D01*
Y174993D01*
X914089D01*
Y181165D01*
X913953Y181848D01*
X913567Y182427D01*
X910833Y185160D01*
X910254Y185547D01*
X909572Y185683D01*
X907855D01*
Y187649D01*
X905639D01*
Y191263D01*
X906018Y191516D01*
X906681Y192509D01*
X906914Y193679D01*
X906681Y194850D01*
X906018Y195842D01*
X905025Y196505D01*
X903855Y196738D01*
X902684Y196505D01*
X901692Y195842D01*
X901029Y194850D01*
X900796Y193679D01*
X901029Y192509D01*
X901692Y191516D01*
X902071Y191263D01*
Y187649D01*
X899855D01*
Y188148D01*
X896355D01*
Y183899D01*
Y179649D01*
X899855D01*
Y180149D01*
X907855D01*
Y181408D01*
X909125Y181822D01*
X910521Y180426D01*
Y174993D01*
X906987D01*
Y169945D01*
X906987D01*
Y169912D01*
X906987Y169912D01*
X906987Y164865D01*
X906987Y163594D01*
Y159785D01*
X906987Y159785D01*
Y159753D01*
X906987D01*
X906987Y158512D01*
X906269Y157950D01*
X905439Y158230D01*
X905042Y158497D01*
Y163848D01*
X900605D01*
Y157380D01*
X904051Y157380D01*
X904057D01*
D01*
X904368Y157380D01*
X904578Y156871D01*
X904894Y156110D01*
X892887Y144103D01*
X892224Y143110D01*
X891991Y141940D01*
X891991Y141940D01*
Y134291D01*
X891800Y133100D01*
X890737Y133100D01*
X884175D01*
Y123850D01*
Y114600D01*
X891800Y114600D01*
X891991Y113409D01*
Y113030D01*
X892224Y111860D01*
X892887Y110867D01*
X893631Y110370D01*
X893416Y109100D01*
X886050D01*
Y99100D01*
X907050D01*
Y109100D01*
X896683D01*
X896468Y110370D01*
X897213Y110867D01*
X897876Y111860D01*
X898109Y113030D01*
Y115609D01*
X898300Y116800D01*
X912766D01*
Y115824D01*
X912901Y115141D01*
X913288Y114562D01*
X916082Y111768D01*
X916661Y111382D01*
X917344Y111246D01*
X925446D01*
X925699Y110867D01*
X926443Y110370D01*
X926228Y109100D01*
X924550D01*
Y99100D01*
X930050D01*
Y109100D01*
X929496D01*
X929281Y110370D01*
X930025Y110867D01*
X930688Y111860D01*
X930921Y113030D01*
X930861Y113330D01*
X931832Y114600D01*
X931925D01*
Y123850D01*
Y133100D01*
X924300D01*
Y133100D01*
X922050D01*
Y124700D01*
X920050D01*
Y133100D01*
X917300D01*
Y132600D01*
X912055D01*
X911529Y133870D01*
X916937Y139278D01*
X950040D01*
X951173Y139503D01*
X952134Y140146D01*
X961048Y149060D01*
X970860D01*
Y155858D01*
X972130Y156384D01*
X973571Y154943D01*
Y138370D01*
X973130D01*
Y137679D01*
X949960D01*
X948790Y137446D01*
X947797Y136783D01*
X947134Y135791D01*
X946901Y134620D01*
X947134Y133449D01*
X947797Y132457D01*
X948790Y131794D01*
X949960Y131561D01*
X972146D01*
X973130Y130870D01*
X973130Y129600D01*
Y123370D01*
X974846D01*
Y120526D01*
X974467Y120273D01*
X973804Y119281D01*
X973571Y118110D01*
X973804Y116939D01*
X974467Y115947D01*
X975460Y115284D01*
X976630Y115051D01*
X977801Y115284D01*
X978793Y115947D01*
X979456Y116939D01*
X979689Y118110D01*
X979456Y119281D01*
X978793Y120273D01*
X978414Y120526D01*
Y123370D01*
X980130D01*
Y125336D01*
X983290D01*
Y123370D01*
X990290D01*
Y130370D01*
X990790D01*
Y133620D01*
X982790D01*
Y130370D01*
X983290D01*
Y128904D01*
X981028D01*
X980130Y129802D01*
X980130Y130870D01*
X980130Y132140D01*
Y138370D01*
X979689D01*
Y147861D01*
X979860Y149060D01*
X980959Y149060D01*
X993860D01*
Y153787D01*
X996767Y156693D01*
X997174Y157303D01*
X997577Y157705D01*
X1001594D01*
X1002480Y157882D01*
X1003231Y158383D01*
X1021447Y176599D01*
X1021948Y177350D01*
X1022124Y178236D01*
Y219274D01*
X1021948Y220160D01*
X1021447Y220911D01*
X1014978Y227380D01*
X1014798Y228283D01*
X1014135Y229275D01*
X1013143Y229938D01*
X1011972Y230171D01*
D02*
G37*
G36*
X905042Y172318D02*
X900605D01*
Y165849D01*
X905042D01*
Y172318D01*
D02*
G37*
G36*
X898605D02*
X894168D01*
Y165849D01*
X898605D01*
Y172318D01*
D02*
G37*
G36*
Y163848D02*
X894168D01*
Y157380D01*
X898605D01*
Y163848D01*
D02*
G37*
G36*
X215170Y164930D02*
X203170D01*
Y138430D01*
X215170D01*
Y164930D01*
D02*
G37*
G36*
X990790Y138870D02*
X987790D01*
Y135620D01*
X990790D01*
Y138870D01*
D02*
G37*
G36*
X985790D02*
X982790D01*
Y135620D01*
X985790D01*
Y138870D01*
D02*
G37*
G36*
X941550Y133100D02*
X933925D01*
Y124850D01*
X941550D01*
Y133100D01*
D02*
G37*
G36*
X882175D02*
X874550D01*
Y124850D01*
X882175D01*
Y133100D01*
D02*
G37*
G36*
X402372Y117606D02*
X399594D01*
Y115300D01*
X402372D01*
Y117606D01*
D02*
G37*
G36*
X941550Y122850D02*
X933925D01*
Y114600D01*
X941550D01*
Y122850D01*
D02*
G37*
G36*
X882175D02*
X874550D01*
Y114600D01*
X882175D01*
Y122850D01*
D02*
G37*
G36*
X402372Y113300D02*
X399594D01*
Y110994D01*
X402372D01*
Y113300D01*
D02*
G37*
G36*
X841179Y112885D02*
X836618D01*
Y108594D01*
X841179D01*
Y112885D01*
D02*
G37*
G36*
X834618D02*
X830057D01*
Y108594D01*
X834618D01*
Y112885D01*
D02*
G37*
G36*
X449135Y111985D02*
X442635D01*
Y106485D01*
X449135D01*
Y111985D01*
D02*
G37*
G36*
X440635D02*
X434135D01*
Y106485D01*
X440635D01*
Y111985D01*
D02*
G37*
G36*
X821774Y108178D02*
X816243D01*
Y102153D01*
X821774D01*
Y108178D01*
D02*
G37*
G36*
X814242D02*
X808711D01*
Y102153D01*
X814242D01*
Y108178D01*
D02*
G37*
G36*
X800867D02*
X795336D01*
Y102153D01*
X800867D01*
Y108178D01*
D02*
G37*
G36*
X793336D02*
X787805D01*
Y102153D01*
X793336D01*
Y108178D01*
D02*
G37*
G36*
X779961D02*
X774430D01*
Y102153D01*
X779961D01*
Y108178D01*
D02*
G37*
G36*
X772430D02*
X766899D01*
Y102153D01*
X772430D01*
Y108178D01*
D02*
G37*
G36*
X951550Y106100D02*
X942800D01*
Y99100D01*
X951550D01*
Y106100D01*
D02*
G37*
G36*
X940800D02*
X932050D01*
Y99100D01*
X940800D01*
Y106100D01*
D02*
G37*
G36*
X922550Y109100D02*
X917050D01*
Y99100D01*
X922550D01*
Y109100D01*
D02*
G37*
G36*
X884050Y106100D02*
X875300D01*
Y99100D01*
X884050D01*
Y106100D01*
D02*
G37*
G36*
X873300D02*
X864550D01*
Y99100D01*
X873300D01*
Y106100D01*
D02*
G37*
G36*
X449135Y104485D02*
X442635D01*
Y98985D01*
X449135D01*
Y104485D01*
D02*
G37*
G36*
X440635D02*
X434135D01*
Y98985D01*
X440635D01*
Y104485D01*
D02*
G37*
G36*
X1012770Y132507D02*
X1009241Y132159D01*
X1005848Y131130D01*
X1002721Y129459D01*
X999981Y127209D01*
X997731Y124468D01*
X996060Y121341D01*
X995031Y117949D01*
X994683Y114420D01*
X995031Y110891D01*
X996060Y107498D01*
X997731Y104371D01*
X999981Y101630D01*
X1002721Y99381D01*
X1005848Y97710D01*
X1009241Y96680D01*
X1012770Y96333D01*
X1016299Y96680D01*
X1019692Y97710D01*
X1022819Y99381D01*
X1025560Y101630D01*
X1027809Y104371D01*
X1029480Y107498D01*
X1030510Y110891D01*
X1030857Y114420D01*
X1030510Y117949D01*
X1029480Y121341D01*
X1027809Y124468D01*
X1025560Y127209D01*
X1022819Y129459D01*
X1019692Y131130D01*
X1016299Y132159D01*
X1012770Y132507D01*
D02*
G37*
%LPD*%
G36*
X233166Y454160D02*
X223030D01*
Y432160D01*
X233166D01*
Y423526D01*
X231896Y422644D01*
X231692Y422685D01*
X196031D01*
X192744Y425971D01*
Y431660D01*
X196430D01*
Y431991D01*
X197630Y432160D01*
Y432160D01*
X208630D01*
Y454160D01*
X206073D01*
X205547Y455430D01*
X208003Y457886D01*
X233166D01*
Y454160D01*
D02*
G37*
G36*
X258310Y455430D02*
X257784Y454160D01*
X248430D01*
Y432160D01*
X259430D01*
Y451488D01*
X260700Y452146D01*
X261130Y451844D01*
Y432160D01*
X261620D01*
Y406660D01*
X252453D01*
X236734Y422379D01*
Y432160D01*
X246730D01*
Y454160D01*
X236734D01*
Y459232D01*
X236633Y459740D01*
X236804Y460198D01*
X237394Y461010D01*
X252730D01*
X258310Y455430D01*
D02*
G37*
G36*
X249154Y403844D02*
X249680Y403333D01*
Y391010D01*
X253871D01*
Y385572D01*
X253930Y385276D01*
Y384975D01*
X254045Y384697D01*
X254104Y384402D01*
X254271Y384151D01*
X254386Y383873D01*
X254599Y383660D01*
X254767Y383409D01*
X255017Y383242D01*
X255230Y383029D01*
X255509Y382913D01*
X255255Y381650D01*
X249390D01*
Y376964D01*
X241638D01*
Y381650D01*
X235784D01*
Y389277D01*
X238095D01*
Y392621D01*
X238816Y392764D01*
X239567Y393266D01*
X246493Y400191D01*
X246994Y400942D01*
X247171Y401828D01*
Y403257D01*
X247823Y403909D01*
X249154Y403844D01*
D02*
G37*
G36*
X266680Y391010D02*
X272146D01*
Y381150D01*
X263890D01*
Y377007D01*
X263107Y376520D01*
X261890Y377171D01*
Y381150D01*
X257537D01*
X256514Y382420D01*
X256570Y382701D01*
X256509Y383011D01*
Y383328D01*
X256431Y383405D01*
X256409Y383513D01*
X256147Y383690D01*
X255923Y383913D01*
X255843Y383946D01*
X255783Y384007D01*
X255680Y384049D01*
X255619Y384142D01*
X255547Y384189D01*
X255499Y384261D01*
X255407Y384323D01*
X255365Y384425D01*
X255304Y384486D01*
X255271Y384565D01*
X255193Y384644D01*
X255171Y384752D01*
X255123Y384824D01*
X255107Y384908D01*
X255045Y385000D01*
Y385111D01*
X255012Y385191D01*
Y385276D01*
X254970Y385379D01*
X254991Y385488D01*
X254953Y385679D01*
Y390510D01*
X255930D01*
Y397510D01*
X256930D01*
Y398510D01*
X264680D01*
Y403092D01*
X266680D01*
Y391010D01*
D02*
G37*
G36*
X231155Y417633D02*
Y400527D01*
X228845D01*
Y395902D01*
X233470D01*
Y393902D01*
X228845D01*
Y389277D01*
X231155D01*
Y381650D01*
X226138D01*
Y375650D01*
X233888D01*
Y374650D01*
X234888D01*
Y367650D01*
X241638D01*
Y372336D01*
X249390D01*
Y367650D01*
X254890D01*
Y374650D01*
X256890D01*
Y367650D01*
X261620D01*
Y363220D01*
X227330D01*
X224790Y365760D01*
Y384392D01*
X224796Y384402D01*
X224855Y384697D01*
X224970Y384975D01*
Y385009D01*
X224982Y385040D01*
X224976Y385308D01*
X225029Y385572D01*
Y389777D01*
X226095D01*
Y400027D01*
X224983D01*
X224796Y400966D01*
X224790Y400976D01*
Y401320D01*
X224560D01*
X224133Y401959D01*
X224133Y401959D01*
X209306Y416786D01*
X209832Y418055D01*
X230733D01*
X231155Y417633D01*
D02*
G37*
%LPC*%
G36*
X221330Y454160D02*
X210330D01*
Y432160D01*
X221330D01*
Y454160D01*
D02*
G37*
G36*
X264680Y396510D02*
X257930D01*
Y390510D01*
X264680D01*
Y396510D01*
D02*
G37*
G36*
X232888Y373650D02*
X226138D01*
Y367650D01*
X232888D01*
Y373650D01*
D02*
G37*
%LPD*%
G36*
X956860Y162820D02*
Y158560D01*
X964566D01*
X964860Y158502D01*
X964861D01*
X964861Y158502D01*
X964861Y158502D01*
X968881D01*
X968996Y158330D01*
X968317Y157060D01*
X956860D01*
Y153249D01*
X948813Y145202D01*
X939226D01*
X938840Y146472D01*
X938876Y146496D01*
X955687Y163306D01*
X956860Y162820D01*
D02*
G37*
%LPC*%
G36*
X676290Y309380D02*
X670290D01*
Y303880D01*
X676290D01*
Y309380D01*
D02*
G37*
G36*
X625606Y305852D02*
X623300D01*
Y303074D01*
X625606D01*
Y305852D01*
D02*
G37*
G36*
X621300D02*
X618994D01*
Y303074D01*
X621300D01*
Y305852D01*
D02*
G37*
G36*
X676290Y301880D02*
X670290D01*
Y296380D01*
X676290D01*
Y301880D01*
D02*
G37*
G36*
X719002Y308901D02*
X714441D01*
Y304610D01*
X719002D01*
Y308901D01*
D02*
G37*
G36*
X712441D02*
X707881D01*
Y304610D01*
X712441D01*
Y308901D01*
D02*
G37*
G36*
X733556Y305852D02*
X731250D01*
Y303074D01*
X733556D01*
Y305852D01*
D02*
G37*
G36*
X729250D02*
X726944D01*
Y303074D01*
X729250D01*
Y305852D01*
D02*
G37*
G36*
X807880Y266010D02*
X804130D01*
Y262010D01*
X807880D01*
Y266010D01*
D02*
G37*
G36*
X837380D02*
X833630D01*
Y262010D01*
X837380D01*
Y266010D01*
D02*
G37*
G36*
X802130D02*
X798380D01*
Y262010D01*
X802130D01*
Y266010D01*
D02*
G37*
G36*
X831630D02*
X827880D01*
Y262010D01*
X831630D01*
Y266010D01*
D02*
G37*
G36*
X855476Y263942D02*
X853170D01*
Y261164D01*
X855476D01*
Y263942D01*
D02*
G37*
G36*
X851170D02*
X848864D01*
Y261164D01*
X851170D01*
Y263942D01*
D02*
G37*
G36*
X776660Y260950D02*
X773160D01*
Y258200D01*
X776660D01*
Y260950D01*
D02*
G37*
G36*
X761420D02*
X757920D01*
Y258200D01*
X761420D01*
Y260950D01*
D02*
G37*
G36*
X746180D02*
X742680D01*
Y258200D01*
X746180D01*
Y260950D01*
D02*
G37*
G36*
X771160D02*
X767660D01*
Y258200D01*
X771160D01*
Y260950D01*
D02*
G37*
G36*
X755920D02*
X752420D01*
Y258200D01*
X755920D01*
Y260950D01*
D02*
G37*
G36*
X740680D02*
X737180D01*
Y258200D01*
X740680D01*
Y260950D01*
D02*
G37*
G36*
X837380Y260010D02*
X833630D01*
Y256010D01*
X837380D01*
Y260010D01*
D02*
G37*
G36*
X831630D02*
X827880D01*
Y256010D01*
X831630D01*
Y260010D01*
D02*
G37*
G36*
X807880D02*
X804130D01*
Y256010D01*
X807880D01*
Y260010D01*
D02*
G37*
G36*
X802130D02*
X798380D01*
Y256010D01*
X802130D01*
Y260010D01*
D02*
G37*
G36*
X776660Y256200D02*
X773160D01*
Y253450D01*
X776660D01*
Y256200D01*
D02*
G37*
G36*
X771160D02*
X767660D01*
Y253450D01*
X771160D01*
Y256200D01*
D02*
G37*
G36*
X761420D02*
X757920D01*
Y253450D01*
X761420D01*
Y256200D01*
D02*
G37*
G36*
X755920D02*
X752420D01*
Y253450D01*
X755920D01*
Y256200D01*
D02*
G37*
G36*
X746180D02*
X742680D01*
Y253450D01*
X746180D01*
Y256200D01*
D02*
G37*
G36*
X740680D02*
X737180D01*
Y253450D01*
X740680D01*
Y256200D01*
D02*
G37*
G36*
X731960Y249558D02*
X728710D01*
Y246308D01*
X731960D01*
Y249558D01*
D02*
G37*
G36*
X726710D02*
X723460D01*
Y246308D01*
X726710D01*
Y249558D01*
D02*
G37*
G36*
X766460Y235960D02*
X760460D01*
Y229210D01*
X766460D01*
Y235960D01*
D02*
G37*
G36*
X758460D02*
X752460D01*
Y229210D01*
X758460D01*
Y235960D01*
D02*
G37*
G36*
X766460Y227210D02*
X760460D01*
Y220460D01*
X766460D01*
Y227210D01*
D02*
G37*
G36*
X758460D02*
X752460D01*
Y220460D01*
X758460D01*
Y227210D01*
D02*
G37*
G36*
X722360Y209213D02*
Y208560D01*
X724787D01*
X723608Y209048D01*
X722360Y209213D01*
D02*
G37*
G36*
X720360D02*
X719112Y209048D01*
X717933Y208560D01*
X720360D01*
Y209213D01*
D02*
G37*
G36*
X724787Y192760D02*
X722360D01*
Y192107D01*
X723608Y192272D01*
X724787Y192760D01*
D02*
G37*
G36*
X720360D02*
X717933D01*
X719112Y192272D01*
X720360Y192107D01*
Y192760D01*
D02*
G37*
G36*
X763868Y194170D02*
X760618D01*
Y190670D01*
X763868D01*
Y194170D01*
D02*
G37*
G36*
X758618D02*
X755368D01*
Y190670D01*
X758618D01*
Y194170D01*
D02*
G37*
G36*
X869810Y187130D02*
X866310D01*
Y183880D01*
X869810D01*
Y187130D01*
D02*
G37*
G36*
Y181880D02*
X866310D01*
Y178630D01*
X869810D01*
Y181880D01*
D02*
G37*
G36*
X748420Y171390D02*
X745420D01*
Y168640D01*
X748420D01*
Y171390D01*
D02*
G37*
G36*
X271670Y165430D02*
Y165430D01*
X266170D01*
Y151680D01*
Y137930D01*
X271670D01*
Y137930D01*
X272670D01*
Y137930D01*
X278170D01*
Y151680D01*
Y165430D01*
X272670D01*
Y165430D01*
X271670D01*
D02*
G37*
G36*
X299670Y165430D02*
X294170D01*
Y152680D01*
X299670D01*
Y165430D01*
D02*
G37*
G36*
X727570Y171890D02*
X724070D01*
Y168640D01*
X727570D01*
Y171890D01*
D02*
G37*
G36*
X726320Y147590D02*
X722570D01*
Y141840D01*
X726320D01*
Y147590D01*
D02*
G37*
G36*
X573040Y95330D02*
X570290D01*
Y92580D01*
X573040D01*
Y95330D01*
D02*
G37*
G36*
X715070Y147590D02*
X711320D01*
Y141840D01*
X715070D01*
Y147590D01*
D02*
G37*
G36*
X709320D02*
X705570D01*
Y141840D01*
X709320D01*
Y147590D01*
D02*
G37*
G36*
X716280Y134634D02*
X713470D01*
Y114030D01*
X721694D01*
Y129220D01*
X721282Y131292D01*
X720108Y133048D01*
X718352Y134222D01*
X716280Y134634D01*
D02*
G37*
G36*
X711470D02*
X708660D01*
X706588Y134222D01*
X704832Y133048D01*
X703658Y131292D01*
X703246Y129220D01*
Y114030D01*
X711470D01*
Y134634D01*
D02*
G37*
G36*
X721694Y112030D02*
X713470D01*
Y91426D01*
X716280D01*
X718352Y91838D01*
X720108Y93012D01*
X721282Y94768D01*
X721694Y96840D01*
Y112030D01*
D02*
G37*
G36*
X711470D02*
X703246D01*
Y96840D01*
X703658Y94768D01*
X704832Y93012D01*
X706588Y91838D01*
X708660Y91426D01*
X711470D01*
Y112030D01*
D02*
G37*
%LPD*%
D11*
X753110Y172720D02*
X772889D01*
X774159Y171450D01*
X774700D01*
X750920Y170530D02*
X753110Y172720D01*
X750920Y168890D02*
Y170530D01*
X749670Y167640D02*
X750920Y168890D01*
X749420Y167640D02*
X749670D01*
D12*
X948300Y480060D02*
X949000D01*
X947991D02*
X948300D01*
X947011Y481040D02*
Y484279D01*
Y481040D02*
X947991Y480060D01*
X938082Y493208D02*
X947011Y484279D01*
X933450Y501530D02*
X938082Y496898D01*
Y493208D02*
Y496898D01*
X1037422Y344170D02*
Y376088D01*
Y266532D02*
Y344170D01*
X994072Y660420D02*
X994467D01*
X828605Y661150D02*
X993342D01*
X994072Y660420D01*
X819150Y651695D02*
X828605Y661150D01*
X1029970Y603250D02*
Y628396D01*
X1021080Y637286D02*
X1029970Y628396D01*
X1022350Y595630D02*
X1029970Y603250D01*
X1022350Y384920D02*
Y595630D01*
X949000Y480060D02*
X1021080Y407980D01*
Y384920D02*
Y407980D01*
X1019810Y384920D02*
X1023620Y381110D01*
X1019048D02*
Y384920D01*
X1023620Y381110D02*
X1032400D01*
X1019048D02*
X1022350D01*
X265170Y151680D02*
X279170D01*
X293170D01*
X618490Y559582D02*
X632605D01*
X996618Y160020D02*
X1001594D01*
X1019810Y178236D01*
X996618Y165100D02*
X999490D01*
X1014730Y180340D01*
Y217170D01*
X756920Y266700D02*
X772160D01*
X780720Y275260D01*
X789569D01*
X403860Y138140D02*
Y180026D01*
X402880Y137160D02*
X403860Y138140D01*
X321793Y137160D02*
X402880D01*
X403860Y180026D02*
Y328930D01*
Y180026D02*
X407476Y183642D01*
X760886Y353738D02*
X781666D01*
X737870Y369570D02*
X758782Y348658D01*
X742950Y371674D02*
X760886Y353738D01*
X758782Y348658D02*
X779562D01*
X746128Y471650D02*
X750477D01*
X753943Y466570D02*
X754173Y466800D01*
X737870Y369570D02*
Y463392D01*
X748233Y466570D02*
X753943D01*
X742950Y461287D02*
X748233Y466570D01*
X750477Y471650D02*
X750707Y471880D01*
X737870Y463392D02*
X746128Y471650D01*
X742950Y371674D02*
Y461287D01*
X1019810Y178236D02*
Y219274D01*
X1011972Y227112D02*
X1019810Y219274D01*
X781050Y342900D02*
Y347170D01*
X995130Y158532D02*
X996618Y160020D01*
X989860Y153060D02*
X995130Y158330D01*
Y158532D01*
X986860Y153060D02*
X989860D01*
X779562Y348658D02*
X781050Y347170D01*
X1008380Y223520D02*
X1014730Y217170D01*
X995130Y166588D02*
Y166790D01*
Y166588D02*
X996618Y165100D01*
X986860Y172060D02*
X989860D01*
X995130Y166790D01*
X781666Y353738D02*
X786130Y349274D01*
Y342900D02*
Y349274D01*
X732842Y481382D02*
X743030Y491570D01*
X732842Y374090D02*
Y481382D01*
Y363841D02*
Y374090D01*
X731520Y375412D02*
X732842Y374090D01*
Y363841D02*
X735443Y361240D01*
X636767Y375412D02*
X731520D01*
X735443Y360030D02*
X736443Y359030D01*
Y354530D02*
X736673Y354300D01*
X736443Y354530D02*
Y359030D01*
X735443Y360030D02*
Y361240D01*
X736673Y331543D02*
Y354300D01*
X750127Y314165D02*
X751365Y312928D01*
X745014Y278130D02*
X751365Y284480D01*
Y312928D01*
X745490Y314165D02*
X750127D01*
X743030Y491570D02*
X753943D01*
X754173Y491800D01*
X786384D01*
X547624Y414020D02*
Y414022D01*
X547878Y430276D02*
Y444500D01*
X616673Y471424D02*
Y509300D01*
X461464Y181410D02*
X461518Y181356D01*
Y116332D02*
Y181356D01*
X965200Y214030D02*
X984920D01*
X1037422Y266532D01*
X799624Y483385D02*
Y497840D01*
X793584Y491800D02*
X799624Y497840D01*
X786384Y491800D02*
X793584D01*
X799624Y483385D02*
X800882Y482600D01*
X626673Y365318D02*
X636767Y375412D01*
X744233Y312908D02*
X745490Y314165D01*
X730250Y325120D02*
X736673Y331543D01*
X730620Y278130D02*
X745014D01*
X730250Y312908D02*
X744233D01*
X730250D02*
Y325120D01*
X626673Y354300D02*
Y365318D01*
Y331319D02*
Y354300D01*
X721380Y268890D02*
X730620Y278130D01*
X721380Y268180D02*
Y268890D01*
X719900Y266700D02*
X721380Y268180D01*
X719650Y266700D02*
X719900D01*
X618490Y530860D02*
Y559582D01*
X616673Y529043D02*
X618490Y530860D01*
X616673Y509300D02*
Y529043D01*
X616204Y447040D02*
Y460196D01*
Y470955D02*
X616673Y471424D01*
X616204Y470955D02*
Y483616D01*
X609600Y466800D02*
X610825Y465576D01*
X616204Y460196D02*
Y470955D01*
X610825Y465576D02*
X616204Y470955D01*
X599173Y466800D02*
X609600D01*
X599173D02*
X610825Y465576D01*
X616204Y460196D01*
X547878Y444500D02*
X558800D01*
X599173Y441800D02*
X610964D01*
X547858Y444500D02*
X547878D01*
X610964Y441800D02*
X616204Y447040D01*
X561500Y441800D02*
X599173D01*
X558800Y444500D02*
X561500Y441800D01*
X547858Y414020D02*
X559515D01*
X622300Y326946D02*
X626673Y331319D01*
X622300Y312908D02*
Y326946D01*
X571735Y401800D02*
X599173D01*
X559515Y414020D02*
X571735Y401800D01*
X547748Y430146D02*
X547858Y444500D01*
X547748Y430146D02*
X547878Y430276D01*
X547624Y414022D02*
X547748Y430146D01*
X537210Y419608D02*
X547748Y430146D01*
X537210Y412750D02*
Y419608D01*
X547624Y414020D02*
X547858D01*
X534670Y365111D02*
X537069Y355243D01*
X534670Y410210D02*
X537210Y412750D01*
X534670Y365111D02*
Y410210D01*
X652018Y218440D02*
X672798Y239220D01*
X652018Y127628D02*
Y218440D01*
X620720Y96330D02*
X652018Y127628D01*
X1032400Y381110D02*
X1037422Y376088D01*
X816864Y636778D02*
X819150Y639064D01*
Y651695D01*
X799846Y636778D02*
X816864D01*
X798576Y286004D02*
X910336D01*
X795020Y282448D02*
X798576Y286004D01*
X910336D02*
X914845Y281495D01*
X795020Y276352D02*
Y282448D01*
X789569Y275260D02*
X793928D01*
X795020Y276352D01*
X741680Y266700D02*
X756920D01*
X914845Y213635D02*
Y281495D01*
X728150Y266700D02*
X741680D01*
X718207Y253387D02*
X728150Y263330D01*
Y266700D01*
X964805Y213635D02*
X965200Y214030D01*
X946095Y213635D02*
X964805D01*
X914845D02*
X930470D01*
X946095D01*
X718860Y214660D02*
X721360D01*
X718207Y245300D02*
Y253387D01*
X718017Y245110D02*
X718207Y245300D01*
X707850Y245110D02*
X718017D01*
X707850Y234490D02*
Y241808D01*
Y245110D01*
X672798Y239220D02*
X705262D01*
X707850Y241808D01*
X718860Y214660D02*
Y223480D01*
X716360Y214660D02*
X718860D01*
X707850Y234490D02*
X718860Y223480D01*
X614680Y96330D02*
X620720D01*
X357378Y388112D02*
Y405892D01*
X403860Y328930D02*
Y332800D01*
X371602D02*
X376996Y327406D01*
X402336D02*
X403860Y328930D01*
X376996Y327406D02*
X402336D01*
X368300Y332800D02*
X371602D01*
X367030Y327914D02*
X368300Y332800D01*
X352806Y327914D02*
X367030D01*
X244856Y401828D02*
Y405892D01*
X231692Y420370D02*
X233470Y418592D01*
X237930Y394902D02*
X244856Y401828D01*
X233470Y394902D02*
Y418592D01*
X190430Y425012D02*
X195072Y420370D01*
X190430Y425012D02*
Y443160D01*
X195072Y420370D02*
X231692D01*
X347472Y378206D02*
X357378Y388112D01*
X233888Y374650D02*
X255890D01*
X347472Y333248D02*
X352806Y327914D01*
X347472Y333248D02*
Y378206D01*
X233470Y394902D02*
X237930D01*
X233470Y375068D02*
Y394902D01*
Y375068D02*
X233888Y374650D01*
X500985Y203985D02*
Y207264D01*
X496493Y211756D02*
X500985Y207264D01*
X467360Y110490D02*
X559880D01*
X461518Y116332D02*
X467360Y110490D01*
X461464Y211756D02*
X496493D01*
X594360Y96330D02*
X604520D01*
X614680D01*
X584200D02*
X594360D01*
X574040D02*
X584200D01*
X559880Y110490D02*
X574040Y96330D01*
X407476Y183642D02*
X459232D01*
X461464Y181410D01*
Y211756D01*
X293170Y138176D02*
X296777Y134569D01*
X319202D02*
X321793Y137160D01*
X296777Y134569D02*
X319202D01*
X293170Y138176D02*
Y151680D01*
D22*
X749420Y158637D02*
D03*
X756920D02*
D03*
X749420Y167640D02*
D03*
X756920D02*
D03*
X824650Y631190D02*
D03*
X817150D02*
D03*
X410150Y137160D02*
D03*
X402650D02*
D03*
Y127000D02*
D03*
X410150D02*
D03*
D23*
X614680Y96330D02*
D03*
Y104330D02*
D03*
X718207Y237300D02*
D03*
Y245300D02*
D03*
X574040Y96330D02*
D03*
Y104330D02*
D03*
X584200Y96330D02*
D03*
Y104330D02*
D03*
X594360Y96330D02*
D03*
Y104330D02*
D03*
X604520Y96330D02*
D03*
Y104330D02*
D03*
D36*
X948300Y480060D02*
D03*
X969400D02*
D03*
D37*
X933450Y501530D02*
D03*
Y613530D02*
D03*
D38*
X1023620Y372110D02*
D03*
Y363110D02*
D03*
Y354110D02*
D03*
Y381110D02*
D03*
D39*
X754173Y466800D02*
D03*
Y471800D02*
D03*
X599173Y371800D02*
D03*
X754173Y391800D02*
D03*
Y396800D02*
D03*
X599173Y491800D02*
D03*
Y486800D02*
D03*
Y481800D02*
D03*
Y476800D02*
D03*
Y471800D02*
D03*
Y466800D02*
D03*
Y461800D02*
D03*
Y456800D02*
D03*
Y451800D02*
D03*
Y446800D02*
D03*
Y441800D02*
D03*
Y436800D02*
D03*
Y431800D02*
D03*
Y426800D02*
D03*
Y421800D02*
D03*
Y416800D02*
D03*
Y411800D02*
D03*
Y406800D02*
D03*
Y401800D02*
D03*
Y396800D02*
D03*
Y391800D02*
D03*
Y386800D02*
D03*
Y381800D02*
D03*
Y376800D02*
D03*
X754173Y371800D02*
D03*
Y376800D02*
D03*
Y381800D02*
D03*
Y386800D02*
D03*
Y401800D02*
D03*
Y406800D02*
D03*
Y411800D02*
D03*
Y416800D02*
D03*
Y421800D02*
D03*
Y426800D02*
D03*
Y431800D02*
D03*
Y436800D02*
D03*
X754173Y441800D02*
D03*
X754173Y446800D02*
D03*
Y451800D02*
D03*
Y456800D02*
D03*
X754173Y461800D02*
D03*
X754173Y476800D02*
D03*
Y481800D02*
D03*
Y486800D02*
D03*
Y491800D02*
D03*
D40*
X616673Y354300D02*
D03*
X646673Y509300D02*
D03*
X656673D02*
D03*
X651673D02*
D03*
X671673Y354300D02*
D03*
X621673D02*
D03*
X626673D02*
D03*
X631673D02*
D03*
X636673D02*
D03*
X641673D02*
D03*
X646673D02*
D03*
X651673D02*
D03*
X656673D02*
D03*
X661673D02*
D03*
X666673D02*
D03*
X676673D02*
D03*
X681673D02*
D03*
X686673D02*
D03*
X691673D02*
D03*
X696673D02*
D03*
X701673D02*
D03*
X706673D02*
D03*
X711673D02*
D03*
X716673D02*
D03*
X721673D02*
D03*
X726673D02*
D03*
X731673D02*
D03*
X736673D02*
D03*
Y509300D02*
D03*
X731673D02*
D03*
X726673D02*
D03*
X721673D02*
D03*
X716673D02*
D03*
X711673D02*
D03*
X706673D02*
D03*
X701673D02*
D03*
X696673D02*
D03*
X691673D02*
D03*
X686673D02*
D03*
X681673D02*
D03*
X676673D02*
D03*
X671673D02*
D03*
X666673D02*
D03*
X661673D02*
D03*
X641673D02*
D03*
X636673D02*
D03*
X631673D02*
D03*
X626673D02*
D03*
X621673D02*
D03*
X616673D02*
D03*
D41*
X814150Y619760D02*
D03*
X823650D02*
D03*
X433680Y589770D02*
D03*
X414680Y619270D02*
D03*
X433680D02*
D03*
X414680Y589770D02*
D03*
D42*
X773430Y123190D02*
D03*
Y109178D02*
D03*
X815242Y123190D02*
D03*
Y109178D02*
D03*
X794336Y123190D02*
D03*
Y109178D02*
D03*
D43*
X808195Y497840D02*
D03*
X799624D02*
D03*
D44*
X541802Y383846D02*
D03*
X547858D02*
D03*
X403372Y114300D02*
D03*
X409428D02*
D03*
X318282Y344170D02*
D03*
X324338D02*
D03*
X541802Y444500D02*
D03*
X547858D02*
D03*
X541802Y414020D02*
D03*
X547858D02*
D03*
X806938Y482600D02*
D03*
X800882D02*
D03*
X541802Y320585D02*
D03*
X547858D02*
D03*
D45*
X814400Y643193D02*
D03*
X823900D02*
D03*
D46*
X266630Y613160D02*
D03*
X241230D02*
D03*
X215830Y443160D02*
D03*
X228530D02*
D03*
X241230D02*
D03*
X253930D02*
D03*
X266630D02*
D03*
X279330D02*
D03*
X292030D02*
D03*
X304730D02*
D03*
X317430D02*
D03*
X330130D02*
D03*
X342830D02*
D03*
X330130Y613160D02*
D03*
X292030D02*
D03*
X253930D02*
D03*
X203130D02*
D03*
X190430D02*
D03*
X342830D02*
D03*
X203130Y443160D02*
D03*
X279330Y613160D02*
D03*
X177730Y443160D02*
D03*
Y613160D02*
D03*
X228530D02*
D03*
X215830D02*
D03*
X317430D02*
D03*
X304730D02*
D03*
X190430Y443160D02*
D03*
D47*
X352830Y483710D02*
D03*
Y521810D02*
D03*
Y534510D02*
D03*
Y547210D02*
D03*
Y559910D02*
D03*
Y572610D02*
D03*
Y585310D02*
D03*
Y471010D02*
D03*
Y496410D02*
D03*
Y509110D02*
D03*
D48*
X234380Y499810D02*
D03*
Y518160D02*
D03*
Y536510D02*
D03*
X252730Y499810D02*
D03*
Y518160D02*
D03*
Y536510D02*
D03*
X271080Y499810D02*
D03*
Y518160D02*
D03*
Y536510D02*
D03*
D49*
X726360Y214660D02*
D03*
X731360D02*
D03*
X736360D02*
D03*
X726360Y186660D02*
D03*
X711360Y214660D02*
D03*
X706360D02*
D03*
Y186660D02*
D03*
X711360D02*
D03*
X731360D02*
D03*
X736360D02*
D03*
X716360D02*
D03*
X721360D02*
D03*
Y214660D02*
D03*
X716360D02*
D03*
D50*
X810180Y465791D02*
D03*
X797640D02*
D03*
D51*
X221970Y394902D02*
D03*
X233470D02*
D03*
D52*
X539830Y398904D02*
D03*
X549830D02*
D03*
X539830Y335643D02*
D03*
X549830D02*
D03*
D53*
X537069Y355243D02*
D03*
X552591D02*
D03*
D54*
X469900Y471590D02*
D03*
Y460590D02*
D03*
D55*
X895050Y124700D02*
D03*
X908050D02*
D03*
X901550D02*
D03*
X914550D02*
D03*
X921050D02*
D03*
D56*
X941800Y98100D02*
D03*
X874300D02*
D03*
D57*
X923550D02*
D03*
D58*
X896550D02*
D03*
D59*
X932925Y123850D02*
D03*
X883175D02*
D03*
D70*
X741680Y266700D02*
D03*
Y257200D02*
D03*
X756920Y266700D02*
D03*
Y257200D02*
D03*
X772160Y266700D02*
D03*
Y257200D02*
D03*
D71*
X965200Y214030D02*
D03*
Y202530D02*
D03*
X941070Y169510D02*
D03*
Y181010D02*
D03*
D72*
X835618Y113884D02*
D03*
Y126424D02*
D03*
X713441Y316150D02*
D03*
Y303610D02*
D03*
D73*
X852170Y264942D02*
D03*
Y270998D02*
D03*
X450850Y607548D02*
D03*
Y601492D02*
D03*
X622300Y312908D02*
D03*
Y306852D02*
D03*
X730250Y312908D02*
D03*
Y306852D02*
D03*
X632605Y565638D02*
D03*
Y559582D02*
D03*
X618490Y565638D02*
D03*
Y559582D02*
D03*
D74*
X745490Y314165D02*
D03*
Y305595D02*
D03*
D75*
X255270Y317560D02*
D03*
Y325060D02*
D03*
X905510Y636330D02*
D03*
Y643830D02*
D03*
X368300Y340300D02*
D03*
Y332800D02*
D03*
X359297Y332860D02*
D03*
Y340360D02*
D03*
X403860Y340300D02*
D03*
Y332800D02*
D03*
X394857D02*
D03*
Y340300D02*
D03*
D78*
X701850Y245110D02*
D03*
X707850D02*
D03*
D81*
X789569Y265760D02*
D03*
Y275260D02*
D03*
X832630Y261010D02*
D03*
X803130D02*
D03*
X832630Y280010D02*
D03*
X803130D02*
D03*
X337330Y376530D02*
D03*
X307830Y357530D02*
D03*
Y376530D02*
D03*
X337330Y357530D02*
D03*
D101*
X254660Y336710D02*
D03*
X273660D02*
D03*
X264160Y356710D02*
D03*
X379120Y598330D02*
D03*
X388620Y618330D02*
D03*
X398120Y598330D02*
D03*
X358742Y357030D02*
D03*
X377743D02*
D03*
X368243Y377030D02*
D03*
X394360Y357030D02*
D03*
X413360D02*
D03*
X403860Y377030D02*
D03*
D102*
X721360Y200660D02*
D03*
D113*
X934880Y631850D02*
D03*
X954880Y641350D02*
D03*
X934880Y650850D02*
D03*
X296070Y404907D02*
D03*
X316070Y395407D02*
D03*
Y414408D02*
D03*
D120*
X999580Y612150D02*
D03*
X1019580D02*
D03*
D123*
X726360Y195660D02*
D03*
X721360D02*
D03*
X716360D02*
D03*
X726360Y205660D02*
D03*
X716360Y200660D02*
D03*
X726360D02*
D03*
X721360D02*
D03*
Y205660D02*
D03*
X716360D02*
D03*
X731360Y195660D02*
D03*
X711360D02*
D03*
X731360Y205660D02*
D03*
X711360D02*
D03*
X731360Y200660D02*
D03*
X711360D02*
D03*
D124*
X651206Y422993D02*
G03*
X655859Y422993I2326J2326D01*
G01*
X648331Y425868D02*
G03*
X643678Y425868I-2326J-2326D01*
G01*
X643678Y425868D02*
G03*
X643678Y421216I2326J-2326D01*
G01*
X646553Y413688D02*
G03*
X646553Y418340I-2326J2326D01*
G01*
X628875Y392768D02*
G03*
X633528Y392768I2326J2326D01*
G01*
X626137Y395506D02*
G03*
X621484Y395507I-2326J-2326D01*
G01*
X621484Y395506D02*
G03*
X621484Y390854I2326J-2326D01*
G01*
X625636Y382049D02*
G03*
X625636Y386701I-2326J2326D01*
G01*
X620984Y382049D02*
G03*
X625636Y382049I2326J2326D01*
G01*
X613902Y389130D02*
G03*
X609249Y389130I-2326J-2326D01*
G01*
X609249Y389130D02*
G03*
X609249Y384478I2326J-2326D01*
G01*
X614917Y374157D02*
G03*
X614917Y378810I-2326J2326D01*
G01*
X600959Y364851D02*
G03*
X605611Y364851I2326J2326D01*
G01*
X599586Y366224D02*
G03*
X594934Y366224I-2326J-2326D01*
G01*
X594934Y366224D02*
G03*
X594934Y361571I2326J-2326D01*
G01*
X604520Y347332D02*
G03*
X604520Y351985I-2326J2326D01*
G01*
X599867Y347332D02*
G03*
X604520Y347332I2326J2326D01*
G01*
X578345Y368854D02*
G03*
X573693Y368854I-2326J-2326D01*
G01*
X573693Y368854D02*
G03*
X573693Y364201I2326J-2326D01*
G01*
X587000Y346240D02*
G03*
X587000Y350893I-2326J2326D01*
G01*
X571327Y331930D02*
G03*
X573654Y332894I0J3290D01*
G01*
X556882Y331930D02*
G03*
X553592Y328640I0J-3290D01*
G01*
Y328640D02*
G03*
X556882Y325350I3290J0D01*
G01*
X562864Y322060D02*
G03*
X559574Y325350I-3290J0D01*
G01*
X947450Y613530D02*
X952700Y608280D01*
X933450Y613530D02*
X947450D01*
X952700Y606980D02*
Y608280D01*
Y606980D02*
X969400Y590280D01*
X934591Y614671D02*
Y620901D01*
X933450Y613530D02*
X934591Y614671D01*
Y620901D02*
X945990Y632300D01*
X954880D01*
X1010920Y354330D02*
X1023400D01*
X1003490D02*
X1010920D01*
Y363110D02*
X1023620D01*
X1004870D02*
X1010920D01*
Y372110D02*
X1023620D01*
X1006030D02*
X1010920D01*
X989060Y658130D02*
X998220Y648970D01*
X838087Y658130D02*
X989060D01*
X823900Y643942D02*
X838087Y658130D01*
X312674Y284734D02*
X319278Y291338D01*
X342622Y207630D02*
X346246Y204006D01*
X348829Y221630D02*
X349365Y221095D01*
X265170Y277580D02*
Y292608D01*
X307170Y284734D02*
X312674D01*
X237170Y151680D02*
Y235524D01*
X307170Y277580D02*
Y284734D01*
X330120Y207630D02*
X342622D01*
X303778Y331216D02*
X319278D01*
X330120Y221630D02*
X348829D01*
X223170Y228504D02*
X241808Y247142D01*
X293170Y247904D02*
X298250Y242824D01*
X279170Y277580D02*
Y294616D01*
X330120Y249630D02*
X361390D01*
X265170Y292608D02*
X303778Y331216D01*
X293170Y247904D02*
Y277580D01*
X298250Y242824D02*
X367792D01*
X223170Y151680D02*
Y228504D01*
X637032Y632968D02*
X665634Y604366D01*
X655064Y584200D02*
X663134Y576130D01*
X659384Y558038D02*
Y565404D01*
X656956Y555610D02*
X659384Y558038D01*
X650664Y555610D02*
X656956D01*
X645668Y406908D02*
X704173Y465413D01*
X655859Y422993D02*
X666343Y433477D01*
X648331Y425868D02*
X651206Y422993D01*
X643678Y425868D02*
X643678Y425868D01*
X643678Y421216D02*
X646553Y418340D01*
X646023Y413157D02*
X646553Y413688D01*
X666343Y433477D02*
X701673Y468808D01*
X639515Y406650D02*
X646023Y413157D01*
X639046Y406181D02*
X639515Y406650D01*
X639046Y398286D02*
Y406181D01*
X633528Y392768D02*
X639046Y398286D01*
X626137Y395507D02*
X628875Y392768D01*
X626137Y395506D02*
X626137Y395507D01*
X621484Y395506D02*
X621484Y395507D01*
X621484Y390854D02*
X621484Y390854D01*
X625636Y386701D01*
X625636Y386701D02*
X625636Y386701D01*
X625636Y382049D02*
X625636Y382049D01*
X620984Y382049D02*
X620984Y382049D01*
X613902Y389130D02*
X620984Y382049D01*
X613902Y389130D02*
X613902Y389130D01*
X609249Y389130D02*
X609249Y389130D01*
X609249Y384478D02*
X609249Y384478D01*
X614917Y378810D01*
X614917Y378810D02*
X614917Y378810D01*
X605611Y364851D02*
X614917Y374157D01*
X599586Y366224D02*
X600959Y364851D01*
X594934Y366224D02*
X594934Y366224D01*
X594934Y361571D02*
X604520Y351985D01*
X604520Y347332D02*
X604520Y347332D01*
X578345Y368854D02*
X599867Y347332D01*
X573693Y368854D02*
X573693Y368854D01*
X573693Y364201D02*
X587000Y350893D01*
X587000Y350893D02*
X587000Y350893D01*
X586470Y345710D02*
X587000Y346240D01*
X581120Y340360D02*
X586470Y345710D01*
X573654Y332894D02*
X581120Y340360D01*
X556882Y331930D02*
X571327D01*
X553592Y328640D02*
Y328640D01*
X556882Y325350D02*
X559574D01*
X562864Y321310D02*
Y322060D01*
Y314706D02*
Y321310D01*
X704173Y465413D02*
Y476200D01*
X716673Y488700D01*
X786290Y260350D02*
X787168Y261229D01*
Y263360D02*
X800125Y276316D01*
X782320Y260350D02*
X786290D01*
X787168Y261229D02*
Y263360D01*
X822158Y506690D02*
X897636Y582168D01*
X822158Y410191D02*
Y506690D01*
X805517Y393550D02*
X822158Y410191D01*
X760302Y393550D02*
X805517D01*
X759423Y392671D02*
X760302Y393550D01*
X758673Y391800D02*
X759423Y392550D01*
X754173Y391800D02*
X758673D01*
X759423Y392550D02*
Y392671D01*
X819658Y411226D02*
Y512826D01*
X754173Y396800D02*
X805232D01*
X819658Y411226D01*
X788924Y410972D02*
Y436640D01*
X770382Y461800D02*
X814098Y418084D01*
X754173Y461800D02*
X770382D01*
X728572Y381000D02*
X728762Y381190D01*
Y411698D01*
X699770Y440690D02*
X728762Y411698D01*
X754173Y371800D02*
X874070D01*
X891540Y354330D01*
X694721Y368808D02*
X726634D01*
X709173Y474129D02*
X726673Y491629D01*
X706673Y459550D02*
Y475165D01*
X613423Y361455D02*
X709173Y457205D01*
X721673Y490165D02*
Y509300D01*
X716673Y488700D02*
Y509300D01*
X713740Y466090D02*
Y475161D01*
X609346Y362223D02*
X706673Y459550D01*
X709173Y457205D02*
Y474129D01*
X726673Y491629D02*
Y509300D01*
X706673Y475165D02*
X721673Y490165D01*
X713740Y475161D02*
X736673Y498094D01*
X613423Y300783D02*
Y361455D01*
X701673Y468808D02*
Y509300D01*
X394360Y340910D02*
X394970Y340300D01*
X669290Y323342D02*
Y328930D01*
X800125Y276316D02*
X803130D01*
X805631Y277115D02*
Y280010D01*
Y277115D02*
X832630D01*
X469593Y460897D02*
X469705Y461010D01*
X485403D01*
X574040Y101854D02*
X577596D01*
X264160Y356710D02*
Y374650D01*
X315976Y344170D02*
Y371856D01*
X923685Y195329D02*
Y199672D01*
X754173Y376800D02*
X872606D01*
X891540Y354330D02*
X938530D01*
X819658Y512826D02*
X897128Y590296D01*
X777806Y180652D02*
X782320Y185166D01*
X773293Y176139D02*
X777806Y180652D01*
X771870Y187420D02*
X777806Y181483D01*
X771620Y187420D02*
X771870D01*
X769620Y189420D02*
X771620Y187420D01*
X769620Y189420D02*
Y189670D01*
X777806Y180652D02*
Y181483D01*
X782320Y185166D02*
Y204470D01*
X775580Y211210D02*
X782320Y204470D01*
X759460Y211210D02*
X775580D01*
X759460Y210460D02*
Y211210D01*
X716673Y340614D02*
Y354300D01*
X255270Y317560D02*
X258064D01*
X267910Y327406D01*
X254660Y336710D02*
X255270Y336100D01*
Y325060D02*
Y336100D01*
X403860Y340300D02*
Y377030D01*
X394857Y340300D02*
X394970D01*
X394360Y340910D02*
Y357030D01*
X368243Y340358D02*
Y377030D01*
Y340358D02*
X368300Y340300D01*
X358742Y340915D02*
Y357030D01*
Y340915D02*
X359297Y340360D01*
X669290Y328930D02*
X671673Y331313D01*
Y354300D01*
X669290Y316880D02*
Y323342D01*
X667766Y324866D02*
X669290Y323342D01*
X413360Y322834D02*
Y357030D01*
X372110Y389890D02*
X386080Y375920D01*
Y341827D02*
Y375920D01*
X372110Y389890D02*
Y414020D01*
X394857Y332800D02*
Y333050D01*
X386080Y341827D02*
X394857Y333050D01*
X241230Y565220D02*
X260350Y546100D01*
X241230Y565220D02*
Y613160D01*
X650664Y543984D02*
Y555610D01*
X646673Y539993D02*
X650664Y543984D01*
X646673Y509300D02*
Y539993D01*
X377743Y357030D02*
Y375711D01*
X350520Y373380D02*
X365760Y388620D01*
Y414020D01*
X350520Y341638D02*
Y373380D01*
X359297Y332860D02*
Y332860D01*
X350520Y341638D02*
X359297Y332860D01*
X261620Y553720D02*
X266630Y558730D01*
Y613160D01*
X810514Y631190D02*
X817150D01*
X589280Y381800D02*
X599173D01*
X584708Y371348D02*
Y377228D01*
X589280Y381800D01*
X582300Y391800D02*
X599173D01*
X548330Y383846D02*
X549830Y398904D01*
X562287Y371787D02*
X582300Y391800D01*
X549080Y371787D02*
X562287D01*
X549080D02*
Y382790D01*
X547858Y383846D02*
X548024D01*
X548330D01*
X548024D02*
X549080Y382790D01*
X584147Y386800D02*
X599173D01*
X552591Y355243D02*
X584147Y386800D01*
X549797Y364490D02*
X552591Y361696D01*
Y338404D02*
Y355243D01*
X549830Y335643D02*
X552591Y338404D01*
Y355243D02*
Y361696D01*
X548330Y320585D02*
X549830Y335643D01*
X540580Y368486D02*
X544576Y364490D01*
X549797D01*
X540580Y368486D02*
Y371787D01*
X547858Y320585D02*
X548330D01*
X976630Y127120D02*
X986790D01*
X976630Y118110D02*
Y127120D01*
X670483Y365506D02*
X679196D01*
X666673Y354300D02*
Y361696D01*
X670483Y365506D01*
X914550Y115824D02*
X917344Y113030D01*
X927862D01*
X914550Y115824D02*
Y124700D01*
X414020Y543560D02*
X425010D01*
X400050Y529590D02*
X414020Y543560D01*
X304730Y549980D02*
X312420Y542290D01*
X304730Y549980D02*
Y613160D01*
X393700Y506730D02*
X425010D01*
X317430Y544900D02*
Y613160D01*
Y544900D02*
X323850Y538480D01*
X416360Y554990D02*
X425010D01*
X370480Y509110D02*
X416360Y554990D01*
X352830Y509110D02*
X370480D01*
X388620Y516890D02*
X425010D01*
X368140Y496410D02*
X388620Y516890D01*
X352830Y496410D02*
X368140D01*
X408783Y564992D02*
X425010D01*
X406340Y562550D02*
X408783Y564992D01*
X215830Y572840D02*
X220980Y567690D01*
X215830Y572840D02*
Y613160D01*
X410210Y527050D02*
X425010D01*
X228530Y567760D02*
Y613160D01*
Y567760D02*
X237490Y558800D01*
X671673Y458978D02*
Y509300D01*
X754173Y476800D02*
X765810D01*
X736673Y498094D02*
Y509300D01*
X398780Y610870D02*
X422910D01*
X392430Y574660D02*
Y604520D01*
X398780Y610870D01*
X382270Y564500D02*
X392430Y574660D01*
X370990Y553720D02*
X381770Y564500D01*
X382270D01*
X363555Y553660D02*
X370990Y553720D01*
X334800Y546890D02*
X341570Y553660D01*
X363555D01*
X334800Y540382D02*
Y546890D01*
X311180Y516762D02*
X334800Y540382D01*
X311180Y432435D02*
X316070Y427545D01*
X311180Y432435D02*
Y516762D01*
X316070Y414408D02*
Y427545D01*
X739735Y186660D02*
X741035Y187960D01*
X749300D01*
X736360Y186660D02*
X739735D01*
X686673Y260287D02*
X701850Y245110D01*
X681990D02*
X701850D01*
X686673Y260287D02*
Y354300D01*
X832630Y277115D02*
Y280010D01*
X847750D01*
X803130D02*
X805631D01*
X803130Y276316D02*
Y280010D01*
X847750D02*
X852170Y275590D01*
Y270998D02*
Y275590D01*
X599173Y426800D02*
X610108D01*
X856810Y172878D02*
Y182880D01*
X866060Y161875D02*
X886471D01*
X865310Y162625D02*
Y172878D01*
X886471Y161875D02*
X886905Y162309D01*
X865310Y162625D02*
X866060Y161875D01*
X759618Y181170D02*
X769620D01*
X734500D02*
X759618D01*
X731360Y184310D02*
Y186660D01*
Y184310D02*
X734500Y181170D01*
X379120Y581650D02*
Y598330D01*
Y581650D02*
X382270Y578500D01*
X335068Y395407D02*
X335900Y396240D01*
X316070Y395407D02*
X335068D01*
X922710Y650850D02*
X934880D01*
X916940Y645080D02*
X922710Y650850D01*
X915690Y643830D02*
X916940Y645080D01*
X905510Y643830D02*
X915690D01*
X706360Y186660D02*
X711360D01*
X674370Y190160D02*
X702860D01*
X706360Y186660D01*
X674370Y211160D02*
X702860D01*
X706360Y214660D02*
X711360D01*
X702860Y211160D02*
X706360Y214660D01*
X954880Y632300D02*
Y641350D01*
X969400Y480060D02*
Y590280D01*
X1023400Y354330D02*
X1023620Y354110D01*
X1003490Y364490D02*
X1004870Y363110D01*
X1003490Y374650D02*
X1006030Y372110D01*
X470995Y396240D02*
Y404035D01*
X477080Y397950D01*
X466787Y408242D02*
X470995Y404035D01*
X477080Y394970D02*
Y397950D01*
X469725Y394970D02*
X470995Y396240D01*
X448630Y408242D02*
X466787D01*
X464910Y394970D02*
X469725D01*
X477080Y434714D02*
X479552Y432243D01*
X488630D01*
X477080Y434714D02*
Y444745D01*
X464910Y440601D02*
Y444500D01*
X473268Y432243D02*
X479552D01*
X464910Y440601D02*
X473268Y432243D01*
X783934Y465791D02*
X797640D01*
X767925Y481800D02*
X783934Y465791D01*
X754173Y481800D02*
X767925D01*
X726673Y339323D02*
Y354300D01*
X713441Y326091D02*
X726673Y339323D01*
X713441Y316150D02*
Y326091D01*
X462333Y460590D02*
X469900D01*
X454750Y460897D02*
X462026D01*
X469593D01*
X462026D02*
X462333Y460590D01*
X470320Y471170D02*
X485403D01*
X469900Y471590D02*
X470320Y471170D01*
X468210Y469900D02*
X469900Y471590D01*
X454750Y469900D02*
X468210D01*
X430775Y142485D02*
X441635D01*
X410150Y137160D02*
X425450D01*
X430775Y142485D01*
X410150Y127000D02*
Y137160D01*
Y115022D02*
Y127000D01*
X409428Y114300D02*
X410150Y115022D01*
X824650Y620760D02*
Y631190D01*
X823900Y643193D02*
Y643942D01*
Y631940D02*
Y643193D01*
Y631940D02*
X824650Y631190D01*
X823650Y619760D02*
X824650Y620760D01*
X814150Y643443D02*
Y656695D01*
Y643443D02*
X814400Y643193D01*
X726360Y185103D02*
X735325Y176139D01*
X773293D01*
X748910Y211210D02*
X759460D01*
X745460Y214660D02*
X748910Y211210D01*
X736360Y214660D02*
X745460D01*
X726360Y185103D02*
Y186660D01*
X754173Y401800D02*
X768096D01*
X398780Y127000D02*
X402650D01*
X393700Y132080D02*
X398780Y127000D01*
X587248Y314960D02*
X609346Y337058D01*
Y362223D01*
X557530Y143510D02*
X584200Y116840D01*
X505186Y143510D02*
X557530D01*
X584200Y104330D02*
Y116840D01*
X478985Y178425D02*
Y203985D01*
Y169711D02*
X505186Y143510D01*
X478985Y169711D02*
Y172329D01*
Y178425D01*
X579120Y100330D02*
X618680D01*
Y295526D01*
X613423Y300783D02*
X618680Y295526D01*
X574040Y101854D02*
Y104330D01*
X577596Y101854D02*
X579120Y100330D01*
X467985Y178425D02*
Y203985D01*
X504190Y140970D02*
X537400D01*
X467985Y177175D02*
X504190Y140970D01*
X537400D02*
X574040Y104330D01*
X467985Y177175D02*
Y178425D01*
X754173Y446800D02*
X778764D01*
X788924Y436640D01*
X544485Y185765D02*
Y203985D01*
X614680Y104330D02*
Y115570D01*
X554990Y175260D02*
X614680Y115570D01*
X544485Y185765D02*
X554990Y175260D01*
X774098Y441800D02*
X783590Y432308D01*
X754173Y441800D02*
X774098D01*
X604520Y104330D02*
Y116840D01*
X536956Y184404D02*
X604520Y116840D01*
X533985Y178425D02*
Y203985D01*
X594360Y104330D02*
Y116840D01*
X565190Y146010D02*
X594360Y116840D01*
X506221Y146010D02*
X565190D01*
X489985Y178425D02*
Y203985D01*
Y162246D02*
X506221Y146010D01*
X489985Y162246D02*
Y178425D01*
X576834Y315214D02*
X594614Y332994D01*
X511985Y178425D02*
Y203985D01*
X593083Y453390D02*
X594673Y451800D01*
X549910Y453390D02*
X593083D01*
X594673Y451800D02*
X599173D01*
X493903Y461010D02*
X542290D01*
X549910Y453390D01*
X550036Y456800D02*
X599173D01*
X535666Y471170D02*
X550036Y456800D01*
X493903Y471170D02*
X535666D01*
X971550Y330390D02*
X995490Y354330D01*
X982980Y374650D02*
X995490D01*
X754173Y381800D02*
X875500D01*
X877570Y379730D01*
X971550Y364490D02*
X995490D01*
X872606Y376800D02*
X884916Y364490D01*
X910590D01*
X580644Y431800D02*
X599173D01*
X575056Y426212D02*
X580644Y431800D01*
X485580Y394970D02*
X511048D01*
X531114Y415036D01*
X573024Y436800D02*
X599173D01*
X559896Y423672D02*
X573024Y436800D01*
X485580Y444745D02*
X517652D01*
X719200Y236307D02*
X726360Y229147D01*
Y214660D02*
Y229147D01*
X718207Y237300D02*
X719200Y236307D01*
X727710D01*
X583400Y406800D02*
X599173D01*
X579120Y411080D02*
X583400Y406800D01*
X279330Y626040D02*
X288290Y635000D01*
X511810D01*
X279330Y613160D02*
Y626040D01*
X511810Y635000D02*
X579120Y567690D01*
X605485Y584200D02*
X655064D01*
X433510Y554990D02*
Y564992D01*
Y567758D01*
Y543560D02*
Y554990D01*
X663134Y533594D02*
Y576130D01*
X651673Y522133D02*
X663134Y533594D01*
X564845Y543560D02*
X605485Y584200D01*
X651673Y509300D02*
Y522133D01*
X433510Y543560D02*
X564845D01*
X420878Y580390D02*
X433510Y567758D01*
X665634Y526106D02*
Y604366D01*
X656673Y517144D02*
X665634Y526106D01*
X656673Y509300D02*
Y517144D01*
X433510Y535364D02*
X433578Y535432D01*
X433510Y516890D02*
Y527050D01*
Y535364D01*
Y506730D02*
Y516890D01*
X282078Y404907D02*
X296070D01*
Y379164D02*
X298704Y376530D01*
X296070Y379164D02*
Y404907D01*
X274680Y397510D02*
X282078Y404907D01*
X273930Y397510D02*
Y403352D01*
Y397510D02*
X274680D01*
X273930Y378690D02*
Y397510D01*
X311302Y376530D02*
X315976Y371856D01*
Y344170D02*
X318282D01*
X298704Y376530D02*
X307830D01*
X311302D01*
X234950Y421640D02*
Y459232D01*
X234512Y459670D02*
X234950Y459232D01*
X251714Y404876D02*
X272406D01*
X234950Y421640D02*
X251714Y404876D01*
X207264Y459670D02*
X234512D01*
X203130Y455536D02*
X207264Y459670D01*
X203130Y443160D02*
Y455536D01*
X272406Y404876D02*
X273930Y403352D01*
X269890Y374650D02*
X273930Y378690D01*
X264160Y374650D02*
X269890D01*
X433680Y619270D02*
Y624230D01*
Y619270D02*
X446260D01*
X392430Y627380D02*
X430530D01*
X433680Y624230D01*
X450850Y607548D02*
Y614680D01*
X446260Y619270D02*
X450850Y614680D01*
X388620Y623570D02*
X392430Y627380D01*
X388620Y618330D02*
Y623570D01*
X365600Y618330D02*
X388620D01*
X360430Y613160D02*
X365600Y618330D01*
X342830Y613160D02*
X360430D01*
X405080Y605790D02*
X429260D01*
X398120Y598830D02*
X405080Y605790D01*
X398120Y598330D02*
Y598830D01*
Y565760D02*
Y598330D01*
X373380Y541020D02*
X398120Y565760D01*
X363555Y540960D02*
X373380Y541020D01*
X341570Y540960D02*
X363555D01*
X323850Y422790D02*
X349900Y396740D01*
Y396240D02*
Y396740D01*
X323850Y523240D02*
X341570Y540960D01*
X323850Y422790D02*
Y523240D01*
X591124Y411800D02*
X599173D01*
X590296Y410972D02*
X591124Y411800D01*
X588170Y421800D02*
X599173D01*
X586546Y420176D02*
X588170Y421800D01*
X646673Y344424D02*
X652018Y339079D01*
Y312928D02*
Y339079D01*
X646673Y344424D02*
Y354300D01*
X635762Y308102D02*
X647192D01*
X652018Y312928D01*
X641673Y354300D02*
Y364998D01*
X599173Y416800D02*
X610108D01*
X238860Y333248D02*
X242924Y337312D01*
X237170Y300570D02*
X238860Y302260D01*
Y333248D01*
X237170Y277580D02*
Y300570D01*
X631673Y319278D02*
Y354300D01*
X636673Y338836D02*
Y354300D01*
X923290Y180830D02*
X946095Y203635D01*
X923290Y166370D02*
Y180830D01*
X919229Y162309D02*
X923290Y166370D01*
X919229Y162309D02*
X925066D01*
X912305D02*
X919229D01*
X925066D02*
X927862Y159512D01*
X702056Y294894D02*
Y295043D01*
X696673Y301770D02*
Y354300D01*
Y301770D02*
X699125Y299318D01*
Y297974D02*
X702056Y295043D01*
X699125Y297974D02*
Y299318D01*
X707136Y296926D02*
X747014D01*
X700024Y304038D02*
X707136Y296926D01*
X875538Y187960D02*
X891213Y203635D01*
X914845D01*
X875538Y173738D02*
X881888Y167388D01*
X886905D01*
X875538Y173738D02*
Y187960D01*
X700024Y325628D02*
X706673Y332277D01*
Y354300D01*
X700024Y304038D02*
Y325628D01*
X903855Y183899D02*
X909572D01*
X912305Y172468D02*
Y181165D01*
X909572Y183899D02*
X912305Y181165D01*
X903855Y183899D02*
Y193679D01*
X691673Y365760D02*
X694721Y368808D01*
X691673Y354300D02*
Y365760D01*
X926508Y199672D02*
X930470Y203635D01*
X923572Y199672D02*
X923685D01*
X926508D01*
X923685Y188976D02*
Y195329D01*
X919229Y167388D02*
Y195329D01*
X923685D01*
X703959Y363982D02*
X722884D01*
X701673Y354300D02*
Y361696D01*
X703959Y363982D01*
X912305Y167388D02*
X919229D01*
X883076Y636330D02*
X905510D01*
X731673Y564033D02*
X761492Y593852D01*
X731673Y509300D02*
Y564033D01*
X762762Y167640D02*
X764032Y166370D01*
X756920Y167640D02*
X762762D01*
X756920Y158637D02*
Y167640D01*
X661673Y308359D02*
Y354300D01*
X660146Y306832D02*
X661673Y308359D01*
D125*
X986860Y153060D02*
D03*
Y162560D02*
D03*
Y172060D02*
D03*
X963860D02*
D03*
Y162560D02*
D03*
Y153060D02*
D03*
D126*
X674370Y190160D02*
D03*
Y211160D02*
D03*
D127*
X669290Y316880D02*
D03*
Y302880D02*
D03*
X382270Y564500D02*
D03*
Y578500D02*
D03*
X650664Y569610D02*
D03*
Y555610D02*
D03*
D128*
X238860Y302260D02*
D03*
X251360D02*
D03*
D129*
X856810Y172878D02*
D03*
X865310D02*
D03*
D130*
X714570Y167640D02*
D03*
X723070D02*
D03*
X895355Y183899D02*
D03*
X903855D02*
D03*
X856810Y182880D02*
D03*
X865310D02*
D03*
X433510Y564992D02*
D03*
X425010D02*
D03*
X433510Y554990D02*
D03*
X425010D02*
D03*
X433510Y543560D02*
D03*
X425010D02*
D03*
X433510Y527050D02*
D03*
X425010D02*
D03*
X433510Y516890D02*
D03*
X425010D02*
D03*
X433510Y506730D02*
D03*
X425010D02*
D03*
X719650Y266700D02*
D03*
X728150D02*
D03*
X485403Y471170D02*
D03*
X493903D02*
D03*
X485403Y461010D02*
D03*
X493903D02*
D03*
X549080Y371787D02*
D03*
X540580D02*
D03*
X477080Y444745D02*
D03*
X485580D02*
D03*
X477080Y394970D02*
D03*
X485580D02*
D03*
D131*
X727710Y236307D02*
D03*
Y245308D02*
D03*
D132*
X916940Y635080D02*
D03*
Y645080D02*
D03*
X946095Y213635D02*
D03*
Y203635D02*
D03*
X930470Y213635D02*
D03*
Y203635D02*
D03*
X914845Y213635D02*
D03*
Y203635D02*
D03*
D133*
X986790Y127120D02*
D03*
Y134620D02*
D03*
X976630D02*
D03*
Y127120D02*
D03*
D134*
X500985Y203985D02*
D03*
X478985D02*
D03*
X467985D02*
D03*
X533985D02*
D03*
X489985D02*
D03*
X511985D02*
D03*
X522985D02*
D03*
D135*
X441635Y142485D02*
D03*
Y105485D02*
D03*
D136*
X544485Y203985D02*
D03*
D137*
X556585Y200485D02*
D03*
D138*
X443385Y202735D02*
D03*
D139*
X536335Y95735D02*
D03*
X476635D02*
D03*
D140*
X912305Y157228D02*
D03*
X886905Y162309D02*
D03*
Y172468D02*
D03*
X912305Y162309D02*
D03*
X886905Y167388D02*
D03*
X912305Y172468D02*
D03*
Y167388D02*
D03*
X886905Y157228D02*
D03*
D141*
X899605Y164848D02*
D03*
D142*
X293170Y151680D02*
D03*
X279170D02*
D03*
X265170D02*
D03*
X209170Y277580D02*
D03*
X223170D02*
D03*
X251170D02*
D03*
X307170Y151680D02*
D03*
X223170D02*
D03*
X237170D02*
D03*
X293170Y277580D02*
D03*
X279170D02*
D03*
X237170D02*
D03*
X307170D02*
D03*
X265170D02*
D03*
X209170Y151680D02*
D03*
X251170D02*
D03*
D143*
X330120Y249630D02*
D03*
Y263630D02*
D03*
Y235630D02*
D03*
Y193630D02*
D03*
Y179630D02*
D03*
Y165630D02*
D03*
Y207630D02*
D03*
Y221630D02*
D03*
D144*
X256930Y397510D02*
D03*
X273930D02*
D03*
X216888Y374650D02*
D03*
X233888D02*
D03*
D145*
X710320Y148590D02*
D03*
X727320D02*
D03*
D146*
X464910Y394970D02*
D03*
X457110D02*
D03*
X446950Y469900D02*
D03*
X454750D02*
D03*
X446950Y460897D02*
D03*
X454750D02*
D03*
X457110Y444500D02*
D03*
X464910D02*
D03*
D147*
X734060Y112531D02*
D03*
X712470Y113030D02*
D03*
D148*
X448630Y432243D02*
D03*
X488630Y408242D02*
D03*
Y432243D02*
D03*
X448630Y408242D02*
D03*
D149*
X759460Y211210D02*
D03*
Y228210D02*
D03*
D150*
X769620Y189670D02*
D03*
Y181170D02*
D03*
X759618Y189670D02*
D03*
Y181170D02*
D03*
X753110Y121090D02*
D03*
Y112590D02*
D03*
D151*
X866060Y161875D02*
D03*
X856060D02*
D03*
X814150Y656695D02*
D03*
X824150D02*
D03*
D152*
X995490Y354330D02*
D03*
X1003490D02*
D03*
X995490Y364490D02*
D03*
X1003490D02*
D03*
X995490Y374650D02*
D03*
X1003490D02*
D03*
D153*
X269890D02*
D03*
X255890D02*
D03*
X335900Y396240D02*
D03*
X349900D02*
D03*
D154*
X754380Y91420D02*
X756282D01*
X773430Y108568D02*
Y109178D01*
X756282Y91420D02*
X763250Y98387D01*
X773430Y108568D01*
X763250Y98387D02*
Y105430D01*
X760730Y107950D02*
X763250Y105430D01*
X753110Y97790D02*
Y112590D01*
X307170Y141478D02*
X312420D01*
X314678Y261338D02*
X327828D01*
X248630Y261620D02*
X251170Y264160D01*
X312420Y141478D02*
X344932D01*
X209170Y277580D02*
X223170D01*
X327828Y261338D02*
X330120Y263630D01*
X223170Y264002D02*
X225552Y261620D01*
X307170Y141478D02*
Y151680D01*
X312420Y141478D02*
X314960Y138938D01*
X223170Y264002D02*
Y277580D01*
X302260Y248920D02*
X314678Y261338D01*
X225552Y261620D02*
X248630D01*
X251170Y264160D02*
Y277580D01*
X650664Y569610D02*
Y577596D01*
X632605Y565638D02*
X636577Y569610D01*
X650664D01*
X618490Y565638D02*
Y565658D01*
X632605Y565638D02*
X637540Y564114D01*
X618490Y565638D02*
X632605D01*
X801800Y259510D02*
X801880D01*
X793830Y251540D02*
X801800Y259510D01*
X778570Y251540D02*
X793830D01*
X756920Y257200D02*
X772910D01*
X801880Y259510D02*
X803130Y260760D01*
X772910Y257200D02*
X778570Y251540D01*
X803130Y260760D02*
Y261010D01*
X444117Y470600D02*
X446250D01*
X446950Y469900D01*
X443707Y471010D02*
X444117Y470600D01*
X352830Y471010D02*
X443707D01*
X810180Y431372D02*
Y465791D01*
X804672Y475996D02*
X806938Y478262D01*
X976471Y165862D02*
X978774Y163560D01*
X985860D01*
X974090Y168205D02*
X976433Y165862D01*
X985860Y163560D02*
X986860Y162560D01*
X974090Y168205D02*
Y186690D01*
X971280Y161560D02*
X976630Y156210D01*
X976433Y165862D02*
X976471D01*
X976630Y134620D02*
Y156210D01*
X964860Y161560D02*
X971280D01*
X963860Y162560D02*
X964860Y161560D01*
X714756Y167640D02*
Y180056D01*
X721360Y186660D01*
X403352Y109728D02*
Y114300D01*
X209170Y284734D02*
X215392D01*
X216888Y286230D01*
X327276Y336710D02*
Y344170D01*
X541782Y287528D02*
Y320585D01*
X619506Y306832D02*
X622300D01*
X665091Y301325D02*
Y302880D01*
X669290Y308864D02*
X681990D01*
X433832Y601726D02*
X450850D01*
X457110Y432243D02*
Y444500D01*
X542080D02*
Y447846D01*
X594106Y565658D02*
X618490D01*
X696976Y122936D02*
X712470D01*
X883175Y98100D02*
Y120396D01*
X869219D02*
X883175D01*
X869277Y119491D02*
X883175Y120396D01*
X932925Y98100D02*
Y123850D01*
X974090Y186690D02*
Y199062D01*
X971747Y201405D02*
X974090Y199062D01*
X965200Y202530D02*
X966325Y201405D01*
X971747D01*
X959104Y202530D02*
X965200D01*
X850392Y167543D02*
Y190697D01*
X852735Y193040D02*
X862967D01*
X865310Y190697D01*
X850392D02*
X852735Y193040D01*
X865310Y182880D02*
Y190697D01*
X694690Y289560D02*
X699770Y284480D01*
X694690Y289560D02*
Y298450D01*
X699770Y284480D02*
X723900D01*
X721280Y303610D02*
X723900Y300990D01*
X713441Y303610D02*
X721280D01*
X774700Y171450D02*
X803130Y199880D01*
Y260760D01*
X770608Y200660D02*
X774700D01*
X760618Y190670D02*
X770608Y200660D01*
X760368Y190670D02*
X760618D01*
X759618Y189920D02*
X760368Y190670D01*
X759618Y189670D02*
Y189920D01*
X664210Y167640D02*
X714570D01*
X714756D01*
X716360Y186660D02*
X721360D01*
X941070Y164596D02*
Y169510D01*
X922938Y154404D02*
X930879D01*
X920114Y157228D02*
X922938Y154404D01*
X949960Y134620D02*
X976630D01*
X930879Y154404D02*
X941070Y164596D01*
X895050Y141940D02*
X910339Y157228D01*
X912305D02*
X920114D01*
X910339D02*
X912305D01*
X895050Y124700D02*
Y141940D01*
Y113030D02*
Y124700D01*
X753051Y112531D02*
X753110Y112590D01*
X734060Y112531D02*
X753051D01*
X749420Y153790D02*
Y158637D01*
X744220Y148590D02*
X749420Y153790D01*
X733763Y112828D02*
Y142147D01*
X727320Y148590D02*
Y161680D01*
X723070Y165930D02*
X727320Y161680D01*
Y148590D02*
X744220D01*
X723070Y165930D02*
Y167640D01*
X727320Y148590D02*
X733763Y142147D01*
Y112828D02*
X734060Y112531D01*
X924052Y635080D02*
X927282Y631850D01*
X916940Y635080D02*
X924052D01*
X927282Y631850D02*
X934880D01*
X814150Y597408D02*
X818214Y593344D01*
X814150Y597408D02*
Y619760D01*
X875204Y593344D02*
X916940Y635080D01*
X818214Y593344D02*
X875204D01*
X808195Y526336D02*
X875204Y593344D01*
X737108Y619760D02*
X814150D01*
X806938Y489458D02*
X808195Y490715D01*
Y497840D01*
Y526336D01*
X754173Y486800D02*
X773548D01*
X806938Y475996D02*
X810180Y465791D01*
X806938Y475996D02*
Y478262D01*
Y482600D02*
Y489458D01*
X773548Y486800D02*
X784352Y475996D01*
X806938Y478262D02*
Y482600D01*
X784352Y475996D02*
X804672D01*
X840232Y261010D02*
X844164Y264942D01*
X852170D01*
X832630Y261010D02*
X840232D01*
X803130D02*
X832630D01*
X953262Y196688D02*
X959104Y202530D01*
X741680Y257200D02*
X756920D01*
Y243840D02*
X759460Y241300D01*
X756920Y243840D02*
Y257200D01*
X759460Y228210D02*
Y241300D01*
X731360Y195660D02*
X755570D01*
X731673Y336449D02*
Y354300D01*
X730250Y306852D02*
X737108D01*
X720852Y312928D02*
X721805Y311975D01*
X720852Y312928D02*
Y325628D01*
X726928Y306852D02*
X730250D01*
X721805Y311975D02*
X726928Y306852D01*
X737108D02*
X738365Y305595D01*
X745490D01*
X720852Y325628D02*
X731673Y336449D01*
X713441Y303610D02*
X721805Y311975D01*
X709088Y303610D02*
X713441D01*
X703834Y308864D02*
X709088Y303610D01*
X732942Y257200D02*
X741680D01*
X727710Y245308D02*
X738942D01*
X727710D02*
X728460Y244558D01*
X727710Y245308D02*
Y251968D01*
X732072Y244558D02*
X736600Y240030D01*
X728460Y244558D02*
X732072D01*
X736600Y227330D02*
Y240030D01*
X731360Y222090D02*
X736600Y227330D01*
X731360Y205660D02*
Y214660D01*
Y222090D01*
X727710Y251968D02*
X732942Y257200D01*
X953262Y186944D02*
Y196688D01*
X947328Y181010D02*
X953262Y186944D01*
X941070Y181010D02*
X947328D01*
X895355Y175192D02*
Y183899D01*
Y174752D02*
Y175192D01*
X886905Y172468D02*
X893072D01*
X899605Y153566D02*
Y164848D01*
X883175Y137136D02*
X899605Y153566D01*
X895355Y175192D02*
X899605Y170942D01*
X893072Y172468D02*
X895355Y174752D01*
X899605Y164848D02*
Y170942D01*
X989838Y134620D02*
X992378Y132080D01*
X986790Y134620D02*
X989838D01*
X921050Y124700D02*
X926338D01*
X927188Y123850D02*
X932925D01*
X926338Y124700D02*
X927188Y123850D01*
X992378Y101600D02*
Y132080D01*
X988878Y98100D02*
X992378Y101600D01*
X941800Y98100D02*
X988878D01*
X932925D02*
X941800D01*
X923550D02*
X932925D01*
X883175Y120396D02*
Y123850D01*
Y137136D01*
X896550Y98100D02*
X923550D01*
X883175D02*
X896550D01*
X836380Y117348D02*
X869277Y119491D01*
X874300Y98100D02*
X883175D01*
X859790Y153670D02*
Y158145D01*
X850392Y167543D02*
X856060Y161875D01*
X859790Y158145D01*
X755570Y195660D02*
X758868Y192362D01*
Y190420D02*
X759618Y189670D01*
X758868Y190420D02*
Y192362D01*
X710320Y131690D02*
Y148590D01*
X835618Y113884D02*
X836380Y117348D01*
X827666Y113884D02*
X835618D01*
X773430Y109178D02*
X794336D01*
X815242D02*
X822960D01*
X794336D02*
X815242D01*
X822960D02*
X827666Y113884D01*
X712470Y122936D02*
Y129540D01*
Y113030D02*
Y122936D01*
X710320Y131690D02*
X712470Y129540D01*
X637540Y533146D02*
Y564114D01*
X621673Y517279D02*
X637540Y533146D01*
X621673Y509300D02*
Y517279D01*
Y400999D02*
Y509300D01*
X450850Y601726D02*
X463296Y601980D01*
X509016Y480568D02*
X594106Y565658D01*
X530860Y454914D02*
X541274Y444500D01*
X454914Y480568D02*
X509016D01*
X449072Y454914D02*
X530860D01*
X587770Y449326D02*
X590296Y446800D01*
X543560Y449326D02*
X587770D01*
X590296Y446800D02*
X599173D01*
X542080Y447846D02*
X543560Y449326D01*
X541802Y414020D02*
X543356Y408910D01*
X541802Y410464D02*
Y414020D01*
X617474Y396800D02*
X621673Y400999D01*
X565217Y396800D02*
X599173D01*
X617474D01*
X543356Y408910D02*
X546374Y405892D01*
X541802Y410464D02*
X543356Y408910D01*
X556125Y405892D02*
X565217Y396800D01*
X546374Y405892D02*
X556125D01*
X541802Y444500D02*
X542080D01*
X541274D02*
X541802D01*
X451104D02*
X457110D01*
X448630Y432243D02*
X457110D01*
X539830Y398904D02*
X543356Y408910D01*
X539830Y385817D02*
Y398904D01*
X478028Y408242D02*
X488630D01*
X457110Y432243D02*
X478028Y408242D01*
X448211Y394970D02*
X457110D01*
X421876Y589770D02*
X433832Y601726D01*
X450850Y601492D02*
Y601726D01*
X414680Y589770D02*
X421876D01*
X252730Y518160D02*
X271080D01*
X446950Y472604D02*
X454914Y480568D01*
X446950Y469900D02*
Y472604D01*
X271080Y518160D02*
Y536510D01*
Y499810D02*
Y518160D01*
X252730Y499810D02*
X271080D01*
X234380Y536510D02*
X252730D01*
X271080D01*
X177730Y593160D02*
Y613160D01*
Y593160D02*
X234380Y536510D01*
Y499810D02*
X252730D01*
X234380Y500079D02*
Y518160D01*
X177730Y461510D02*
X234380Y518160D01*
Y500079D02*
X234469Y499989D01*
X234380Y499810D02*
Y500079D01*
X446950Y457036D02*
X449072Y454914D01*
X446950Y448654D02*
Y457036D01*
Y460897D01*
Y469900D01*
Y448654D02*
X451104Y444500D01*
X443385Y390144D02*
X448211Y394970D01*
X438912Y432243D02*
X448630D01*
X436626Y397256D02*
Y429957D01*
X438912Y432243D01*
Y394970D02*
X448211D01*
X436626Y397256D02*
X438912Y394970D01*
X182880Y415798D02*
X205968D01*
X221970Y394902D02*
Y399796D01*
X205968Y415798D02*
X221970Y399796D01*
X177730Y443160D02*
Y461510D01*
Y420948D02*
X182880Y415798D01*
X177730Y420948D02*
Y443160D01*
X256930Y385572D02*
Y397510D01*
X221970Y385572D02*
Y394902D01*
X668790Y302880D02*
X669290D01*
X665091D02*
X668790D01*
X622300Y306832D02*
Y306852D01*
X669290Y302880D02*
Y308864D01*
X665790Y299880D02*
X668790Y302880D01*
X624840Y258430D02*
X665790Y299380D01*
X622300Y306852D02*
X627827Y301325D01*
X665790Y299380D02*
Y299880D01*
X627827Y301325D02*
X665091D01*
X621673Y346456D02*
Y354300D01*
X617474Y342257D02*
X621673Y346456D01*
X539830Y385817D02*
X541802Y383846D01*
X539830Y322556D02*
X541802Y320585D01*
X539830Y322556D02*
Y335643D01*
X617474Y308864D02*
X619506Y306832D01*
X617474Y308864D02*
Y342257D01*
X556585Y211328D02*
Y272725D01*
X443385Y211328D02*
Y390144D01*
X541782Y287528D02*
X556585Y272725D01*
X541782Y320585D02*
X541802D01*
X624840Y215900D02*
Y258430D01*
X555315Y212598D02*
X556585Y211328D01*
X525778Y212598D02*
X555315D01*
X522985Y209805D02*
X525778Y212598D01*
X516764Y216026D02*
X522985Y209805D01*
Y203985D02*
Y209805D01*
Y203985D02*
X525778Y212598D01*
X572595Y200485D02*
X575310Y203200D01*
X556585Y200485D02*
Y211328D01*
Y200485D02*
X572595D01*
X448083Y216026D02*
X516764D01*
X443949Y202735D02*
X452882Y193802D01*
X443385Y202735D02*
Y211328D01*
X448083Y216026D01*
X443385Y202735D02*
X443949D01*
X403352Y109728D02*
X407595Y105485D01*
X441635D01*
X314865Y114300D02*
X403352D01*
X403372D01*
X337330Y352844D02*
Y357530D01*
X328656Y344170D02*
X337330Y352844D01*
X327276Y344170D02*
X328656D01*
X324338D02*
X327276D01*
X273660Y336710D02*
X327276D01*
Y283919D02*
Y336710D01*
X324338Y269412D02*
Y280981D01*
X327276Y283919D01*
X273660Y307696D02*
Y336710D01*
X268224Y302260D02*
X273660Y307696D01*
X251360Y302260D02*
X268224D01*
X251360Y290004D02*
Y302260D01*
X216888Y382016D02*
X221970Y385572D01*
X251170Y289814D02*
X251360Y290004D01*
X216888Y286230D02*
Y374650D01*
Y382016D01*
X251170Y277580D02*
Y289814D01*
X209170Y277580D02*
Y284734D01*
X324338Y269412D02*
X330120Y263630D01*
X849054Y126424D02*
X879858Y157228D01*
X886905D01*
X835348Y126424D02*
X835618D01*
X849054D01*
X832114Y123190D02*
X835348Y126424D01*
X815242Y123190D02*
X832114D01*
X794336D02*
X815242D01*
X756203D02*
X773430D01*
X755103Y122090D02*
X756203Y123190D01*
X773430D02*
X794336D01*
X753110Y121340D02*
X753860Y122090D01*
X755103D01*
X753110Y121090D02*
Y121340D01*
D155*
X960860Y153060D02*
X963860D01*
X950040Y142240D02*
X960860Y153060D01*
X915710Y142240D02*
X950040D01*
X907975Y134505D02*
X915710Y142240D01*
X907975Y124775D02*
Y134505D01*
Y124775D02*
X908050Y124700D01*
X960252Y172060D02*
X963860D01*
X936781Y148590D02*
X960252Y172060D01*
X913080Y148590D02*
X936781D01*
X901550Y137060D02*
X913080Y148590D01*
X901550Y124700D02*
Y137060D01*
D156*
X1012770Y114420D02*
D03*
D157*
X1010920Y354330D02*
D03*
Y363110D02*
D03*
Y372110D02*
D03*
X1037422Y344170D02*
D03*
X754380Y91420D02*
D03*
X753110Y97790D02*
D03*
X994467Y660420D02*
D03*
X302260Y248920D02*
D03*
X346246Y204006D02*
D03*
X241808Y247142D02*
D03*
X367792Y242824D02*
D03*
X237170Y235524D02*
D03*
X349365Y221095D02*
D03*
X344932Y141478D02*
D03*
X314960Y138938D02*
D03*
X279170Y294616D02*
D03*
X319278Y331216D02*
D03*
X361390Y249630D02*
D03*
X319278Y291338D02*
D03*
X637032Y632968D02*
D03*
X650664Y577596D02*
D03*
X659384Y565404D02*
D03*
X782320Y260350D02*
D03*
X478985Y172329D02*
D03*
X788924Y410972D02*
D03*
X810180Y431372D02*
D03*
X814098Y418084D02*
D03*
X1011972Y227112D02*
D03*
X781050Y342900D02*
D03*
X1008380Y223520D02*
D03*
X786130Y342900D02*
D03*
X728572Y381000D02*
D03*
X726634Y368808D02*
D03*
X699770Y440690D02*
D03*
X713740Y466090D02*
D03*
X938530Y354330D02*
D03*
X897128Y590296D02*
D03*
X974090Y186690D02*
D03*
X723900Y284480D02*
D03*
Y300990D02*
D03*
X774700Y171450D02*
D03*
Y200660D02*
D03*
X716673Y340614D02*
D03*
X267910Y327406D02*
D03*
X664210Y167640D02*
D03*
X667766Y324866D02*
D03*
X413360Y322834D02*
D03*
X372110Y414020D02*
D03*
X260350Y546100D02*
D03*
X377743Y375711D02*
D03*
X365760Y414020D02*
D03*
X261620Y553720D02*
D03*
X810514Y631190D02*
D03*
X584708Y371348D02*
D03*
X786384Y491800D02*
D03*
X616204Y483616D02*
D03*
X1021080Y637286D02*
D03*
X799846Y636778D02*
D03*
X357378Y405892D02*
D03*
X244856D02*
D03*
X895050Y113030D02*
D03*
X949960Y134620D02*
D03*
X976630Y118110D02*
D03*
X679196Y365506D02*
D03*
X927862Y113030D02*
D03*
X400050Y529590D02*
D03*
X312420Y542290D02*
D03*
X393700Y506730D02*
D03*
X323850Y538480D02*
D03*
X406340Y562550D02*
D03*
X220980Y567690D02*
D03*
X410210Y527050D02*
D03*
X237490Y558800D02*
D03*
X671673Y458978D02*
D03*
X765810Y476800D02*
D03*
X422910Y610870D02*
D03*
X749300Y187960D02*
D03*
X681990Y245110D02*
D03*
X610108Y426800D02*
D03*
X998220Y648970D02*
D03*
X768096Y401800D02*
D03*
X393700Y132080D02*
D03*
X587248Y314960D02*
D03*
X478985Y178425D02*
D03*
X467985D02*
D03*
X554990Y175260D02*
D03*
X783590Y432308D02*
D03*
X536956Y184404D02*
D03*
X533985Y178425D02*
D03*
X562864Y314706D02*
D03*
X489985Y178425D02*
D03*
X645668Y406908D02*
D03*
X594614Y332994D02*
D03*
X576834Y315214D02*
D03*
X511985Y178425D02*
D03*
X971550Y330390D02*
D03*
X982980Y374650D02*
D03*
X877570Y379730D02*
D03*
X971550Y364490D02*
D03*
X910590D02*
D03*
X575056Y426212D02*
D03*
X531114Y415036D02*
D03*
X559896Y423672D02*
D03*
X517652Y444745D02*
D03*
X737108Y619760D02*
D03*
X703834Y308864D02*
D03*
X694690Y298450D02*
D03*
X738942Y245308D02*
D03*
X869219Y120396D02*
D03*
X859790Y153670D02*
D03*
X696976Y122936D02*
D03*
X760730Y107950D02*
D03*
X463296Y601980D02*
D03*
X256930Y385572D02*
D03*
X221970D02*
D03*
X681990Y308864D02*
D03*
X624840Y215900D02*
D03*
X575310Y203200D02*
D03*
X452882Y193802D02*
D03*
X314865Y114300D02*
D03*
X579120Y567690D02*
D03*
Y411080D02*
D03*
X420878Y580390D02*
D03*
X433578Y535432D02*
D03*
X429260Y605790D02*
D03*
X897636Y582168D02*
D03*
X590296Y410972D02*
D03*
X586546Y420176D02*
D03*
X635762Y308102D02*
D03*
X641673Y364998D02*
D03*
X610108Y416800D02*
D03*
X242924Y337312D02*
D03*
X631673Y319278D02*
D03*
X636673Y338836D02*
D03*
X927862Y159512D02*
D03*
X702056Y294894D02*
D03*
X875538Y187960D02*
D03*
X747014Y296926D02*
D03*
X903855Y193679D02*
D03*
X923572Y199672D02*
D03*
X923685Y188976D02*
D03*
X722884Y363982D02*
D03*
X883076Y636330D02*
D03*
X761492Y593852D02*
D03*
X764032Y166370D02*
D03*
X660146Y306832D02*
D03*
M02*
