M48
;Layer_Color=9474304
;FILE_FORMAT=2:5
INCH,LZ
;TYPE=PLATED
T1F00S00C0.00787
T2F00S00C0.13386
;TYPE=NON_PLATED
T3F00S00C0.02756
%
T01
X01245Y005615
X0155Y0052
X015457Y0048
X01517Y0045
X01511Y00889
X01448Y00956
X014228Y009828
X0137545Y0087045
X0136317Y0080317
X01257Y01147
Y01304
X01104Y0124644
X0109909Y0115991
X0105476Y01289
X0095639Y01328
X0101153Y0152653
X00775Y01555
X00952Y00973
X0093374Y0092726
X0148718Y0147918
X016274Y01271
X0179965Y01522
X0218812
X02302Y01462
X02341Y01311
X02312Y0124
X02271Y01241
X02216Y01239
X024869Y01257
X02503Y01213
X02599Y01208
X02629Y01279
X02677Y01178
X02764Y01161
X02864Y01185
X02941Y01169
X0308Y01025
X03075Y0135
X03095
X0282155Y01341
X02846Y01433
X0286076Y01452
X0286839Y015
X02674Y01439
X0252627Y01437
X0250659Y01334
X0256Y00927
X02685Y00965
X0280063Y0080969
Y0079
Y0077032
X0282032
Y0079
X0284
Y0077032
X0285969
X0287937
X0289831
X0290369Y0079
X0287937
X0285969
Y0080969
X0287937
X0284
X0282032
X0293Y0077
X0295Y0074
X02916Y00685
X03008Y00655
X03011Y0042984
X02965Y00385
X02742Y0045
X02615Y0066
X02185Y0069
X021023Y0070246
X02114Y00726
X0201569Y0070246
X0192907
X0188577
Y0067961
X0184246Y0070246
X01696Y00767
X03447Y0074
X0355848Y0076252
X0363656Y00744
X0363611Y0078611
X03653Y00628
X03739Y0071264
X0374328
X03828Y0079736
X0397Y0088
X0398414Y0089414
X03965Y00566
X03845Y00465
X0374Y0053
X03653Y00445
X0352382
X0341988Y0048012
X0337032Y0061032
X03455Y01495
X03585Y01435
X03695Y01395
X03825Y01435
X0387Y01475
X0398Y01465
Y0142957
Y01395
X0408434Y01355
X03825Y0130075
X03715Y01665
X0320511Y01646
X03191Y02485
X03149Y02507
X0347668Y0250524
X03532Y02324
X03534Y02292
X0393Y02555
X0391522Y0260008
X0402Y02509
X02998Y02338
X02859Y02416
X02508Y02492
X02596Y02226
X0228Y02235
X01848Y02278
X01657Y02285
X0159976Y0221476
X01575Y02085
X01615Y02075
X01707Y02108
X0169Y02385
X01665Y02405
X01854Y01654
X01768Y01568
X02091Y01634
X02095Y0175
X02111Y0176
X02038Y0175096
X0223394Y0175906
X02264Y01678
X0230924Y0165424
X02324Y01618
X0228Y0161843
X0220432Y01668
X02402Y0168032
Y0164095
X02542Y01602
X0264438Y01807
X02755Y01735
X0281Y01835
X03015Y0187717
X03096Y0193622
X03085Y01702
X03106Y01618
X03024Y0158189
X02426Y01904
X0155Y01995
X01275Y0212
X0123Y02135
X01025Y0215
X0103Y0218
X00935Y022
X0087Y02235
X00964Y01598
X01407
X0144Y0163
X01465
T02
X0398728Y0045047
T03
X0393535Y0241004
X0401409
M30
