M48
;Layer_Color=9474304
;FILE_FORMAT=2:5
INCH,LZ
;TYPE=PLATED
T1F00S00C0.00787
T2F00S00C0.13386
;TYPE=NON_PLATED
T3F00S00C0.02756
%
T01
X0123963Y0045
X0124Y00547
X01358Y00557
X0155Y0052
X0136317Y0080317
X0137545Y0087045
X01448Y00956
X014228Y009828
X0119Y0098
X01257Y01147
Y01304
X0105476Y01289
X0095639Y01328
X0101153Y01518
X008739
X0109909Y0115991
X00952Y00973
X0093374Y0092726
X0148718Y0147918
X016274Y01271
X02216Y01239
X02271Y01241
X02312Y0124
X02341Y01311
X0250659Y01334
X024869Y01257
X02503Y01213
X02599Y01208
X02685Y01216
X02771
X02764Y01161
X02735Y01175
X0285Y01185
Y0112
X02941Y01169
X0290922Y0096578
X0287937Y0080969
X0285969
Y0079
Y0077032
X0287937
Y0079
X0284
Y0077032
X0282032
Y0079
Y0080969
X0284
X0280063
Y0079
Y0077032
X0295Y0074
X03008Y00655
X0305Y00675
Y0079
X0308Y01025
X03075Y0135
X03095
X0282155Y01341
X02846Y01433
X0286076Y01452
X0286839Y015
X02674Y01439
X0252627Y01437
X02302Y01462
X02629Y01279
X02685Y00965
X0246Y0085
X02265Y008
X02185Y0069
X021023Y0070246
X02114Y00726
X0201569Y0070246
X0192907
X0188577
Y0067846
X0184246Y0070246
X01783Y00763
X02615Y0066
X02744Y00484
X02995Y00425
X02965Y00385
X0297Y0035992
X0342212Y00474
X0352382Y00445
X03653
X0374Y0053
X03845Y00465
X03835Y00735
X0363656Y00744
X0363611Y0078611
X0355848Y0076252
X03447Y0074
X03385Y00605
X03653Y00628
X0397Y0088
X0398414Y0089414
X0398Y01395
Y0142957
Y01465
X0387Y01475
X03825Y01435
Y0130075
X03695Y01395
X03585Y01435
X03455Y01495
X0408434Y01355
X0320511Y01646
X0318968Y0169832
X03191Y02485
X03149Y02507
X0347668Y0250524
X03532Y02324
X03534Y02292
X0393Y02555
X0391522Y0260008
X0402Y02509
X02902Y0244
X02998Y02338
X03015Y0187717
X03096Y0193622
X03085Y01702
X03106Y01618
X03024Y0158189
X02755Y01735
X0281Y01835
X0264438Y01807
X02542Y01602
X02402Y0164095
Y0168032
X0230924Y0165424
X02324Y01618
X0228Y0161843
X02264Y01678
X0220432Y01668
X02091Y01634
X02038Y0175096
X02426Y01904
X0228Y02235
X0256167Y02274
X02596Y02226
X02508Y02492
X01824Y0237
X0169Y02385
X01665Y02405
X01657Y02285
X0159976Y0221476
X01575Y02085
X01615Y02075
X01707Y02108
X0155Y01995
X01275Y0212
X0123Y02135
X01025Y0215
X0103Y0218
X00935Y022
X0087Y02235
X00964Y01598
X01407
X0144Y0163
X01465
T02
X0398728Y0045047
T03
X0393535Y0241004
X0401409
M30
