G04*
G04 #@! TF.GenerationSoftware,Altium Limited,Altium Designer,21.1.1 (26)*
G04*
G04 Layer_Physical_Order=1*
G04 Layer_Color=255*
%FSLAX44Y44*%
%MOMM*%
G71*
G04*
G04 #@! TF.SameCoordinates,6A85A449-59C4-447A-B511-F0FC370A597D*
G04*
G04*
G04 #@! TF.FilePolarity,Positive*
G04*
G01*
G75*
%ADD11C,0.2000*%
%ADD12C,0.2540*%
%ADD21R,0.5000X0.4500*%
%ADD22R,0.4500X0.4500*%
%ADD35R,0.5900X0.4500*%
%ADD36R,4.0000X1.2000*%
%ADD37R,0.8500X0.6000*%
%ADD38R,0.3000X1.2000*%
%ADD39R,1.2000X0.3000*%
%ADD40R,0.7000X0.6500*%
%ADD41R,1.0062X1.1051*%
%ADD42R,0.6153X0.5725*%
%ADD43R,0.4556X0.3612*%
%ADD44R,0.4500X0.6000*%
G04:AMPARAMS|DCode=45|XSize=0.6mm|YSize=0.24mm|CornerRadius=0.12mm|HoleSize=0mm|Usage=FLASHONLY|Rotation=270.000|XOffset=0mm|YOffset=0mm|HoleType=Round|Shape=RoundedRectangle|*
%AMROUNDEDRECTD45*
21,1,0.6000,0.0000,0,0,270.0*
21,1,0.3600,0.2400,0,0,270.0*
1,1,0.2400,0.0000,-0.1800*
1,1,0.2400,0.0000,0.1800*
1,1,0.2400,0.0000,0.1800*
1,1,0.2400,0.0000,-0.1800*
%
%ADD45ROUNDEDRECTD45*%
%ADD46R,0.7581X0.8121*%
%ADD47R,0.6250X0.8250*%
%ADD48R,0.5000X0.5000*%
%ADD49R,1.3061X1.0582*%
%ADD50R,1.0000X0.5000*%
%ADD51R,0.4500X1.3800*%
%ADD52R,1.4250X1.5500*%
%ADD53R,1.6500X1.3000*%
%ADD54R,1.8000X1.9000*%
%ADD55R,1.0000X1.9000*%
%ADD66R,0.6000X0.4500*%
%ADD67R,0.8250X0.6250*%
%ADD68R,0.8121X0.7581*%
%ADD69R,0.3612X0.4556*%
%ADD70R,0.5725X0.6153*%
%ADD71R,0.4500X0.5000*%
%ADD74R,0.3500X0.3500*%
%ADD77R,0.6500X0.7000*%
%ADD96R,0.6000X0.7000*%
%ADD97C,1.4220*%
%ADD108R,0.7000X0.6000*%
%ADD115C,0.7000*%
%ADD117C,0.3500*%
%ADD119C,0.1500*%
%ADD120R,1.2000X0.6000*%
%ADD121R,1.1000X1.0000*%
%ADD122R,0.7000X0.8500*%
%ADD123R,0.6500X0.6000*%
%ADD124R,0.6000X0.5500*%
%ADD125R,0.5500X0.5500*%
%ADD126R,0.6500X0.6500*%
%ADD127R,0.5000X0.5500*%
%ADD128R,1.9000X1.3500*%
%ADD129R,0.8500X1.1000*%
%ADD130R,1.2000X1.0000*%
%ADD131R,1.5500X1.3500*%
%ADD132R,1.1700X1.8000*%
%ADD133R,0.7500X1.1000*%
%ADD134R,0.8636X0.3048*%
%ADD135R,0.7874X1.1938*%
%ADD136R,2.4500X1.0000*%
%ADD137R,1.0000X2.4500*%
%ADD138R,1.2500X1.1000*%
%ADD139R,0.6500X1.0500*%
%ADD140R,0.5800X0.5400*%
G04:AMPARAMS|DCode=141|XSize=1.524mm|YSize=4mm|CornerRadius=0.381mm|HoleSize=0mm|Usage=FLASHONLY|Rotation=0.000|XOffset=0mm|YOffset=0mm|HoleType=Round|Shape=RoundedRectangle|*
%AMROUNDEDRECTD141*
21,1,1.5240,3.2380,0,0,0.0*
21,1,0.7620,4.0000,0,0,0.0*
1,1,0.7620,0.3810,-1.6190*
1,1,0.7620,-0.3810,-1.6190*
1,1,0.7620,-0.3810,1.6190*
1,1,0.7620,0.3810,1.6190*
%
%ADD141ROUNDEDRECTD141*%
%ADD142R,1.8000X1.2000*%
%ADD143R,1.1000X1.2500*%
%ADD144R,0.5500X0.6000*%
%ADD145R,0.6500X0.6500*%
%ADD146R,0.4500X0.4500*%
%ADD147R,1.0000X1.1000*%
%ADD148C,0.4000*%
%ADD149C,0.3810*%
%ADD150C,3.4000*%
%ADD151C,0.4000*%
G36*
X1017808Y660355D02*
X1022686Y659017D01*
X1027249Y656835D01*
X1031353Y653877D01*
X1034866Y650238D01*
X1037678Y646034D01*
X1039699Y641397D01*
X1040999Y635905D01*
X1041077Y635736D01*
X1041078Y635723D01*
X1041182Y635473D01*
Y379521D01*
X1040802Y379260D01*
X1039912Y379034D01*
X1035118Y383828D01*
X1033871Y384661D01*
X1032400Y384954D01*
X1032400Y384954D01*
X1030370D01*
Y386610D01*
X1026194D01*
Y594038D01*
X1032688Y600532D01*
X1033521Y601779D01*
X1033814Y603250D01*
X1033814Y603250D01*
Y628396D01*
X1033814Y628396D01*
X1033521Y629867D01*
X1032688Y631114D01*
X1032688Y631114D01*
X1025458Y638344D01*
X1025319Y639042D01*
X1024324Y640530D01*
X1022836Y641525D01*
X1021080Y641874D01*
X1019324Y641525D01*
X1017836Y640530D01*
X1016841Y639042D01*
X1016492Y637286D01*
X1016841Y635530D01*
X1017836Y634042D01*
X1019324Y633047D01*
X1020022Y632908D01*
X1026126Y626804D01*
Y615439D01*
X1024856Y615053D01*
X1023906Y616476D01*
X1021921Y617802D01*
X1019580Y618268D01*
X1017239Y617802D01*
X1015254Y616476D01*
X1013928Y614491D01*
X1013462Y612150D01*
X1013928Y609809D01*
X1015254Y607824D01*
X1017239Y606498D01*
X1019580Y606033D01*
X1021921Y606498D01*
X1023906Y607824D01*
X1024856Y609247D01*
X1026126Y608862D01*
Y604842D01*
X1019632Y598348D01*
X1018799Y597101D01*
X1018506Y595630D01*
X1018506Y595630D01*
Y417649D01*
X1017333Y417163D01*
X953750Y480746D01*
Y484810D01*
X950749D01*
X950562Y485750D01*
X949729Y486997D01*
X949729Y486997D01*
X944869Y491857D01*
X945355Y493030D01*
X955950D01*
Y510030D01*
X910950D01*
Y493030D01*
X934274D01*
X934531Y491737D01*
X935364Y490490D01*
X942850Y483004D01*
Y475310D01*
X948314D01*
X1017236Y406388D01*
Y388244D01*
X1016330Y387638D01*
X1015497Y386391D01*
X1015204Y384920D01*
Y381110D01*
X1015497Y379639D01*
X1016330Y378392D01*
X1016870Y378031D01*
Y375424D01*
X1014061D01*
X1012676Y376349D01*
X1010920Y376698D01*
X1009510Y376418D01*
X1008240Y377142D01*
Y379400D01*
X990740D01*
Y377964D01*
X986121D01*
X984736Y378889D01*
X982980Y379238D01*
X981224Y378889D01*
X979736Y377894D01*
X978741Y376406D01*
X978392Y374650D01*
X978741Y372894D01*
X979736Y371406D01*
X981224Y370411D01*
X982980Y370062D01*
X984736Y370411D01*
X986121Y371336D01*
X989812D01*
X990740Y370066D01*
Y369900D01*
X990740D01*
Y369240D01*
X990740D01*
Y367804D01*
X974690D01*
X973306Y368729D01*
X971550Y369078D01*
X969794Y368729D01*
X968306Y367734D01*
X967311Y366246D01*
X966962Y364490D01*
X967311Y362734D01*
X968306Y361246D01*
X969794Y360251D01*
X971550Y359902D01*
X973306Y360251D01*
X974690Y361176D01*
X989812D01*
X990740Y359906D01*
Y359740D01*
X990740D01*
Y359080D01*
X990740D01*
Y354266D01*
X971428Y334954D01*
X969794Y334629D01*
X968306Y333634D01*
X967311Y332146D01*
X966962Y330390D01*
X967311Y328634D01*
X968306Y327146D01*
X969794Y326151D01*
X971550Y325802D01*
X973306Y326151D01*
X974794Y327146D01*
X975789Y328634D01*
X976114Y330268D01*
X995426Y349580D01*
X1008240D01*
Y349580D01*
X1009510Y350022D01*
X1010920Y349742D01*
X1012676Y350091D01*
X1014061Y351016D01*
X1016870D01*
Y348610D01*
X1030370D01*
Y357610D01*
Y366610D01*
Y375908D01*
X1031640Y376434D01*
X1033578Y374496D01*
Y346517D01*
X1033183Y345926D01*
X1032834Y344170D01*
X1033183Y342414D01*
X1033578Y341823D01*
Y287029D01*
X1031240D01*
X1030265Y286835D01*
X1029438Y286282D01*
X969224Y226069D01*
X918689D01*
Y281495D01*
X918396Y282966D01*
X917563Y284213D01*
X917563Y284213D01*
X913054Y288722D01*
X911807Y289555D01*
X910336Y289848D01*
X910336Y289848D01*
X799662D01*
X799540Y291080D01*
X799432Y291438D01*
X799359Y291805D01*
X799288Y291910D01*
X799252Y292031D01*
X799014Y292321D01*
X798806Y292632D01*
X798701Y292703D01*
X798621Y292800D01*
X798291Y292977D01*
X797979Y293185D01*
X797855Y293210D01*
X797744Y293269D01*
X797371Y293306D01*
X797004Y293379D01*
X787400D01*
X786425Y293185D01*
X785598Y292632D01*
X768564Y275599D01*
X749579D01*
X749093Y276772D01*
X754082Y281762D01*
X754082Y281762D01*
X754916Y283009D01*
X755208Y284480D01*
Y312928D01*
X754916Y314399D01*
X754082Y315646D01*
X754082Y315646D01*
X752845Y316884D01*
X751598Y317717D01*
X750852Y317865D01*
Y319742D01*
X740128D01*
Y316752D01*
X734556D01*
Y317686D01*
X734094D01*
Y323528D01*
X739391Y328825D01*
X739391Y328825D01*
X740224Y330072D01*
X740517Y331543D01*
Y345800D01*
X740673D01*
Y359672D01*
X741846Y360158D01*
X756064Y345940D01*
X756064Y345940D01*
X757311Y345107D01*
X758782Y344814D01*
X758782Y344814D01*
X775548D01*
X776590Y343544D01*
X776462Y342900D01*
X776811Y341144D01*
X777806Y339656D01*
X779294Y338661D01*
X781050Y338312D01*
X782806Y338661D01*
X783590Y339185D01*
X784374Y338661D01*
X786130Y338312D01*
X787886Y338661D01*
X789374Y339656D01*
X790369Y341144D01*
X790718Y342900D01*
X790369Y344656D01*
X789974Y345247D01*
Y349274D01*
X789974Y349274D01*
X789681Y350745D01*
X788848Y351992D01*
X788848Y351992D01*
X784384Y356456D01*
X783137Y357289D01*
X781666Y357582D01*
X781666Y357582D01*
X762478D01*
X753433Y366627D01*
X753919Y367800D01*
X762673D01*
Y368487D01*
X872697D01*
X889197Y351987D01*
X890272Y351269D01*
X891540Y351016D01*
X935389D01*
X936774Y350091D01*
X938530Y349742D01*
X940286Y350091D01*
X941774Y351086D01*
X942769Y352574D01*
X943118Y354330D01*
X942769Y356086D01*
X941774Y357574D01*
X940286Y358569D01*
X938530Y358918D01*
X936774Y358569D01*
X935389Y357644D01*
X892913D01*
X890553Y360003D01*
X891039Y361176D01*
X907449D01*
X908834Y360251D01*
X910590Y359902D01*
X912346Y360251D01*
X913834Y361246D01*
X914829Y362734D01*
X915178Y364490D01*
X914829Y366246D01*
X913834Y367734D01*
X912346Y368729D01*
X910590Y369078D01*
X908834Y368729D01*
X907449Y367804D01*
X886288D01*
X879719Y374373D01*
X879968Y375920D01*
X880814Y376486D01*
X881809Y377974D01*
X882158Y379730D01*
X881809Y381486D01*
X880814Y382974D01*
X879326Y383969D01*
X877586Y384315D01*
X876768Y384861D01*
X875500Y385114D01*
X762673D01*
Y390236D01*
X805517D01*
X806785Y390488D01*
X807860Y391207D01*
X824501Y407847D01*
X825219Y408922D01*
X825472Y410191D01*
Y505317D01*
X897758Y577604D01*
X899392Y577929D01*
X900880Y578924D01*
X901875Y580412D01*
X902224Y582168D01*
X901875Y583924D01*
X900880Y585412D01*
X900350Y585767D01*
Y587037D01*
X900372Y587052D01*
X901367Y588540D01*
X901716Y590296D01*
X901367Y592052D01*
X900372Y593540D01*
X898884Y594535D01*
X897128Y594884D01*
X895372Y594535D01*
X893884Y593540D01*
X892889Y592052D01*
X892564Y590418D01*
X817315Y515169D01*
X816597Y514094D01*
X816344Y512826D01*
Y472260D01*
X815470Y471352D01*
X815074Y471352D01*
X811180D01*
Y465791D01*
Y460231D01*
X815074D01*
X815470Y460231D01*
X816344Y459323D01*
Y423406D01*
X815074Y422478D01*
X814220Y422648D01*
X772725Y464143D01*
X771650Y464861D01*
X770382Y465114D01*
X762673D01*
Y471957D01*
X763943Y472635D01*
X764054Y472561D01*
X765810Y472212D01*
X767566Y472561D01*
X769054Y473556D01*
X769471Y474179D01*
X770735Y474304D01*
X781591Y463448D01*
X782666Y462730D01*
X783934Y462478D01*
X791350D01*
Y459231D01*
X803931D01*
Y459478D01*
X804889Y460231D01*
X805201Y460231D01*
X809180D01*
Y465791D01*
Y471352D01*
X805201D01*
X804889Y471352D01*
X803931Y472105D01*
Y472352D01*
X791350D01*
Y469105D01*
X785306D01*
X770268Y484143D01*
X769193Y484861D01*
X767925Y485114D01*
X762673D01*
Y485800D01*
X761673D01*
Y487800D01*
X762673D01*
Y487956D01*
X784037D01*
X784628Y487561D01*
X786384Y487212D01*
X788140Y487561D01*
X788731Y487956D01*
X793584D01*
X793584Y487956D01*
X794511Y488140D01*
X795455Y487617D01*
X795781Y487322D01*
Y483385D01*
X795866Y482957D01*
X795879Y482520D01*
X796011Y482228D01*
X796073Y481914D01*
X796104Y481869D01*
Y478294D01*
X805660D01*
Y479294D01*
X805938D01*
Y482600D01*
Y485906D01*
X805660D01*
Y486906D01*
X803468D01*
Y492478D01*
X805201D01*
Y493478D01*
X807196D01*
Y497840D01*
Y502202D01*
X805201D01*
Y503202D01*
X794048D01*
Y497699D01*
X791992Y495644D01*
X788731D01*
X788140Y496039D01*
X786384Y496388D01*
X784628Y496039D01*
X784037Y495644D01*
X762673D01*
Y495800D01*
X745673D01*
Y495414D01*
X743030D01*
X743030Y495414D01*
X741559Y495121D01*
X740312Y494288D01*
X740312Y494288D01*
X730124Y484100D01*
X729291Y482853D01*
X728998Y481382D01*
X728998Y481382D01*
Y417807D01*
X727825Y417321D01*
X704334Y440812D01*
X704009Y442446D01*
X703014Y443934D01*
X702392Y444350D01*
X702268Y445614D01*
X711516Y454862D01*
X712234Y455937D01*
X712487Y457205D01*
Y460750D01*
X713468Y461556D01*
X713740Y461502D01*
X715496Y461851D01*
X716984Y462846D01*
X717979Y464334D01*
X718328Y466090D01*
X717979Y467846D01*
X717054Y469230D01*
Y473788D01*
X739016Y495751D01*
X739735Y496826D01*
X739987Y498094D01*
Y500800D01*
X740673D01*
Y517800D01*
X734987D01*
Y562660D01*
X761614Y589288D01*
X763248Y589613D01*
X764736Y590608D01*
X765731Y592096D01*
X766080Y593852D01*
X765731Y595608D01*
X764736Y597096D01*
X763248Y598091D01*
X761492Y598440D01*
X759736Y598091D01*
X758248Y597096D01*
X757253Y595608D01*
X756928Y593974D01*
X729330Y566376D01*
X728612Y565301D01*
X728359Y564033D01*
Y517800D01*
X663674D01*
X663188Y518973D01*
X667978Y523763D01*
X668696Y524838D01*
X668948Y526106D01*
Y604366D01*
X668696Y605634D01*
X667978Y606709D01*
X641596Y633090D01*
X641271Y634724D01*
X640276Y636212D01*
X638788Y637207D01*
X637032Y637556D01*
X635276Y637207D01*
X633788Y636212D01*
X632793Y634724D01*
X632444Y632968D01*
X632793Y631212D01*
X633788Y629724D01*
X635276Y628729D01*
X636910Y628404D01*
X662321Y602993D01*
Y583289D01*
X661147Y582803D01*
X657407Y586543D01*
X656332Y587261D01*
X655064Y587514D01*
X605485D01*
X604217Y587261D01*
X603142Y586543D01*
X584884Y568286D01*
X583507Y568704D01*
X583359Y569446D01*
X582364Y570934D01*
X580876Y571929D01*
X579242Y572254D01*
X514153Y637343D01*
X513078Y638061D01*
X511810Y638314D01*
X288290D01*
X287022Y638061D01*
X285947Y637343D01*
X276987Y628383D01*
X276269Y627308D01*
X276016Y626040D01*
Y613160D01*
X276269Y611892D01*
X276987Y610817D01*
X278062Y610099D01*
X279330Y609846D01*
X280598Y610099D01*
X281673Y610817D01*
X282391Y611892D01*
X282644Y613160D01*
Y624667D01*
X289662Y631686D01*
X390913D01*
X391147Y630517D01*
X391124Y630416D01*
X390087Y629723D01*
X386277Y625913D01*
X385559Y624838D01*
X385457Y624330D01*
X383120D01*
Y621644D01*
X365600D01*
X364332Y621391D01*
X363257Y620673D01*
X359058Y616474D01*
X342830D01*
X341562Y616222D01*
X340487Y615503D01*
X339768Y614428D01*
X339516Y613160D01*
X339768Y611892D01*
X340487Y610817D01*
X341562Y610099D01*
X342830Y609846D01*
X360430D01*
X361698Y610099D01*
X362773Y610817D01*
X366973Y615016D01*
X383120D01*
Y612330D01*
X393758D01*
X394400Y611176D01*
X390087Y606863D01*
X389369Y605788D01*
X389116Y604520D01*
Y586000D01*
X382434D01*
Y592330D01*
X384620D01*
Y604330D01*
X373620D01*
Y592330D01*
X375806D01*
Y586000D01*
X374270D01*
Y571000D01*
Y561686D01*
X369607Y557023D01*
X363541Y556974D01*
X341570D01*
X340302Y556721D01*
X339227Y556003D01*
X332457Y549234D01*
X331739Y548158D01*
X331487Y546890D01*
Y541755D01*
X329353Y539621D01*
X328138Y539990D01*
X328089Y540236D01*
X327094Y541724D01*
X325606Y542719D01*
X323972Y543044D01*
X320744Y546273D01*
Y613160D01*
X320491Y614428D01*
X319773Y615503D01*
X318698Y616222D01*
X317430Y616474D01*
X316162Y616222D01*
X315087Y615503D01*
X314368Y614428D01*
X314116Y613160D01*
Y547542D01*
X313134Y546736D01*
X312542Y546854D01*
X308044Y551353D01*
Y613160D01*
X307791Y614428D01*
X307073Y615503D01*
X305998Y616222D01*
X304730Y616474D01*
X303462Y616222D01*
X302387Y615503D01*
X301668Y614428D01*
X301416Y613160D01*
Y549980D01*
X301668Y548712D01*
X302387Y547637D01*
X307856Y542168D01*
X308181Y540534D01*
X309176Y539046D01*
X310664Y538051D01*
X312420Y537702D01*
X314176Y538051D01*
X315664Y539046D01*
X316120Y539728D01*
X317731Y539912D01*
X319286Y538358D01*
X319611Y536724D01*
X320606Y535236D01*
X322094Y534241D01*
X322340Y534192D01*
X322709Y532977D01*
X308837Y519105D01*
X308119Y518030D01*
X307866Y516762D01*
Y432435D01*
X308119Y431167D01*
X308837Y430092D01*
X312756Y426172D01*
Y419908D01*
X310070D01*
Y408908D01*
X322070D01*
Y418225D01*
X323243Y418711D01*
X336541Y405413D01*
X336055Y404240D01*
X328400D01*
Y398721D01*
X322070D01*
Y400907D01*
X310070D01*
Y389907D01*
X322070D01*
Y392094D01*
X328400D01*
Y388240D01*
X350411D01*
X350897Y387067D01*
X344754Y380924D01*
X344350Y380319D01*
X343080Y380704D01*
Y382530D01*
X331580D01*
Y370530D01*
X342358D01*
X343080Y370530D01*
X343628Y369487D01*
Y333248D01*
X343628Y333248D01*
X343921Y331777D01*
X344754Y330530D01*
X350088Y325196D01*
X350088Y325196D01*
X351335Y324363D01*
X352806Y324070D01*
X352806Y324070D01*
X367030D01*
X367293Y324122D01*
X367560Y324107D01*
X368022Y324267D01*
X368501Y324363D01*
X368724Y324512D01*
X368977Y324600D01*
X369342Y324925D01*
X369748Y325196D01*
X369897Y325419D01*
X370097Y325597D01*
X370310Y326037D01*
X370581Y326443D01*
X370605Y326564D01*
X370985Y326795D01*
X371505Y326927D01*
X372053Y326912D01*
X374278Y324688D01*
X374278Y324688D01*
X375525Y323855D01*
X376996Y323562D01*
X400016D01*
Y180026D01*
X400016Y180026D01*
X400016Y180026D01*
Y165318D01*
X398843Y164832D01*
X389152Y174522D01*
X388326Y175075D01*
X387350Y175269D01*
X344870D01*
Y186130D01*
Y198691D01*
X345852Y199496D01*
X346246Y199418D01*
X348002Y199767D01*
X349491Y200762D01*
X350485Y202250D01*
X350834Y204006D01*
X350485Y205762D01*
X349491Y207250D01*
X348002Y208245D01*
X346369Y208570D01*
X344965Y209973D01*
X344870Y210037D01*
Y217436D01*
X346120Y217850D01*
X347609Y216856D01*
X349365Y216507D01*
X351121Y216856D01*
X352609Y217850D01*
X353604Y219339D01*
X353953Y221095D01*
X353604Y222851D01*
X352609Y224339D01*
X351121Y225334D01*
X349365Y225683D01*
X347609Y225334D01*
X347026Y224944D01*
X344870D01*
Y239510D01*
X364651D01*
X366036Y238585D01*
X367792Y238236D01*
X369548Y238585D01*
X371036Y239580D01*
X372031Y241068D01*
X372380Y242824D01*
X372031Y244580D01*
X371036Y246068D01*
X369548Y247063D01*
X367792Y247412D01*
X366690Y247193D01*
X366402Y247378D01*
X365704Y248252D01*
X365978Y249630D01*
X365629Y251386D01*
X364635Y252875D01*
X363146Y253869D01*
X361390Y254218D01*
X359634Y253869D01*
X358250Y252944D01*
X344870D01*
Y257130D01*
X343870D01*
Y262630D01*
X316370D01*
Y257130D01*
X315370D01*
Y246138D01*
X299622D01*
X296483Y249277D01*
Y262830D01*
X314670D01*
Y282159D01*
X315017Y282391D01*
X319400Y286774D01*
X321034Y287099D01*
X322522Y288094D01*
X323517Y289582D01*
X323866Y291338D01*
X323517Y293094D01*
X322522Y294582D01*
X321034Y295577D01*
X319278Y295926D01*
X317522Y295577D01*
X316034Y294582D01*
X315039Y293094D01*
X314670Y292330D01*
X284466D01*
X283556Y293600D01*
X283758Y294616D01*
X283409Y296372D01*
X282414Y297860D01*
X280926Y298855D01*
X279170Y299204D01*
X278020Y298976D01*
X277394Y300146D01*
X305151Y327902D01*
X316138D01*
X317522Y326977D01*
X319278Y326628D01*
X321034Y326977D01*
X322522Y327972D01*
X323517Y329460D01*
X323866Y331216D01*
X323517Y332972D01*
X322522Y334460D01*
X321034Y335455D01*
X319278Y335804D01*
X317522Y335455D01*
X316138Y334530D01*
X303778D01*
X302510Y334277D01*
X301435Y333559D01*
X262827Y294951D01*
X262108Y293876D01*
X261856Y292608D01*
Y292330D01*
X257670D01*
Y291330D01*
X252170D01*
Y277580D01*
Y263830D01*
X257670D01*
Y262830D01*
X289856D01*
Y247904D01*
X290108Y246636D01*
X290827Y245561D01*
X295907Y240481D01*
X296982Y239763D01*
X298250Y239510D01*
X315370D01*
Y228130D01*
Y214130D01*
Y200130D01*
Y186130D01*
Y175269D01*
X257810D01*
X256835Y175075D01*
X256008Y174522D01*
X255455Y173695D01*
X255261Y172720D01*
Y166430D01*
X240484D01*
Y232383D01*
X241409Y233768D01*
X241758Y235524D01*
X241409Y237280D01*
X240414Y238768D01*
X239872Y239131D01*
X239747Y240395D01*
X241930Y242578D01*
X243564Y242903D01*
X245052Y243898D01*
X246047Y245386D01*
X246396Y247142D01*
X246047Y248898D01*
X245052Y250386D01*
X243564Y251381D01*
X241808Y251730D01*
X240052Y251381D01*
X238564Y250386D01*
X237569Y248898D01*
X237244Y247264D01*
X220827Y230847D01*
X220109Y229772D01*
X219856Y228504D01*
Y166430D01*
X201939D01*
Y262863D01*
X202670Y263830D01*
X203209Y263830D01*
X208170D01*
Y277580D01*
Y291330D01*
X203209D01*
X202670Y291330D01*
X201939Y292297D01*
Y348482D01*
X203067Y353179D01*
X203542Y359222D01*
X203067Y365265D01*
X201652Y371160D01*
X199332Y376760D01*
X196165Y381928D01*
X192228Y386538D01*
X187619Y390475D01*
X182450Y393642D01*
X176850Y395962D01*
X170955Y397377D01*
X166359Y397738D01*
Y632460D01*
X166165Y633435D01*
X165612Y634262D01*
X164785Y634815D01*
X163810Y635009D01*
X130251D01*
X129890Y636275D01*
X129982Y636345D01*
X130287Y636743D01*
X130652Y637076D01*
X130656Y637082D01*
X130657Y637083D01*
X130658Y637084D01*
X132745Y639922D01*
X132917Y640288D01*
X133117Y640549D01*
X133222Y640804D01*
X133439Y641106D01*
X134898Y644323D01*
X135016Y644829D01*
X135231Y645347D01*
X135239Y645414D01*
X135331Y645621D01*
X136094Y649071D01*
X136106Y649650D01*
X136139Y649904D01*
X136249Y650423D01*
X136249Y650430D01*
X136248Y650434D01*
X136249Y650438D01*
X136282Y653957D01*
X136276Y653991D01*
X136283Y654026D01*
X136188Y654503D01*
X136154Y654757D01*
X136153Y655326D01*
X135456Y658789D01*
X135348Y659047D01*
X135330Y659186D01*
X135148Y659624D01*
X135966Y660832D01*
X808400D01*
Y650945D01*
X810837D01*
Y648692D01*
X809650D01*
Y640622D01*
X802193D01*
X801602Y641017D01*
X799846Y641366D01*
X798090Y641017D01*
X796602Y640022D01*
X795607Y638534D01*
X795258Y636778D01*
X795607Y635022D01*
X796602Y633534D01*
X798090Y632539D01*
X799846Y632190D01*
X801602Y632539D01*
X802193Y632934D01*
X805272D01*
X806077Y631952D01*
X805926Y631190D01*
X806275Y629434D01*
X807270Y627946D01*
X808758Y626951D01*
X810514Y626602D01*
X811672Y626832D01*
X812150Y626440D01*
Y626440D01*
X816435D01*
X817283Y625358D01*
X817024Y624510D01*
X815150D01*
Y619760D01*
Y615010D01*
X817650D01*
Y614010D01*
X829650D01*
Y625510D01*
X829650D01*
X829650Y626440D01*
X829650D01*
Y635940D01*
X827214D01*
Y637692D01*
X828650D01*
Y644006D01*
X839460Y654816D01*
X920510D01*
X920895Y653546D01*
X920367Y653193D01*
X918004Y650830D01*
X911190D01*
Y649651D01*
X910260Y648830D01*
X900760D01*
Y639644D01*
X886216D01*
X884831Y640569D01*
X883076Y640918D01*
X881320Y640569D01*
X879831Y639574D01*
X878837Y638086D01*
X878487Y636330D01*
X878837Y634574D01*
X879831Y633086D01*
X881320Y632091D01*
X883076Y631742D01*
X884831Y632091D01*
X886216Y633016D01*
X900760D01*
Y631330D01*
X910260D01*
Y638116D01*
X911342Y638963D01*
X912190Y638704D01*
Y636080D01*
X916940D01*
X921690D01*
Y639330D01*
X922690D01*
Y646144D01*
X924082Y647536D01*
X928880D01*
Y645350D01*
X940880D01*
Y654816D01*
X987688D01*
X993656Y648848D01*
X993981Y647214D01*
X994976Y645726D01*
X996464Y644731D01*
X998220Y644382D01*
X999976Y644731D01*
X1001464Y645726D01*
X1002459Y647214D01*
X1002808Y648970D01*
X1002459Y650726D01*
X1001464Y652214D01*
X999976Y653209D01*
X998342Y653534D01*
X996781Y655096D01*
X996983Y656689D01*
X997711Y657176D01*
X998706Y658664D01*
X999055Y660420D01*
X999393Y660832D01*
X1012476D01*
X1017808Y660355D01*
D02*
G37*
G36*
X574556Y567568D02*
X574881Y565934D01*
X575876Y564446D01*
X577364Y563451D01*
X578106Y563303D01*
X578524Y561926D01*
X563472Y546874D01*
X439010D01*
Y548810D01*
X439010D01*
Y549740D01*
X439010D01*
Y559743D01*
Y570243D01*
X435712D01*
X425442Y580512D01*
X425117Y582146D01*
X424122Y583634D01*
X422634Y584629D01*
X420928Y584968D01*
X420878Y584978D01*
X419680Y586035D01*
Y588770D01*
X415680D01*
Y585020D01*
X417422D01*
X417807Y583750D01*
X417634Y583634D01*
X416639Y582146D01*
X416290Y580390D01*
X416639Y578634D01*
X417634Y577146D01*
X419122Y576151D01*
X420756Y575826D01*
X425166Y571416D01*
X424680Y570243D01*
X419510D01*
Y568306D01*
X408783D01*
X407514Y568054D01*
X406439Y567336D01*
X406218Y567114D01*
X404584Y566789D01*
X403096Y565794D01*
X402583Y565027D01*
X401386Y565522D01*
X401434Y565760D01*
Y592330D01*
X403620D01*
Y599644D01*
X406453Y602476D01*
X426119D01*
X427504Y601551D01*
X429260Y601202D01*
X431016Y601551D01*
X432504Y602546D01*
X433499Y604034D01*
X433848Y605790D01*
X433499Y607546D01*
X432504Y609034D01*
X431016Y610029D01*
X429260Y610378D01*
X428672Y610261D01*
X427498Y610870D01*
X427183Y612456D01*
X427685Y613141D01*
X428079Y613520D01*
X439680D01*
Y615956D01*
X444888D01*
X447247Y613596D01*
X446839Y612326D01*
X446544D01*
Y602770D01*
X447544D01*
Y602492D01*
X450850D01*
X454156D01*
Y602770D01*
X455156D01*
Y612326D01*
X454164D01*
Y614680D01*
X453911Y615948D01*
X453193Y617023D01*
X448603Y621613D01*
X447528Y622331D01*
X446260Y622583D01*
X439680D01*
Y625020D01*
X436837D01*
X436741Y625498D01*
X436023Y626573D01*
X432873Y629723D01*
X431836Y630416D01*
X431813Y630517D01*
X432047Y631686D01*
X510438D01*
X574556Y567568D01*
D02*
G37*
G36*
X657197Y577380D02*
X656672Y576110D01*
X651664D01*
Y569610D01*
X650664D01*
Y568610D01*
X643664D01*
Y563110D01*
X642664Y563110D01*
Y548110D01*
X647350D01*
Y545356D01*
X644330Y542336D01*
X643611Y541261D01*
X643359Y539993D01*
Y517800D01*
X622673D01*
Y516800D01*
X620673D01*
Y517800D01*
X620517D01*
Y527451D01*
X621208Y528142D01*
X621208Y528142D01*
X622041Y529389D01*
X622334Y530860D01*
X622334Y530860D01*
Y554804D01*
X622796D01*
Y555738D01*
X628299D01*
Y554804D01*
X636911D01*
Y564360D01*
X635911D01*
Y564638D01*
X632605D01*
X629299D01*
Y564360D01*
X628299D01*
Y563426D01*
X622796D01*
Y564360D01*
X621796D01*
Y564638D01*
X618490D01*
X615184D01*
Y564360D01*
X614184D01*
Y554804D01*
X614646D01*
Y532452D01*
X613955Y531761D01*
X613122Y530514D01*
X612829Y529043D01*
X612829Y529043D01*
Y517800D01*
X612673D01*
Y500800D01*
X612829D01*
Y486665D01*
X611965Y485372D01*
X611616Y483616D01*
X611965Y481860D01*
X612360Y481269D01*
Y472547D01*
X610315Y470502D01*
X609600Y470644D01*
X609599D01*
X609599Y470644D01*
X609599Y470644D01*
X607673D01*
Y482800D01*
Y495800D01*
X590673D01*
Y482800D01*
Y472800D01*
Y460114D01*
X551408D01*
X538009Y473513D01*
X536934Y474231D01*
X535666Y474484D01*
X499403D01*
Y476420D01*
X479903D01*
Y474484D01*
X477400D01*
Y476590D01*
X462400D01*
Y473214D01*
X460150D01*
Y475100D01*
X449350D01*
Y474100D01*
X447950D01*
Y469900D01*
X446950D01*
Y468900D01*
X442550D01*
Y465700D01*
X442550D01*
Y465097D01*
X442550D01*
Y461897D01*
X446950D01*
Y460897D01*
X447950D01*
Y456697D01*
X449350D01*
Y455697D01*
X460150D01*
Y456718D01*
X460201Y456763D01*
X461118Y457380D01*
X461180Y457396D01*
X462400Y456727D01*
Y455590D01*
X477400D01*
Y457696D01*
X479903D01*
Y455760D01*
X499403D01*
Y457696D01*
X540918D01*
X547567Y451047D01*
X548642Y450329D01*
X549910Y450076D01*
X590673D01*
Y447800D01*
X591673D01*
Y445800D01*
X590673D01*
Y445644D01*
X563092D01*
X561518Y447218D01*
X560271Y448051D01*
X558800Y448344D01*
X558800Y448344D01*
X552636D01*
Y448806D01*
X543080D01*
Y447806D01*
X542802D01*
Y444500D01*
Y440621D01*
X543080Y440194D01*
X543080D01*
X543974Y439293D01*
X543916Y431750D01*
X534492Y422326D01*
X533659Y421079D01*
X533512Y420343D01*
X533043Y419562D01*
X532096Y419429D01*
X531114Y419624D01*
X529358Y419275D01*
X527870Y418280D01*
X526875Y416792D01*
X526550Y415158D01*
X509675Y398284D01*
X491080D01*
Y400220D01*
X492133Y400742D01*
X499130D01*
Y407243D01*
X478130D01*
Y403246D01*
X476957Y402760D01*
X473338Y406378D01*
X473338Y406378D01*
X469131Y410586D01*
X468056Y411304D01*
X466787Y411556D01*
X460130D01*
Y416743D01*
X437130D01*
Y399743D01*
X451677D01*
X452710Y399170D01*
Y395970D01*
X457110D01*
Y394970D01*
X458110D01*
Y390770D01*
X459510D01*
Y389770D01*
X470310D01*
Y390280D01*
X470310Y390280D01*
X471580Y389720D01*
Y389720D01*
X491080D01*
Y391656D01*
X511048D01*
X512316Y391909D01*
X513391Y392627D01*
X529653Y408889D01*
X530826Y408403D01*
Y365111D01*
X530916Y364661D01*
X530931Y364305D01*
X530859Y363884D01*
X530191Y363035D01*
X528039D01*
Y347452D01*
X549277D01*
Y340643D01*
X544830D01*
Y340295D01*
X543830Y339643D01*
X543560Y339643D01*
X540830D01*
Y335643D01*
Y331643D01*
X543560D01*
X543830Y331643D01*
X544830Y330991D01*
Y330643D01*
X545056D01*
X545908Y329702D01*
X545429Y324891D01*
X543080D01*
Y323891D01*
X542802D01*
Y320585D01*
Y317278D01*
X543080D01*
Y316278D01*
X552636D01*
Y322216D01*
X553906Y322794D01*
X555175Y322268D01*
X556774Y322058D01*
X556882Y322037D01*
X559490D01*
X559507Y321994D01*
X559550Y321976D01*
Y317847D01*
X558625Y316462D01*
X558276Y314706D01*
X558625Y312950D01*
X559620Y311462D01*
X561108Y310467D01*
X562864Y310118D01*
X564620Y310467D01*
X566108Y311462D01*
X567103Y312950D01*
X567452Y314706D01*
X567103Y316462D01*
X566178Y317847D01*
Y322060D01*
X566156Y322168D01*
X565946Y323767D01*
X565287Y325358D01*
X564238Y326725D01*
X563428Y327346D01*
X563859Y328616D01*
X571327D01*
X571435Y328638D01*
X573035Y328848D01*
X574626Y329507D01*
X575906Y330490D01*
X575997Y330551D01*
X575997Y330551D01*
X575997Y330551D01*
X575997Y330551D01*
X576856Y331410D01*
X583463Y338017D01*
X583463Y338017D01*
X588446Y342999D01*
X588813Y343367D01*
X589344Y343897D01*
X589344Y343897D01*
X589404Y343988D01*
X590387Y345269D01*
X591046Y346860D01*
X591270Y348567D01*
X591137Y349580D01*
X592340Y350173D01*
X597524Y344989D01*
X597615Y344928D01*
X598895Y343946D01*
X600486Y343287D01*
X602193Y343062D01*
X603900Y343287D01*
X604762Y343644D01*
X606032Y342827D01*
Y338431D01*
X600350Y332748D01*
X599135Y333330D01*
X598853Y334750D01*
X597858Y336238D01*
X596370Y337233D01*
X594614Y337582D01*
X592858Y337233D01*
X591370Y336238D01*
X590375Y334750D01*
X590050Y333116D01*
X576712Y319778D01*
X575078Y319453D01*
X573590Y318458D01*
X572595Y316970D01*
X572246Y315214D01*
X572595Y313458D01*
X573590Y311970D01*
X575078Y310975D01*
X576834Y310626D01*
X578590Y310975D01*
X580078Y311970D01*
X581073Y313458D01*
X581173Y313961D01*
X581528Y314139D01*
X582963Y313436D01*
X583009Y313204D01*
X584004Y311716D01*
X585492Y310721D01*
X587248Y310372D01*
X589004Y310721D01*
X590492Y311716D01*
X591487Y313204D01*
X591812Y314838D01*
X608936Y331962D01*
X610109Y331475D01*
Y300783D01*
X610361Y299515D01*
X611080Y298440D01*
X615366Y294153D01*
Y121229D01*
X614193Y120743D01*
X559554Y175382D01*
X559229Y177016D01*
X558234Y178504D01*
X556746Y179499D01*
X555112Y179824D01*
X547799Y187138D01*
Y195985D01*
X549235D01*
Y189985D01*
X555585D01*
Y200485D01*
Y210985D01*
X550735D01*
Y211985D01*
X527235D01*
Y210985D01*
X523985D01*
Y203985D01*
Y196985D01*
X527235D01*
Y195985D01*
X530672D01*
Y181565D01*
X529746Y180181D01*
X529397Y178425D01*
X529746Y176669D01*
X530741Y175180D01*
X532229Y174186D01*
X533985Y173837D01*
X535741Y174186D01*
X537229Y175180D01*
X538224Y176669D01*
X538257Y176833D01*
X539472Y177202D01*
X566270Y150404D01*
X565645Y149233D01*
X565190Y149324D01*
X507593D01*
X493298Y163619D01*
Y175284D01*
X494224Y176669D01*
X494573Y178425D01*
X494224Y180181D01*
X493298Y181565D01*
Y195985D01*
X508672D01*
Y181565D01*
X507746Y180181D01*
X507397Y178425D01*
X507746Y176669D01*
X508741Y175180D01*
X510229Y174186D01*
X511985Y173837D01*
X513741Y174186D01*
X515230Y175180D01*
X516224Y176669D01*
X516573Y178425D01*
X516224Y180181D01*
X515299Y181565D01*
Y195985D01*
X518735D01*
Y196985D01*
X521985D01*
Y203985D01*
Y210985D01*
X518735D01*
Y211985D01*
X501700D01*
X499211Y214474D01*
X497964Y215307D01*
X496493Y215600D01*
X496493Y215600D01*
X461464D01*
X459993Y215307D01*
X458746Y214474D01*
X457913Y213227D01*
X457620Y211756D01*
Y187486D01*
X407704D01*
Y321694D01*
X408974Y321819D01*
X409121Y321078D01*
X410116Y319590D01*
X411604Y318595D01*
X413360Y318246D01*
X415116Y318595D01*
X416604Y319590D01*
X417599Y321078D01*
X417948Y322834D01*
X417599Y324590D01*
X416674Y325975D01*
Y351030D01*
X418860D01*
Y363030D01*
X408444D01*
X407860Y363030D01*
X407174Y364016D01*
Y371030D01*
X409360D01*
Y383030D01*
X398360D01*
Y371030D01*
X400546D01*
Y364016D01*
X399860Y363030D01*
X389394D01*
Y375920D01*
X389141Y377188D01*
X388423Y378263D01*
X375424Y391263D01*
Y410880D01*
X376349Y412264D01*
X376698Y414020D01*
X376349Y415776D01*
X375354Y417264D01*
X373866Y418259D01*
X372110Y418608D01*
X370354Y418259D01*
X368935Y417311D01*
X367516Y418259D01*
X365760Y418608D01*
X364004Y418259D01*
X362516Y417264D01*
X361521Y415776D01*
X361172Y414020D01*
X361521Y412264D01*
X362446Y410880D01*
Y408692D01*
X361176Y408307D01*
X360622Y409136D01*
X359134Y410131D01*
X357378Y410480D01*
X355622Y410131D01*
X354134Y409136D01*
X353139Y407648D01*
X352790Y405892D01*
X352923Y405222D01*
X352118Y404240D01*
X347086D01*
X327164Y424163D01*
Y521867D01*
X342943Y537646D01*
X363555D01*
X363565Y537648D01*
X363575Y537646D01*
X373400Y537706D01*
X374026Y537835D01*
X374648Y537959D01*
X374657Y537964D01*
X374667Y537966D01*
X375191Y538322D01*
X375723Y538677D01*
X400463Y563417D01*
X400700Y563771D01*
X401896Y563276D01*
X401752Y562550D01*
X402101Y560794D01*
X403096Y559306D01*
X404584Y558311D01*
X406340Y557962D01*
X408096Y558311D01*
X409584Y559306D01*
X410579Y560794D01*
X410755Y561679D01*
X419510D01*
Y558304D01*
X416360D01*
X415092Y558051D01*
X414017Y557333D01*
X369107Y512424D01*
X352830D01*
X351562Y512171D01*
X350487Y511453D01*
X349768Y510378D01*
X349516Y509110D01*
X349768Y507842D01*
X350487Y506767D01*
X351562Y506049D01*
X352830Y505796D01*
X370480D01*
X371184Y505936D01*
X371777Y504917D01*
X371810Y504766D01*
X366767Y499724D01*
X352830D01*
X351562Y499471D01*
X350487Y498753D01*
X349768Y497678D01*
X349516Y496410D01*
X349768Y495142D01*
X350487Y494067D01*
X351562Y493349D01*
X352830Y493096D01*
X368140D01*
X369408Y493349D01*
X370483Y494067D01*
X389993Y513576D01*
X419510D01*
Y510044D01*
X396841D01*
X395456Y510969D01*
X393700Y511318D01*
X391944Y510969D01*
X390456Y509974D01*
X389461Y508486D01*
X389112Y506730D01*
X389461Y504974D01*
X390456Y503486D01*
X391944Y502491D01*
X393700Y502142D01*
X395456Y502491D01*
X396841Y503416D01*
X419510D01*
Y501480D01*
X439010D01*
Y511640D01*
Y521800D01*
Y532300D01*
X438244D01*
X437646Y533420D01*
X437817Y533676D01*
X438166Y535432D01*
X437846Y537040D01*
X437960Y537460D01*
X438414Y538310D01*
X439010D01*
Y540246D01*
X564845D01*
X566113Y540499D01*
X567188Y541217D01*
X606857Y580886D01*
X653691D01*
X657197Y577380D01*
D02*
G37*
G36*
X383500Y555826D02*
X371999Y544325D01*
X363543Y544274D01*
X341570D01*
X340302Y544021D01*
X339384Y543408D01*
X338214Y543723D01*
X338114Y543764D01*
Y545518D01*
X342943Y550346D01*
X363555D01*
X363568Y550349D01*
X363582Y550346D01*
X371017Y550406D01*
X371640Y550536D01*
X372258Y550659D01*
X372270Y550666D01*
X372283Y550669D01*
X372807Y551025D01*
X373334Y551377D01*
X378956Y557000D01*
X383014D01*
X383500Y555826D01*
D02*
G37*
G36*
X622673Y500800D02*
X668359D01*
Y462118D01*
X667434Y460734D01*
X667085Y458978D01*
X667434Y457222D01*
X668429Y455734D01*
X669917Y454739D01*
X671673Y454390D01*
X673429Y454739D01*
X674917Y455734D01*
X675912Y457222D01*
X676261Y458978D01*
X675912Y460734D01*
X674987Y462118D01*
Y500800D01*
X698359D01*
Y470180D01*
X664000Y435821D01*
X663999Y435821D01*
X653575Y425396D01*
X653532Y425414D01*
X653489Y425396D01*
X650674Y428212D01*
X650583Y428273D01*
X649302Y429255D01*
X647711Y429914D01*
X646004Y430139D01*
X644297Y429914D01*
X642706Y429255D01*
X641426Y428273D01*
X641335Y428212D01*
X641274Y428120D01*
X640292Y426840D01*
X639633Y425249D01*
X639408Y423542D01*
X639633Y421835D01*
X640292Y420244D01*
X641273Y418964D01*
X641335Y418872D01*
X643508Y416699D01*
X643313Y415134D01*
X637172Y408993D01*
X637172Y408993D01*
X636703Y408524D01*
X635985Y407449D01*
X635733Y406181D01*
Y399659D01*
X631245Y395171D01*
X631202Y395188D01*
X631159Y395171D01*
X628480Y397850D01*
X628388Y397911D01*
X627109Y398893D01*
X625518Y399552D01*
X623810Y399776D01*
X622103Y399552D01*
X620512Y398893D01*
X619232Y397910D01*
X619141Y397850D01*
Y397850D01*
X619080Y397758D01*
X618098Y396478D01*
X617439Y394887D01*
X617214Y393180D01*
X617347Y392167D01*
X616493Y391629D01*
X616181Y391542D01*
X616149Y391538D01*
X614874Y392517D01*
X613283Y393176D01*
X611576Y393400D01*
X609868Y393176D01*
X608943Y392792D01*
X607673Y393571D01*
Y395800D01*
X606673D01*
Y397800D01*
X607673D01*
Y402800D01*
Y411500D01*
X607788Y411680D01*
X608943Y412444D01*
X610108Y412212D01*
X611864Y412561D01*
X613352Y413556D01*
X614347Y415045D01*
X614696Y416800D01*
X614347Y418556D01*
X613352Y420045D01*
X611864Y421039D01*
X611292Y421153D01*
Y422448D01*
X611864Y422561D01*
X613352Y423556D01*
X614347Y425045D01*
X614696Y426800D01*
X614347Y428556D01*
X613352Y430045D01*
X611864Y431039D01*
X610108Y431388D01*
X608943Y431157D01*
X607788Y431920D01*
X607673Y432100D01*
Y437956D01*
X610964D01*
X610964Y437956D01*
X612435Y438249D01*
X613682Y439082D01*
X618922Y444322D01*
X618922Y444322D01*
X619755Y445569D01*
X620048Y447040D01*
Y460196D01*
Y469689D01*
X620224Y469953D01*
X620517Y471424D01*
Y482231D01*
X620792Y483616D01*
X620517Y485001D01*
Y500800D01*
X620673D01*
Y501800D01*
X622673D01*
Y500800D01*
D02*
G37*
G36*
X320536Y519773D02*
Y428260D01*
X319266Y428135D01*
X319131Y428813D01*
X318413Y429888D01*
X314494Y433807D01*
Y515389D01*
X319363Y520259D01*
X320536Y519773D01*
D02*
G37*
G36*
X558782Y439082D02*
X560029Y438249D01*
X561500Y437956D01*
X561500Y437956D01*
X567835D01*
X568321Y436783D01*
X559774Y428236D01*
X558140Y427911D01*
X556652Y426916D01*
X555657Y425428D01*
X555308Y423672D01*
X555657Y421916D01*
X556652Y420428D01*
X558140Y419433D01*
X559896Y419084D01*
X561652Y419433D01*
X563141Y420428D01*
X564135Y421916D01*
X564460Y423550D01*
X570118Y429208D01*
X571105Y428398D01*
X570817Y427968D01*
X570468Y426212D01*
X570817Y424456D01*
X571812Y422968D01*
X573300Y421973D01*
X575056Y421624D01*
X576812Y421973D01*
X578300Y422968D01*
X579295Y424456D01*
X579620Y426090D01*
X582016Y428486D01*
X590673D01*
Y425114D01*
X588170D01*
X586902Y424861D01*
X586708Y424732D01*
X586546Y424764D01*
X584790Y424415D01*
X583302Y423420D01*
X582307Y421932D01*
X581958Y420176D01*
X582307Y418420D01*
X583302Y416932D01*
X584790Y415937D01*
X586546Y415588D01*
X586934Y415665D01*
X587429Y414469D01*
X587052Y414216D01*
X586057Y412728D01*
X585708Y410972D01*
X585602Y410843D01*
X584752Y410558D01*
X583658Y411331D01*
X583359Y412836D01*
X582364Y414324D01*
X580876Y415319D01*
X579120Y415668D01*
X577364Y415319D01*
X575876Y414324D01*
X574881Y412836D01*
X574532Y411080D01*
X574881Y409324D01*
X575876Y407836D01*
X576264Y407577D01*
X576585Y405851D01*
X576440Y405644D01*
X573327D01*
X562233Y416738D01*
X560986Y417571D01*
X559515Y417864D01*
X559515Y417864D01*
X552636D01*
Y418326D01*
X552403D01*
X551508Y419228D01*
X551588Y429602D01*
X551722Y430276D01*
X551722Y430276D01*
Y440194D01*
X552636D01*
Y440656D01*
X557208D01*
X558782Y439082D01*
D02*
G37*
G36*
X779026Y432186D02*
X779351Y430552D01*
X780346Y429064D01*
X781834Y428069D01*
X783590Y427720D01*
X784340Y427869D01*
X785610Y426835D01*
Y414113D01*
X784685Y412728D01*
X784336Y410972D01*
X784685Y409216D01*
X785680Y407728D01*
X787168Y406733D01*
X788924Y406384D01*
X790680Y406733D01*
X792168Y407728D01*
X793163Y409216D01*
X793512Y410972D01*
X793163Y412728D01*
X792238Y414113D01*
Y433599D01*
X793411Y434085D01*
X809534Y417962D01*
X809859Y416328D01*
X810854Y414840D01*
X812342Y413845D01*
X814098Y413496D01*
X814187Y413514D01*
X815471Y412544D01*
X815530Y411784D01*
X803859Y400113D01*
X773350D01*
X772544Y401095D01*
X772684Y401800D01*
X772335Y403556D01*
X771340Y405044D01*
X769852Y406039D01*
X768096Y406388D01*
X766340Y406039D01*
X764956Y405114D01*
X762673D01*
Y417800D01*
Y427800D01*
Y438486D01*
X772726D01*
X779026Y432186D01*
D02*
G37*
G36*
X696110Y438068D02*
X696526Y437446D01*
X698014Y436451D01*
X699648Y436126D01*
X725449Y410325D01*
Y384325D01*
X725328Y384244D01*
X724333Y382756D01*
X723984Y381000D01*
X724136Y380238D01*
X723330Y379256D01*
X637706D01*
X637180Y380526D01*
X694846Y438192D01*
X696110Y438068D01*
D02*
G37*
G36*
X542802Y410714D02*
X543080D01*
Y409714D01*
X552636D01*
Y410176D01*
X557923D01*
X569017Y399082D01*
X569017Y399082D01*
X570264Y398249D01*
X571735Y397956D01*
X590673D01*
Y397800D01*
X591673D01*
Y395800D01*
X590673D01*
Y395114D01*
X582300D01*
X581032Y394861D01*
X579957Y394143D01*
X560914Y375101D01*
X554580D01*
Y377037D01*
X552394D01*
Y379540D01*
X552636D01*
Y388152D01*
X552636D01*
X552143Y388697D01*
X552662Y393904D01*
X554830D01*
Y403904D01*
X544830D01*
Y403556D01*
X543830Y402905D01*
X540830D01*
Y398904D01*
X538830D01*
Y402905D01*
X538514D01*
Y408618D01*
X539928Y410032D01*
X539928Y410032D01*
X540384Y410714D01*
X540802D01*
Y411480D01*
X541054Y412750D01*
Y414020D01*
X542802D01*
Y410714D01*
D02*
G37*
G36*
X691525Y370298D02*
X689330Y368103D01*
X688612Y367028D01*
X688359Y365760D01*
Y362800D01*
X684211D01*
X683499Y364070D01*
X683784Y365506D01*
X683435Y367262D01*
X682440Y368750D01*
X680952Y369745D01*
X679196Y370094D01*
X677440Y369745D01*
X676056Y368820D01*
X670483D01*
X669215Y368567D01*
X668140Y367849D01*
X664330Y364039D01*
X663611Y362964D01*
X663579Y362800D01*
X647028D01*
X646077Y364070D01*
X646261Y364998D01*
X645912Y366754D01*
X644917Y368242D01*
X643429Y369237D01*
X641673Y369586D01*
X639917Y369237D01*
X638429Y368242D01*
X637434Y366754D01*
X637085Y364998D01*
X637270Y364070D01*
X636319Y362800D01*
X631348D01*
X630861Y364070D01*
X638359Y371568D01*
X690999D01*
X691525Y370298D01*
D02*
G37*
G36*
X569531Y365702D02*
X569647Y364820D01*
X570306Y363229D01*
X571288Y361949D01*
X571349Y361858D01*
X583986Y349221D01*
X584127Y348053D01*
X578777Y342703D01*
X578777Y342703D01*
X571370Y335297D01*
X571327Y335314D01*
X571261Y335287D01*
X571243Y335244D01*
X556882D01*
X556774Y335222D01*
X556100Y335134D01*
X555784Y335339D01*
X555433Y336807D01*
X555652Y337136D01*
X555904Y338404D01*
Y347452D01*
X561621D01*
Y359587D01*
X568190Y366157D01*
X569531Y365702D01*
D02*
G37*
G36*
X382766Y341827D02*
X383019Y340559D01*
X383737Y339484D01*
X390107Y333114D01*
Y331250D01*
X378588D01*
X374320Y335518D01*
X373073Y336351D01*
X373050Y336356D01*
Y345300D01*
X371556D01*
Y350044D01*
X372243Y351030D01*
X382766D01*
Y341827D01*
D02*
G37*
G36*
X732673Y345800D02*
X732829D01*
Y333135D01*
X727532Y327838D01*
X726699Y326591D01*
X726406Y325120D01*
X726406Y325120D01*
Y317686D01*
X725944D01*
Y308130D01*
X726944D01*
Y307852D01*
X730250D01*
X733556D01*
Y308130D01*
X734556D01*
Y309064D01*
X740055D01*
X740128Y309020D01*
Y308589D01*
X740128D01*
X741128Y307439D01*
Y306595D01*
X745490D01*
Y304594D01*
X741128D01*
Y301018D01*
X740180Y300240D01*
X719002D01*
Y302610D01*
X713441D01*
X707881D01*
Y302527D01*
X706707Y302041D01*
X703338Y305410D01*
Y324255D01*
X709016Y329934D01*
X709735Y331009D01*
X709987Y332277D01*
Y345800D01*
X713360D01*
Y343755D01*
X712434Y342370D01*
X712085Y340614D01*
X712434Y338858D01*
X713429Y337370D01*
X714917Y336375D01*
X716673Y336026D01*
X716948Y336081D01*
X717574Y334910D01*
X711098Y328434D01*
X710380Y327359D01*
X710128Y326091D01*
Y322440D01*
X706881D01*
Y309859D01*
X707128D01*
X707881Y308901D01*
Y304610D01*
X713441D01*
X719002D01*
Y308901D01*
X719755Y309859D01*
X720002D01*
Y322440D01*
X716755D01*
Y324719D01*
X729016Y336980D01*
X729735Y338055D01*
X729987Y339323D01*
Y345800D01*
X730673D01*
Y346800D01*
X732673D01*
Y345800D01*
D02*
G37*
G36*
X683359Y260287D02*
X683611Y259019D01*
X684330Y257944D01*
X692676Y249597D01*
X692190Y248424D01*
X685130D01*
X683746Y249349D01*
X681990Y249698D01*
X680234Y249349D01*
X678746Y248354D01*
X677751Y246866D01*
X677402Y245110D01*
X677556Y244334D01*
X676534Y243064D01*
X672798D01*
X671327Y242771D01*
X670080Y241938D01*
X649300Y221158D01*
X648467Y219911D01*
X648174Y218440D01*
X648174Y218440D01*
Y129220D01*
X623167Y104213D01*
X621994Y104699D01*
Y295526D01*
X621741Y296794D01*
X621023Y297869D01*
X616736Y302156D01*
Y307475D01*
X618006Y307976D01*
X618246Y307852D01*
X622300D01*
X625606D01*
Y308130D01*
X626606D01*
Y316476D01*
X627876Y316861D01*
X628429Y316034D01*
X629917Y315039D01*
X631673Y314690D01*
X633429Y315039D01*
X634917Y316034D01*
X635912Y317522D01*
X636261Y319278D01*
X635912Y321034D01*
X634987Y322419D01*
Y333582D01*
X635969Y334388D01*
X636673Y334248D01*
X638429Y334597D01*
X639917Y335592D01*
X640912Y337080D01*
X641261Y338836D01*
X640912Y340592D01*
X639986Y341977D01*
Y345800D01*
X643359D01*
Y344424D01*
X643611Y343156D01*
X644330Y342081D01*
X648704Y337706D01*
Y314301D01*
X645819Y311416D01*
X638903D01*
X637518Y312341D01*
X635762Y312690D01*
X634006Y312341D01*
X632518Y311346D01*
X631523Y309858D01*
X631174Y308102D01*
X631523Y306346D01*
X632518Y304858D01*
X634006Y303863D01*
X635762Y303514D01*
X637518Y303863D01*
X638903Y304788D01*
X647192D01*
X648460Y305041D01*
X649535Y305759D01*
X654361Y310585D01*
X655079Y311660D01*
X655332Y312928D01*
Y339079D01*
X655079Y340347D01*
X654361Y341422D01*
X651253Y344530D01*
X651779Y345800D01*
X658359D01*
Y311050D01*
X656902Y310076D01*
X655907Y308588D01*
X655558Y306832D01*
X655907Y305076D01*
X656902Y303588D01*
X658390Y302593D01*
X660146Y302244D01*
X661020Y302418D01*
X662290Y301441D01*
Y296380D01*
X668290D01*
Y302880D01*
X669290D01*
Y303880D01*
X676290D01*
Y309380D01*
X677290D01*
Y324380D01*
X672604D01*
Y327557D01*
X674016Y328970D01*
X674734Y330045D01*
X674987Y331313D01*
Y345800D01*
X683359D01*
Y260287D01*
D02*
G37*
G36*
X797129Y289560D02*
X797105Y289555D01*
X795858Y288722D01*
X792302Y285166D01*
X791469Y283919D01*
X791176Y282448D01*
X791176Y282448D01*
Y280260D01*
X790569D01*
Y275260D01*
X788569D01*
Y280260D01*
X784819D01*
Y279104D01*
X780720D01*
X780720Y279104D01*
X779249Y278811D01*
X778002Y277978D01*
X770568Y270544D01*
X732650D01*
Y270950D01*
X730535D01*
X730049Y272123D01*
X730976Y273050D01*
X769620D01*
X787400Y290830D01*
X797004D01*
X797129Y289560D01*
D02*
G37*
G36*
X693360Y301770D02*
X693509Y301020D01*
X693612Y300502D01*
X693612Y300502D01*
X693612Y300502D01*
X693921Y300039D01*
X694330Y299427D01*
X695819Y297938D01*
X696064Y296706D01*
X696782Y295631D01*
X697476Y294937D01*
X697468Y294894D01*
X697817Y293138D01*
X698812Y291650D01*
X700300Y290655D01*
X702056Y290306D01*
X703812Y290655D01*
X705300Y291650D01*
X706295Y293138D01*
X707035Y293633D01*
X707136Y293612D01*
X743874D01*
X745258Y292687D01*
X747014Y292338D01*
X747521Y291922D01*
Y286072D01*
X743422Y281974D01*
X730620D01*
X729149Y281681D01*
X727902Y280848D01*
X727902Y280848D01*
X719004Y271950D01*
X716699D01*
X716611Y272395D01*
X716538Y272841D01*
X716128Y273941D01*
X716104Y273980D01*
X716095Y274025D01*
X715843Y274402D01*
X715605Y274787D01*
X715568Y274814D01*
X715542Y274852D01*
X715166Y275104D01*
X714798Y275369D01*
X714753Y275379D01*
X714715Y275405D01*
X714271Y275493D01*
X713830Y275597D01*
X713785Y275590D01*
X713740Y275599D01*
X709664D01*
X708688Y275405D01*
X707861Y274852D01*
X701778Y268769D01*
X701225Y267942D01*
X701031Y266966D01*
Y252274D01*
X699858Y251788D01*
X689986Y261660D01*
Y345800D01*
X693360D01*
Y301770D01*
D02*
G37*
G36*
X911001Y279903D02*
Y243613D01*
X909828Y243127D01*
X900866Y252089D01*
X900866Y252089D01*
X900039Y252642D01*
X899063Y252836D01*
X898088Y252642D01*
X896915Y252156D01*
X896088Y251603D01*
X895535Y250776D01*
X895341Y249801D01*
Y215900D01*
X895535Y214925D01*
X896088Y214098D01*
X902063Y208122D01*
X901577Y206949D01*
X891213D01*
X889945Y206696D01*
X888870Y205978D01*
X875416Y192524D01*
X873782Y192199D01*
X872294Y191204D01*
X871299Y189716D01*
X870950Y187960D01*
X871299Y186204D01*
X872224Y184820D01*
Y178632D01*
X871060Y178377D01*
X869887Y178613D01*
X869810Y178630D01*
Y181880D01*
X865310D01*
Y182880D01*
X864310D01*
Y187130D01*
X862310D01*
Y188130D01*
X851310D01*
Y178377D01*
X851060D01*
Y167791D01*
X851060Y167377D01*
X851060D01*
X851310Y166625D01*
X851184Y165407D01*
X850040Y164796D01*
X849862Y164915D01*
X848886Y165109D01*
X772160D01*
X771184Y164915D01*
X770358Y164362D01*
X763093Y157098D01*
X761920Y157584D01*
Y160958D01*
X763190Y161949D01*
X764032Y161782D01*
X765788Y162131D01*
X767276Y163126D01*
X768271Y164614D01*
X768620Y166370D01*
X768271Y168126D01*
X767276Y169614D01*
X765788Y170609D01*
X764032Y170958D01*
X763386Y170830D01*
X762762Y170954D01*
X761920D01*
Y172390D01*
X763010Y172825D01*
X773293D01*
X774561Y173077D01*
X775636Y173796D01*
X780150Y178309D01*
X780150Y178309D01*
X784663Y182823D01*
X785381Y183898D01*
X785634Y185166D01*
Y204470D01*
X785381Y205738D01*
X784663Y206813D01*
X777923Y213553D01*
X776848Y214272D01*
X775580Y214524D01*
X767460D01*
X767460Y219960D01*
X766460Y220612D01*
X766460Y221230D01*
Y227210D01*
X752460D01*
X752460Y220612D01*
X751460Y219960D01*
X751460Y219808D01*
Y214747D01*
X750190Y214616D01*
X747803Y217003D01*
X746728Y217721D01*
X745460Y217974D01*
X739799D01*
X739028Y219128D01*
X737804Y219945D01*
X736360Y220233D01*
X734917Y219945D01*
X733693Y219128D01*
X732564Y218903D01*
X732413Y219003D01*
X732360Y219014D01*
Y214660D01*
Y210306D01*
X732413Y210317D01*
X732564Y210417D01*
X733693Y210192D01*
X734917Y209375D01*
X736360Y209088D01*
X737804Y209375D01*
X739028Y210192D01*
X739799Y211346D01*
X744088D01*
X746567Y208867D01*
X747642Y208149D01*
X748910Y207896D01*
X751460D01*
Y202460D01*
X767460D01*
Y207896D01*
X774207D01*
X779006Y203097D01*
Y186766D01*
X777948Y186028D01*
X774870Y189106D01*
Y195170D01*
X764370D01*
X763868Y194170D01*
X760618D01*
Y189670D01*
X759618D01*
Y188670D01*
X755368D01*
Y188011D01*
X755097Y187896D01*
X755046Y187899D01*
X753741Y188701D01*
X753539Y189716D01*
X752544Y191204D01*
X751056Y192199D01*
X749300Y192548D01*
X747544Y192199D01*
X746160Y191274D01*
X741035D01*
X739767Y191021D01*
X739028Y191128D01*
X737804Y191945D01*
X736360Y192232D01*
X734917Y191945D01*
X733860Y191239D01*
X732804Y191945D01*
X731360Y192232D01*
X729916Y191945D01*
X728860Y191240D01*
X727804Y191945D01*
X726556Y192194D01*
X726275Y192760D01*
X716444D01*
X716164Y192194D01*
X714917Y191945D01*
X713860Y191239D01*
X712804Y191945D01*
X711360Y192232D01*
X709916Y191945D01*
X708860Y191239D01*
X707803Y191945D01*
X706360Y192232D01*
X705620Y192085D01*
X705203Y192503D01*
X704818Y192760D01*
X699360D01*
Y193474D01*
X674370D01*
X673102Y193222D01*
X672027Y192503D01*
X671309Y191428D01*
X671056Y190160D01*
X671309Y188892D01*
X672027Y187817D01*
X673102Y187099D01*
X674370Y186847D01*
X701487D01*
X702587Y185746D01*
Y184860D01*
X702875Y183416D01*
X703692Y182192D01*
X704916Y181375D01*
X706360Y181087D01*
X707803Y181375D01*
X708860Y182081D01*
X709916Y181375D01*
X710411Y181276D01*
X710168Y180056D01*
Y172890D01*
X709070D01*
Y172228D01*
X698889D01*
X697828Y173401D01*
X697634Y174377D01*
X697081Y175204D01*
X689322Y182962D01*
X688495Y183515D01*
X687520Y183709D01*
X657860D01*
X657132Y183564D01*
X656261Y184029D01*
X655862Y184359D01*
Y216848D01*
X674390Y235376D01*
X703186D01*
X704006Y234490D01*
X704298Y233019D01*
X705132Y231772D01*
X715016Y221888D01*
Y219965D01*
X714917Y219945D01*
X713860Y219239D01*
X712804Y219945D01*
X711360Y220233D01*
X709916Y219945D01*
X708860Y219239D01*
X707803Y219945D01*
X706360Y220233D01*
X704916Y219945D01*
X703692Y219128D01*
X702875Y217904D01*
X702587Y216460D01*
Y215574D01*
X701487Y214473D01*
X674370D01*
X673102Y214221D01*
X672027Y213503D01*
X671309Y212428D01*
X671056Y211160D01*
X671309Y209892D01*
X672027Y208817D01*
X673102Y208098D01*
X674370Y207846D01*
X699360D01*
Y208560D01*
X704818D01*
X705203Y208817D01*
X705620Y209235D01*
X706360Y209088D01*
X707803Y209375D01*
X708860Y210081D01*
X709916Y209375D01*
X711360Y209088D01*
X712804Y209375D01*
X713860Y210081D01*
X714917Y209375D01*
X716164Y209126D01*
X716444Y208560D01*
X726275D01*
X726556Y209126D01*
X727804Y209375D01*
X729028Y210192D01*
X730156Y210417D01*
X730306Y210317D01*
X730360Y210306D01*
Y214660D01*
Y219526D01*
X729674Y219992D01*
Y229147D01*
X729547Y229787D01*
X730404Y231057D01*
X732960D01*
Y241557D01*
X731960D01*
Y244308D01*
X727710D01*
Y245308D01*
X726710D01*
Y249558D01*
X724042D01*
X722957Y250050D01*
X722343Y250646D01*
X722334Y252078D01*
X730868Y260612D01*
X730868Y260612D01*
X731428Y261450D01*
X733650D01*
Y262856D01*
X736180D01*
Y261950D01*
X736528D01*
X737180Y260950D01*
X737180Y260680D01*
Y258200D01*
X741680D01*
X746180D01*
Y260680D01*
X746180Y260950D01*
X746832Y261950D01*
X747180D01*
Y262856D01*
X751420D01*
Y261950D01*
X751768D01*
X752420Y260950D01*
X752420Y260680D01*
Y258200D01*
X756920D01*
X761420D01*
Y260680D01*
X761420Y260950D01*
X762072Y261950D01*
X762420D01*
Y262856D01*
X766660D01*
Y261950D01*
X767009D01*
X767660Y260950D01*
X767660Y260680D01*
Y258200D01*
X772160D01*
X776660D01*
Y259229D01*
X777930Y259354D01*
X778081Y258594D01*
X779076Y257106D01*
X780564Y256111D01*
X782320Y255762D01*
X784076Y256111D01*
X785461Y257036D01*
X786290D01*
X787558Y257289D01*
X788633Y258007D01*
X789511Y258886D01*
X790096Y259760D01*
X795319D01*
Y266824D01*
X801497Y273003D01*
X803130D01*
X804398Y273255D01*
X805311Y273865D01*
X805631Y273801D01*
X832630D01*
X833679Y274010D01*
X838380D01*
Y276696D01*
X846377D01*
X847864Y275210D01*
Y266220D01*
X848864D01*
Y265942D01*
X852170D01*
X855476D01*
Y266220D01*
X856476D01*
Y275776D01*
X855447D01*
X855231Y276858D01*
X854513Y277933D01*
X851459Y280987D01*
X851945Y282160D01*
X908744D01*
X911001Y279903D01*
D02*
G37*
G36*
X714150Y271950D02*
X714150D01*
Y261450D01*
X719175D01*
X719661Y260277D01*
X715489Y256105D01*
X714656Y254858D01*
X714363Y253387D01*
X714363Y253387D01*
Y248954D01*
X707850D01*
X707370Y248858D01*
X706100Y249360D01*
Y249360D01*
X703580D01*
Y266966D01*
X709664Y273050D01*
X713740D01*
X714150Y271950D01*
D02*
G37*
G36*
X1033578Y268124D02*
X983328Y217874D01*
X970825D01*
Y218655D01*
X966200D01*
Y214030D01*
X964200D01*
Y218655D01*
X959575D01*
Y217479D01*
X950845D01*
Y218385D01*
X947095D01*
Y213635D01*
X945095D01*
Y218385D01*
X941345D01*
Y217479D01*
X935220D01*
Y218385D01*
X931470D01*
Y213635D01*
X929470D01*
Y218385D01*
X925720D01*
Y217479D01*
X919595D01*
Y218385D01*
X918689D01*
Y223520D01*
X970280D01*
X1031240Y284480D01*
X1033578D01*
Y268124D01*
D02*
G37*
G36*
X911001Y238349D02*
Y218385D01*
X910095D01*
Y214635D01*
X914845D01*
Y212635D01*
X910095D01*
Y209550D01*
X906780D01*
X905510Y208280D01*
X897890Y215900D01*
Y249801D01*
X899063Y250287D01*
X911001Y238349D01*
D02*
G37*
G36*
X1040802Y263360D02*
X1041182Y263099D01*
Y119707D01*
X1040725Y114491D01*
X1039445Y109711D01*
X1037354Y105227D01*
X1034516Y101174D01*
X1031017Y97675D01*
X1026964Y94837D01*
X1022479Y92746D01*
X1017699Y91465D01*
X1012483Y91008D01*
X951550D01*
Y97100D01*
X932050D01*
Y91008D01*
X930050D01*
Y97100D01*
X917050D01*
Y91008D01*
X907050D01*
Y97100D01*
X886050D01*
Y91008D01*
X884050D01*
Y97100D01*
X864550D01*
Y91008D01*
X743359D01*
X742745Y92278D01*
X743814Y93879D01*
X744304Y96341D01*
Y107942D01*
X747860D01*
Y107090D01*
X748522D01*
Y97790D01*
X748871Y96034D01*
X749866Y94546D01*
X751354Y93551D01*
X753110Y93202D01*
X754866Y93551D01*
X756354Y94546D01*
X757349Y96034D01*
X757698Y97790D01*
Y107090D01*
X758360D01*
Y118602D01*
X765899D01*
Y115165D01*
X766899D01*
Y110178D01*
X773430D01*
Y109178D01*
D01*
Y110178D01*
X779961D01*
Y115165D01*
X780961D01*
Y118602D01*
X786805D01*
Y115165D01*
X787805D01*
Y110178D01*
X794336D01*
X800867D01*
Y115165D01*
X801867D01*
Y118602D01*
X807711D01*
Y115165D01*
X808711D01*
Y110178D01*
X815242D01*
X821774D01*
Y115165D01*
X822774D01*
Y118602D01*
X830057D01*
Y114885D01*
X835618D01*
X841179D01*
Y119175D01*
X841930Y120134D01*
X842178D01*
Y121836D01*
X849054D01*
X850810Y122185D01*
X851722Y121968D01*
X852000Y121605D01*
X852266Y121234D01*
X852302Y121212D01*
X852327Y121178D01*
X852723Y120950D01*
X853110Y120709D01*
X853152Y120702D01*
X853188Y120681D01*
X853641Y120621D01*
X854092Y120547D01*
X854133Y120556D01*
X854174Y120550D01*
X861614Y121035D01*
X862017Y121143D01*
X862424Y121224D01*
X862494Y121270D01*
X862575Y121292D01*
X862905Y121545D01*
X863251Y121776D01*
X873376Y131902D01*
X874550Y131416D01*
Y124850D01*
X882175D01*
Y133100D01*
X876234D01*
X875748Y134273D01*
X892487Y151012D01*
X892695Y151323D01*
X892932Y151613D01*
X892969Y151734D01*
X893039Y151839D01*
X893109Y152189D01*
X893723Y153204D01*
X893723Y153205D01*
X893723Y153205D01*
Y156294D01*
X894168Y157380D01*
X898605D01*
Y164848D01*
Y172318D01*
X894168D01*
X893993Y171962D01*
X892723Y172257D01*
Y175492D01*
X887905D01*
Y172468D01*
X885905D01*
Y175492D01*
X881087D01*
Y174535D01*
X879914Y174049D01*
X878852Y175111D01*
Y184820D01*
X879777Y186204D01*
X880102Y187838D01*
X892585Y200321D01*
X909095D01*
Y197885D01*
X915500D01*
X916179Y196615D01*
X916167Y196597D01*
X915915Y195329D01*
Y183898D01*
X914659Y183511D01*
X914645Y183511D01*
X911915Y186242D01*
X910840Y186960D01*
X909572Y187212D01*
X909355D01*
Y189149D01*
X907169D01*
Y190539D01*
X908094Y191923D01*
X908443Y193679D01*
X908094Y195435D01*
X907099Y196923D01*
X905611Y197918D01*
X903855Y198267D01*
X902099Y197918D01*
X900611Y196923D01*
X899616Y195435D01*
X899267Y193679D01*
X899616Y191923D01*
X900541Y190539D01*
Y189149D01*
X898355D01*
Y188148D01*
X896355D01*
Y183899D01*
Y179649D01*
X898355D01*
Y178649D01*
X908991D01*
Y176493D01*
X905487D01*
Y173403D01*
X905042Y172318D01*
X900605D01*
Y164848D01*
Y157380D01*
X902342D01*
X902828Y156206D01*
X891805Y145184D01*
X890811Y143696D01*
X890462Y141940D01*
Y134100D01*
X890300D01*
Y133100D01*
X884175D01*
Y123850D01*
Y114600D01*
X890462D01*
Y113030D01*
X890811Y111274D01*
X891415Y110370D01*
X890736Y109100D01*
X886050D01*
Y99100D01*
X907050D01*
Y109100D01*
X899363D01*
X898684Y110370D01*
X899289Y111274D01*
X899638Y113030D01*
Y115300D01*
X911340D01*
X911488Y114556D01*
X912207Y113481D01*
X915001Y110687D01*
X916076Y109969D01*
X916135Y109957D01*
X917050Y109100D01*
Y99100D01*
X930050D01*
Y109080D01*
X931106Y109786D01*
X932101Y111274D01*
X932450Y113030D01*
X932333Y113618D01*
X933139Y114600D01*
X941550D01*
Y122850D01*
X932925D01*
Y123850D01*
X931925D01*
Y133100D01*
X924300D01*
Y133100D01*
X922050D01*
Y124700D01*
X920050D01*
Y133100D01*
X919300D01*
Y134100D01*
X915581D01*
X915095Y135273D01*
X917571Y137749D01*
X945291D01*
X945890Y136629D01*
X945721Y136376D01*
X945372Y134620D01*
X945721Y132864D01*
X946716Y131376D01*
X948204Y130381D01*
X949960Y130032D01*
X971630D01*
Y121870D01*
X972203D01*
X972882Y120600D01*
X972391Y119866D01*
X972042Y118110D01*
X972391Y116354D01*
X973386Y114866D01*
X974874Y113871D01*
X976630Y113522D01*
X978386Y113871D01*
X979874Y114866D01*
X980869Y116354D01*
X981218Y118110D01*
X980869Y119866D01*
X980378Y120600D01*
X980664Y121135D01*
X981630Y121870D01*
X981790D01*
Y121870D01*
X991790D01*
Y132370D01*
X990790D01*
Y133620D01*
X986790D01*
Y134620D01*
X985790D01*
Y138870D01*
X982790D01*
Y138870D01*
X981630Y139136D01*
Y139870D01*
X981218D01*
Y147560D01*
X995360D01*
Y153124D01*
X997848Y155612D01*
X998225Y156176D01*
X1001594D01*
X1001594Y156176D01*
X1003065Y156469D01*
X1004312Y157302D01*
X1022528Y175518D01*
X1022528Y175518D01*
X1023361Y176765D01*
X1023654Y178236D01*
X1023654Y178236D01*
Y219274D01*
X1023654Y219274D01*
X1023361Y220745D01*
X1022528Y221992D01*
X1022528Y221992D01*
X1016350Y228171D01*
X1016211Y228868D01*
X1015216Y230356D01*
X1013728Y231351D01*
X1011972Y231700D01*
X1010216Y231351D01*
X1008728Y230356D01*
X1007733Y228868D01*
X1007549Y227943D01*
X1006624Y227759D01*
X1005136Y226764D01*
X1004141Y225276D01*
X1003792Y223520D01*
X1004141Y221764D01*
X1005136Y220276D01*
X1006624Y219281D01*
X1007322Y219142D01*
X1010886Y215578D01*
Y181932D01*
X998407Y169453D01*
X997848Y169508D01*
X995360Y171996D01*
Y177560D01*
X978360D01*
Y166560D01*
X979360D01*
Y163560D01*
X986860D01*
Y161560D01*
X979196D01*
X978187Y161142D01*
X974525Y164804D01*
X974525Y164804D01*
X974525Y164805D01*
X973785Y165299D01*
X973036Y165799D01*
X973036Y165799D01*
X973036Y165799D01*
X972360Y165934D01*
Y177560D01*
X955360D01*
Y173520D01*
X948868Y167029D01*
X947695Y167514D01*
Y175135D01*
X946744D01*
X946695Y176385D01*
X946695Y176406D01*
Y180010D01*
X941070D01*
X935445D01*
Y176406D01*
X935445Y176385D01*
X935396Y175135D01*
X934445D01*
Y164459D01*
X932469Y162484D01*
X931205Y162608D01*
X931106Y162756D01*
X929618Y163751D01*
X927984Y164076D01*
X927409Y164652D01*
X926396Y165328D01*
X926604Y166370D01*
Y179457D01*
X945031Y197885D01*
X951845D01*
Y209791D01*
X958575D01*
Y208405D01*
X959527D01*
X959575Y207155D01*
X959575Y207135D01*
Y203530D01*
X965200D01*
X970825D01*
Y207135D01*
X970825Y207155D01*
X970873Y208405D01*
X971825D01*
Y210186D01*
X984920D01*
X984920Y210186D01*
X986391Y210479D01*
X987638Y211312D01*
X1039912Y263586D01*
X1040802Y263360D01*
D02*
G37*
G36*
X233563Y232822D02*
X233856Y232383D01*
Y166430D01*
X226484D01*
Y227131D01*
X232299Y232947D01*
X233563Y232822D01*
D02*
G37*
G36*
X732982Y173796D02*
X732989Y173791D01*
X744220Y162560D01*
X744221D01*
X745420Y162387D01*
Y160751D01*
X745181Y160393D01*
X744832Y158637D01*
Y155690D01*
X742319Y153178D01*
X732070D01*
Y155340D01*
X731908D01*
Y161680D01*
X731559Y163436D01*
X730564Y164925D01*
X727611Y167878D01*
X727570Y168083D01*
Y171890D01*
X724770D01*
X723070Y172228D01*
X721370Y171890D01*
X720070D01*
Y172890D01*
X719344D01*
Y177800D01*
X726440D01*
X727709Y179069D01*
X732982Y173796D01*
D02*
G37*
G36*
X695278Y173402D02*
X694792Y172228D01*
X664210D01*
X662454Y171879D01*
X660966Y170884D01*
X659971Y169396D01*
X659622Y167640D01*
X659971Y165884D01*
X660966Y164396D01*
X662454Y163401D01*
X664210Y163052D01*
X714756D01*
X715298Y163160D01*
X716280Y162354D01*
Y157480D01*
X668020D01*
X662940Y152400D01*
X657860Y157480D01*
Y181160D01*
X687520D01*
X695278Y173402D01*
D02*
G37*
G36*
X315370Y167410D02*
X314670Y166430D01*
X299670D01*
Y165430D01*
X294170D01*
Y151680D01*
X292170D01*
Y165430D01*
X286670D01*
Y165430D01*
X285670D01*
Y165430D01*
X280170D01*
Y151680D01*
Y137930D01*
X285670D01*
Y137930D01*
X286670D01*
Y137930D01*
X289375D01*
X289619Y136705D01*
X290452Y135458D01*
X294059Y131851D01*
X294059Y131851D01*
X295306Y131018D01*
X296777Y130725D01*
X299246D01*
X299732Y129552D01*
X283210Y113030D01*
X257810D01*
Y136930D01*
X258670D01*
Y137930D01*
X264170D01*
Y151680D01*
Y165430D01*
X258670D01*
Y166430D01*
X257810D01*
Y172720D01*
X315370D01*
Y167410D01*
D02*
G37*
G36*
X722732Y159780D02*
Y156340D01*
X721570D01*
Y140840D01*
X728581D01*
X729175Y140247D01*
Y134940D01*
X727788Y134664D01*
X725701Y133270D01*
X724306Y131183D01*
X723816Y128721D01*
Y96341D01*
X724306Y93879D01*
X725375Y92278D01*
X724761Y91008D01*
X719396D01*
X719011Y92278D01*
X720108Y93012D01*
X721282Y94768D01*
X721694Y96840D01*
Y112030D01*
X703246D01*
Y96840D01*
X703658Y94768D01*
X704832Y93012D01*
X705929Y92278D01*
X705544Y91008D01*
X633739D01*
Y99705D01*
X633545Y100680D01*
X632992Y101507D01*
X632855Y102079D01*
X632913Y103087D01*
X654736Y124910D01*
X655569Y126157D01*
X655862Y127628D01*
X655862Y127628D01*
Y154077D01*
X657132Y154603D01*
X661138Y150598D01*
X661964Y150045D01*
X662940Y149851D01*
X663915Y150045D01*
X664742Y150598D01*
X669076Y154931D01*
X705570D01*
Y149590D01*
X710320D01*
X715070D01*
Y154931D01*
X716280D01*
X717255Y155125D01*
X718082Y155678D01*
X718635Y156505D01*
X718829Y157480D01*
Y162354D01*
X718858Y162390D01*
X720121D01*
X722732Y159780D01*
D02*
G37*
G36*
X400016Y160054D02*
Y141004D01*
X350721D01*
X349520Y141478D01*
X349432Y141921D01*
Y142373D01*
X349259Y142791D01*
X349171Y143234D01*
X348920Y143610D01*
X348747Y144027D01*
X348427Y144347D01*
X348176Y144722D01*
X347800Y144973D01*
X347481Y145293D01*
X347064Y145466D01*
X346688Y145717D01*
X346245Y145805D01*
X345827Y145978D01*
X345375D01*
X344932Y146066D01*
X314670D01*
Y157150D01*
X315370Y158130D01*
X344870D01*
Y172720D01*
X387350D01*
X400016Y160054D01*
D02*
G37*
G36*
X457674Y179764D02*
Y116332D01*
X457674Y116332D01*
X457967Y114861D01*
X458800Y113614D01*
X464642Y107772D01*
X465889Y106939D01*
X467360Y106646D01*
X499101D01*
Y91008D01*
X488635D01*
Y104985D01*
X464635D01*
Y91008D01*
X209559D01*
Y118110D01*
X209365Y119085D01*
X208812Y119912D01*
X207985Y120465D01*
X207010Y120659D01*
X201939D01*
Y136930D01*
X255261D01*
Y113030D01*
X255455Y112055D01*
X256008Y111228D01*
X256835Y110675D01*
X257810Y110481D01*
X283210D01*
X284185Y110675D01*
X285012Y111228D01*
X301534Y127750D01*
X302087Y128577D01*
X302281Y129552D01*
X302776Y130298D01*
X303342Y130725D01*
X319202D01*
X319202Y130725D01*
X320673Y131018D01*
X321920Y131851D01*
X323385Y133316D01*
X388357D01*
X389162Y132334D01*
X389112Y132080D01*
X389461Y130324D01*
X390456Y128836D01*
X391944Y127841D01*
X393578Y127516D01*
X396437Y124657D01*
X397512Y123939D01*
X397650Y123911D01*
Y122250D01*
X406836D01*
Y118606D01*
X404650D01*
Y117606D01*
X404372D01*
Y114300D01*
Y110994D01*
X404650D01*
Y109994D01*
X414206D01*
Y118606D01*
X413464D01*
Y122250D01*
X415150D01*
Y131750D01*
X415150D01*
Y132410D01*
X415150D01*
Y133846D01*
X425450D01*
X426718Y134099D01*
X427793Y134817D01*
X431865Y138889D01*
X433135Y138489D01*
Y134985D01*
X450135D01*
Y149985D01*
X433135D01*
Y145799D01*
X430775D01*
X429507Y145546D01*
X428432Y144828D01*
X424077Y140474D01*
X415150D01*
Y141910D01*
X407704D01*
Y178434D01*
X409068Y179798D01*
X457640D01*
X457674Y179764D01*
D02*
G37*
G36*
X850310Y161136D02*
Y156125D01*
X855202D01*
Y153670D01*
X855290Y153227D01*
Y152775D01*
X855463Y152357D01*
X855551Y151914D01*
X855802Y151538D01*
X855975Y151121D01*
X856295Y150801D01*
X856546Y150426D01*
X856921Y150175D01*
X857241Y149855D01*
X857658Y149682D01*
X858034Y149431D01*
X858477Y149343D01*
X858895Y149170D01*
X859347D01*
X859790Y149082D01*
X860233Y149170D01*
X860685D01*
X861103Y149343D01*
X861546Y149431D01*
X861922Y149682D01*
X862339Y149855D01*
X862658Y150175D01*
X863034Y150426D01*
X863285Y150801D01*
X863605Y151121D01*
X863778Y151538D01*
X864029Y151914D01*
X864117Y152357D01*
X864290Y152775D01*
Y153227D01*
X864378Y153670D01*
Y156125D01*
X870470D01*
X870996Y154855D01*
X847154Y131013D01*
X841179D01*
Y131715D01*
X836618D01*
Y126424D01*
X834618D01*
Y131715D01*
X830057D01*
Y127778D01*
X821774D01*
Y130215D01*
X816243D01*
Y123190D01*
X814242D01*
Y130215D01*
X808711D01*
Y127778D01*
X800867D01*
Y130215D01*
X795336D01*
Y123190D01*
X793336D01*
Y130215D01*
X787805D01*
Y127778D01*
X779961D01*
Y130215D01*
X774430D01*
Y123190D01*
X772430D01*
Y130215D01*
X766899D01*
Y127778D01*
X756203D01*
X755331Y127605D01*
X754448Y127429D01*
X754448Y127429D01*
X754447Y127429D01*
X753726Y126947D01*
X753097Y126527D01*
X752999Y126507D01*
X752104Y126329D01*
X752103Y126329D01*
X752103Y126328D01*
X751363Y125834D01*
X750998Y125590D01*
X748860D01*
Y137600D01*
X748030Y138430D01*
X759460Y149860D01*
X762000D01*
X760730Y151130D01*
X772160Y162560D01*
X848886D01*
X850310Y161136D01*
D02*
G37*
G36*
X890684Y152814D02*
X861449Y123579D01*
X854009Y123094D01*
X853449Y124330D01*
X881759Y152640D01*
X886905D01*
X888661Y152990D01*
X889875Y153801D01*
X890684Y152814D01*
D02*
G37*
G36*
X758321Y153681D02*
X758717Y152617D01*
X758419Y152171D01*
X757658Y151662D01*
X746228Y140232D01*
X746228Y140232D01*
X745675Y139405D01*
X745481Y138430D01*
X745675Y137455D01*
X746228Y136628D01*
X746311Y136544D01*
Y125590D01*
X746505Y124614D01*
X747058Y123787D01*
X747860Y123251D01*
Y117119D01*
X744304D01*
Y128721D01*
X743814Y131183D01*
X742419Y133270D01*
X740332Y134664D01*
X738351Y135058D01*
Y142147D01*
X738235Y142732D01*
X739277Y144002D01*
X744220D01*
X745976Y144351D01*
X747464Y145346D01*
X752664Y150546D01*
X753659Y152034D01*
X754008Y153790D01*
Y153887D01*
X758154D01*
X758321Y153681D01*
D02*
G37*
G36*
X558177Y115507D02*
X557691Y114334D01*
X501650D01*
Y120650D01*
X553034D01*
X558177Y115507D01*
D02*
G37*
G36*
X501847Y138627D02*
X502922Y137909D01*
X504190Y137656D01*
X536027D01*
X549311Y124372D01*
X548825Y123199D01*
X501650D01*
X500675Y123005D01*
X499848Y122452D01*
X499295Y121625D01*
X499101Y120650D01*
Y114334D01*
X468952D01*
X465362Y117924D01*
Y173354D01*
X465406Y173392D01*
X466632Y173842D01*
X501847Y138627D01*
D02*
G37*
G36*
X580886Y115467D02*
Y109080D01*
X579450D01*
X579450Y109080D01*
X578790D01*
Y109080D01*
X578180Y109080D01*
X573976D01*
X544033Y139023D01*
X544519Y140196D01*
X556157D01*
X580886Y115467D01*
D02*
G37*
G36*
X570290Y94644D02*
Y92580D01*
X573568D01*
X574040Y92486D01*
X574040Y92486D01*
X620720D01*
X620720Y92486D01*
X622191Y92779D01*
X623438Y93612D01*
X630017Y100190D01*
X631190Y99705D01*
Y91008D01*
X548335D01*
Y104985D01*
X524335D01*
Y91008D01*
X501650D01*
Y106646D01*
X558288D01*
X570290Y94644D01*
D02*
G37*
%LPC*%
G36*
X933880Y636350D02*
X929880D01*
Y632850D01*
X933880D01*
Y636350D01*
D02*
G37*
G36*
X960880Y646850D02*
X948880D01*
Y635850D01*
X947708Y635614D01*
X945990D01*
X944722Y635361D01*
X943647Y634643D01*
X941053Y632049D01*
X939880Y632536D01*
Y636350D01*
X935880D01*
Y631850D01*
X934880D01*
Y630850D01*
X929880D01*
Y627350D01*
X934694D01*
X935180Y626177D01*
X932248Y623244D01*
X931530Y622169D01*
X931502Y622030D01*
X910950D01*
Y605030D01*
X950094D01*
X950357Y604637D01*
X966087Y588907D01*
Y484810D01*
X963950D01*
Y475310D01*
X974850D01*
Y484810D01*
X972714D01*
Y590280D01*
X972462Y591548D01*
X971743Y592623D01*
X955996Y608370D01*
X955950Y608600D01*
Y622030D01*
X942065D01*
X941579Y623203D01*
X947363Y628986D01*
X954880D01*
X956148Y629239D01*
X957223Y629957D01*
X957941Y631032D01*
X958194Y632300D01*
Y635850D01*
X960880D01*
Y646850D01*
D02*
G37*
G36*
X921690Y634080D02*
X917940D01*
Y630330D01*
X921690D01*
Y634080D01*
D02*
G37*
G36*
X915940D02*
X912190D01*
Y630330D01*
X915940D01*
Y634080D01*
D02*
G37*
G36*
X813150Y624510D02*
X809150D01*
Y620760D01*
X813150D01*
Y624510D01*
D02*
G37*
G36*
Y618760D02*
X809150D01*
Y615010D01*
X813150D01*
Y618760D01*
D02*
G37*
G36*
X999580Y618268D02*
X997239Y617802D01*
X995254Y616476D01*
X993928Y614491D01*
X993462Y612150D01*
X993928Y609809D01*
X995254Y607824D01*
X997239Y606498D01*
X999580Y606033D01*
X1001921Y606498D01*
X1003906Y607824D01*
X1005232Y609809D01*
X1005697Y612150D01*
X1005232Y614491D01*
X1003906Y616476D01*
X1001921Y617802D01*
X999580Y618268D01*
D02*
G37*
G36*
X266630Y616474D02*
X265362Y616222D01*
X264287Y615503D01*
X263568Y614428D01*
X263316Y613160D01*
Y560103D01*
X261498Y558284D01*
X259864Y557959D01*
X258376Y556964D01*
X257411Y555521D01*
X257266Y555348D01*
X256058Y555078D01*
X244544Y566593D01*
Y613160D01*
X244291Y614428D01*
X243573Y615503D01*
X242498Y616222D01*
X241230Y616474D01*
X239962Y616222D01*
X238887Y615503D01*
X238169Y614428D01*
X237916Y613160D01*
Y565220D01*
X238007Y564766D01*
X236836Y564140D01*
X231844Y569133D01*
Y613160D01*
X231591Y614428D01*
X230873Y615503D01*
X229798Y616222D01*
X228530Y616474D01*
X227262Y616222D01*
X226187Y615503D01*
X225469Y614428D01*
X225216Y613160D01*
Y571562D01*
X223946Y571120D01*
X222736Y571929D01*
X221102Y572254D01*
X219144Y574213D01*
Y613160D01*
X218891Y614428D01*
X218173Y615503D01*
X217098Y616222D01*
X215830Y616474D01*
X214562Y616222D01*
X213487Y615503D01*
X212768Y614428D01*
X212516Y613160D01*
Y572840D01*
X212768Y571572D01*
X213487Y570497D01*
X216416Y567568D01*
X216741Y565934D01*
X217736Y564446D01*
X219224Y563451D01*
X220980Y563102D01*
X222736Y563451D01*
X224224Y564446D01*
X224766Y565257D01*
X225932Y565388D01*
X226292Y565312D01*
X232926Y558678D01*
X233251Y557044D01*
X234246Y555556D01*
X235734Y554561D01*
X237490Y554212D01*
X239246Y554561D01*
X240734Y555556D01*
X241729Y557044D01*
X241927Y558041D01*
X243305Y558459D01*
X255786Y545978D01*
X256111Y544344D01*
X257106Y542856D01*
X258594Y541861D01*
X260350Y541512D01*
X262106Y541861D01*
X263594Y542856D01*
X264589Y544344D01*
X264938Y546100D01*
X264589Y547856D01*
X264169Y548484D01*
X264439Y550191D01*
X264864Y550476D01*
X265859Y551964D01*
X266184Y553598D01*
X268973Y556387D01*
X269691Y557462D01*
X269944Y558730D01*
Y613160D01*
X269691Y614428D01*
X268973Y615503D01*
X267898Y616222D01*
X266630Y616474D01*
D02*
G37*
G36*
X812772Y502202D02*
X809195D01*
Y498840D01*
X812772D01*
Y502202D01*
D02*
G37*
G36*
Y496840D02*
X809195D01*
Y493478D01*
X812772D01*
Y496840D01*
D02*
G37*
G36*
X810716Y485906D02*
X807938D01*
Y483600D01*
X810716D01*
Y485906D01*
D02*
G37*
G36*
Y481600D02*
X807938D01*
Y479294D01*
X810716D01*
Y481600D01*
D02*
G37*
G36*
X252730Y463559D02*
X239082D01*
X238808Y463505D01*
X238530Y463498D01*
X238326Y463409D01*
X238106Y463365D01*
X237875Y463210D01*
X237620Y463098D01*
X237439Y462972D01*
X237300Y462826D01*
X237279Y462812D01*
X236023Y462569D01*
X235780Y462731D01*
X234512Y462984D01*
X207264D01*
X205996Y462731D01*
X205715Y462543D01*
X205687Y462529D01*
X205602Y462501D01*
X204061Y462812D01*
X203234Y463365D01*
X202258Y463559D01*
X184150D01*
X183175Y463365D01*
X182348Y462812D01*
X181795Y461985D01*
X181601Y461010D01*
Y424180D01*
X181795Y423205D01*
X182348Y422378D01*
X184681Y420044D01*
X184993Y419836D01*
X185282Y419599D01*
X185403Y419562D01*
X185508Y419492D01*
X185876Y419418D01*
X186234Y419310D01*
X186360Y419322D01*
X186483Y419297D01*
X186851Y419371D01*
X187223Y419407D01*
X187335Y419467D01*
X187459Y419492D01*
X187770Y419700D01*
X188101Y419876D01*
X189087Y420686D01*
X189309Y420697D01*
X192354Y417652D01*
X192354Y417652D01*
X193601Y416819D01*
X195072Y416526D01*
X195072Y416526D01*
X229626D01*
Y401527D01*
X227845D01*
Y400577D01*
X226595Y400527D01*
X226575Y400527D01*
X222970D01*
Y394902D01*
Y389277D01*
X226575D01*
X226595Y389277D01*
X227845Y389228D01*
Y388278D01*
X229626D01*
Y382650D01*
X225138D01*
X224638Y381650D01*
X217887D01*
Y374650D01*
Y367650D01*
X221936D01*
X222822Y366380D01*
X222778Y366261D01*
X222708Y365819D01*
X222621Y365380D01*
X222631Y365329D01*
X222623Y365278D01*
X222728Y364843D01*
X222815Y364405D01*
X222844Y364362D01*
X222856Y364311D01*
X223119Y363950D01*
X223368Y363578D01*
X225528Y361418D01*
X226355Y360865D01*
X227330Y360671D01*
X258660D01*
Y350710D01*
X269660D01*
Y362710D01*
X267474D01*
Y366650D01*
X277390D01*
Y382650D01*
X277243D01*
Y389510D01*
X282680D01*
Y400824D01*
X283450Y401594D01*
X290070D01*
Y399408D01*
X292756D01*
Y379164D01*
X293009Y377896D01*
X293727Y376821D01*
X296361Y374187D01*
X297436Y373469D01*
X298704Y373216D01*
X302080D01*
Y370530D01*
X312616D01*
X312662Y370483D01*
Y363530D01*
X302080D01*
Y351530D01*
X312662D01*
Y344170D01*
X312915Y342902D01*
X313504Y342020D01*
Y339864D01*
X323060D01*
Y340864D01*
X323338D01*
Y344170D01*
Y347476D01*
X323060D01*
Y348476D01*
X319290D01*
Y371856D01*
X319037Y373124D01*
X318319Y374199D01*
X313645Y378873D01*
X313580Y378917D01*
Y382530D01*
X302080D01*
Y379844D01*
X300077D01*
X299384Y380537D01*
Y399408D01*
X302070D01*
Y410407D01*
X290070D01*
Y408221D01*
X282078D01*
X280810Y407969D01*
X279735Y407251D01*
X277994Y405510D01*
X276397D01*
X276273Y405695D01*
X274749Y407219D01*
X273674Y407937D01*
X272406Y408190D01*
X264169D01*
Y452120D01*
X263975Y453095D01*
X263422Y453922D01*
X254532Y462812D01*
X253706Y463365D01*
X252730Y463559D01*
D02*
G37*
G36*
X220970Y400527D02*
X217345D01*
Y395902D01*
X220970D01*
Y400527D01*
D02*
G37*
G36*
Y393902D02*
X217345D01*
Y389277D01*
X220970D01*
Y393902D01*
D02*
G37*
G36*
X215888Y381650D02*
X209138D01*
Y375650D01*
X215888D01*
Y381650D01*
D02*
G37*
G36*
Y373650D02*
X209138D01*
Y367650D01*
X215888D01*
Y373650D01*
D02*
G37*
G36*
X342080Y362530D02*
X338330D01*
Y358530D01*
X342080D01*
Y362530D01*
D02*
G37*
G36*
X336330D02*
X332580D01*
Y358530D01*
X336330D01*
Y362530D01*
D02*
G37*
G36*
X342080Y356530D02*
X338330D01*
Y352530D01*
X342080D01*
Y356530D01*
D02*
G37*
G36*
X336330D02*
X332580D01*
Y352530D01*
X336330D01*
Y356530D01*
D02*
G37*
G36*
X328116Y347476D02*
X325338D01*
Y345170D01*
X328116D01*
Y347476D01*
D02*
G37*
G36*
Y343170D02*
X325338D01*
Y340864D01*
X328116D01*
Y343170D01*
D02*
G37*
G36*
X278160Y341710D02*
X274660D01*
Y337710D01*
X278160D01*
Y341710D01*
D02*
G37*
G36*
X272660D02*
X269160D01*
Y337710D01*
X272660D01*
Y341710D01*
D02*
G37*
G36*
X278160Y335710D02*
X274660D01*
Y331710D01*
X278160D01*
Y335710D01*
D02*
G37*
G36*
X260160Y342710D02*
X249160D01*
Y330710D01*
X249519D01*
X250520Y330060D01*
Y320060D01*
Y312560D01*
X260020D01*
Y314958D01*
X260407Y315217D01*
X268032Y322842D01*
X269666Y323167D01*
X271154Y324162D01*
X272149Y325650D01*
X272498Y327406D01*
X272149Y329162D01*
X271295Y330440D01*
X271532Y331223D01*
X271854Y331710D01*
X272660D01*
Y335710D01*
X269160D01*
Y332747D01*
X268178Y331941D01*
X267910Y331994D01*
X266154Y331645D01*
X264666Y330650D01*
X263671Y329162D01*
X263346Y327528D01*
X261193Y325376D01*
X260020Y325862D01*
Y330060D01*
X260020D01*
X260160Y330710D01*
X260160Y330710D01*
X260160Y331272D01*
Y342710D01*
D02*
G37*
G36*
X256360Y308010D02*
X252360D01*
Y303260D01*
X256360D01*
Y308010D01*
D02*
G37*
G36*
X250360D02*
X246360D01*
Y303260D01*
X250360D01*
Y308010D01*
D02*
G37*
G36*
X256360Y301260D02*
X252360D01*
Y296510D01*
X256360D01*
Y301260D01*
D02*
G37*
G36*
X250360D02*
X246360D01*
Y296510D01*
X250360D01*
Y301260D01*
D02*
G37*
G36*
X242924Y341900D02*
X241168Y341551D01*
X239680Y340556D01*
X238685Y339068D01*
X238360Y337434D01*
X236517Y335591D01*
X235799Y334516D01*
X235546Y333248D01*
Y309010D01*
X232860D01*
Y295510D01*
X233856D01*
Y292330D01*
X229670D01*
Y291330D01*
X224170D01*
Y277580D01*
Y263830D01*
X229670D01*
Y262830D01*
X244670D01*
Y263830D01*
X250170D01*
Y277580D01*
Y291330D01*
X244670D01*
Y292330D01*
X240484D01*
Y295510D01*
X244860D01*
Y309010D01*
X242174D01*
Y331875D01*
X243046Y332748D01*
X244680Y333073D01*
X246168Y334068D01*
X247163Y335556D01*
X247512Y337312D01*
X247163Y339068D01*
X246168Y340556D01*
X244680Y341551D01*
X242924Y341900D01*
D02*
G37*
G36*
X216670Y291330D02*
X215670D01*
X215400Y291330D01*
X210170D01*
Y277580D01*
Y263830D01*
X215400D01*
X215670Y263830D01*
X216670D01*
X216940Y263830D01*
X222170D01*
Y277580D01*
Y291330D01*
X216940D01*
X216670Y291330D01*
D02*
G37*
G36*
X343870Y270130D02*
X331120D01*
Y264630D01*
X343870D01*
Y270130D01*
D02*
G37*
G36*
X329120D02*
X316370D01*
Y264630D01*
X329120D01*
Y270130D01*
D02*
G37*
%LPD*%
G36*
X202745Y459837D02*
X200787Y457879D01*
X200068Y456804D01*
X199816Y455536D01*
Y443160D01*
X200068Y441892D01*
X200787Y440817D01*
X201862Y440098D01*
X203130Y439846D01*
X204398Y440098D01*
X205473Y440817D01*
X206191Y441892D01*
X206444Y443160D01*
Y454163D01*
X208637Y456356D01*
X231636D01*
Y424214D01*
X196664D01*
X194274Y426604D01*
Y443160D01*
X193981Y444631D01*
X193148Y445878D01*
X191901Y446711D01*
X190430Y447004D01*
X188959Y446711D01*
X187712Y445878D01*
X186879Y444631D01*
X186586Y443160D01*
Y425012D01*
X186586Y425012D01*
X186879Y423541D01*
X187470Y422656D01*
X186483Y421847D01*
X184150Y424180D01*
Y461010D01*
X202258D01*
X202745Y459837D01*
D02*
G37*
G36*
X261620Y452120D02*
Y408190D01*
X253086D01*
X238264Y423013D01*
Y459232D01*
X238163Y459740D01*
X238902Y460884D01*
X239082Y461010D01*
X252730D01*
X261620Y452120D01*
D02*
G37*
G36*
X248180Y397920D02*
Y389510D01*
X252341D01*
Y385572D01*
X252430Y385129D01*
Y384677D01*
X252603Y384259D01*
X252691Y383816D01*
X252942Y383440D01*
X253115Y383023D01*
X253218Y382920D01*
X253046Y382206D01*
X252611Y381650D01*
X249390D01*
Y378494D01*
X241638D01*
Y381650D01*
X237313D01*
Y389277D01*
X238095D01*
Y391091D01*
X239401Y391351D01*
X240648Y392184D01*
X246910Y398446D01*
X248180Y397920D01*
D02*
G37*
G36*
X256890Y367650D02*
X260846D01*
Y363220D01*
X227330D01*
X225170Y365380D01*
X225638Y366650D01*
X226138Y367650D01*
X232888D01*
Y374650D01*
X234888D01*
Y367650D01*
X241638D01*
Y370806D01*
X249390D01*
Y367650D01*
X254890D01*
Y374650D01*
X256890D01*
Y367650D01*
D02*
G37*
%LPC*%
G36*
X454156Y600492D02*
X451850D01*
Y597714D01*
X454156D01*
Y600492D01*
D02*
G37*
G36*
X449850D02*
X447544D01*
Y597714D01*
X449850D01*
Y600492D01*
D02*
G37*
G36*
X419680Y594520D02*
X415680D01*
Y590770D01*
X419680D01*
Y594520D01*
D02*
G37*
G36*
X413680D02*
X409680D01*
Y590770D01*
X413680D01*
Y594520D01*
D02*
G37*
G36*
Y588770D02*
X409680D01*
Y585020D01*
X413680D01*
Y588770D01*
D02*
G37*
G36*
X439680Y595520D02*
X427680D01*
Y584020D01*
X439680D01*
Y595520D01*
D02*
G37*
G36*
X649664Y576110D02*
X643664D01*
Y570610D01*
X649664D01*
Y576110D01*
D02*
G37*
G36*
X635911Y569416D02*
X633605D01*
Y566638D01*
X635911D01*
Y569416D01*
D02*
G37*
G36*
X621796D02*
X619490D01*
Y566638D01*
X621796D01*
Y569416D01*
D02*
G37*
G36*
X631605D02*
X629299D01*
Y566638D01*
X631605D01*
Y569416D01*
D02*
G37*
G36*
X617490D02*
X615184D01*
Y566638D01*
X617490D01*
Y569416D01*
D02*
G37*
G36*
X445950Y474100D02*
X442550D01*
Y470900D01*
X445950D01*
Y474100D01*
D02*
G37*
G36*
Y459897D02*
X442550D01*
Y456697D01*
X445950D01*
Y459897D01*
D02*
G37*
G36*
X456110Y448700D02*
X452710D01*
Y445500D01*
X456110D01*
Y448700D01*
D02*
G37*
G36*
X540802Y447806D02*
X538024D01*
Y445500D01*
X540802D01*
Y447806D01*
D02*
G37*
G36*
X491080Y449995D02*
X471580D01*
Y441940D01*
X470310Y441261D01*
X470310Y441261D01*
Y449700D01*
X459510D01*
Y448700D01*
X458110D01*
Y444500D01*
X457110D01*
Y443500D01*
X452710D01*
Y440300D01*
X451671Y439743D01*
X449630D01*
Y433242D01*
X459130D01*
Y438187D01*
X459510Y439300D01*
X461870Y439300D01*
X462567Y438257D01*
X470925Y429899D01*
X472000Y429181D01*
X473268Y428929D01*
X477130D01*
Y423742D01*
X500130D01*
Y440742D01*
X501115Y441431D01*
X514511D01*
X515896Y440506D01*
X517652Y440157D01*
X519408Y440506D01*
X520896Y441501D01*
X521891Y442989D01*
X522240Y444745D01*
X521891Y446501D01*
X520896Y447989D01*
X519408Y448984D01*
X517652Y449333D01*
X515896Y448984D01*
X514511Y448059D01*
X491080D01*
Y449995D01*
D02*
G37*
G36*
X540802Y443500D02*
X538024D01*
Y441194D01*
X540802D01*
Y443500D01*
D02*
G37*
G36*
X447630Y439743D02*
X438130D01*
Y433242D01*
X447630D01*
Y439743D01*
D02*
G37*
G36*
X459130Y431242D02*
X449630D01*
Y424743D01*
X459130D01*
Y431242D01*
D02*
G37*
G36*
X447630D02*
X438130D01*
Y424743D01*
X447630D01*
Y431242D01*
D02*
G37*
G36*
X499130Y415742D02*
X489630D01*
Y409243D01*
X499130D01*
Y415742D01*
D02*
G37*
G36*
X487630D02*
X478130D01*
Y409243D01*
X487630D01*
Y415742D01*
D02*
G37*
G36*
X456110Y393970D02*
X452710D01*
Y390770D01*
X456110D01*
Y393970D01*
D02*
G37*
G36*
X538830Y339643D02*
X535830D01*
Y336643D01*
X538830D01*
Y339643D01*
D02*
G37*
G36*
Y334643D02*
X535830D01*
Y331643D01*
X538830D01*
Y334643D01*
D02*
G37*
G36*
X540802Y323891D02*
X538024D01*
Y321585D01*
X540802D01*
Y323891D01*
D02*
G37*
G36*
Y319585D02*
X538024D01*
Y317278D01*
X540802D01*
Y319585D01*
D02*
G37*
G36*
X452635Y210985D02*
X444385D01*
Y203735D01*
X452635D01*
Y210985D01*
D02*
G37*
G36*
X442385D02*
X434135D01*
Y203735D01*
X442385D01*
Y210985D01*
D02*
G37*
G36*
X563935Y210985D02*
X557585D01*
Y201485D01*
X563935D01*
Y210985D01*
D02*
G37*
G36*
X452635Y201735D02*
X444385D01*
Y194485D01*
X452635D01*
Y201735D01*
D02*
G37*
G36*
X442385D02*
X434135D01*
Y194485D01*
X442385D01*
Y201735D01*
D02*
G37*
G36*
X563935Y199485D02*
X557585D01*
Y189985D01*
X563935D01*
Y199485D01*
D02*
G37*
G36*
X733556Y305852D02*
X731250D01*
Y303074D01*
X733556D01*
Y305852D01*
D02*
G37*
G36*
X729250D02*
X726944D01*
Y303074D01*
X729250D01*
Y305852D01*
D02*
G37*
G36*
X625606D02*
X623300D01*
Y303074D01*
X625606D01*
Y305852D01*
D02*
G37*
G36*
X621300D02*
X618994D01*
Y303074D01*
X621300D01*
Y305852D01*
D02*
G37*
G36*
X676290Y301880D02*
X670290D01*
Y296380D01*
X676290D01*
Y301880D01*
D02*
G37*
G36*
X807880Y266010D02*
X804130D01*
Y262010D01*
X807880D01*
Y266010D01*
D02*
G37*
G36*
X837380D02*
X833630D01*
Y262010D01*
X837380D01*
Y266010D01*
D02*
G37*
G36*
X802130D02*
X798380D01*
Y262010D01*
X802130D01*
Y266010D01*
D02*
G37*
G36*
X831630D02*
X827880D01*
Y262010D01*
X831630D01*
Y266010D01*
D02*
G37*
G36*
X855476Y263942D02*
X853170D01*
Y261164D01*
X855476D01*
Y263942D01*
D02*
G37*
G36*
X851170D02*
X848864D01*
Y261164D01*
X851170D01*
Y263942D01*
D02*
G37*
G36*
X837380Y260010D02*
X833630D01*
Y256010D01*
X837380D01*
Y260010D01*
D02*
G37*
G36*
X831630D02*
X827880D01*
Y256010D01*
X831630D01*
Y260010D01*
D02*
G37*
G36*
X807880D02*
X804130D01*
Y256010D01*
X807880D01*
Y260010D01*
D02*
G37*
G36*
X802130D02*
X798380D01*
Y256010D01*
X802130D01*
Y260010D01*
D02*
G37*
G36*
X776660Y256200D02*
X773160D01*
Y253450D01*
X776660D01*
Y256200D01*
D02*
G37*
G36*
X771160D02*
X767660D01*
Y253450D01*
X771160D01*
Y256200D01*
D02*
G37*
G36*
X761420D02*
X757920D01*
Y253450D01*
X761420D01*
Y256200D01*
D02*
G37*
G36*
X755920D02*
X752420D01*
Y253450D01*
X755920D01*
Y256200D01*
D02*
G37*
G36*
X746180D02*
X742680D01*
Y253450D01*
X746180D01*
Y256200D01*
D02*
G37*
G36*
X740680D02*
X737180D01*
Y253450D01*
X740680D01*
Y256200D01*
D02*
G37*
G36*
X728710Y249558D02*
Y246308D01*
X731960D01*
Y249558D01*
X728710D01*
D02*
G37*
G36*
X766460Y235960D02*
X760460D01*
Y229210D01*
X766460D01*
Y235960D01*
D02*
G37*
G36*
X758460D02*
X752460D01*
Y229210D01*
X758460D01*
Y235960D01*
D02*
G37*
G36*
X758618Y194170D02*
X755368D01*
Y190670D01*
X758618D01*
Y194170D01*
D02*
G37*
G36*
X869810Y187130D02*
X866310D01*
Y183880D01*
X869810D01*
Y187130D01*
D02*
G37*
G36*
X970825Y201530D02*
X966200D01*
Y197905D01*
X970825D01*
Y201530D01*
D02*
G37*
G36*
X964200D02*
X959575D01*
Y197905D01*
X964200D01*
Y201530D01*
D02*
G37*
G36*
X894355Y188148D02*
X890855D01*
Y184898D01*
X894355D01*
Y188148D01*
D02*
G37*
G36*
X946695Y185635D02*
X942070D01*
Y182010D01*
X946695D01*
Y185635D01*
D02*
G37*
G36*
X940070D02*
X935445D01*
Y182010D01*
X940070D01*
Y185635D01*
D02*
G37*
G36*
X894355Y182899D02*
X890855D01*
Y179649D01*
X894355D01*
Y182899D01*
D02*
G37*
G36*
X990790Y138870D02*
X987790D01*
Y135620D01*
X990790D01*
Y138870D01*
D02*
G37*
G36*
X941550Y133100D02*
X933925D01*
Y124850D01*
X941550D01*
Y133100D01*
D02*
G37*
G36*
X882175Y122850D02*
X874550D01*
Y114600D01*
X882175D01*
Y122850D01*
D02*
G37*
G36*
X841179Y112885D02*
X836618D01*
Y108594D01*
X841179D01*
Y112885D01*
D02*
G37*
G36*
X834618D02*
X830057D01*
Y108594D01*
X834618D01*
Y112885D01*
D02*
G37*
G36*
X821774Y108178D02*
X816243D01*
Y102153D01*
X821774D01*
Y108178D01*
D02*
G37*
G36*
X814242D02*
X808711D01*
Y102153D01*
X814242D01*
Y108178D01*
D02*
G37*
G36*
X800867D02*
X795336D01*
Y102153D01*
X800867D01*
Y108178D01*
D02*
G37*
G36*
X793336D02*
X787805D01*
Y102153D01*
X793336D01*
Y108178D01*
D02*
G37*
G36*
X779961D02*
X774430D01*
Y102153D01*
X779961D01*
Y108178D01*
D02*
G37*
G36*
X772430D02*
X766899D01*
Y102153D01*
X772430D01*
Y108178D01*
D02*
G37*
G36*
X951550Y106100D02*
X942800D01*
Y99100D01*
X951550D01*
Y106100D01*
D02*
G37*
G36*
X940800D02*
X932050D01*
Y99100D01*
X940800D01*
Y106100D01*
D02*
G37*
G36*
X884050D02*
X875300D01*
Y99100D01*
X884050D01*
Y106100D01*
D02*
G37*
G36*
X873300D02*
X864550D01*
Y99100D01*
X873300D01*
Y106100D01*
D02*
G37*
G36*
X1012770Y134014D02*
X1008948Y133638D01*
X1005272Y132523D01*
X1001884Y130712D01*
X998915Y128275D01*
X996478Y125306D01*
X994667Y121918D01*
X993552Y118243D01*
X993176Y114420D01*
X993552Y110597D01*
X994667Y106922D01*
X996478Y103534D01*
X998915Y100565D01*
X1001884Y98128D01*
X1005272Y96317D01*
X1008948Y95202D01*
X1012770Y94825D01*
X1016593Y95202D01*
X1020269Y96317D01*
X1023656Y98128D01*
X1026625Y100565D01*
X1029062Y103534D01*
X1030873Y106922D01*
X1031988Y110597D01*
X1032365Y114420D01*
X1031988Y118243D01*
X1030873Y121918D01*
X1029062Y125306D01*
X1026625Y128275D01*
X1023656Y130712D01*
X1020269Y132523D01*
X1016593Y133638D01*
X1012770Y134014D01*
D02*
G37*
G36*
X271670Y165430D02*
Y165430D01*
X266170D01*
Y151680D01*
Y137930D01*
X271670D01*
Y137930D01*
X272670D01*
Y137930D01*
X278170D01*
Y151680D01*
Y165430D01*
X272670D01*
Y165430D01*
X271670D01*
D02*
G37*
G36*
X715070Y147590D02*
X711320D01*
Y141840D01*
X715070D01*
Y147590D01*
D02*
G37*
G36*
X709320D02*
X705570D01*
Y141840D01*
X709320D01*
Y147590D01*
D02*
G37*
G36*
X716280Y134634D02*
X713470D01*
Y114030D01*
X721694D01*
Y129220D01*
X721282Y131292D01*
X720108Y133048D01*
X718352Y134222D01*
X716280Y134634D01*
D02*
G37*
G36*
X711470D02*
X708660D01*
X706588Y134222D01*
X704832Y133048D01*
X703658Y131292D01*
X703246Y129220D01*
Y114030D01*
X711470D01*
Y134634D01*
D02*
G37*
G36*
X402372Y117606D02*
X399594D01*
Y115300D01*
X402372D01*
Y117606D01*
D02*
G37*
G36*
Y113300D02*
X399594D01*
Y110994D01*
X402372D01*
Y113300D01*
D02*
G37*
G36*
X449135Y111985D02*
X442635D01*
Y106485D01*
X449135D01*
Y111985D01*
D02*
G37*
G36*
X440635D02*
X434135D01*
Y106485D01*
X440635D01*
Y111985D01*
D02*
G37*
G36*
X449135Y104485D02*
X442635D01*
Y98985D01*
X449135D01*
Y104485D01*
D02*
G37*
G36*
X440635D02*
X434135D01*
Y98985D01*
X440635D01*
Y104485D01*
D02*
G37*
%LPD*%
D11*
X753110Y172720D02*
X772889D01*
X774159Y171450D01*
X774700D01*
X750920Y170530D02*
X753110Y172720D01*
X750920Y168890D02*
Y170530D01*
X749670Y167640D02*
X750920Y168890D01*
X749420Y167640D02*
X749670D01*
D12*
X948300Y480060D02*
X949000D01*
X947991D02*
X948300D01*
X947011Y481040D02*
Y484279D01*
Y481040D02*
X947991Y480060D01*
X938082Y493208D02*
X947011Y484279D01*
X933450Y501530D02*
X938082Y496898D01*
Y493208D02*
Y496898D01*
X1037422Y344170D02*
Y376088D01*
Y266532D02*
Y344170D01*
X994072Y660420D02*
X994467D01*
X828605Y661150D02*
X993342D01*
X994072Y660420D01*
X819150Y651695D02*
X828605Y661150D01*
X1029970Y603250D02*
Y628396D01*
X1021080Y637286D02*
X1029970Y628396D01*
X1022350Y595630D02*
X1029970Y603250D01*
X1022350Y384920D02*
Y595630D01*
X949000Y480060D02*
X1021080Y407980D01*
Y384920D02*
Y407980D01*
X1019810Y384920D02*
X1023620Y381110D01*
X1019048D02*
Y384920D01*
X1023620Y381110D02*
X1032400D01*
X1019048D02*
X1022350D01*
X265170Y151680D02*
X279170D01*
X293170D01*
X618490Y559582D02*
X632605D01*
X996618Y160020D02*
X1001594D01*
X1019810Y178236D01*
X996618Y165100D02*
X999490D01*
X1014730Y180340D01*
Y217170D01*
X756920Y266700D02*
X772160D01*
X780720Y275260D01*
X789569D01*
X403860Y138140D02*
Y180026D01*
X402880Y137160D02*
X403860Y138140D01*
X321793Y137160D02*
X402880D01*
X403860Y180026D02*
Y328930D01*
Y180026D02*
X407476Y183642D01*
X760886Y353738D02*
X781666D01*
X737870Y369570D02*
X758782Y348658D01*
X742950Y371674D02*
X760886Y353738D01*
X758782Y348658D02*
X779562D01*
X746128Y471650D02*
X750477D01*
X753943Y466570D02*
X754173Y466800D01*
X737870Y369570D02*
Y463392D01*
X748233Y466570D02*
X753943D01*
X742950Y461287D02*
X748233Y466570D01*
X750477Y471650D02*
X750707Y471880D01*
X737870Y463392D02*
X746128Y471650D01*
X742950Y371674D02*
Y461287D01*
X1019810Y178236D02*
Y219274D01*
X1011972Y227112D02*
X1019810Y219274D01*
X781050Y342900D02*
Y347170D01*
X995130Y158532D02*
X996618Y160020D01*
X989860Y153060D02*
X995130Y158330D01*
Y158532D01*
X986860Y153060D02*
X989860D01*
X779562Y348658D02*
X781050Y347170D01*
X1008380Y223520D02*
X1014730Y217170D01*
X995130Y166588D02*
Y166790D01*
Y166588D02*
X996618Y165100D01*
X986860Y172060D02*
X989860D01*
X995130Y166790D01*
X781666Y353738D02*
X786130Y349274D01*
Y342900D02*
Y349274D01*
X732842Y481382D02*
X743030Y491570D01*
X732842Y374090D02*
Y481382D01*
Y363841D02*
Y374090D01*
X731520Y375412D02*
X732842Y374090D01*
Y363841D02*
X735443Y361240D01*
X636767Y375412D02*
X731520D01*
X735443Y360030D02*
X736443Y359030D01*
Y354530D02*
X736673Y354300D01*
X736443Y354530D02*
Y359030D01*
X735443Y360030D02*
Y361240D01*
X736673Y331543D02*
Y354300D01*
X750127Y314165D02*
X751365Y312928D01*
X745014Y278130D02*
X751365Y284480D01*
Y312928D01*
X745490Y314165D02*
X750127D01*
X743030Y491570D02*
X753943D01*
X754173Y491800D01*
X786384D01*
X547624Y414020D02*
Y414022D01*
X547878Y430276D02*
Y444500D01*
X616673Y471424D02*
Y509300D01*
X461464Y181410D02*
X461518Y181356D01*
Y116332D02*
Y181356D01*
X965200Y214030D02*
X984920D01*
X1037422Y266532D01*
X799624Y483385D02*
Y497840D01*
X793584Y491800D02*
X799624Y497840D01*
X786384Y491800D02*
X793584D01*
X799624Y483385D02*
X800882Y482600D01*
X626673Y365318D02*
X636767Y375412D01*
X744233Y312908D02*
X745490Y314165D01*
X730250Y325120D02*
X736673Y331543D01*
X730620Y278130D02*
X745014D01*
X730250Y312908D02*
X744233D01*
X730250D02*
Y325120D01*
X626673Y354300D02*
Y365318D01*
Y331319D02*
Y354300D01*
X721380Y268890D02*
X730620Y278130D01*
X721380Y268180D02*
Y268890D01*
X719900Y266700D02*
X721380Y268180D01*
X719650Y266700D02*
X719900D01*
X618490Y530860D02*
Y559582D01*
X616673Y529043D02*
X618490Y530860D01*
X616673Y509300D02*
Y529043D01*
X616204Y447040D02*
Y460196D01*
Y470955D02*
X616673Y471424D01*
X616204Y470955D02*
Y483616D01*
X609600Y466800D02*
X610825Y465576D01*
X616204Y460196D02*
Y470955D01*
X610825Y465576D02*
X616204Y470955D01*
X599173Y466800D02*
X609600D01*
X599173D02*
X610825Y465576D01*
X616204Y460196D01*
X547878Y444500D02*
X558800D01*
X599173Y441800D02*
X610964D01*
X547858Y444500D02*
X547878D01*
X610964Y441800D02*
X616204Y447040D01*
X561500Y441800D02*
X599173D01*
X558800Y444500D02*
X561500Y441800D01*
X547858Y414020D02*
X559515D01*
X622300Y326946D02*
X626673Y331319D01*
X622300Y312908D02*
Y326946D01*
X571735Y401800D02*
X599173D01*
X559515Y414020D02*
X571735Y401800D01*
X547748Y430146D02*
X547858Y444500D01*
X547748Y430146D02*
X547878Y430276D01*
X547624Y414022D02*
X547748Y430146D01*
X537210Y419608D02*
X547748Y430146D01*
X537210Y412750D02*
Y419608D01*
X547624Y414020D02*
X547858D01*
X534670Y365111D02*
X537069Y355243D01*
X534670Y410210D02*
X537210Y412750D01*
X534670Y365111D02*
Y410210D01*
X652018Y218440D02*
X672798Y239220D01*
X652018Y127628D02*
Y218440D01*
X620720Y96330D02*
X652018Y127628D01*
X1032400Y381110D02*
X1037422Y376088D01*
X816864Y636778D02*
X819150Y639064D01*
Y651695D01*
X799846Y636778D02*
X816864D01*
X798576Y286004D02*
X910336D01*
X795020Y282448D02*
X798576Y286004D01*
X910336D02*
X914845Y281495D01*
X795020Y276352D02*
Y282448D01*
X789569Y275260D02*
X793928D01*
X795020Y276352D01*
X741680Y266700D02*
X756920D01*
X914845Y213635D02*
Y281495D01*
X728150Y266700D02*
X741680D01*
X718207Y253387D02*
X728150Y263330D01*
Y266700D01*
X964805Y213635D02*
X965200Y214030D01*
X946095Y213635D02*
X964805D01*
X914845D02*
X930470D01*
X946095D01*
X718860Y214660D02*
X721360D01*
X718207Y245300D02*
Y253387D01*
X718017Y245110D02*
X718207Y245300D01*
X707850Y245110D02*
X718017D01*
X707850Y234490D02*
Y241808D01*
Y245110D01*
X672798Y239220D02*
X705262D01*
X707850Y241808D01*
X718860Y214660D02*
Y223480D01*
X716360Y214660D02*
X718860D01*
X707850Y234490D02*
X718860Y223480D01*
X614680Y96330D02*
X620720D01*
X357378Y388112D02*
Y405892D01*
X403860Y328930D02*
Y332800D01*
X371602D02*
X376996Y327406D01*
X402336D02*
X403860Y328930D01*
X376996Y327406D02*
X402336D01*
X368300Y332800D02*
X371602D01*
X367030Y327914D02*
X368300Y332800D01*
X352806Y327914D02*
X367030D01*
X244856Y401828D02*
Y405892D01*
X231692Y420370D02*
X233470Y418592D01*
X237930Y394902D02*
X244856Y401828D01*
X233470Y394902D02*
Y418592D01*
X190430Y425012D02*
X195072Y420370D01*
X190430Y425012D02*
Y443160D01*
X195072Y420370D02*
X231692D01*
X347472Y378206D02*
X357378Y388112D01*
X233888Y374650D02*
X255890D01*
X347472Y333248D02*
X352806Y327914D01*
X347472Y333248D02*
Y378206D01*
X233470Y394902D02*
X237930D01*
X233470Y375068D02*
Y394902D01*
Y375068D02*
X233888Y374650D01*
X500985Y203985D02*
Y207264D01*
X496493Y211756D02*
X500985Y207264D01*
X467360Y110490D02*
X559880D01*
X461518Y116332D02*
X467360Y110490D01*
X461464Y211756D02*
X496493D01*
X594360Y96330D02*
X604520D01*
X614680D01*
X584200D02*
X594360D01*
X574040D02*
X584200D01*
X559880Y110490D02*
X574040Y96330D01*
X407476Y183642D02*
X459232D01*
X461464Y181410D01*
Y211756D01*
X293170Y138176D02*
X296777Y134569D01*
X319202D02*
X321793Y137160D01*
X296777Y134569D02*
X319202D01*
X293170Y138176D02*
Y151680D01*
D21*
X756920Y158637D02*
D03*
X749420D02*
D03*
X756920Y167640D02*
D03*
X749420D02*
D03*
X817150Y631190D02*
D03*
X824650D02*
D03*
X402650Y137160D02*
D03*
X410150D02*
D03*
Y127000D02*
D03*
X402650D02*
D03*
D22*
X614680Y104330D02*
D03*
Y96330D02*
D03*
X718207Y245300D02*
D03*
Y237300D02*
D03*
X574040Y104330D02*
D03*
Y96330D02*
D03*
X584200Y104330D02*
D03*
Y96330D02*
D03*
X594360Y104330D02*
D03*
Y96330D02*
D03*
X604520Y104330D02*
D03*
Y96330D02*
D03*
D35*
X969400Y480060D02*
D03*
X948300D02*
D03*
D36*
X933450Y613530D02*
D03*
Y501530D02*
D03*
D37*
X1023620Y381110D02*
D03*
Y354110D02*
D03*
Y363110D02*
D03*
Y372110D02*
D03*
D38*
X616673Y509300D02*
D03*
X621673D02*
D03*
X626673D02*
D03*
X631673D02*
D03*
X636673D02*
D03*
X641673D02*
D03*
X661673D02*
D03*
X666673D02*
D03*
X671673D02*
D03*
X676673D02*
D03*
X681673D02*
D03*
X686673D02*
D03*
X691673D02*
D03*
X696673D02*
D03*
X701673D02*
D03*
X706673D02*
D03*
X711673D02*
D03*
X716673D02*
D03*
X721673D02*
D03*
X726673D02*
D03*
X731673D02*
D03*
X736673D02*
D03*
Y354300D02*
D03*
X731673D02*
D03*
X726673D02*
D03*
X721673D02*
D03*
X716673D02*
D03*
X711673D02*
D03*
X706673D02*
D03*
X701673D02*
D03*
X696673D02*
D03*
X691673D02*
D03*
X686673D02*
D03*
X681673D02*
D03*
X676673D02*
D03*
X666673D02*
D03*
X661673D02*
D03*
X656673D02*
D03*
X651673D02*
D03*
X646673D02*
D03*
X641673D02*
D03*
X636673D02*
D03*
X631673D02*
D03*
X626673D02*
D03*
X621673D02*
D03*
X671673D02*
D03*
X651673Y509300D02*
D03*
X656673D02*
D03*
X646673D02*
D03*
X616673Y354300D02*
D03*
D39*
X754173Y491800D02*
D03*
Y486800D02*
D03*
Y481800D02*
D03*
Y476800D02*
D03*
X754173Y461800D02*
D03*
X754173Y456800D02*
D03*
Y451800D02*
D03*
Y446800D02*
D03*
X754173Y441800D02*
D03*
X754173Y436800D02*
D03*
Y431800D02*
D03*
Y426800D02*
D03*
Y421800D02*
D03*
Y416800D02*
D03*
Y411800D02*
D03*
Y406800D02*
D03*
Y401800D02*
D03*
Y386800D02*
D03*
Y381800D02*
D03*
Y376800D02*
D03*
Y371800D02*
D03*
X599173Y376800D02*
D03*
Y381800D02*
D03*
Y386800D02*
D03*
Y391800D02*
D03*
Y396800D02*
D03*
Y401800D02*
D03*
Y406800D02*
D03*
Y411800D02*
D03*
Y416800D02*
D03*
Y421800D02*
D03*
Y426800D02*
D03*
Y431800D02*
D03*
Y436800D02*
D03*
Y441800D02*
D03*
Y446800D02*
D03*
Y451800D02*
D03*
Y456800D02*
D03*
Y461800D02*
D03*
Y466800D02*
D03*
Y471800D02*
D03*
Y476800D02*
D03*
Y481800D02*
D03*
Y486800D02*
D03*
Y491800D02*
D03*
X754173Y396800D02*
D03*
Y391800D02*
D03*
X599173Y371800D02*
D03*
X754173Y471800D02*
D03*
Y466800D02*
D03*
D40*
X823650Y619760D02*
D03*
X814150D02*
D03*
X414680Y589770D02*
D03*
X433680Y619270D02*
D03*
X414680D02*
D03*
X433680Y589770D02*
D03*
D41*
X773430Y109178D02*
D03*
Y123190D02*
D03*
X815242Y109178D02*
D03*
Y123190D02*
D03*
X794336Y109178D02*
D03*
Y123190D02*
D03*
D42*
X799624Y497840D02*
D03*
X808195D02*
D03*
D43*
X547858Y383846D02*
D03*
X541802D02*
D03*
X409428Y114300D02*
D03*
X403372D02*
D03*
X324338Y344170D02*
D03*
X318282D02*
D03*
X547858Y444500D02*
D03*
X541802D02*
D03*
X547858Y414020D02*
D03*
X541802D02*
D03*
X800882Y482600D02*
D03*
X806938D02*
D03*
X547858Y320585D02*
D03*
X541802D02*
D03*
D44*
X823900Y643193D02*
D03*
X814400D02*
D03*
D45*
X716360Y214660D02*
D03*
X721360D02*
D03*
Y186660D02*
D03*
X716360D02*
D03*
X736360D02*
D03*
X731360D02*
D03*
X711360D02*
D03*
X706360D02*
D03*
Y214660D02*
D03*
X711360D02*
D03*
X726360Y186660D02*
D03*
X736360Y214660D02*
D03*
X731360D02*
D03*
X726360D02*
D03*
D46*
X797640Y465791D02*
D03*
X810180D02*
D03*
D47*
X233470Y394902D02*
D03*
X221970D02*
D03*
D48*
X549830Y398904D02*
D03*
X539830D02*
D03*
X549830Y335643D02*
D03*
X539830D02*
D03*
D49*
X552591Y355243D02*
D03*
X537069D02*
D03*
D50*
X469900Y460590D02*
D03*
Y471590D02*
D03*
D51*
X921050Y124700D02*
D03*
X914550D02*
D03*
X901550D02*
D03*
X908050D02*
D03*
X895050D02*
D03*
D52*
X883175Y123850D02*
D03*
X932925D02*
D03*
D53*
X874300Y98100D02*
D03*
X941800D02*
D03*
D54*
X896550D02*
D03*
D55*
X923550D02*
D03*
D66*
X741680Y257200D02*
D03*
Y266700D02*
D03*
X756920Y257200D02*
D03*
Y266700D02*
D03*
X772160Y257200D02*
D03*
Y266700D02*
D03*
D67*
X965200Y202530D02*
D03*
Y214030D02*
D03*
X941070Y181010D02*
D03*
Y169510D02*
D03*
D68*
X835618Y126424D02*
D03*
Y113884D02*
D03*
X713441Y303610D02*
D03*
Y316150D02*
D03*
D69*
X852170Y270998D02*
D03*
Y264942D02*
D03*
X450850Y601492D02*
D03*
Y607548D02*
D03*
X622300Y306852D02*
D03*
Y312908D02*
D03*
X730250Y306852D02*
D03*
Y312908D02*
D03*
X632605Y559582D02*
D03*
Y565638D02*
D03*
X618490Y559582D02*
D03*
Y565638D02*
D03*
D70*
X745490Y305595D02*
D03*
Y314165D02*
D03*
D71*
X255270Y325060D02*
D03*
Y317560D02*
D03*
X905510Y643830D02*
D03*
Y636330D02*
D03*
X368300Y332800D02*
D03*
Y340300D02*
D03*
X359297Y340360D02*
D03*
Y332860D02*
D03*
X403860Y332800D02*
D03*
Y340300D02*
D03*
X394857D02*
D03*
Y332800D02*
D03*
D74*
X707850Y245110D02*
D03*
X701850D02*
D03*
D77*
X789569Y275260D02*
D03*
Y265760D02*
D03*
X803130Y280010D02*
D03*
X832630D02*
D03*
X803130Y261010D02*
D03*
X832630D02*
D03*
X337330Y357530D02*
D03*
X307830Y376530D02*
D03*
Y357530D02*
D03*
X337330Y376530D02*
D03*
D96*
X264160Y356710D02*
D03*
X273660Y336710D02*
D03*
X254660D02*
D03*
X398120Y598330D02*
D03*
X388620Y618330D02*
D03*
X379120Y598330D02*
D03*
X368243Y377030D02*
D03*
X377743Y357030D02*
D03*
X358742D02*
D03*
X403860Y377030D02*
D03*
X413360Y357030D02*
D03*
X394360D02*
D03*
D97*
X721360Y200660D02*
D03*
D108*
X934880Y650850D02*
D03*
X954880Y641350D02*
D03*
X934880Y631850D02*
D03*
X316070Y414408D02*
D03*
Y395407D02*
D03*
X296070Y404907D02*
D03*
D115*
X1019580Y612150D02*
D03*
X999580D02*
D03*
D117*
X711360Y200660D02*
D03*
X731360D02*
D03*
X711360Y205660D02*
D03*
X731360D02*
D03*
X711360Y195660D02*
D03*
X731360D02*
D03*
X716360Y205660D02*
D03*
X721360D02*
D03*
Y200660D02*
D03*
X726360D02*
D03*
X716360D02*
D03*
X726360Y205660D02*
D03*
X716360Y195660D02*
D03*
X721360D02*
D03*
X726360D02*
D03*
D119*
X651206Y422993D02*
G03*
X655859Y422993I2326J2326D01*
G01*
X648331Y425868D02*
G03*
X643678Y425868I-2326J-2326D01*
G01*
X643678Y425868D02*
G03*
X643678Y421216I2326J-2326D01*
G01*
X646553Y413688D02*
G03*
X646553Y418340I-2326J2326D01*
G01*
X628875Y392768D02*
G03*
X633528Y392768I2326J2326D01*
G01*
X626137Y395506D02*
G03*
X621484Y395507I-2326J-2326D01*
G01*
X621484Y395506D02*
G03*
X621484Y390854I2326J-2326D01*
G01*
X625636Y382049D02*
G03*
X625636Y386701I-2326J2326D01*
G01*
X620984Y382049D02*
G03*
X625636Y382049I2326J2326D01*
G01*
X613902Y389130D02*
G03*
X609249Y389130I-2326J-2326D01*
G01*
X609249Y389130D02*
G03*
X609249Y384478I2326J-2326D01*
G01*
X614917Y374157D02*
G03*
X614917Y378810I-2326J2326D01*
G01*
X600959Y364851D02*
G03*
X605611Y364851I2326J2326D01*
G01*
X599586Y366224D02*
G03*
X594934Y366224I-2326J-2326D01*
G01*
X594934Y366224D02*
G03*
X594934Y361571I2326J-2326D01*
G01*
X604520Y347332D02*
G03*
X604520Y351985I-2326J2326D01*
G01*
X599867Y347332D02*
G03*
X604520Y347332I2326J2326D01*
G01*
X578345Y368854D02*
G03*
X573693Y368854I-2326J-2326D01*
G01*
X573693Y368854D02*
G03*
X573693Y364201I2326J-2326D01*
G01*
X587000Y346240D02*
G03*
X587000Y350893I-2326J2326D01*
G01*
X571327Y331930D02*
G03*
X573654Y332894I0J3290D01*
G01*
X556882Y331930D02*
G03*
X553592Y328640I0J-3290D01*
G01*
Y328640D02*
G03*
X556882Y325350I3290J0D01*
G01*
X562864Y322060D02*
G03*
X559574Y325350I-3290J0D01*
G01*
X947450Y613530D02*
X952700Y608280D01*
X933450Y613530D02*
X947450D01*
X952700Y606980D02*
Y608280D01*
Y606980D02*
X969400Y590280D01*
X934591Y614671D02*
Y620901D01*
X933450Y613530D02*
X934591Y614671D01*
Y620901D02*
X945990Y632300D01*
X954880D01*
X1010920Y354330D02*
X1023400D01*
X1003490D02*
X1010920D01*
Y363110D02*
X1023620D01*
X1004870D02*
X1010920D01*
Y372110D02*
X1023620D01*
X1006030D02*
X1010920D01*
X989060Y658130D02*
X998220Y648970D01*
X838087Y658130D02*
X989060D01*
X823900Y643942D02*
X838087Y658130D01*
X312674Y284734D02*
X319278Y291338D01*
X342622Y207630D02*
X346246Y204006D01*
X348829Y221630D02*
X349365Y221095D01*
X265170Y277580D02*
Y292608D01*
X307170Y284734D02*
X312674D01*
X237170Y151680D02*
Y235524D01*
X307170Y277580D02*
Y284734D01*
X330120Y207630D02*
X342622D01*
X303778Y331216D02*
X319278D01*
X330120Y221630D02*
X348829D01*
X223170Y228504D02*
X241808Y247142D01*
X293170Y247904D02*
X298250Y242824D01*
X279170Y277580D02*
Y294616D01*
X330120Y249630D02*
X361390D01*
X265170Y292608D02*
X303778Y331216D01*
X293170Y247904D02*
Y277580D01*
X298250Y242824D02*
X367792D01*
X223170Y151680D02*
Y228504D01*
X637032Y632968D02*
X665634Y604366D01*
X655064Y584200D02*
X663134Y576130D01*
X659384Y558038D02*
Y565404D01*
X656956Y555610D02*
X659384Y558038D01*
X650664Y555610D02*
X656956D01*
X645668Y406908D02*
X704173Y465413D01*
X655859Y422993D02*
X666343Y433477D01*
X648331Y425868D02*
X651206Y422993D01*
X643678Y425868D02*
X643678Y425868D01*
X643678Y421216D02*
X646553Y418340D01*
X646023Y413157D02*
X646553Y413688D01*
X666343Y433477D02*
X701673Y468808D01*
X639515Y406650D02*
X646023Y413157D01*
X639046Y406181D02*
X639515Y406650D01*
X639046Y398286D02*
Y406181D01*
X633528Y392768D02*
X639046Y398286D01*
X626137Y395507D02*
X628875Y392768D01*
X626137Y395506D02*
X626137Y395507D01*
X621484Y395506D02*
X621484Y395507D01*
X621484Y390854D02*
X621484Y390854D01*
X625636Y386701D01*
X625636Y386701D02*
X625636Y386701D01*
X625636Y382049D02*
X625636Y382049D01*
X620984Y382049D02*
X620984Y382049D01*
X613902Y389130D02*
X620984Y382049D01*
X613902Y389130D02*
X613902Y389130D01*
X609249Y389130D02*
X609249Y389130D01*
X609249Y384478D02*
X609249Y384478D01*
X614917Y378810D01*
X614917Y378810D02*
X614917Y378810D01*
X605611Y364851D02*
X614917Y374157D01*
X599586Y366224D02*
X600959Y364851D01*
X594934Y366224D02*
X594934Y366224D01*
X594934Y361571D02*
X604520Y351985D01*
X604520Y347332D02*
X604520Y347332D01*
X578345Y368854D02*
X599867Y347332D01*
X573693Y368854D02*
X573693Y368854D01*
X573693Y364201D02*
X587000Y350893D01*
X587000Y350893D02*
X587000Y350893D01*
X586470Y345710D02*
X587000Y346240D01*
X581120Y340360D02*
X586470Y345710D01*
X573654Y332894D02*
X581120Y340360D01*
X556882Y331930D02*
X571327D01*
X553592Y328640D02*
Y328640D01*
X556882Y325350D02*
X559574D01*
X562864Y321310D02*
Y322060D01*
Y314706D02*
Y321310D01*
X704173Y465413D02*
Y476200D01*
X716673Y488700D01*
X786290Y260350D02*
X787168Y261229D01*
Y263360D02*
X800125Y276316D01*
X782320Y260350D02*
X786290D01*
X787168Y261229D02*
Y263360D01*
X822158Y506690D02*
X897636Y582168D01*
X822158Y410191D02*
Y506690D01*
X805517Y393550D02*
X822158Y410191D01*
X760302Y393550D02*
X805517D01*
X759423Y392671D02*
X760302Y393550D01*
X758673Y391800D02*
X759423Y392550D01*
X754173Y391800D02*
X758673D01*
X759423Y392550D02*
Y392671D01*
X819658Y411226D02*
Y512826D01*
X754173Y396800D02*
X805232D01*
X819658Y411226D01*
X788924Y410972D02*
Y436640D01*
X770382Y461800D02*
X814098Y418084D01*
X754173Y461800D02*
X770382D01*
X728572Y381000D02*
X728762Y381190D01*
Y411698D01*
X699770Y440690D02*
X728762Y411698D01*
X754173Y371800D02*
X874070D01*
X891540Y354330D01*
X694721Y368808D02*
X726634D01*
X709173Y474129D02*
X726673Y491629D01*
X706673Y459550D02*
Y475165D01*
X613423Y361455D02*
X709173Y457205D01*
X721673Y490165D02*
Y509300D01*
X716673Y488700D02*
Y509300D01*
X713740Y466090D02*
Y475161D01*
X609346Y362223D02*
X706673Y459550D01*
X709173Y457205D02*
Y474129D01*
X726673Y491629D02*
Y509300D01*
X706673Y475165D02*
X721673Y490165D01*
X713740Y475161D02*
X736673Y498094D01*
X613423Y300783D02*
Y361455D01*
X701673Y468808D02*
Y509300D01*
X394360Y340910D02*
X394970Y340300D01*
X669290Y323342D02*
Y328930D01*
X800125Y276316D02*
X803130D01*
X805631Y277115D02*
Y280010D01*
Y277115D02*
X832630D01*
X469593Y460897D02*
X469705Y461010D01*
X485403D01*
X574040Y101854D02*
X577596D01*
X264160Y356710D02*
Y374650D01*
X315976Y344170D02*
Y371856D01*
X923685Y195329D02*
Y199672D01*
X754173Y376800D02*
X872606D01*
X891540Y354330D02*
X938530D01*
X819658Y512826D02*
X897128Y590296D01*
X777806Y180652D02*
X782320Y185166D01*
X773293Y176139D02*
X777806Y180652D01*
X771870Y187420D02*
X777806Y181483D01*
X771620Y187420D02*
X771870D01*
X769620Y189420D02*
X771620Y187420D01*
X769620Y189420D02*
Y189670D01*
X777806Y180652D02*
Y181483D01*
X782320Y185166D02*
Y204470D01*
X775580Y211210D02*
X782320Y204470D01*
X759460Y211210D02*
X775580D01*
X759460Y210460D02*
Y211210D01*
X716673Y340614D02*
Y354300D01*
X255270Y317560D02*
X258064D01*
X267910Y327406D01*
X254660Y336710D02*
X255270Y336100D01*
Y325060D02*
Y336100D01*
X403860Y340300D02*
Y377030D01*
X394857Y340300D02*
X394970D01*
X394360Y340910D02*
Y357030D01*
X368243Y340358D02*
Y377030D01*
Y340358D02*
X368300Y340300D01*
X358742Y340915D02*
Y357030D01*
Y340915D02*
X359297Y340360D01*
X669290Y328930D02*
X671673Y331313D01*
Y354300D01*
X669290Y316880D02*
Y323342D01*
X667766Y324866D02*
X669290Y323342D01*
X413360Y322834D02*
Y357030D01*
X372110Y389890D02*
X386080Y375920D01*
Y341827D02*
Y375920D01*
X372110Y389890D02*
Y414020D01*
X394857Y332800D02*
Y333050D01*
X386080Y341827D02*
X394857Y333050D01*
X241230Y565220D02*
X260350Y546100D01*
X241230Y565220D02*
Y613160D01*
X650664Y543984D02*
Y555610D01*
X646673Y539993D02*
X650664Y543984D01*
X646673Y509300D02*
Y539993D01*
X377743Y357030D02*
Y375711D01*
X350520Y373380D02*
X365760Y388620D01*
Y414020D01*
X350520Y341638D02*
Y373380D01*
X359297Y332860D02*
Y332860D01*
X350520Y341638D02*
X359297Y332860D01*
X261620Y553720D02*
X266630Y558730D01*
Y613160D01*
X810514Y631190D02*
X817150D01*
X589280Y381800D02*
X599173D01*
X584708Y371348D02*
Y377228D01*
X589280Y381800D01*
X582300Y391800D02*
X599173D01*
X548330Y383846D02*
X549830Y398904D01*
X562287Y371787D02*
X582300Y391800D01*
X549080Y371787D02*
X562287D01*
X549080D02*
Y382790D01*
X547858Y383846D02*
X548024D01*
X548330D01*
X548024D02*
X549080Y382790D01*
X584147Y386800D02*
X599173D01*
X552591Y355243D02*
X584147Y386800D01*
X549797Y364490D02*
X552591Y361696D01*
Y338404D02*
Y355243D01*
X549830Y335643D02*
X552591Y338404D01*
Y355243D02*
Y361696D01*
X548330Y320585D02*
X549830Y335643D01*
X540580Y368486D02*
X544576Y364490D01*
X549797D01*
X540580Y368486D02*
Y371787D01*
X547858Y320585D02*
X548330D01*
X976630Y127120D02*
X986790D01*
X976630Y118110D02*
Y127120D01*
X670483Y365506D02*
X679196D01*
X666673Y354300D02*
Y361696D01*
X670483Y365506D01*
X914550Y115824D02*
X917344Y113030D01*
X927862D01*
X914550Y115824D02*
Y124700D01*
X414020Y543560D02*
X425010D01*
X400050Y529590D02*
X414020Y543560D01*
X304730Y549980D02*
X312420Y542290D01*
X304730Y549980D02*
Y613160D01*
X393700Y506730D02*
X425010D01*
X317430Y544900D02*
Y613160D01*
Y544900D02*
X323850Y538480D01*
X416360Y554990D02*
X425010D01*
X370480Y509110D02*
X416360Y554990D01*
X352830Y509110D02*
X370480D01*
X388620Y516890D02*
X425010D01*
X368140Y496410D02*
X388620Y516890D01*
X352830Y496410D02*
X368140D01*
X408783Y564992D02*
X425010D01*
X406340Y562550D02*
X408783Y564992D01*
X215830Y572840D02*
X220980Y567690D01*
X215830Y572840D02*
Y613160D01*
X410210Y527050D02*
X425010D01*
X228530Y567760D02*
Y613160D01*
Y567760D02*
X237490Y558800D01*
X671673Y458978D02*
Y509300D01*
X754173Y476800D02*
X765810D01*
X736673Y498094D02*
Y509300D01*
X398780Y610870D02*
X422910D01*
X392430Y574660D02*
Y604520D01*
X398780Y610870D01*
X382270Y564500D02*
X392430Y574660D01*
X370990Y553720D02*
X381770Y564500D01*
X382270D01*
X363555Y553660D02*
X370990Y553720D01*
X334800Y546890D02*
X341570Y553660D01*
X363555D01*
X334800Y540382D02*
Y546890D01*
X311180Y516762D02*
X334800Y540382D01*
X311180Y432435D02*
X316070Y427545D01*
X311180Y432435D02*
Y516762D01*
X316070Y414408D02*
Y427545D01*
X739735Y186660D02*
X741035Y187960D01*
X749300D01*
X736360Y186660D02*
X739735D01*
X686673Y260287D02*
X701850Y245110D01*
X681990D02*
X701850D01*
X686673Y260287D02*
Y354300D01*
X832630Y277115D02*
Y280010D01*
X847750D01*
X803130D02*
X805631D01*
X803130Y276316D02*
Y280010D01*
X847750D02*
X852170Y275590D01*
Y270998D02*
Y275590D01*
X599173Y426800D02*
X610108D01*
X856810Y172878D02*
Y182880D01*
X866060Y161875D02*
X886471D01*
X865310Y162625D02*
Y172878D01*
X886471Y161875D02*
X886905Y162309D01*
X865310Y162625D02*
X866060Y161875D01*
X759618Y181170D02*
X769620D01*
X734500D02*
X759618D01*
X731360Y184310D02*
Y186660D01*
Y184310D02*
X734500Y181170D01*
X379120Y581650D02*
Y598330D01*
Y581650D02*
X382270Y578500D01*
X335068Y395407D02*
X335900Y396240D01*
X316070Y395407D02*
X335068D01*
X922710Y650850D02*
X934880D01*
X916940Y645080D02*
X922710Y650850D01*
X915690Y643830D02*
X916940Y645080D01*
X905510Y643830D02*
X915690D01*
X706360Y186660D02*
X711360D01*
X674370Y190160D02*
X702860D01*
X706360Y186660D01*
X674370Y211160D02*
X702860D01*
X706360Y214660D02*
X711360D01*
X702860Y211160D02*
X706360Y214660D01*
X954880Y632300D02*
Y641350D01*
X969400Y480060D02*
Y590280D01*
X1023400Y354330D02*
X1023620Y354110D01*
X1003490Y364490D02*
X1004870Y363110D01*
X1003490Y374650D02*
X1006030Y372110D01*
X470995Y396240D02*
Y404035D01*
X477080Y397950D01*
X466787Y408242D02*
X470995Y404035D01*
X477080Y394970D02*
Y397950D01*
X469725Y394970D02*
X470995Y396240D01*
X448630Y408242D02*
X466787D01*
X464910Y394970D02*
X469725D01*
X477080Y434714D02*
X479552Y432243D01*
X488630D01*
X477080Y434714D02*
Y444745D01*
X464910Y440601D02*
Y444500D01*
X473268Y432243D02*
X479552D01*
X464910Y440601D02*
X473268Y432243D01*
X783934Y465791D02*
X797640D01*
X767925Y481800D02*
X783934Y465791D01*
X754173Y481800D02*
X767925D01*
X726673Y339323D02*
Y354300D01*
X713441Y326091D02*
X726673Y339323D01*
X713441Y316150D02*
Y326091D01*
X462333Y460590D02*
X469900D01*
X454750Y460897D02*
X462026D01*
X469593D01*
X462026D02*
X462333Y460590D01*
X470320Y471170D02*
X485403D01*
X469900Y471590D02*
X470320Y471170D01*
X468210Y469900D02*
X469900Y471590D01*
X454750Y469900D02*
X468210D01*
X430775Y142485D02*
X441635D01*
X410150Y137160D02*
X425450D01*
X430775Y142485D01*
X410150Y127000D02*
Y137160D01*
Y115022D02*
Y127000D01*
X409428Y114300D02*
X410150Y115022D01*
X824650Y620760D02*
Y631190D01*
X823900Y643193D02*
Y643942D01*
Y631940D02*
Y643193D01*
Y631940D02*
X824650Y631190D01*
X823650Y619760D02*
X824650Y620760D01*
X814150Y643443D02*
Y656695D01*
Y643443D02*
X814400Y643193D01*
X726360Y185103D02*
X735325Y176139D01*
X773293D01*
X748910Y211210D02*
X759460D01*
X745460Y214660D02*
X748910Y211210D01*
X736360Y214660D02*
X745460D01*
X726360Y185103D02*
Y186660D01*
X754173Y401800D02*
X768096D01*
X398780Y127000D02*
X402650D01*
X393700Y132080D02*
X398780Y127000D01*
X587248Y314960D02*
X609346Y337058D01*
Y362223D01*
X557530Y143510D02*
X584200Y116840D01*
X505186Y143510D02*
X557530D01*
X584200Y104330D02*
Y116840D01*
X478985Y178425D02*
Y203985D01*
Y169711D02*
X505186Y143510D01*
X478985Y169711D02*
Y172329D01*
Y178425D01*
X579120Y100330D02*
X618680D01*
Y295526D01*
X613423Y300783D02*
X618680Y295526D01*
X574040Y101854D02*
Y104330D01*
X577596Y101854D02*
X579120Y100330D01*
X467985Y178425D02*
Y203985D01*
X504190Y140970D02*
X537400D01*
X467985Y177175D02*
X504190Y140970D01*
X537400D02*
X574040Y104330D01*
X467985Y177175D02*
Y178425D01*
X754173Y446800D02*
X778764D01*
X788924Y436640D01*
X544485Y185765D02*
Y203985D01*
X614680Y104330D02*
Y115570D01*
X554990Y175260D02*
X614680Y115570D01*
X544485Y185765D02*
X554990Y175260D01*
X774098Y441800D02*
X783590Y432308D01*
X754173Y441800D02*
X774098D01*
X604520Y104330D02*
Y116840D01*
X536956Y184404D02*
X604520Y116840D01*
X533985Y178425D02*
Y203985D01*
X594360Y104330D02*
Y116840D01*
X565190Y146010D02*
X594360Y116840D01*
X506221Y146010D02*
X565190D01*
X489985Y178425D02*
Y203985D01*
Y162246D02*
X506221Y146010D01*
X489985Y162246D02*
Y178425D01*
X576834Y315214D02*
X594614Y332994D01*
X511985Y178425D02*
Y203985D01*
X593083Y453390D02*
X594673Y451800D01*
X549910Y453390D02*
X593083D01*
X594673Y451800D02*
X599173D01*
X493903Y461010D02*
X542290D01*
X549910Y453390D01*
X550036Y456800D02*
X599173D01*
X535666Y471170D02*
X550036Y456800D01*
X493903Y471170D02*
X535666D01*
X971550Y330390D02*
X995490Y354330D01*
X982980Y374650D02*
X995490D01*
X754173Y381800D02*
X875500D01*
X877570Y379730D01*
X971550Y364490D02*
X995490D01*
X872606Y376800D02*
X884916Y364490D01*
X910590D01*
X580644Y431800D02*
X599173D01*
X575056Y426212D02*
X580644Y431800D01*
X485580Y394970D02*
X511048D01*
X531114Y415036D01*
X573024Y436800D02*
X599173D01*
X559896Y423672D02*
X573024Y436800D01*
X485580Y444745D02*
X517652D01*
X719200Y236307D02*
X726360Y229147D01*
Y214660D02*
Y229147D01*
X718207Y237300D02*
X719200Y236307D01*
X727710D01*
X583400Y406800D02*
X599173D01*
X579120Y411080D02*
X583400Y406800D01*
X279330Y626040D02*
X288290Y635000D01*
X511810D01*
X279330Y613160D02*
Y626040D01*
X511810Y635000D02*
X579120Y567690D01*
X605485Y584200D02*
X655064D01*
X433510Y554990D02*
Y564992D01*
Y567758D01*
Y543560D02*
Y554990D01*
X663134Y533594D02*
Y576130D01*
X651673Y522133D02*
X663134Y533594D01*
X564845Y543560D02*
X605485Y584200D01*
X651673Y509300D02*
Y522133D01*
X433510Y543560D02*
X564845D01*
X420878Y580390D02*
X433510Y567758D01*
X665634Y526106D02*
Y604366D01*
X656673Y517144D02*
X665634Y526106D01*
X656673Y509300D02*
Y517144D01*
X433510Y535364D02*
X433578Y535432D01*
X433510Y516890D02*
Y527050D01*
Y535364D01*
Y506730D02*
Y516890D01*
X282078Y404907D02*
X296070D01*
Y379164D02*
X298704Y376530D01*
X296070Y379164D02*
Y404907D01*
X274680Y397510D02*
X282078Y404907D01*
X273930Y397510D02*
Y403352D01*
Y397510D02*
X274680D01*
X273930Y378690D02*
Y397510D01*
X311302Y376530D02*
X315976Y371856D01*
Y344170D02*
X318282D01*
X298704Y376530D02*
X307830D01*
X311302D01*
X234950Y421640D02*
Y459232D01*
X234512Y459670D02*
X234950Y459232D01*
X251714Y404876D02*
X272406D01*
X234950Y421640D02*
X251714Y404876D01*
X207264Y459670D02*
X234512D01*
X203130Y455536D02*
X207264Y459670D01*
X203130Y443160D02*
Y455536D01*
X272406Y404876D02*
X273930Y403352D01*
X269890Y374650D02*
X273930Y378690D01*
X264160Y374650D02*
X269890D01*
X433680Y619270D02*
Y624230D01*
Y619270D02*
X446260D01*
X392430Y627380D02*
X430530D01*
X433680Y624230D01*
X450850Y607548D02*
Y614680D01*
X446260Y619270D02*
X450850Y614680D01*
X388620Y623570D02*
X392430Y627380D01*
X388620Y618330D02*
Y623570D01*
X365600Y618330D02*
X388620D01*
X360430Y613160D02*
X365600Y618330D01*
X342830Y613160D02*
X360430D01*
X405080Y605790D02*
X429260D01*
X398120Y598830D02*
X405080Y605790D01*
X398120Y598330D02*
Y598830D01*
Y565760D02*
Y598330D01*
X373380Y541020D02*
X398120Y565760D01*
X363555Y540960D02*
X373380Y541020D01*
X341570Y540960D02*
X363555D01*
X323850Y422790D02*
X349900Y396740D01*
Y396240D02*
Y396740D01*
X323850Y523240D02*
X341570Y540960D01*
X323850Y422790D02*
Y523240D01*
X591124Y411800D02*
X599173D01*
X590296Y410972D02*
X591124Y411800D01*
X588170Y421800D02*
X599173D01*
X586546Y420176D02*
X588170Y421800D01*
X646673Y344424D02*
X652018Y339079D01*
Y312928D02*
Y339079D01*
X646673Y344424D02*
Y354300D01*
X635762Y308102D02*
X647192D01*
X652018Y312928D01*
X641673Y354300D02*
Y364998D01*
X599173Y416800D02*
X610108D01*
X238860Y333248D02*
X242924Y337312D01*
X237170Y300570D02*
X238860Y302260D01*
Y333248D01*
X237170Y277580D02*
Y300570D01*
X631673Y319278D02*
Y354300D01*
X636673Y338836D02*
Y354300D01*
X923290Y180830D02*
X946095Y203635D01*
X923290Y166370D02*
Y180830D01*
X919229Y162309D02*
X923290Y166370D01*
X919229Y162309D02*
X925066D01*
X912305D02*
X919229D01*
X925066D02*
X927862Y159512D01*
X702056Y294894D02*
Y295043D01*
X696673Y301770D02*
Y354300D01*
Y301770D02*
X699125Y299318D01*
Y297974D02*
X702056Y295043D01*
X699125Y297974D02*
Y299318D01*
X707136Y296926D02*
X747014D01*
X700024Y304038D02*
X707136Y296926D01*
X875538Y187960D02*
X891213Y203635D01*
X914845D01*
X875538Y173738D02*
X881888Y167388D01*
X886905D01*
X875538Y173738D02*
Y187960D01*
X700024Y325628D02*
X706673Y332277D01*
Y354300D01*
X700024Y304038D02*
Y325628D01*
X903855Y183899D02*
X909572D01*
X912305Y172468D02*
Y181165D01*
X909572Y183899D02*
X912305Y181165D01*
X903855Y183899D02*
Y193679D01*
X691673Y365760D02*
X694721Y368808D01*
X691673Y354300D02*
Y365760D01*
X926508Y199672D02*
X930470Y203635D01*
X923572Y199672D02*
X923685D01*
X926508D01*
X923685Y188976D02*
Y195329D01*
X919229Y167388D02*
Y195329D01*
X923685D01*
X703959Y363982D02*
X722884D01*
X701673Y354300D02*
Y361696D01*
X703959Y363982D01*
X912305Y167388D02*
X919229D01*
X883076Y636330D02*
X905510D01*
X731673Y564033D02*
X761492Y593852D01*
X731673Y509300D02*
Y564033D01*
X762762Y167640D02*
X764032Y166370D01*
X756920Y167640D02*
X762762D01*
X756920Y158637D02*
Y167640D01*
X661673Y308359D02*
Y354300D01*
X660146Y306832D02*
X661673Y308359D01*
D120*
X963860Y153060D02*
D03*
Y162560D02*
D03*
Y172060D02*
D03*
X986860D02*
D03*
Y162560D02*
D03*
Y153060D02*
D03*
D121*
X669290Y302880D02*
D03*
Y316880D02*
D03*
X382270Y578500D02*
D03*
Y564500D02*
D03*
X650664Y555610D02*
D03*
Y569610D02*
D03*
D122*
X251360Y302260D02*
D03*
X238860D02*
D03*
D123*
X865310Y172878D02*
D03*
X856810D02*
D03*
D124*
X723070Y167640D02*
D03*
X714570D02*
D03*
X903855Y183899D02*
D03*
X895355D02*
D03*
X865310Y182880D02*
D03*
X856810D02*
D03*
X425010Y564992D02*
D03*
X433510D02*
D03*
X425010Y554990D02*
D03*
X433510D02*
D03*
X425010Y543560D02*
D03*
X433510D02*
D03*
X425010Y527050D02*
D03*
X433510D02*
D03*
X425010Y516890D02*
D03*
X433510D02*
D03*
X425010Y506730D02*
D03*
X433510D02*
D03*
X728150Y266700D02*
D03*
X719650D02*
D03*
X493903Y471170D02*
D03*
X485403D02*
D03*
X493903Y461010D02*
D03*
X485403D02*
D03*
X540580Y371787D02*
D03*
X549080D02*
D03*
X485580Y444745D02*
D03*
X477080D02*
D03*
X485580Y394970D02*
D03*
X477080D02*
D03*
D125*
X727710Y245308D02*
D03*
Y236307D02*
D03*
D126*
X916940Y645080D02*
D03*
Y635080D02*
D03*
X946095Y203635D02*
D03*
Y213635D02*
D03*
X930470Y203635D02*
D03*
Y213635D02*
D03*
X914845Y203635D02*
D03*
Y213635D02*
D03*
D127*
X986790Y134620D02*
D03*
Y127120D02*
D03*
X976630D02*
D03*
Y134620D02*
D03*
D128*
X476635Y95735D02*
D03*
X536335D02*
D03*
D129*
X522985Y203985D02*
D03*
X511985D02*
D03*
X489985D02*
D03*
X533985D02*
D03*
X467985D02*
D03*
X478985D02*
D03*
X500985D02*
D03*
D130*
X441635Y105485D02*
D03*
Y142485D02*
D03*
D131*
X443385Y202735D02*
D03*
D132*
X556585Y200485D02*
D03*
D133*
X544485Y203985D02*
D03*
D134*
X886905Y157228D02*
D03*
X912305Y167388D02*
D03*
Y172468D02*
D03*
X886905Y167388D02*
D03*
X912305Y162309D02*
D03*
X886905Y172468D02*
D03*
Y162309D02*
D03*
X912305Y157228D02*
D03*
D135*
X899605Y164848D02*
D03*
D136*
X330120Y221630D02*
D03*
Y207630D02*
D03*
Y165630D02*
D03*
Y179630D02*
D03*
Y193630D02*
D03*
Y235630D02*
D03*
Y263630D02*
D03*
Y249630D02*
D03*
D137*
X251170Y151680D02*
D03*
X209170D02*
D03*
X265170Y277580D02*
D03*
X307170D02*
D03*
X237170D02*
D03*
X279170D02*
D03*
X293170D02*
D03*
X237170Y151680D02*
D03*
X223170D02*
D03*
X307170D02*
D03*
X251170Y277580D02*
D03*
X223170D02*
D03*
X209170D02*
D03*
X265170Y151680D02*
D03*
X279170D02*
D03*
X293170D02*
D03*
D138*
X273930Y397510D02*
D03*
X256930D02*
D03*
X233888Y374650D02*
D03*
X216888D02*
D03*
D139*
X727320Y148590D02*
D03*
X710320D02*
D03*
D140*
X457110Y394970D02*
D03*
X464910D02*
D03*
X454750Y469900D02*
D03*
X446950D02*
D03*
X454750Y460897D02*
D03*
X446950D02*
D03*
X464910Y444500D02*
D03*
X457110D02*
D03*
D141*
X734060Y112531D02*
D03*
X712470Y113030D02*
D03*
D142*
X448630Y408242D02*
D03*
X488630Y432243D02*
D03*
Y408242D02*
D03*
X448630Y432243D02*
D03*
D143*
X759460Y228210D02*
D03*
Y211210D02*
D03*
D144*
X769620Y181170D02*
D03*
Y189670D02*
D03*
X759618Y181170D02*
D03*
Y189670D02*
D03*
X753110Y112590D02*
D03*
Y121090D02*
D03*
D145*
X856060Y161875D02*
D03*
X866060D02*
D03*
X824150Y656695D02*
D03*
X814150D02*
D03*
D146*
X1003490Y354330D02*
D03*
X995490D02*
D03*
X1003490Y364490D02*
D03*
X995490D02*
D03*
X1003490Y374650D02*
D03*
X995490D02*
D03*
D147*
X255890D02*
D03*
X269890D02*
D03*
X349900Y396240D02*
D03*
X335900D02*
D03*
D148*
X754380Y91420D02*
X756282D01*
X773430Y108568D02*
Y109178D01*
X756282Y91420D02*
X763250Y98387D01*
X773430Y108568D01*
X763250Y98387D02*
Y105430D01*
X760730Y107950D02*
X763250Y105430D01*
X753110Y97790D02*
Y112590D01*
X307170Y141478D02*
X312420D01*
X314678Y261338D02*
X327828D01*
X248630Y261620D02*
X251170Y264160D01*
X312420Y141478D02*
X344932D01*
X209170Y277580D02*
X223170D01*
X327828Y261338D02*
X330120Y263630D01*
X223170Y264002D02*
X225552Y261620D01*
X307170Y141478D02*
Y151680D01*
X312420Y141478D02*
X314960Y138938D01*
X223170Y264002D02*
Y277580D01*
X302260Y248920D02*
X314678Y261338D01*
X225552Y261620D02*
X248630D01*
X251170Y264160D02*
Y277580D01*
X650664Y569610D02*
Y577596D01*
X632605Y565638D02*
X636577Y569610D01*
X650664D01*
X618490Y565638D02*
Y565658D01*
X632605Y565638D02*
X637540Y564114D01*
X618490Y565638D02*
X632605D01*
X801800Y259510D02*
X801880D01*
X793830Y251540D02*
X801800Y259510D01*
X778570Y251540D02*
X793830D01*
X756920Y257200D02*
X772910D01*
X801880Y259510D02*
X803130Y260760D01*
X772910Y257200D02*
X778570Y251540D01*
X803130Y260760D02*
Y261010D01*
X444117Y470600D02*
X446250D01*
X446950Y469900D01*
X443707Y471010D02*
X444117Y470600D01*
X352830Y471010D02*
X443707D01*
X810180Y431372D02*
Y465791D01*
X804672Y475996D02*
X806938Y478262D01*
X976471Y165862D02*
X978774Y163560D01*
X985860D01*
X974090Y168205D02*
X976433Y165862D01*
X985860Y163560D02*
X986860Y162560D01*
X974090Y168205D02*
Y186690D01*
X971280Y161560D02*
X976630Y156210D01*
X976433Y165862D02*
X976471D01*
X976630Y134620D02*
Y156210D01*
X964860Y161560D02*
X971280D01*
X963860Y162560D02*
X964860Y161560D01*
X714756Y167640D02*
Y180056D01*
X721360Y186660D01*
X403352Y109728D02*
Y114300D01*
X209170Y284734D02*
X215392D01*
X216888Y286230D01*
X327276Y336710D02*
Y344170D01*
X541782Y287528D02*
Y320585D01*
X619506Y306832D02*
X622300D01*
X665091Y301325D02*
Y302880D01*
X669290Y308864D02*
X681990D01*
X433832Y601726D02*
X450850D01*
X457110Y432243D02*
Y444500D01*
X542080D02*
Y447846D01*
X594106Y565658D02*
X618490D01*
X696976Y122936D02*
X712470D01*
X883175Y98100D02*
Y120396D01*
X869219D02*
X883175D01*
X869277Y119491D02*
X883175Y120396D01*
X932925Y98100D02*
Y123850D01*
X974090Y186690D02*
Y199062D01*
X971747Y201405D02*
X974090Y199062D01*
X965200Y202530D02*
X966325Y201405D01*
X971747D01*
X959104Y202530D02*
X965200D01*
X850392Y167543D02*
Y190697D01*
X852735Y193040D02*
X862967D01*
X865310Y190697D01*
X850392D02*
X852735Y193040D01*
X865310Y182880D02*
Y190697D01*
X694690Y289560D02*
X699770Y284480D01*
X694690Y289560D02*
Y298450D01*
X699770Y284480D02*
X723900D01*
X721280Y303610D02*
X723900Y300990D01*
X713441Y303610D02*
X721280D01*
X774700Y171450D02*
X803130Y199880D01*
Y260760D01*
X770608Y200660D02*
X774700D01*
X760618Y190670D02*
X770608Y200660D01*
X760368Y190670D02*
X760618D01*
X759618Y189920D02*
X760368Y190670D01*
X759618Y189670D02*
Y189920D01*
X664210Y167640D02*
X714570D01*
X714756D01*
X716360Y186660D02*
X721360D01*
X941070Y164596D02*
Y169510D01*
X922938Y154404D02*
X930879D01*
X920114Y157228D02*
X922938Y154404D01*
X949960Y134620D02*
X976630D01*
X930879Y154404D02*
X941070Y164596D01*
X895050Y141940D02*
X910339Y157228D01*
X912305D02*
X920114D01*
X910339D02*
X912305D01*
X895050Y124700D02*
Y141940D01*
Y113030D02*
Y124700D01*
X753051Y112531D02*
X753110Y112590D01*
X734060Y112531D02*
X753051D01*
X749420Y153790D02*
Y158637D01*
X744220Y148590D02*
X749420Y153790D01*
X733763Y112828D02*
Y142147D01*
X727320Y148590D02*
Y161680D01*
X723070Y165930D02*
X727320Y161680D01*
Y148590D02*
X744220D01*
X723070Y165930D02*
Y167640D01*
X727320Y148590D02*
X733763Y142147D01*
Y112828D02*
X734060Y112531D01*
X924052Y635080D02*
X927282Y631850D01*
X916940Y635080D02*
X924052D01*
X927282Y631850D02*
X934880D01*
X814150Y597408D02*
X818214Y593344D01*
X814150Y597408D02*
Y619760D01*
X875204Y593344D02*
X916940Y635080D01*
X818214Y593344D02*
X875204D01*
X808195Y526336D02*
X875204Y593344D01*
X737108Y619760D02*
X814150D01*
X806938Y489458D02*
X808195Y490715D01*
Y497840D01*
Y526336D01*
X754173Y486800D02*
X773548D01*
X806938Y475996D02*
X810180Y465791D01*
X806938Y475996D02*
Y478262D01*
Y482600D02*
Y489458D01*
X773548Y486800D02*
X784352Y475996D01*
X806938Y478262D02*
Y482600D01*
X784352Y475996D02*
X804672D01*
X840232Y261010D02*
X844164Y264942D01*
X852170D01*
X832630Y261010D02*
X840232D01*
X803130D02*
X832630D01*
X953262Y196688D02*
X959104Y202530D01*
X741680Y257200D02*
X756920D01*
Y243840D02*
X759460Y241300D01*
X756920Y243840D02*
Y257200D01*
X759460Y228210D02*
Y241300D01*
X731360Y195660D02*
X755570D01*
X731673Y336449D02*
Y354300D01*
X730250Y306852D02*
X737108D01*
X720852Y312928D02*
X721805Y311975D01*
X720852Y312928D02*
Y325628D01*
X726928Y306852D02*
X730250D01*
X721805Y311975D02*
X726928Y306852D01*
X737108D02*
X738365Y305595D01*
X745490D01*
X720852Y325628D02*
X731673Y336449D01*
X713441Y303610D02*
X721805Y311975D01*
X709088Y303610D02*
X713441D01*
X703834Y308864D02*
X709088Y303610D01*
X732942Y257200D02*
X741680D01*
X727710Y245308D02*
X738942D01*
X727710D02*
X728460Y244558D01*
X727710Y245308D02*
Y251968D01*
X732072Y244558D02*
X736600Y240030D01*
X728460Y244558D02*
X732072D01*
X736600Y227330D02*
Y240030D01*
X731360Y222090D02*
X736600Y227330D01*
X731360Y205660D02*
Y214660D01*
Y222090D01*
X727710Y251968D02*
X732942Y257200D01*
X953262Y186944D02*
Y196688D01*
X947328Y181010D02*
X953262Y186944D01*
X941070Y181010D02*
X947328D01*
X895355Y175192D02*
Y183899D01*
Y174752D02*
Y175192D01*
X886905Y172468D02*
X893072D01*
X899605Y153566D02*
Y164848D01*
X883175Y137136D02*
X899605Y153566D01*
X895355Y175192D02*
X899605Y170942D01*
X893072Y172468D02*
X895355Y174752D01*
X899605Y164848D02*
Y170942D01*
X989838Y134620D02*
X992378Y132080D01*
X986790Y134620D02*
X989838D01*
X921050Y124700D02*
X926338D01*
X927188Y123850D02*
X932925D01*
X926338Y124700D02*
X927188Y123850D01*
X992378Y101600D02*
Y132080D01*
X988878Y98100D02*
X992378Y101600D01*
X941800Y98100D02*
X988878D01*
X932925D02*
X941800D01*
X923550D02*
X932925D01*
X883175Y120396D02*
Y123850D01*
Y137136D01*
X896550Y98100D02*
X923550D01*
X883175D02*
X896550D01*
X836380Y117348D02*
X869277Y119491D01*
X874300Y98100D02*
X883175D01*
X859790Y153670D02*
Y158145D01*
X850392Y167543D02*
X856060Y161875D01*
X859790Y158145D01*
X755570Y195660D02*
X758868Y192362D01*
Y190420D02*
X759618Y189670D01*
X758868Y190420D02*
Y192362D01*
X710320Y131690D02*
Y148590D01*
X835618Y113884D02*
X836380Y117348D01*
X827666Y113884D02*
X835618D01*
X773430Y109178D02*
X794336D01*
X815242D02*
X822960D01*
X794336D02*
X815242D01*
X822960D02*
X827666Y113884D01*
X712470Y122936D02*
Y129540D01*
Y113030D02*
Y122936D01*
X710320Y131690D02*
X712470Y129540D01*
X637540Y533146D02*
Y564114D01*
X621673Y517279D02*
X637540Y533146D01*
X621673Y509300D02*
Y517279D01*
Y400999D02*
Y509300D01*
X450850Y601726D02*
X463296Y601980D01*
X509016Y480568D02*
X594106Y565658D01*
X530860Y454914D02*
X541274Y444500D01*
X454914Y480568D02*
X509016D01*
X449072Y454914D02*
X530860D01*
X587770Y449326D02*
X590296Y446800D01*
X543560Y449326D02*
X587770D01*
X590296Y446800D02*
X599173D01*
X542080Y447846D02*
X543560Y449326D01*
X541802Y414020D02*
X543356Y408910D01*
X541802Y410464D02*
Y414020D01*
X617474Y396800D02*
X621673Y400999D01*
X565217Y396800D02*
X599173D01*
X617474D01*
X543356Y408910D02*
X546374Y405892D01*
X541802Y410464D02*
X543356Y408910D01*
X556125Y405892D02*
X565217Y396800D01*
X546374Y405892D02*
X556125D01*
X541802Y444500D02*
X542080D01*
X541274D02*
X541802D01*
X451104D02*
X457110D01*
X448630Y432243D02*
X457110D01*
X539830Y398904D02*
X543356Y408910D01*
X539830Y385817D02*
Y398904D01*
X478028Y408242D02*
X488630D01*
X457110Y432243D02*
X478028Y408242D01*
X448211Y394970D02*
X457110D01*
X421876Y589770D02*
X433832Y601726D01*
X450850Y601492D02*
Y601726D01*
X414680Y589770D02*
X421876D01*
X252730Y518160D02*
X271080D01*
X446950Y472604D02*
X454914Y480568D01*
X446950Y469900D02*
Y472604D01*
X271080Y518160D02*
Y536510D01*
Y499810D02*
Y518160D01*
X252730Y499810D02*
X271080D01*
X234380Y536510D02*
X252730D01*
X271080D01*
X177730Y593160D02*
Y613160D01*
Y593160D02*
X234380Y536510D01*
Y499810D02*
X252730D01*
X234380Y500079D02*
Y518160D01*
X177730Y461510D02*
X234380Y518160D01*
Y500079D02*
X234469Y499989D01*
X234380Y499810D02*
Y500079D01*
X446950Y457036D02*
X449072Y454914D01*
X446950Y448654D02*
Y457036D01*
Y460897D01*
Y469900D01*
Y448654D02*
X451104Y444500D01*
X443385Y390144D02*
X448211Y394970D01*
X438912Y432243D02*
X448630D01*
X436626Y397256D02*
Y429957D01*
X438912Y432243D01*
Y394970D02*
X448211D01*
X436626Y397256D02*
X438912Y394970D01*
X182880Y415798D02*
X205968D01*
X221970Y394902D02*
Y399796D01*
X205968Y415798D02*
X221970Y399796D01*
X177730Y443160D02*
Y461510D01*
Y420948D02*
X182880Y415798D01*
X177730Y420948D02*
Y443160D01*
X256930Y385572D02*
Y397510D01*
X221970Y385572D02*
Y394902D01*
X668790Y302880D02*
X669290D01*
X665091D02*
X668790D01*
X622300Y306832D02*
Y306852D01*
X669290Y302880D02*
Y308864D01*
X665790Y299880D02*
X668790Y302880D01*
X624840Y258430D02*
X665790Y299380D01*
X622300Y306852D02*
X627827Y301325D01*
X665790Y299380D02*
Y299880D01*
X627827Y301325D02*
X665091D01*
X621673Y346456D02*
Y354300D01*
X617474Y342257D02*
X621673Y346456D01*
X539830Y385817D02*
X541802Y383846D01*
X539830Y322556D02*
X541802Y320585D01*
X539830Y322556D02*
Y335643D01*
X617474Y308864D02*
X619506Y306832D01*
X617474Y308864D02*
Y342257D01*
X556585Y211328D02*
Y272725D01*
X443385Y211328D02*
Y390144D01*
X541782Y287528D02*
X556585Y272725D01*
X541782Y320585D02*
X541802D01*
X624840Y215900D02*
Y258430D01*
X555315Y212598D02*
X556585Y211328D01*
X525778Y212598D02*
X555315D01*
X522985Y209805D02*
X525778Y212598D01*
X516764Y216026D02*
X522985Y209805D01*
Y203985D02*
Y209805D01*
Y203985D02*
X525778Y212598D01*
X572595Y200485D02*
X575310Y203200D01*
X556585Y200485D02*
Y211328D01*
Y200485D02*
X572595D01*
X448083Y216026D02*
X516764D01*
X443949Y202735D02*
X452882Y193802D01*
X443385Y202735D02*
Y211328D01*
X448083Y216026D01*
X443385Y202735D02*
X443949D01*
X403352Y109728D02*
X407595Y105485D01*
X441635D01*
X314865Y114300D02*
X403352D01*
X403372D01*
X337330Y352844D02*
Y357530D01*
X328656Y344170D02*
X337330Y352844D01*
X327276Y344170D02*
X328656D01*
X324338D02*
X327276D01*
X273660Y336710D02*
X327276D01*
Y283919D02*
Y336710D01*
X324338Y269412D02*
Y280981D01*
X327276Y283919D01*
X273660Y307696D02*
Y336710D01*
X268224Y302260D02*
X273660Y307696D01*
X251360Y302260D02*
X268224D01*
X251360Y290004D02*
Y302260D01*
X216888Y382016D02*
X221970Y385572D01*
X251170Y289814D02*
X251360Y290004D01*
X216888Y286230D02*
Y374650D01*
Y382016D01*
X251170Y277580D02*
Y289814D01*
X209170Y277580D02*
Y284734D01*
X324338Y269412D02*
X330120Y263630D01*
X849054Y126424D02*
X879858Y157228D01*
X886905D01*
X835348Y126424D02*
X835618D01*
X849054D01*
X832114Y123190D02*
X835348Y126424D01*
X815242Y123190D02*
X832114D01*
X794336D02*
X815242D01*
X756203D02*
X773430D01*
X755103Y122090D02*
X756203Y123190D01*
X773430D02*
X794336D01*
X753110Y121340D02*
X753860Y122090D01*
X755103D01*
X753110Y121090D02*
Y121340D01*
D149*
X960860Y153060D02*
X963860D01*
X950040Y142240D02*
X960860Y153060D01*
X915710Y142240D02*
X950040D01*
X907975Y134505D02*
X915710Y142240D01*
X907975Y124775D02*
Y134505D01*
Y124775D02*
X908050Y124700D01*
X960252Y172060D02*
X963860D01*
X936781Y148590D02*
X960252Y172060D01*
X913080Y148590D02*
X936781D01*
X901550Y137060D02*
X913080Y148590D01*
X901550Y124700D02*
Y137060D01*
D150*
X1012770Y114420D02*
D03*
D151*
X1010920Y354330D02*
D03*
Y363110D02*
D03*
Y372110D02*
D03*
X1037422Y344170D02*
D03*
X754380Y91420D02*
D03*
X753110Y97790D02*
D03*
X994467Y660420D02*
D03*
X302260Y248920D02*
D03*
X346246Y204006D02*
D03*
X241808Y247142D02*
D03*
X367792Y242824D02*
D03*
X237170Y235524D02*
D03*
X349365Y221095D02*
D03*
X344932Y141478D02*
D03*
X314960Y138938D02*
D03*
X279170Y294616D02*
D03*
X319278Y331216D02*
D03*
X361390Y249630D02*
D03*
X319278Y291338D02*
D03*
X637032Y632968D02*
D03*
X650664Y577596D02*
D03*
X659384Y565404D02*
D03*
X782320Y260350D02*
D03*
X478985Y172329D02*
D03*
X788924Y410972D02*
D03*
X810180Y431372D02*
D03*
X814098Y418084D02*
D03*
X1011972Y227112D02*
D03*
X781050Y342900D02*
D03*
X1008380Y223520D02*
D03*
X786130Y342900D02*
D03*
X728572Y381000D02*
D03*
X726634Y368808D02*
D03*
X699770Y440690D02*
D03*
X713740Y466090D02*
D03*
X938530Y354330D02*
D03*
X897128Y590296D02*
D03*
X974090Y186690D02*
D03*
X723900Y284480D02*
D03*
Y300990D02*
D03*
X774700Y171450D02*
D03*
Y200660D02*
D03*
X716673Y340614D02*
D03*
X267910Y327406D02*
D03*
X664210Y167640D02*
D03*
X667766Y324866D02*
D03*
X413360Y322834D02*
D03*
X372110Y414020D02*
D03*
X260350Y546100D02*
D03*
X377743Y375711D02*
D03*
X365760Y414020D02*
D03*
X261620Y553720D02*
D03*
X810514Y631190D02*
D03*
X584708Y371348D02*
D03*
X786384Y491800D02*
D03*
X616204Y483616D02*
D03*
X1021080Y637286D02*
D03*
X799846Y636778D02*
D03*
X357378Y405892D02*
D03*
X244856D02*
D03*
X895050Y113030D02*
D03*
X949960Y134620D02*
D03*
X976630Y118110D02*
D03*
X679196Y365506D02*
D03*
X927862Y113030D02*
D03*
X400050Y529590D02*
D03*
X312420Y542290D02*
D03*
X393700Y506730D02*
D03*
X323850Y538480D02*
D03*
X406340Y562550D02*
D03*
X220980Y567690D02*
D03*
X410210Y527050D02*
D03*
X237490Y558800D02*
D03*
X671673Y458978D02*
D03*
X765810Y476800D02*
D03*
X422910Y610870D02*
D03*
X749300Y187960D02*
D03*
X681990Y245110D02*
D03*
X610108Y426800D02*
D03*
X998220Y648970D02*
D03*
X768096Y401800D02*
D03*
X393700Y132080D02*
D03*
X587248Y314960D02*
D03*
X478985Y178425D02*
D03*
X467985D02*
D03*
X554990Y175260D02*
D03*
X783590Y432308D02*
D03*
X536956Y184404D02*
D03*
X533985Y178425D02*
D03*
X562864Y314706D02*
D03*
X489985Y178425D02*
D03*
X645668Y406908D02*
D03*
X594614Y332994D02*
D03*
X576834Y315214D02*
D03*
X511985Y178425D02*
D03*
X971550Y330390D02*
D03*
X982980Y374650D02*
D03*
X877570Y379730D02*
D03*
X971550Y364490D02*
D03*
X910590D02*
D03*
X575056Y426212D02*
D03*
X531114Y415036D02*
D03*
X559896Y423672D02*
D03*
X517652Y444745D02*
D03*
X737108Y619760D02*
D03*
X703834Y308864D02*
D03*
X694690Y298450D02*
D03*
X738942Y245308D02*
D03*
X869219Y120396D02*
D03*
X859790Y153670D02*
D03*
X696976Y122936D02*
D03*
X760730Y107950D02*
D03*
X463296Y601980D02*
D03*
X256930Y385572D02*
D03*
X221970D02*
D03*
X681990Y308864D02*
D03*
X624840Y215900D02*
D03*
X575310Y203200D02*
D03*
X452882Y193802D02*
D03*
X314865Y114300D02*
D03*
X579120Y567690D02*
D03*
Y411080D02*
D03*
X420878Y580390D02*
D03*
X433578Y535432D02*
D03*
X429260Y605790D02*
D03*
X897636Y582168D02*
D03*
X590296Y410972D02*
D03*
X586546Y420176D02*
D03*
X635762Y308102D02*
D03*
X641673Y364998D02*
D03*
X610108Y416800D02*
D03*
X242924Y337312D02*
D03*
X631673Y319278D02*
D03*
X636673Y338836D02*
D03*
X927862Y159512D02*
D03*
X702056Y294894D02*
D03*
X875538Y187960D02*
D03*
X747014Y296926D02*
D03*
X903855Y193679D02*
D03*
X923572Y199672D02*
D03*
X923685Y188976D02*
D03*
X722884Y363982D02*
D03*
X883076Y636330D02*
D03*
X761492Y593852D02*
D03*
X764032Y166370D02*
D03*
X660146Y306832D02*
D03*
M02*
