G04*
G04 #@! TF.GenerationSoftware,Altium Limited,Altium Designer,21.1.1 (26)*
G04*
G04 Layer_Color=8421504*
%FSLAX44Y44*%
%MOMM*%
G71*
G04*
G04 #@! TF.SameCoordinates,6A85A449-59C4-447A-B511-F0FC370A597D*
G04*
G04*
G04 #@! TF.FilePolarity,Positive*
G04*
G01*
G75*
%ADD13R,0.5000X0.6000*%
%ADD14R,0.6000X0.5000*%
%ADD15R,0.6000X0.5000*%
%ADD16R,0.5000X0.6000*%
%ADD17R,1.1000X0.5000*%
%ADD18R,1.0000X0.9000*%
%ADD19R,0.6000X0.7500*%
%ADD20R,0.5500X0.5000*%
%ADD21R,0.5000X0.4500*%
%ADD22R,0.4500X0.4500*%
%ADD23R,0.6000X0.5500*%
%ADD24R,0.5500X0.5500*%
%ADD25R,0.4000X0.4500*%
%ADD26R,0.3500X0.4000*%
%ADD27R,0.3500X0.3500*%
%ADD28R,0.2500X0.2500*%
%ADD29R,1.8000X1.2500*%
%ADD30R,0.7500X1.0000*%
%ADD31R,1.1000X0.9000*%
%ADD32R,1.4500X1.2500*%
%ADD33R,1.0700X1.7000*%
%ADD34R,0.6500X1.0000*%
%ADD35R,0.5900X0.4500*%
%ADD36R,4.0000X1.2000*%
%ADD37R,0.8500X0.6000*%
%ADD38R,0.3000X1.2000*%
%ADD39R,1.2000X0.3000*%
%ADD40R,0.7000X0.6500*%
%ADD41R,1.0062X1.1051*%
%ADD42R,0.6153X0.5725*%
%ADD43R,0.4556X0.3612*%
%ADD44R,0.4500X0.6000*%
G04:AMPARAMS|DCode=45|XSize=0.6mm|YSize=0.24mm|CornerRadius=0.12mm|HoleSize=0mm|Usage=FLASHONLY|Rotation=270.000|XOffset=0mm|YOffset=0mm|HoleType=Round|Shape=RoundedRectangle|*
%AMROUNDEDRECTD45*
21,1,0.6000,0.0000,0,0,270.0*
21,1,0.3600,0.2400,0,0,270.0*
1,1,0.2400,0.0000,-0.1800*
1,1,0.2400,0.0000,0.1800*
1,1,0.2400,0.0000,0.1800*
1,1,0.2400,0.0000,-0.1800*
%
%ADD45ROUNDEDRECTD45*%
%ADD46R,0.7581X0.8121*%
%ADD47R,0.6250X0.8250*%
%ADD48R,0.5000X0.5000*%
%ADD49R,1.3061X1.0582*%
%ADD50R,1.0000X0.5000*%
%ADD51R,0.4500X1.3800*%
%ADD52R,1.4250X1.5500*%
%ADD53R,1.6500X1.3000*%
%ADD54R,1.8000X1.9000*%
%ADD55R,1.0000X1.9000*%
%ADD56R,0.7636X0.2048*%
%ADD57R,0.6874X1.0938*%
%ADD58R,2.3500X0.9000*%
%ADD59R,0.9000X2.3500*%
%ADD60R,1.1500X1.0000*%
%ADD61R,0.5500X0.9500*%
%ADD62R,0.4800X0.4400*%
G04:AMPARAMS|DCode=63|XSize=1.424mm|YSize=3.9mm|CornerRadius=0.331mm|HoleSize=0mm|Usage=FLASHONLY|Rotation=0.000|XOffset=0mm|YOffset=0mm|HoleType=Round|Shape=RoundedRectangle|*
%AMROUNDEDRECTD63*
21,1,1.4240,3.2380,0,0,0.0*
21,1,0.7620,3.9000,0,0,0.0*
1,1,0.6620,0.3810,-1.6190*
1,1,0.6620,-0.3810,-1.6190*
1,1,0.6620,-0.3810,1.6190*
1,1,0.6620,0.3810,1.6190*
%
%ADD63ROUNDEDRECTD63*%
%ADD64R,1.7000X1.1000*%
%ADD65R,1.0000X1.1500*%
%ADD66R,0.6000X0.4500*%
%ADD67R,0.8250X0.6250*%
%ADD68R,0.8121X0.7581*%
%ADD69R,0.3612X0.4556*%
%ADD70R,0.5725X0.6153*%
%ADD71R,0.4500X0.5000*%
%ADD72R,0.5500X0.5500*%
%ADD73R,0.4000X0.3500*%
%ADD74R,0.3500X0.3500*%
%ADD75R,0.5500X0.6000*%
%ADD76R,0.9000X1.0000*%
%ADD77R,0.6500X0.7000*%
G36*
X699360Y192760D02*
Y194760D01*
X707860D01*
Y197360D01*
X699360D01*
Y199360D01*
X720360D01*
Y192760D01*
X699360D01*
D01*
D02*
G37*
G36*
Y201960D02*
Y203960D01*
X707860D01*
Y206560D01*
X699360D01*
Y208560D01*
X720360D01*
Y201960D01*
X699360D01*
D01*
D02*
G37*
G36*
X743360Y208560D02*
Y206560D01*
X734860D01*
Y203960D01*
X743360D01*
Y201960D01*
X722360D01*
Y208560D01*
X743360D01*
D01*
D02*
G37*
G36*
Y199360D02*
Y197360D01*
X734860D01*
Y194760D01*
X743360D01*
Y192760D01*
X722360D01*
Y199360D01*
X743360D01*
D01*
D02*
G37*
D13*
X264170Y356710D02*
D03*
X273669Y336710D02*
D03*
X254670D02*
D03*
X368252Y377030D02*
D03*
X377752Y357030D02*
D03*
X358752D02*
D03*
D14*
X954877Y641328D02*
D03*
X934877Y631828D02*
D03*
Y650828D02*
D03*
X296070Y404908D02*
D03*
X316070Y414408D02*
D03*
D15*
Y395408D02*
D03*
D16*
X379127Y598330D02*
D03*
X398126D02*
D03*
X388626Y618330D02*
D03*
X403878Y377029D02*
D03*
X413378Y357029D02*
D03*
X394378D02*
D03*
D17*
X963860Y153060D02*
D03*
Y162560D02*
D03*
Y172060D02*
D03*
X986860D02*
D03*
Y162560D02*
D03*
Y153060D02*
D03*
D18*
X669290Y302880D02*
D03*
Y316880D02*
D03*
X382270Y578500D02*
D03*
Y564500D02*
D03*
X650664Y555610D02*
D03*
Y569610D02*
D03*
D19*
X251360Y302260D02*
D03*
X238860D02*
D03*
D20*
X865310Y172878D02*
D03*
X856810D02*
D03*
D21*
X723070Y167640D02*
D03*
X714570D02*
D03*
X903855Y183899D02*
D03*
X895355D02*
D03*
X865310Y182880D02*
D03*
X856810D02*
D03*
X425010Y564992D02*
D03*
X433510D02*
D03*
X425010Y554990D02*
D03*
X433510D02*
D03*
X425010Y543560D02*
D03*
X433510D02*
D03*
X425010Y527050D02*
D03*
X433510D02*
D03*
X425010Y516890D02*
D03*
X433510D02*
D03*
X425010Y506730D02*
D03*
X433510D02*
D03*
X728150Y266700D02*
D03*
X719650D02*
D03*
X493903Y471170D02*
D03*
X485403D02*
D03*
X493903Y461010D02*
D03*
X485403D02*
D03*
X540580Y371787D02*
D03*
X549080D02*
D03*
X485580Y444745D02*
D03*
X477080D02*
D03*
X485580Y394970D02*
D03*
X477080D02*
D03*
D22*
X727710Y245308D02*
D03*
Y236307D02*
D03*
D23*
X823650Y619760D02*
D03*
X814150D02*
D03*
D24*
X916940Y645080D02*
D03*
Y635080D02*
D03*
X946095Y203635D02*
D03*
Y213635D02*
D03*
X930470Y203635D02*
D03*
Y213635D02*
D03*
X914845Y203635D02*
D03*
Y213635D02*
D03*
D25*
X986790Y134620D02*
D03*
Y127120D02*
D03*
X976630D02*
D03*
Y134620D02*
D03*
D26*
X255270Y325060D02*
D03*
Y317560D02*
D03*
X905510Y643830D02*
D03*
Y636330D02*
D03*
X368300Y332800D02*
D03*
Y340300D02*
D03*
X359297Y340360D02*
D03*
Y332860D02*
D03*
X403860Y332800D02*
D03*
Y340300D02*
D03*
X394857D02*
D03*
Y332800D02*
D03*
D27*
X614680Y104330D02*
D03*
Y96330D02*
D03*
X718207Y245300D02*
D03*
Y237300D02*
D03*
X574040Y104330D02*
D03*
Y96330D02*
D03*
X584200Y104330D02*
D03*
Y96330D02*
D03*
X594360Y104330D02*
D03*
Y96330D02*
D03*
X604520Y104330D02*
D03*
Y96330D02*
D03*
D28*
X707850Y245110D02*
D03*
X701850D02*
D03*
D29*
X476635Y95735D02*
D03*
X536335D02*
D03*
D30*
X522985Y203985D02*
D03*
X511985D02*
D03*
X489985D02*
D03*
X533985D02*
D03*
X467985D02*
D03*
X478985D02*
D03*
X500985D02*
D03*
D31*
X441635Y105485D02*
D03*
Y142485D02*
D03*
D32*
X443385Y202735D02*
D03*
D33*
X556585Y200485D02*
D03*
D34*
X544485Y203985D02*
D03*
D35*
X969400Y480060D02*
D03*
X948300D02*
D03*
D36*
X933450Y613530D02*
D03*
Y501530D02*
D03*
D37*
X1023620Y381110D02*
D03*
Y354110D02*
D03*
Y363110D02*
D03*
Y372110D02*
D03*
D38*
X616673Y509300D02*
D03*
X621673D02*
D03*
X626673D02*
D03*
X631673D02*
D03*
X636673D02*
D03*
X641673D02*
D03*
X661673D02*
D03*
X666673D02*
D03*
X671673D02*
D03*
X676673D02*
D03*
X681673D02*
D03*
X686673D02*
D03*
X691673D02*
D03*
X696673D02*
D03*
X701673D02*
D03*
X706673D02*
D03*
X711673D02*
D03*
X716673D02*
D03*
X721673D02*
D03*
X726673D02*
D03*
X731673D02*
D03*
X736673D02*
D03*
Y354300D02*
D03*
X731673D02*
D03*
X726673D02*
D03*
X721673D02*
D03*
X716673D02*
D03*
X711673D02*
D03*
X706673D02*
D03*
X701673D02*
D03*
X696673D02*
D03*
X691673D02*
D03*
X686673D02*
D03*
X681673D02*
D03*
X676673D02*
D03*
X666673D02*
D03*
X661673D02*
D03*
X656673D02*
D03*
X651673D02*
D03*
X646673D02*
D03*
X641673D02*
D03*
X636673D02*
D03*
X631673D02*
D03*
X626673D02*
D03*
X621673D02*
D03*
X671673D02*
D03*
X651673Y509300D02*
D03*
X656673D02*
D03*
X646673D02*
D03*
X616673Y354300D02*
D03*
D39*
X754173Y491800D02*
D03*
Y486800D02*
D03*
Y481800D02*
D03*
Y476800D02*
D03*
X754173Y461800D02*
D03*
X754173Y456800D02*
D03*
Y451800D02*
D03*
Y446800D02*
D03*
X754173Y441800D02*
D03*
X754173Y436800D02*
D03*
Y431800D02*
D03*
Y426800D02*
D03*
Y421800D02*
D03*
Y416800D02*
D03*
Y411800D02*
D03*
Y406800D02*
D03*
Y401800D02*
D03*
Y386800D02*
D03*
Y381800D02*
D03*
Y376800D02*
D03*
Y371800D02*
D03*
X599173Y376800D02*
D03*
Y381800D02*
D03*
Y386800D02*
D03*
Y391800D02*
D03*
Y396800D02*
D03*
Y401800D02*
D03*
Y406800D02*
D03*
Y411800D02*
D03*
Y416800D02*
D03*
Y421800D02*
D03*
Y426800D02*
D03*
Y431800D02*
D03*
Y436800D02*
D03*
Y441800D02*
D03*
Y446800D02*
D03*
Y451800D02*
D03*
Y456800D02*
D03*
Y461800D02*
D03*
Y466800D02*
D03*
Y471800D02*
D03*
Y476800D02*
D03*
Y481800D02*
D03*
Y486800D02*
D03*
Y491800D02*
D03*
X754173Y396800D02*
D03*
Y391800D02*
D03*
X599173Y371800D02*
D03*
X754173Y471800D02*
D03*
Y466800D02*
D03*
D40*
X414680Y589770D02*
D03*
X433680Y619270D02*
D03*
X414680D02*
D03*
X433680Y589770D02*
D03*
D41*
X773430Y109178D02*
D03*
Y123190D02*
D03*
X815242Y109178D02*
D03*
Y123190D02*
D03*
X794336Y109178D02*
D03*
Y123190D02*
D03*
D42*
X799624Y497840D02*
D03*
X808195D02*
D03*
D43*
X547858Y383846D02*
D03*
X541802D02*
D03*
X409428Y114300D02*
D03*
X403372D02*
D03*
X324338Y344170D02*
D03*
X318282D02*
D03*
X547858Y444500D02*
D03*
X541802D02*
D03*
X547858Y414020D02*
D03*
X541802D02*
D03*
X800882Y482600D02*
D03*
X806938D02*
D03*
X547858Y320585D02*
D03*
X541802D02*
D03*
D44*
X823900Y643193D02*
D03*
X814400D02*
D03*
D45*
X716360Y214660D02*
D03*
X721360D02*
D03*
Y186660D02*
D03*
X716360D02*
D03*
X736360D02*
D03*
X731360D02*
D03*
X711360D02*
D03*
X706360D02*
D03*
Y214660D02*
D03*
X711360D02*
D03*
X726360Y186660D02*
D03*
X736360Y214660D02*
D03*
X731360D02*
D03*
X726360D02*
D03*
D46*
X797640Y465791D02*
D03*
X810180D02*
D03*
D47*
X233470Y394902D02*
D03*
X221970D02*
D03*
D48*
X549830Y398904D02*
D03*
X539830D02*
D03*
X549830Y335643D02*
D03*
X539830D02*
D03*
D49*
X552591Y355243D02*
D03*
X537069D02*
D03*
D50*
X469900Y460590D02*
D03*
Y471590D02*
D03*
D51*
X921050Y124700D02*
D03*
X914550D02*
D03*
X901550D02*
D03*
X908050D02*
D03*
X895050D02*
D03*
D52*
X883175Y123850D02*
D03*
X932925D02*
D03*
D53*
X874300Y98100D02*
D03*
X941800D02*
D03*
D54*
X896550D02*
D03*
D55*
X923550D02*
D03*
D56*
X886905Y157228D02*
D03*
X912305Y167388D02*
D03*
Y172468D02*
D03*
X886905Y167388D02*
D03*
X912305Y162309D02*
D03*
X886905Y172468D02*
D03*
Y162309D02*
D03*
X912305Y157228D02*
D03*
D57*
X899605Y164848D02*
D03*
D58*
X330120Y221630D02*
D03*
Y207630D02*
D03*
Y165630D02*
D03*
Y179630D02*
D03*
Y193630D02*
D03*
Y235630D02*
D03*
Y263630D02*
D03*
Y249630D02*
D03*
D59*
X251170Y151680D02*
D03*
X209170D02*
D03*
X265170Y277580D02*
D03*
X307170D02*
D03*
X237170D02*
D03*
X279170D02*
D03*
X293170D02*
D03*
X237170Y151680D02*
D03*
X223170D02*
D03*
X307170D02*
D03*
X251170Y277580D02*
D03*
X223170D02*
D03*
X209170D02*
D03*
X265170Y151680D02*
D03*
X279170D02*
D03*
X293170D02*
D03*
D60*
X273930Y397510D02*
D03*
X256930D02*
D03*
X233888Y374650D02*
D03*
X216888D02*
D03*
D61*
X727320Y148590D02*
D03*
X710320D02*
D03*
D62*
X457110Y394970D02*
D03*
X464910D02*
D03*
X454750Y469900D02*
D03*
X446950D02*
D03*
X454750Y460897D02*
D03*
X446950D02*
D03*
X464910Y444500D02*
D03*
X457110D02*
D03*
D63*
X734060Y112531D02*
D03*
X712470Y113030D02*
D03*
D64*
X448630Y408242D02*
D03*
X488630Y432243D02*
D03*
Y408242D02*
D03*
X448630Y432243D02*
D03*
D65*
X759460Y228210D02*
D03*
Y211210D02*
D03*
D66*
X741680Y257200D02*
D03*
Y266700D02*
D03*
X756920Y257200D02*
D03*
Y266700D02*
D03*
X772160Y257200D02*
D03*
Y266700D02*
D03*
D67*
X965200Y202530D02*
D03*
Y214030D02*
D03*
X941070Y181010D02*
D03*
Y169510D02*
D03*
D68*
X835618Y126424D02*
D03*
Y113884D02*
D03*
X713441Y303610D02*
D03*
Y316150D02*
D03*
D69*
X852170Y270998D02*
D03*
Y264942D02*
D03*
X450850Y601492D02*
D03*
Y607548D02*
D03*
X622300Y306852D02*
D03*
Y312908D02*
D03*
X730250Y306852D02*
D03*
Y312908D02*
D03*
X632605Y559582D02*
D03*
Y565638D02*
D03*
X618490Y559582D02*
D03*
Y565638D02*
D03*
D70*
X745490Y305595D02*
D03*
Y314165D02*
D03*
D71*
X769620Y181170D02*
D03*
Y189670D02*
D03*
X759618Y181170D02*
D03*
Y189670D02*
D03*
X753110Y112590D02*
D03*
Y121090D02*
D03*
D72*
X856060Y161875D02*
D03*
X866060D02*
D03*
X824150Y656695D02*
D03*
X814150D02*
D03*
D73*
X756920Y158637D02*
D03*
X749420D02*
D03*
X756920Y167640D02*
D03*
X749420D02*
D03*
X817150Y631190D02*
D03*
X824650D02*
D03*
X402650Y137160D02*
D03*
X410150D02*
D03*
Y127000D02*
D03*
X402650D02*
D03*
D74*
X1003490Y354330D02*
D03*
X995490D02*
D03*
X1003490Y364490D02*
D03*
X995490D02*
D03*
X1003490Y374650D02*
D03*
X995490D02*
D03*
D75*
X789569Y275260D02*
D03*
Y265760D02*
D03*
D76*
X255890Y374650D02*
D03*
X269890D02*
D03*
X349900Y396240D02*
D03*
X335900D02*
D03*
D77*
X803130Y280010D02*
D03*
X832630D02*
D03*
X803130Y261010D02*
D03*
X832630D02*
D03*
X337330Y357530D02*
D03*
X307830Y376530D02*
D03*
Y357530D02*
D03*
X337330Y376530D02*
D03*
M02*
