G04*
G04 #@! TF.GenerationSoftware,Altium Limited,Altium Designer,21.1.1 (26)*
G04*
G04 Layer_Color=16711935*
%FSLAX44Y44*%
%MOMM*%
G71*
G04*
G04 #@! TF.SameCoordinates,6A85A449-59C4-447A-B511-F0FC370A597D*
G04*
G04*
G04 #@! TF.FilePolarity,Positive*
G04*
G01*
G75*
%ADD11C,0.2000*%
D11*
X1047770Y119420D02*
Y637420D01*
X1047238Y113342D02*
X1047770Y119420D01*
X1045659Y107449D02*
X1047238Y113342D01*
X1043081Y101920D02*
X1045659Y107449D01*
X1039582Y96923D02*
X1043081Y101920D01*
X1035268Y92608D02*
X1039582Y96923D01*
X1030270Y89109D02*
X1035268Y92608D01*
X1024741Y86531D02*
X1030270Y89109D01*
X1018848Y84952D02*
X1024741Y86531D01*
X1012770Y84420D02*
X1018848Y84952D01*
X132770Y84420D02*
X1012770D01*
X126692Y84952D02*
X132770Y84420D01*
X120800Y86531D02*
X126692Y84952D01*
X115270Y89109D02*
X120800Y86531D01*
X110273Y92608D02*
X115270Y89109D01*
X105959Y96923D02*
X110273Y92608D01*
X102459Y101920D02*
X105959Y96923D01*
X99881Y107449D02*
X102459Y101920D01*
X98302Y113342D02*
X99881Y107449D01*
X97770Y119420D02*
X98302Y113342D01*
X97770Y119420D02*
Y632420D01*
X99170Y642220D01*
X101877Y639368D01*
X105168Y637215D01*
X108864Y635875D01*
X112770Y635420D01*
X116284Y635787D01*
X119645Y636872D01*
X122710Y638629D01*
X125346Y640981D01*
X127439Y643827D01*
X128898Y647044D01*
X129661Y650493D01*
X129694Y654026D01*
X128997Y657489D02*
X129694Y654026D01*
X127599Y660733D02*
X128997Y657489D01*
X125561Y663618D02*
X127599Y660733D01*
X122970Y666020D02*
X125561Y663618D01*
X122970Y666020D02*
X132770Y667420D01*
X1012770D01*
X1018982Y666864D01*
X1024997Y665215D01*
X1030623Y662524D01*
X1035683Y658877D01*
X1040015Y654391D01*
X1043482Y649206D01*
X1045974Y643489D01*
X1047411Y637420D01*
X1047770D01*
M02*
