G04*
G04 #@! TF.GenerationSoftware,Altium Limited,Altium Designer,21.1.1 (26)*
G04*
G04 Layer_Color=8388736*
%FSLAX44Y44*%
%MOMM*%
G71*
G04*
G04 #@! TF.SameCoordinates,6A85A449-59C4-447A-B511-F0FC370A597D*
G04*
G04*
G04 #@! TF.FilePolarity,Negative*
G04*
G01*
G75*
%ADD35R,0.5900X0.4500*%
%ADD36R,4.0000X1.2000*%
%ADD37R,0.8500X0.6000*%
%ADD38R,0.3000X1.2000*%
%ADD39R,1.2000X0.3000*%
%ADD40R,0.7000X0.6500*%
%ADD41R,1.0062X1.1051*%
%ADD42R,0.6153X0.5725*%
%ADD43R,0.4556X0.3612*%
%ADD44R,0.4500X0.6000*%
G04:AMPARAMS|DCode=45|XSize=0.6mm|YSize=0.24mm|CornerRadius=0.12mm|HoleSize=0mm|Usage=FLASHONLY|Rotation=270.000|XOffset=0mm|YOffset=0mm|HoleType=Round|Shape=RoundedRectangle|*
%AMROUNDEDRECTD45*
21,1,0.6000,0.0000,0,0,270.0*
21,1,0.3600,0.2400,0,0,270.0*
1,1,0.2400,0.0000,-0.1800*
1,1,0.2400,0.0000,0.1800*
1,1,0.2400,0.0000,0.1800*
1,1,0.2400,0.0000,-0.1800*
%
%ADD45ROUNDEDRECTD45*%
%ADD46R,0.7581X0.8121*%
%ADD47R,0.6250X0.8250*%
%ADD48R,0.5000X0.5000*%
%ADD49R,1.3061X1.0582*%
%ADD50R,1.0000X0.5000*%
%ADD51R,0.4500X1.3800*%
%ADD52R,1.4250X1.5500*%
%ADD53R,1.6500X1.3000*%
%ADD54R,1.8000X1.9000*%
%ADD55R,1.0000X1.9000*%
%ADD66R,0.6000X0.4500*%
%ADD67R,0.8250X0.6250*%
%ADD68R,0.8121X0.7581*%
%ADD69R,0.3612X0.4556*%
%ADD70R,0.5725X0.6153*%
%ADD77R,0.6500X0.7000*%
%ADD78R,1.4000X0.8000*%
%ADD79R,1.3000X1.2000*%
%ADD80R,0.9000X1.0500*%
%ADD81R,0.8500X0.8000*%
%ADD82R,0.8000X0.7500*%
%ADD83R,0.7500X0.7500*%
%ADD84R,0.9000X0.8500*%
%ADD85R,0.8500X0.8500*%
%ADD86R,0.7000X0.7500*%
%ADD87R,0.6500X0.7000*%
%ADD88R,0.6500X0.6500*%
%ADD89R,0.5500X0.5500*%
%ADD90R,2.1000X1.5500*%
%ADD91R,1.0500X1.3000*%
%ADD92R,1.4000X1.2000*%
%ADD93R,1.7500X1.5500*%
%ADD94R,1.3700X2.0000*%
%ADD95R,0.9500X1.3000*%
%ADD96R,0.6000X0.7000*%
%ADD97C,1.4220*%
%ADD98R,1.0636X0.5048*%
%ADD99R,0.9874X1.3938*%
%ADD100R,2.6500X1.2000*%
%ADD101R,1.2000X2.6500*%
%ADD102R,1.4500X1.3000*%
%ADD103R,0.8500X1.2500*%
%ADD104R,0.7800X0.7400*%
G04:AMPARAMS|DCode=105|XSize=1.724mm|YSize=4.2mm|CornerRadius=0.481mm|HoleSize=0mm|Usage=FLASHONLY|Rotation=0.000|XOffset=0mm|YOffset=0mm|HoleType=Round|Shape=RoundedRectangle|*
%AMROUNDEDRECTD105*
21,1,1.7240,3.2380,0,0,0.0*
21,1,0.7620,4.2000,0,0,0.0*
1,1,0.9620,0.3810,-1.6190*
1,1,0.9620,-0.3810,-1.6190*
1,1,0.9620,-0.3810,1.6190*
1,1,0.9620,0.3810,1.6190*
%
%ADD105ROUNDEDRECTD105*%
%ADD106R,2.0000X1.4000*%
%ADD107R,1.3000X1.4500*%
%ADD108R,0.7000X0.6000*%
%ADD109R,0.7500X0.8000*%
%ADD110R,0.8500X0.8500*%
%ADD111R,0.7000X0.6500*%
%ADD112R,0.6500X0.6500*%
%ADD113R,0.8500X0.9000*%
%ADD114R,1.2000X1.3000*%
%ADD115C,0.7000*%
%ADD116C,3.6000*%
%ADD117C,0.3500*%
%ADD118C,0.6000*%
G36*
X743360Y206560D02*
X735610D01*
Y203960D01*
X743360D01*
Y201960D01*
X735610D01*
Y199360D01*
X743360D01*
Y197360D01*
X735610D01*
Y194760D01*
X743360D01*
Y192760D01*
X699360D01*
Y194760D01*
X707110D01*
Y197360D01*
X699360D01*
Y199360D01*
X707110D01*
Y201960D01*
X699360D01*
Y203960D01*
X707110D01*
Y206560D01*
X699360D01*
Y208560D01*
X743360D01*
Y206560D01*
D02*
G37*
D35*
X969400Y480060D02*
D03*
X948300D02*
D03*
D36*
X933450Y613530D02*
D03*
Y501530D02*
D03*
D37*
X1023620Y381110D02*
D03*
Y354110D02*
D03*
Y363110D02*
D03*
Y372110D02*
D03*
D38*
X616673Y509300D02*
D03*
X621673D02*
D03*
X626673D02*
D03*
X631673D02*
D03*
X636673D02*
D03*
X641673D02*
D03*
X661673D02*
D03*
X666673D02*
D03*
X671673D02*
D03*
X676673D02*
D03*
X681673D02*
D03*
X686673D02*
D03*
X691673D02*
D03*
X696673D02*
D03*
X701673D02*
D03*
X706673D02*
D03*
X711673D02*
D03*
X716673D02*
D03*
X721673D02*
D03*
X726673D02*
D03*
X731673D02*
D03*
X736673D02*
D03*
Y354300D02*
D03*
X731673D02*
D03*
X726673D02*
D03*
X721673D02*
D03*
X716673D02*
D03*
X711673D02*
D03*
X706673D02*
D03*
X701673D02*
D03*
X696673D02*
D03*
X691673D02*
D03*
X686673D02*
D03*
X681673D02*
D03*
X676673D02*
D03*
X666673D02*
D03*
X661673D02*
D03*
X656673D02*
D03*
X651673D02*
D03*
X646673D02*
D03*
X641673D02*
D03*
X636673D02*
D03*
X631673D02*
D03*
X626673D02*
D03*
X621673D02*
D03*
X671673D02*
D03*
X651673Y509300D02*
D03*
X656673D02*
D03*
X646673D02*
D03*
X616673Y354300D02*
D03*
D39*
X754173Y491800D02*
D03*
Y486800D02*
D03*
Y481800D02*
D03*
Y476800D02*
D03*
X754173Y461800D02*
D03*
X754173Y456800D02*
D03*
Y451800D02*
D03*
Y446800D02*
D03*
X754173Y441800D02*
D03*
X754173Y436800D02*
D03*
Y431800D02*
D03*
Y426800D02*
D03*
Y421800D02*
D03*
Y416800D02*
D03*
Y411800D02*
D03*
Y406800D02*
D03*
Y401800D02*
D03*
Y386800D02*
D03*
Y381800D02*
D03*
Y376800D02*
D03*
Y371800D02*
D03*
X599173Y376800D02*
D03*
Y381800D02*
D03*
Y386800D02*
D03*
Y391800D02*
D03*
Y396800D02*
D03*
Y401800D02*
D03*
Y406800D02*
D03*
Y411800D02*
D03*
Y416800D02*
D03*
Y421800D02*
D03*
Y426800D02*
D03*
Y431800D02*
D03*
Y436800D02*
D03*
Y441800D02*
D03*
Y446800D02*
D03*
Y451800D02*
D03*
Y456800D02*
D03*
Y461800D02*
D03*
Y466800D02*
D03*
Y471800D02*
D03*
Y476800D02*
D03*
Y481800D02*
D03*
Y486800D02*
D03*
Y491800D02*
D03*
X754173Y396800D02*
D03*
Y391800D02*
D03*
X599173Y371800D02*
D03*
X754173Y471800D02*
D03*
Y466800D02*
D03*
D40*
X414680Y589770D02*
D03*
X433680Y619270D02*
D03*
X414680D02*
D03*
X433680Y589770D02*
D03*
D41*
X773430Y109178D02*
D03*
Y123190D02*
D03*
X815242Y109178D02*
D03*
Y123190D02*
D03*
X794336Y109178D02*
D03*
Y123190D02*
D03*
D42*
X799624Y497840D02*
D03*
X808195D02*
D03*
D43*
X547858Y383846D02*
D03*
X541802D02*
D03*
X409428Y114300D02*
D03*
X403372D02*
D03*
X324338Y344170D02*
D03*
X318282D02*
D03*
X547858Y444500D02*
D03*
X541802D02*
D03*
X547858Y414020D02*
D03*
X541802D02*
D03*
X800882Y482600D02*
D03*
X806938D02*
D03*
X547858Y320585D02*
D03*
X541802D02*
D03*
D44*
X823900Y643193D02*
D03*
X814400D02*
D03*
D45*
X716360Y214660D02*
D03*
X721360D02*
D03*
Y186660D02*
D03*
X716360D02*
D03*
X736360D02*
D03*
X731360D02*
D03*
X711360D02*
D03*
X706360D02*
D03*
Y214660D02*
D03*
X711360D02*
D03*
X726360Y186660D02*
D03*
X736360Y214660D02*
D03*
X731360D02*
D03*
X726360D02*
D03*
D46*
X797640Y465791D02*
D03*
X810180D02*
D03*
D47*
X233470Y394902D02*
D03*
X221970D02*
D03*
D48*
X549830Y398904D02*
D03*
X539830D02*
D03*
X549830Y335643D02*
D03*
X539830D02*
D03*
D49*
X552591Y355243D02*
D03*
X537069D02*
D03*
D50*
X469900Y460590D02*
D03*
Y471590D02*
D03*
D51*
X921050Y124700D02*
D03*
X914550D02*
D03*
X901550D02*
D03*
X908050D02*
D03*
X895050D02*
D03*
D52*
X883175Y123850D02*
D03*
X932925D02*
D03*
D53*
X874300Y98100D02*
D03*
X941800D02*
D03*
D54*
X896550D02*
D03*
D55*
X923550D02*
D03*
D66*
X741680Y257200D02*
D03*
Y266700D02*
D03*
X756920Y257200D02*
D03*
Y266700D02*
D03*
X772160Y257200D02*
D03*
Y266700D02*
D03*
D67*
X965200Y202530D02*
D03*
Y214030D02*
D03*
X941070Y181010D02*
D03*
Y169510D02*
D03*
D68*
X835618Y126424D02*
D03*
Y113884D02*
D03*
X713441Y303610D02*
D03*
Y316150D02*
D03*
D69*
X852170Y270998D02*
D03*
Y264942D02*
D03*
X450850Y601492D02*
D03*
Y607548D02*
D03*
X622300Y306852D02*
D03*
Y312908D02*
D03*
X730250Y306852D02*
D03*
Y312908D02*
D03*
X632605Y559582D02*
D03*
Y565638D02*
D03*
X618490Y559582D02*
D03*
Y565638D02*
D03*
D70*
X745490Y305595D02*
D03*
Y314165D02*
D03*
D77*
X803130Y280010D02*
D03*
X832630D02*
D03*
X803130Y261010D02*
D03*
X832630D02*
D03*
X337330Y357530D02*
D03*
X307830Y376530D02*
D03*
Y357530D02*
D03*
X337330Y376530D02*
D03*
D78*
X963860Y153060D02*
D03*
Y162560D02*
D03*
Y172060D02*
D03*
X986860D02*
D03*
Y162560D02*
D03*
Y153060D02*
D03*
D79*
X669290Y302880D02*
D03*
Y316880D02*
D03*
X382270Y578500D02*
D03*
Y564500D02*
D03*
X650664Y555610D02*
D03*
Y569610D02*
D03*
D80*
X251360Y302260D02*
D03*
X238860D02*
D03*
D81*
X865310Y172878D02*
D03*
X856810D02*
D03*
D82*
X723070Y167640D02*
D03*
X714570D02*
D03*
X903855Y183899D02*
D03*
X895355D02*
D03*
X865310Y182880D02*
D03*
X856810D02*
D03*
X425010Y564992D02*
D03*
X433510D02*
D03*
X425010Y554990D02*
D03*
X433510D02*
D03*
X425010Y543560D02*
D03*
X433510D02*
D03*
X425010Y527050D02*
D03*
X433510D02*
D03*
X425010Y516890D02*
D03*
X433510D02*
D03*
X425010Y506730D02*
D03*
X433510D02*
D03*
X728150Y266700D02*
D03*
X719650D02*
D03*
X493903Y471170D02*
D03*
X485403D02*
D03*
X493903Y461010D02*
D03*
X485403D02*
D03*
X540580Y371787D02*
D03*
X549080D02*
D03*
X485580Y444745D02*
D03*
X477080D02*
D03*
X485580Y394970D02*
D03*
X477080D02*
D03*
D83*
X727710Y245308D02*
D03*
Y236307D02*
D03*
D84*
X823650Y619760D02*
D03*
X814150D02*
D03*
D85*
X916940Y645080D02*
D03*
Y635080D02*
D03*
X946095Y203635D02*
D03*
Y213635D02*
D03*
X930470Y203635D02*
D03*
Y213635D02*
D03*
X914845Y203635D02*
D03*
Y213635D02*
D03*
D86*
X986790Y134620D02*
D03*
Y127120D02*
D03*
X976630D02*
D03*
Y134620D02*
D03*
D87*
X255270Y325060D02*
D03*
Y317560D02*
D03*
X905510Y643830D02*
D03*
Y636330D02*
D03*
X368300Y332800D02*
D03*
Y340300D02*
D03*
X359297Y340360D02*
D03*
Y332860D02*
D03*
X403860Y332800D02*
D03*
Y340300D02*
D03*
X394857D02*
D03*
Y332800D02*
D03*
D88*
X614680Y104330D02*
D03*
Y96330D02*
D03*
X718207Y245300D02*
D03*
Y237300D02*
D03*
X574040Y104330D02*
D03*
Y96330D02*
D03*
X584200Y104330D02*
D03*
Y96330D02*
D03*
X594360Y104330D02*
D03*
Y96330D02*
D03*
X604520Y104330D02*
D03*
Y96330D02*
D03*
D89*
X707850Y245110D02*
D03*
X701850D02*
D03*
D90*
X476635Y95735D02*
D03*
X536335D02*
D03*
D91*
X522985Y203985D02*
D03*
X511985D02*
D03*
X489985D02*
D03*
X533985D02*
D03*
X467985D02*
D03*
X478985D02*
D03*
X500985D02*
D03*
D92*
X441635Y105485D02*
D03*
Y142485D02*
D03*
D93*
X443385Y202735D02*
D03*
D94*
X556585Y200485D02*
D03*
D95*
X544485Y203985D02*
D03*
D96*
X264160Y356710D02*
D03*
X273660Y336710D02*
D03*
X254660D02*
D03*
X398120Y598330D02*
D03*
X388620Y618330D02*
D03*
X379120Y598330D02*
D03*
X368243Y377030D02*
D03*
X377743Y357030D02*
D03*
X358742D02*
D03*
X403860Y377030D02*
D03*
X413360Y357030D02*
D03*
X394360D02*
D03*
D97*
X721360Y200660D02*
D03*
D98*
X886905Y157228D02*
D03*
X912305Y167388D02*
D03*
Y172468D02*
D03*
X886905Y167388D02*
D03*
X912305Y162309D02*
D03*
X886905Y172468D02*
D03*
Y162309D02*
D03*
X912305Y157228D02*
D03*
D99*
X899605Y164848D02*
D03*
D100*
X330120Y221630D02*
D03*
Y207630D02*
D03*
Y165630D02*
D03*
Y179630D02*
D03*
Y193630D02*
D03*
Y235630D02*
D03*
Y263630D02*
D03*
Y249630D02*
D03*
D101*
X251170Y151680D02*
D03*
X209170D02*
D03*
X265170Y277580D02*
D03*
X307170D02*
D03*
X237170D02*
D03*
X279170D02*
D03*
X293170D02*
D03*
X237170Y151680D02*
D03*
X223170D02*
D03*
X307170D02*
D03*
X251170Y277580D02*
D03*
X223170D02*
D03*
X209170D02*
D03*
X265170Y151680D02*
D03*
X279170D02*
D03*
X293170D02*
D03*
D102*
X273930Y397510D02*
D03*
X256930D02*
D03*
X233888Y374650D02*
D03*
X216888D02*
D03*
D103*
X727320Y148590D02*
D03*
X710320D02*
D03*
D104*
X457110Y394970D02*
D03*
X464910D02*
D03*
X454750Y469900D02*
D03*
X446950D02*
D03*
X454750Y460897D02*
D03*
X446950D02*
D03*
X464910Y444500D02*
D03*
X457110D02*
D03*
D105*
X734060Y112531D02*
D03*
X712470Y113030D02*
D03*
D106*
X448630Y408242D02*
D03*
X488630Y432243D02*
D03*
Y408242D02*
D03*
X448630Y432243D02*
D03*
D107*
X759460Y228210D02*
D03*
Y211210D02*
D03*
D108*
X934880Y650850D02*
D03*
X954880Y641350D02*
D03*
X934880Y631850D02*
D03*
X316070Y414408D02*
D03*
Y395407D02*
D03*
X296070Y404907D02*
D03*
D109*
X769620Y181170D02*
D03*
Y189670D02*
D03*
X759618Y181170D02*
D03*
Y189670D02*
D03*
X753110Y112590D02*
D03*
Y121090D02*
D03*
D110*
X856060Y161875D02*
D03*
X866060D02*
D03*
X824150Y656695D02*
D03*
X814150D02*
D03*
D111*
X756920Y158637D02*
D03*
X749420D02*
D03*
X756920Y167640D02*
D03*
X749420D02*
D03*
X817150Y631190D02*
D03*
X824650D02*
D03*
X402650Y137160D02*
D03*
X410150D02*
D03*
Y127000D02*
D03*
X402650D02*
D03*
D112*
X1003490Y354330D02*
D03*
X995490D02*
D03*
X1003490Y364490D02*
D03*
X995490D02*
D03*
X1003490Y374650D02*
D03*
X995490D02*
D03*
D113*
X789569Y275260D02*
D03*
Y265760D02*
D03*
D114*
X255890Y374650D02*
D03*
X269890D02*
D03*
X349900Y396240D02*
D03*
X335900D02*
D03*
D115*
X1019580Y612150D02*
D03*
X999580D02*
D03*
D116*
X1012770Y114420D02*
D03*
D117*
X711360Y200660D02*
D03*
X731360D02*
D03*
X711360Y205660D02*
D03*
X731360D02*
D03*
X711360Y195660D02*
D03*
X731360D02*
D03*
X716360Y205660D02*
D03*
X721360D02*
D03*
Y200660D02*
D03*
X726360D02*
D03*
X716360D02*
D03*
X726360Y205660D02*
D03*
X716360Y195660D02*
D03*
X721360D02*
D03*
X726360D02*
D03*
D118*
X1010920Y354330D02*
D03*
Y363110D02*
D03*
Y372110D02*
D03*
X1037422Y344170D02*
D03*
X754380Y91420D02*
D03*
X753110Y97790D02*
D03*
X994467Y660420D02*
D03*
X302260Y248920D02*
D03*
X346246Y204006D02*
D03*
X241808Y247142D02*
D03*
X367792Y242824D02*
D03*
X237170Y235524D02*
D03*
X349365Y221095D02*
D03*
X344932Y141478D02*
D03*
X314960Y138938D02*
D03*
X279170Y294616D02*
D03*
X319278Y331216D02*
D03*
X361390Y249630D02*
D03*
X319278Y291338D02*
D03*
X637032Y632968D02*
D03*
X650664Y577596D02*
D03*
X659384Y565404D02*
D03*
X782320Y260350D02*
D03*
X478985Y172329D02*
D03*
X788924Y410972D02*
D03*
X810180Y431372D02*
D03*
X814098Y418084D02*
D03*
X1011972Y227112D02*
D03*
X781050Y342900D02*
D03*
X1008380Y223520D02*
D03*
X786130Y342900D02*
D03*
X728572Y381000D02*
D03*
X726634Y368808D02*
D03*
X699770Y440690D02*
D03*
X713740Y466090D02*
D03*
X938530Y354330D02*
D03*
X897128Y590296D02*
D03*
X974090Y186690D02*
D03*
X723900Y284480D02*
D03*
Y300990D02*
D03*
X774700Y171450D02*
D03*
Y200660D02*
D03*
X716673Y340614D02*
D03*
X267910Y327406D02*
D03*
X664210Y167640D02*
D03*
X667766Y324866D02*
D03*
X413360Y322834D02*
D03*
X372110Y414020D02*
D03*
X260350Y546100D02*
D03*
X377743Y375711D02*
D03*
X365760Y414020D02*
D03*
X261620Y553720D02*
D03*
X810514Y631190D02*
D03*
X584708Y371348D02*
D03*
X786384Y491800D02*
D03*
X616204Y483616D02*
D03*
X1021080Y637286D02*
D03*
X799846Y636778D02*
D03*
X357378Y405892D02*
D03*
X244856D02*
D03*
X895050Y113030D02*
D03*
X949960Y134620D02*
D03*
X976630Y118110D02*
D03*
X679196Y365506D02*
D03*
X927862Y113030D02*
D03*
X400050Y529590D02*
D03*
X312420Y542290D02*
D03*
X393700Y506730D02*
D03*
X323850Y538480D02*
D03*
X406340Y562550D02*
D03*
X220980Y567690D02*
D03*
X410210Y527050D02*
D03*
X237490Y558800D02*
D03*
X671673Y458978D02*
D03*
X765810Y476800D02*
D03*
X422910Y610870D02*
D03*
X749300Y187960D02*
D03*
X681990Y245110D02*
D03*
X610108Y426800D02*
D03*
X998220Y648970D02*
D03*
X768096Y401800D02*
D03*
X393700Y132080D02*
D03*
X587248Y314960D02*
D03*
X478985Y178425D02*
D03*
X467985D02*
D03*
X554990Y175260D02*
D03*
X783590Y432308D02*
D03*
X536956Y184404D02*
D03*
X533985Y178425D02*
D03*
X562864Y314706D02*
D03*
X489985Y178425D02*
D03*
X645668Y406908D02*
D03*
X594614Y332994D02*
D03*
X576834Y315214D02*
D03*
X511985Y178425D02*
D03*
X971550Y330390D02*
D03*
X982980Y374650D02*
D03*
X877570Y379730D02*
D03*
X971550Y364490D02*
D03*
X910590D02*
D03*
X575056Y426212D02*
D03*
X531114Y415036D02*
D03*
X559896Y423672D02*
D03*
X517652Y444745D02*
D03*
X737108Y619760D02*
D03*
X703834Y308864D02*
D03*
X694690Y298450D02*
D03*
X738942Y245308D02*
D03*
X869219Y120396D02*
D03*
X859790Y153670D02*
D03*
X696976Y122936D02*
D03*
X760730Y107950D02*
D03*
X463296Y601980D02*
D03*
X256930Y385572D02*
D03*
X221970D02*
D03*
X681990Y308864D02*
D03*
X624840Y215900D02*
D03*
X575310Y203200D02*
D03*
X452882Y193802D02*
D03*
X314865Y114300D02*
D03*
X579120Y567690D02*
D03*
Y411080D02*
D03*
X420878Y580390D02*
D03*
X433578Y535432D02*
D03*
X429260Y605790D02*
D03*
X897636Y582168D02*
D03*
X590296Y410972D02*
D03*
X586546Y420176D02*
D03*
X635762Y308102D02*
D03*
X641673Y364998D02*
D03*
X610108Y416800D02*
D03*
X242924Y337312D02*
D03*
X631673Y319278D02*
D03*
X636673Y338836D02*
D03*
X927862Y159512D02*
D03*
X702056Y294894D02*
D03*
X875538Y187960D02*
D03*
X747014Y296926D02*
D03*
X903855Y193679D02*
D03*
X923572Y199672D02*
D03*
X923685Y188976D02*
D03*
X722884Y363982D02*
D03*
X883076Y636330D02*
D03*
X761492Y593852D02*
D03*
X764032Y166370D02*
D03*
X660146Y306832D02*
D03*
M02*
