G04*
G04 #@! TF.GenerationSoftware,Altium Limited,Altium Designer,21.1.1 (26)*
G04*
G04 Layer_Color=32768*
%FSLAX44Y44*%
%MOMM*%
G71*
G04*
G04 #@! TF.SameCoordinates,6A85A449-59C4-447A-B511-F0FC370A597D*
G04*
G04*
G04 #@! TF.FilePolarity,Positive*
G04*
G01*
G75*
%ADD162C,0.1000*%
%ADD164C,0.0500*%
D162*
X975360Y157560D02*
Y167560D01*
X970360Y162560D02*
X980360D01*
X664290Y309880D02*
X674290D01*
X669290Y304880D02*
Y314880D01*
X240360Y302260D02*
X249860D01*
X245110Y297510D02*
Y307010D01*
X861060Y169877D02*
Y175877D01*
X858060Y172878D02*
X864060D01*
X716070Y167640D02*
X721570D01*
X718820Y164890D02*
Y170390D01*
X724960Y240808D02*
X730460D01*
X727710Y238057D02*
Y243558D01*
X816150Y619760D02*
X821650D01*
X818900Y617010D02*
Y622510D01*
X916940Y637330D02*
Y642830D01*
X914190Y640080D02*
X919690D01*
X983790Y130870D02*
X989790D01*
X986790Y127870D02*
Y133870D01*
X255270Y318560D02*
Y324060D01*
X252520Y321310D02*
X258020D01*
X611930Y100330D02*
X617430D01*
X614680Y97580D02*
Y103080D01*
X494110Y149860D02*
X504110D01*
X499110Y144860D02*
Y154860D01*
X260630Y397510D02*
X270230D01*
X265430Y392710D02*
Y402310D01*
X718820Y144090D02*
Y153090D01*
X714320Y148590D02*
X723320D01*
X458010Y394970D02*
X464010D01*
X461010Y391970D02*
Y397970D01*
X463630Y420243D02*
X473630D01*
X468630Y415243D02*
Y425243D01*
X759460Y214910D02*
Y224510D01*
X754660Y219710D02*
X764260D01*
X225387Y369850D02*
Y379450D01*
X220588Y374650D02*
X230187D01*
X450850Y466900D02*
Y472900D01*
X447850Y469900D02*
X453850D01*
X450850Y457897D02*
Y463898D01*
X447850Y460897D02*
X453850D01*
X461010Y441500D02*
Y447500D01*
X458010Y444500D02*
X464010D01*
X718207Y238550D02*
Y244050D01*
X715458Y241300D02*
X720958D01*
X769620Y182670D02*
Y188170D01*
X766870Y185420D02*
X772370D01*
X759618Y182670D02*
Y188170D01*
X756868Y185420D02*
X762368D01*
X854790Y114950D02*
X864790D01*
X859790Y109950D02*
Y119951D01*
X780040Y114950D02*
X790040D01*
X785040Y109951D02*
Y119951D01*
X832749Y114950D02*
X842749D01*
X837749Y109951D02*
Y119951D01*
X943345Y208635D02*
X948845D01*
X946095Y205885D02*
Y211385D01*
X927720Y208635D02*
X933220D01*
X930470Y205885D02*
Y211385D01*
X912095Y208635D02*
X917595D01*
X914845Y205885D02*
Y211385D01*
X753110Y114090D02*
Y119590D01*
X750360Y116840D02*
X755860D01*
X899605Y181149D02*
Y186648D01*
X896855Y183899D02*
X902355D01*
X861060Y159125D02*
Y164625D01*
X858310Y161875D02*
X863810D01*
X861060Y180130D02*
Y185630D01*
X858310Y182880D02*
X863810D01*
X753170Y155887D02*
Y161388D01*
X750420Y158637D02*
X755920D01*
X973630Y130870D02*
X979630D01*
X976630Y127870D02*
Y133870D01*
X753170Y164890D02*
Y170390D01*
X750420Y167640D02*
X755920D01*
X816400Y656695D02*
X821900D01*
X819150Y653945D02*
Y659445D01*
X996740Y354330D02*
X1002240D01*
X999490Y351580D02*
Y357080D01*
X789569Y267760D02*
Y273260D01*
X786819Y270510D02*
X792319D01*
X996740Y364490D02*
X1002240D01*
X999490Y361740D02*
Y367240D01*
X818150Y631190D02*
X823650D01*
X820900Y628440D02*
Y633940D01*
X905510Y637330D02*
Y642830D01*
X902760Y640080D02*
X908260D01*
X996740Y374650D02*
X1002240D01*
X999490Y371900D02*
Y377400D01*
X571290Y100330D02*
X576790D01*
X574040Y97580D02*
Y103080D01*
X581450Y100330D02*
X586950D01*
X584200Y97580D02*
Y103080D01*
X591610Y100330D02*
X597110D01*
X594360Y97580D02*
Y103080D01*
X601770Y100330D02*
X607270D01*
X604520Y97580D02*
Y103080D01*
X403650Y137160D02*
X409150D01*
X406400Y134410D02*
Y139910D01*
X403650Y127000D02*
X409150D01*
X406400Y124250D02*
Y129750D01*
X291890Y106600D02*
X297390D01*
X294640Y103850D02*
Y109350D01*
X257890Y374650D02*
X267890D01*
X262890Y369650D02*
Y379650D01*
X342900Y391240D02*
Y401240D01*
X337900Y396240D02*
X347900D01*
X426510Y564992D02*
X432010D01*
X429260Y562243D02*
Y567742D01*
X426510Y554990D02*
X432010D01*
X429260Y552240D02*
Y557740D01*
X382270Y566500D02*
Y576500D01*
X377270Y571500D02*
X387270D01*
X426510Y543560D02*
X432010D01*
X429260Y540810D02*
Y546310D01*
X426510Y527050D02*
X432010D01*
X429260Y524300D02*
Y529800D01*
X426510Y516890D02*
X432010D01*
X429260Y514140D02*
Y519640D01*
X426510Y506730D02*
X432010D01*
X429260Y503980D02*
Y509480D01*
X723900Y263950D02*
Y269450D01*
X721150Y266700D02*
X726650D01*
X645664Y562610D02*
X655664D01*
X650664Y557610D02*
Y567610D01*
X489653Y468420D02*
Y473920D01*
X486903Y471170D02*
X492402D01*
X489653Y458260D02*
Y463760D01*
X486903Y461010D02*
X492402D01*
X544830Y369037D02*
Y374537D01*
X542080Y371787D02*
X547580D01*
X481330Y441995D02*
Y447495D01*
X478580Y444745D02*
X484080D01*
X481330Y392220D02*
Y397720D01*
X478580Y394970D02*
X484080D01*
X368300Y333800D02*
Y339300D01*
X365550Y336550D02*
X371050D01*
X359297Y333860D02*
Y339360D01*
X356547Y336610D02*
X362048D01*
X403860Y333800D02*
Y339300D01*
X401110Y336550D02*
X406610D01*
X394857Y333800D02*
Y339300D01*
X392107Y336550D02*
X397607D01*
D164*
X956860Y179060D02*
X993860D01*
X956860Y146060D02*
X993860D01*
X956860D02*
Y179060D01*
X993860Y146060D02*
Y179060D01*
X658790Y292880D02*
Y326880D01*
X679790Y292880D02*
Y326880D01*
X658790Y292880D02*
X679790D01*
X658790Y326880D02*
X679790D01*
X256110Y296260D02*
Y308260D01*
X234110Y296260D02*
Y308260D01*
Y296260D02*
X256110D01*
X234110Y308260D02*
X256110D01*
X852060Y168378D02*
X870060D01*
X852060Y177377D02*
X870060D01*
Y168378D02*
Y177377D01*
X852060Y168378D02*
Y177377D01*
X727820Y163140D02*
Y172140D01*
X709820Y163140D02*
Y172140D01*
Y163140D02*
X727820D01*
X709820Y172140D02*
X727820D01*
X723210Y231807D02*
Y249807D01*
X732210Y231807D02*
Y249807D01*
X723210Y231807D02*
X732210D01*
X723210Y249807D02*
X732210D01*
X808400Y614260D02*
Y625260D01*
X829400Y614260D02*
Y625260D01*
X808400D02*
X829400D01*
X808400Y614260D02*
X829400D01*
X911440Y629580D02*
X922440D01*
X911440Y650580D02*
X922440D01*
X911440Y629580D02*
Y650580D01*
X922440Y629580D02*
Y650580D01*
X982790Y123370D02*
Y138370D01*
X990790Y123370D02*
Y138370D01*
X982790Y123370D02*
X990790D01*
X982790Y138370D02*
X990790D01*
X251270Y328810D02*
X259270D01*
X251270Y313810D02*
X259270D01*
Y328810D01*
X251270Y313810D02*
Y328810D01*
X610680Y92830D02*
Y107830D01*
X618680Y92830D02*
Y107830D01*
X610680Y92830D02*
X618680D01*
X610680Y107830D02*
X618680D01*
X704850Y243460D02*
Y246760D01*
X703200Y245110D02*
X706500D01*
X698850Y248110D02*
X710850D01*
X698850Y242110D02*
X710850D01*
X698850D02*
Y248110D01*
X710850Y242110D02*
Y248110D01*
X563435Y87985D02*
Y210485D01*
X434635D02*
X563435D01*
X434635Y87985D02*
Y210485D01*
Y87985D02*
X563435D01*
X343620Y138430D02*
Y290830D01*
X101170Y138430D02*
Y290830D01*
X343620D01*
X101170Y138430D02*
X343620D01*
X217170Y209630D02*
Y219630D01*
X212170Y214630D02*
X222170D01*
X217170Y209630D02*
Y219630D01*
X212170Y214630D02*
X222170D01*
X245930Y387010D02*
Y408010D01*
X284930Y387010D02*
Y408010D01*
X245930D02*
X284930D01*
X245930Y387010D02*
X284930D01*
X701820Y138090D02*
X735820D01*
X701820Y159090D02*
X735820D01*
Y138090D02*
Y159090D01*
X701820Y138090D02*
Y159090D01*
X469010Y390970D02*
Y398970D01*
X453010Y390970D02*
Y398970D01*
Y390970D02*
X469010D01*
X453010Y398970D02*
X469010D01*
X438630Y401243D02*
X498630D01*
Y439243D01*
X438630D02*
X498630D01*
X438630Y401243D02*
Y439243D01*
X748960Y239210D02*
X769960D01*
X748960Y200210D02*
X769960D01*
Y239210D01*
X748960Y200210D02*
Y239210D01*
X205888Y385150D02*
X244888D01*
X205888Y364150D02*
X244888D01*
X205888D02*
Y385150D01*
X244888Y364150D02*
Y385150D01*
X442850Y473900D02*
X458850D01*
X442850Y465900D02*
X458850D01*
X442850D02*
Y473900D01*
X458850Y465900D02*
Y473900D01*
X442850Y464898D02*
X458850D01*
X442850Y456897D02*
X458850D01*
X442850D02*
Y464898D01*
X458850Y456897D02*
Y464898D01*
X453010Y440500D02*
X469010D01*
X453010Y448500D02*
X469010D01*
Y440500D02*
Y448500D01*
X453010Y440500D02*
Y448500D01*
X714207Y233800D02*
X722207D01*
X714207Y248800D02*
X722207D01*
X714207Y233800D02*
Y248800D01*
X722207Y233800D02*
Y248800D01*
X765120Y194420D02*
X774120D01*
X765120Y176420D02*
X774120D01*
Y194420D01*
X765120Y176420D02*
Y194420D01*
X755118D02*
X764118D01*
X755118Y176420D02*
X764118D01*
Y194420D01*
X755118Y176420D02*
Y194420D01*
X849290Y97950D02*
Y131951D01*
X870290Y97950D02*
Y131951D01*
X849290D02*
X870290D01*
X849290Y97950D02*
X870290D01*
X795540D02*
Y131951D01*
X774540Y97950D02*
Y131951D01*
Y97950D02*
X795540D01*
X774540Y131951D02*
X795540D01*
X848249Y97950D02*
Y131951D01*
X827250Y97950D02*
Y131951D01*
Y97950D02*
X848249D01*
X827250Y131951D02*
X848249D01*
X951595Y198135D02*
Y219135D01*
X940595Y198135D02*
Y219135D01*
X951595D01*
X940595Y198135D02*
X951595D01*
X935970D02*
Y219135D01*
X924970Y198135D02*
Y219135D01*
X935970D01*
X924970Y198135D02*
X935970D01*
X920345D02*
Y219135D01*
X909345Y198135D02*
Y219135D01*
X920345D01*
X909345Y198135D02*
X920345D01*
X748610Y107840D02*
X757610D01*
X748610Y125840D02*
X757610D01*
X748610Y107840D02*
Y125840D01*
X757610Y107840D02*
Y125840D01*
X890605Y179399D02*
X908605D01*
X890605Y188398D02*
X908605D01*
Y179399D02*
Y188398D01*
X890605Y179399D02*
Y188398D01*
X850560Y156375D02*
X871560D01*
X850560Y167375D02*
X871560D01*
Y156375D02*
Y167375D01*
X850560Y156375D02*
Y167375D01*
X852060Y187380D02*
X870060D01*
X852060Y178380D02*
X870060D01*
X852060D02*
Y187380D01*
X870060Y178380D02*
Y187380D01*
X745670Y162637D02*
X760670D01*
X745670Y154637D02*
X760670D01*
X745670D02*
Y162637D01*
X760670Y154637D02*
Y162637D01*
X972630Y123370D02*
Y138370D01*
X980630Y123370D02*
Y138370D01*
X972630Y123370D02*
X980630D01*
X972630Y138370D02*
X980630D01*
X745670Y171640D02*
X760670D01*
X745670Y163640D02*
X760670D01*
X745670D02*
Y171640D01*
X760670Y163640D02*
Y171640D01*
X808650Y651195D02*
Y662195D01*
X829650Y651195D02*
Y662195D01*
X808650D02*
X829650D01*
X808650Y651195D02*
X829650D01*
X1006990Y350330D02*
Y358330D01*
X991990Y350330D02*
Y358330D01*
Y350330D02*
X1006990D01*
X991990Y358330D02*
X1006990D01*
X784069Y260010D02*
X795069D01*
X784069Y281010D02*
X795069D01*
X784069Y260010D02*
Y281010D01*
X795069Y260010D02*
Y281010D01*
X1006990Y360490D02*
Y368490D01*
X991990Y360490D02*
Y368490D01*
Y360490D02*
X1006990D01*
X991990Y368490D02*
X1006990D01*
X828400Y627190D02*
Y635190D01*
X813400Y627190D02*
Y635190D01*
Y627190D02*
X828400D01*
X813400Y635190D02*
X828400D01*
X901510Y632580D02*
X909510D01*
X901510Y647580D02*
X909510D01*
X901510Y632580D02*
Y647580D01*
X909510Y632580D02*
Y647580D01*
X1006990Y370650D02*
Y378650D01*
X991990Y370650D02*
Y378650D01*
Y370650D02*
X1006990D01*
X991990Y378650D02*
X1006990D01*
X570040Y92830D02*
Y107830D01*
X578040Y92830D02*
Y107830D01*
X570040Y92830D02*
X578040D01*
X570040Y107830D02*
X578040D01*
X580200Y92830D02*
Y107830D01*
X588200Y92830D02*
Y107830D01*
X580200Y92830D02*
X588200D01*
X580200Y107830D02*
X588200D01*
X590360Y92830D02*
Y107830D01*
X598360Y92830D02*
Y107830D01*
X590360Y92830D02*
X598360D01*
X590360Y107830D02*
X598360D01*
X600520Y92830D02*
Y107830D01*
X608520Y92830D02*
Y107830D01*
X600520Y92830D02*
X608520D01*
X600520Y107830D02*
X608520D01*
X413900Y133160D02*
Y141160D01*
X398900Y133160D02*
Y141160D01*
Y133160D02*
X413900D01*
X398900Y141160D02*
X413900D01*
Y123000D02*
Y131000D01*
X398900Y123000D02*
Y131000D01*
Y123000D02*
X413900D01*
X398900Y131000D02*
X413900D01*
X298640Y99100D02*
Y114100D01*
X290640Y99100D02*
Y114100D01*
Y99100D02*
X298640D01*
X290640Y114100D02*
X298640D01*
X279890Y364150D02*
Y385150D01*
X245890Y364150D02*
Y385150D01*
Y364150D02*
X279890D01*
X245890Y385150D02*
X279890D01*
X325900Y406740D02*
X359900D01*
X325900Y385740D02*
X359900D01*
X325900D02*
Y406740D01*
X359900Y385740D02*
Y406740D01*
X420260Y560493D02*
Y569492D01*
X438260Y560493D02*
Y569492D01*
X420260D02*
X438260D01*
X420260Y560493D02*
X438260D01*
X420260Y550490D02*
Y559490D01*
X438260Y550490D02*
Y559490D01*
X420260D02*
X438260D01*
X420260Y550490D02*
X438260D01*
X371770Y554500D02*
X392770D01*
X371770Y588500D02*
X392770D01*
X371770Y554500D02*
Y588500D01*
X392770Y554500D02*
Y588500D01*
X420260Y539060D02*
Y548060D01*
X438260Y539060D02*
Y548060D01*
X420260D02*
X438260D01*
X420260Y539060D02*
X438260D01*
X420260Y522550D02*
Y531550D01*
X438260Y522550D02*
Y531550D01*
X420260D02*
X438260D01*
X420260Y522550D02*
X438260D01*
X420260Y512390D02*
Y521390D01*
X438260Y512390D02*
Y521390D01*
X420260D02*
X438260D01*
X420260Y512390D02*
X438260D01*
X420260Y502230D02*
Y511230D01*
X438260Y502230D02*
Y511230D01*
X420260D02*
X438260D01*
X420260Y502230D02*
X438260D01*
X714900Y262200D02*
X732900D01*
X714900Y271200D02*
X732900D01*
Y262200D02*
Y271200D01*
X714900Y262200D02*
Y271200D01*
X640164Y545610D02*
Y579610D01*
X661163Y545610D02*
Y579610D01*
X640164Y545610D02*
X661163D01*
X640164Y579610D02*
X661163D01*
X480652Y466670D02*
X498653D01*
X480652Y475670D02*
X498653D01*
Y466670D02*
Y475670D01*
X480652Y466670D02*
Y475670D01*
Y456510D02*
X498653D01*
X480652Y465510D02*
X498653D01*
Y456510D02*
Y465510D01*
X480652Y456510D02*
Y465510D01*
X535830Y376287D02*
X553830D01*
X535830Y367287D02*
X553830D01*
X535830D02*
Y376287D01*
X553830Y367287D02*
Y376287D01*
X472330Y440245D02*
X490330D01*
X472330Y449245D02*
X490330D01*
Y440245D02*
Y449245D01*
X472330Y440245D02*
Y449245D01*
Y390470D02*
X490330D01*
X472330Y399470D02*
X490330D01*
Y390470D02*
Y399470D01*
X472330Y390470D02*
Y399470D01*
X364300Y329050D02*
X372300D01*
X364300Y344050D02*
X372300D01*
X364300Y329050D02*
Y344050D01*
X372300Y329050D02*
Y344050D01*
X355297Y344110D02*
X363297D01*
X355297Y329110D02*
X363297D01*
Y344110D01*
X355297Y329110D02*
Y344110D01*
X399860Y329050D02*
X407860D01*
X399860Y344050D02*
X407860D01*
X399860Y329050D02*
Y344050D01*
X407860Y329050D02*
Y344050D01*
X390857D02*
X398857D01*
X390857Y329050D02*
X398857D01*
Y344050D01*
X390857Y329050D02*
Y344050D01*
M02*
