G04*
G04 #@! TF.GenerationSoftware,Altium Limited,Altium Designer,21.1.1 (26)*
G04*
G04 Layer_Physical_Order=2*
G04 Layer_Color=16711680*
%FSLAX44Y44*%
%MOMM*%
G71*
G04*
G04 #@! TF.SameCoordinates,6A85A449-59C4-447A-B511-F0FC370A597D*
G04*
G04*
G04 #@! TF.FilePolarity,Positive*
G04*
G01*
G75*
%ADD12C,0.2540*%
%ADD71R,0.4500X0.5000*%
%ADD115C,0.7000*%
%ADD117C,0.3500*%
%ADD119C,0.1500*%
%ADD121R,1.1000X1.0000*%
G04:AMPARAMS|DCode=141|XSize=1.524mm|YSize=4mm|CornerRadius=0.381mm|HoleSize=0mm|Usage=FLASHONLY|Rotation=0.000|XOffset=0mm|YOffset=0mm|HoleType=Round|Shape=RoundedRectangle|*
%AMROUNDEDRECTD141*
21,1,1.5240,3.2380,0,0,0.0*
21,1,0.7620,4.0000,0,0,0.0*
1,1,0.7620,0.3810,-1.6190*
1,1,0.7620,-0.3810,-1.6190*
1,1,0.7620,-0.3810,1.6190*
1,1,0.7620,0.3810,1.6190*
%
%ADD141ROUNDEDRECTD141*%
%ADD148C,0.4000*%
%ADD150C,3.4000*%
%ADD151C,0.4000*%
%ADD152C,1.0160*%
G04:AMPARAMS|DCode=153|XSize=1.016mm|YSize=1.016mm|CornerRadius=0.254mm|HoleSize=0mm|Usage=FLASHONLY|Rotation=90.000|XOffset=0mm|YOffset=0mm|HoleType=Round|Shape=RoundedRectangle|*
%AMROUNDEDRECTD153*
21,1,1.0160,0.5080,0,0,90.0*
21,1,0.5080,1.0160,0,0,90.0*
1,1,0.5080,0.2540,0.2540*
1,1,0.5080,0.2540,-0.2540*
1,1,0.5080,-0.2540,-0.2540*
1,1,0.5080,-0.2540,0.2540*
%
%ADD153ROUNDEDRECTD153*%
%ADD154R,0.5000X0.5000*%
%ADD155R,0.5500X0.8000*%
%ADD156R,1.1000X1.1000*%
%ADD157R,0.9500X1.1000*%
G36*
X529790Y647137D02*
X529294Y646756D01*
X528079Y645173D01*
X527316Y643329D01*
X527055Y641350D01*
X527316Y639371D01*
X528079Y637527D01*
X529294Y635944D01*
X530878Y634729D01*
X531387Y634518D01*
Y626243D01*
X523138Y617994D01*
X450850D01*
X449582Y617741D01*
X448507Y617023D01*
X440588Y609104D01*
X432401D01*
X431016Y610029D01*
X429260Y610378D01*
X428672Y610261D01*
X427498Y610870D01*
X427149Y612626D01*
X426154Y614114D01*
X424666Y615109D01*
X422910Y615458D01*
X422414Y615866D01*
Y618134D01*
X434443Y630162D01*
X507792D01*
X509060Y630415D01*
X510135Y631133D01*
X513178Y634176D01*
X513687Y633965D01*
X515666Y633705D01*
X517645Y633965D01*
X519488Y634729D01*
X521072Y635944D01*
X522287Y637527D01*
X523051Y639371D01*
X523311Y641350D01*
X523051Y643329D01*
X522840Y643838D01*
X527409Y648407D01*
X529359D01*
X529790Y647137D01*
D02*
G37*
G36*
X1017808Y660355D02*
X1022686Y659017D01*
X1027249Y656835D01*
X1031353Y653877D01*
X1034866Y650238D01*
X1037678Y646034D01*
X1039699Y641397D01*
X1040999Y635905D01*
X1041077Y635736D01*
X1041078Y635723D01*
X1041182Y635473D01*
Y415504D01*
X1040008Y415018D01*
X1022407Y432619D01*
X1021332Y433337D01*
X1021128Y433378D01*
X1021119Y433391D01*
X1020811Y434736D01*
X1021856Y435538D01*
X1023071Y437121D01*
X1023835Y438965D01*
X1024096Y440944D01*
X1023835Y442923D01*
X1023071Y444767D01*
X1021856Y446350D01*
X1020273Y447565D01*
X1018429Y448329D01*
X1016450Y448589D01*
X1014471Y448329D01*
X1012627Y447565D01*
X1011044Y446350D01*
X1009829Y444767D01*
X1009618Y444258D01*
X702530D01*
X701526Y444929D01*
X699770Y445278D01*
X698014Y444929D01*
X697010Y444258D01*
X643572D01*
X642304Y444005D01*
X641229Y443287D01*
X631872Y433931D01*
X631363Y434142D01*
X629385Y434402D01*
X627406Y434142D01*
X625562Y433378D01*
X623979Y432163D01*
X622763Y430579D01*
X622553Y430070D01*
X613314D01*
X611864Y431039D01*
X610108Y431388D01*
X609612Y431796D01*
Y504087D01*
X701905Y596380D01*
X756358D01*
X757154Y595110D01*
X756904Y593852D01*
X757253Y592096D01*
X758248Y590608D01*
X759736Y589613D01*
X761492Y589264D01*
X763248Y589613D01*
X764632Y590538D01*
X826873D01*
X828141Y590791D01*
X829216Y591509D01*
X873725Y636018D01*
X874234Y635808D01*
X876213Y635547D01*
X878192Y635808D01*
X878639Y635569D01*
X878837Y634574D01*
X879831Y633086D01*
X881320Y632091D01*
X883076Y631742D01*
X884831Y632091D01*
X886320Y633086D01*
X887315Y634574D01*
X887664Y636330D01*
X887315Y638086D01*
X886320Y639574D01*
X884831Y640569D01*
X883837Y640767D01*
X883598Y641214D01*
X883858Y643193D01*
X883598Y645171D01*
X883082Y646418D01*
X883820Y647688D01*
X890929D01*
X893814Y644803D01*
Y593437D01*
X892889Y592052D01*
X892540Y590296D01*
X892889Y588540D01*
X893884Y587052D01*
X894414Y586697D01*
Y585427D01*
X894392Y585412D01*
X893397Y583924D01*
X893048Y582168D01*
X893397Y580412D01*
X894392Y578924D01*
X895880Y577929D01*
X897636Y577580D01*
X899392Y577929D01*
X900880Y578924D01*
X901875Y580412D01*
X902200Y582046D01*
X903281Y583127D01*
X903999Y584202D01*
X904252Y585470D01*
Y650240D01*
X903999Y651508D01*
X903281Y652583D01*
X897693Y658171D01*
X896618Y658889D01*
X895350Y659142D01*
X638048D01*
X636780Y658889D01*
X635705Y658171D01*
X633678Y656144D01*
X633169Y656355D01*
X631190Y656615D01*
X629211Y656355D01*
X627367Y655591D01*
X625784Y654376D01*
X624569Y652793D01*
X624311Y652171D01*
X622813Y651873D01*
X620623Y654063D01*
X619548Y654782D01*
X618280Y655034D01*
X526036D01*
X524768Y654782D01*
X523693Y654063D01*
X518153Y648524D01*
X517645Y648735D01*
X515666Y648995D01*
X513687Y648735D01*
X511843Y647971D01*
X510260Y646756D01*
X509045Y645173D01*
X508281Y643329D01*
X508020Y641350D01*
X508281Y639371D01*
X508492Y638862D01*
X506427Y636797D01*
X505167Y636833D01*
X504160Y638060D01*
X504310Y638810D01*
Y643890D01*
X503918Y645856D01*
X502805Y647524D01*
X501138Y648638D01*
X499171Y649029D01*
X494091D01*
X492124Y648638D01*
X490457Y647524D01*
X489343Y645856D01*
X489106Y644664D01*
X427736D01*
X426468Y644411D01*
X425393Y643693D01*
X414217Y632517D01*
X413499Y631442D01*
X413246Y630174D01*
Y584708D01*
X413499Y583440D01*
X414217Y582365D01*
X416314Y580268D01*
X416639Y578634D01*
X417634Y577146D01*
X419122Y576151D01*
X420878Y575802D01*
X422634Y576151D01*
X424122Y577146D01*
X424234Y577312D01*
X425498Y577437D01*
X430264Y572670D01*
Y538573D01*
X429339Y537188D01*
X428990Y535432D01*
X429339Y533676D01*
X430334Y532188D01*
X431822Y531193D01*
X433578Y530844D01*
X435334Y531193D01*
X436822Y532188D01*
X437817Y533676D01*
X438166Y535432D01*
X437817Y537188D01*
X436892Y538573D01*
Y574043D01*
X436639Y575311D01*
X435921Y576386D01*
X422414Y589893D01*
Y600987D01*
X423587Y601473D01*
X425363Y599697D01*
X426438Y598979D01*
X427706Y598726D01*
X442020D01*
X443288Y598979D01*
X444363Y599697D01*
X453533Y608867D01*
X525545D01*
X526813Y609119D01*
X527888Y609837D01*
X551987Y633935D01*
X553735Y633705D01*
X553861Y633721D01*
X554454Y632518D01*
X520140Y598204D01*
X514463D01*
X514332Y598867D01*
X513218Y600534D01*
X511550Y601648D01*
X509584Y602039D01*
X504504D01*
X502537Y601648D01*
X500870Y600534D01*
X499756Y598867D01*
X499365Y596900D01*
Y591820D01*
X499756Y589854D01*
X500870Y588186D01*
X502537Y587072D01*
X504504Y586681D01*
X509584D01*
X511550Y587072D01*
X513218Y588186D01*
X514332Y589854D01*
X514463Y590516D01*
X521732D01*
X521732Y590516D01*
X523203Y590809D01*
X524450Y591642D01*
X524669Y591861D01*
X526167Y591563D01*
X526382Y591042D01*
X527437Y589667D01*
X528812Y588612D01*
X530412Y587949D01*
X531130Y587855D01*
Y594360D01*
X532130D01*
Y595360D01*
X538635D01*
X538541Y596078D01*
X537878Y597678D01*
X536823Y599053D01*
X535448Y600108D01*
X534927Y600323D01*
X534629Y601822D01*
X568138Y635330D01*
X568138Y635330D01*
X568187Y635404D01*
X569440Y635611D01*
X569452Y635602D01*
X571052Y634939D01*
X571770Y634845D01*
Y641350D01*
X573770D01*
Y634845D01*
X574488Y634939D01*
X576088Y635602D01*
X577463Y636657D01*
X578518Y638032D01*
X578738Y638564D01*
X580236Y638862D01*
X594182Y624916D01*
X594182Y624916D01*
X595429Y624083D01*
X596900Y623790D01*
X713395D01*
X714111Y622520D01*
X713679Y621478D01*
X713585Y620760D01*
X720090D01*
X726595D01*
X726501Y621478D01*
X726069Y622520D01*
X726785Y623790D01*
X788013D01*
X788499Y622617D01*
X768890Y603008D01*
X700532D01*
X699264Y602755D01*
X698189Y602037D01*
X664206Y568054D01*
X662942Y568179D01*
X662628Y568648D01*
X661140Y569643D01*
X659384Y569992D01*
X657628Y569643D01*
X656140Y568648D01*
X655145Y567160D01*
X654820Y565526D01*
X583607Y494313D01*
X582434Y494799D01*
Y564549D01*
X583359Y565934D01*
X583708Y567690D01*
X583359Y569446D01*
X582364Y570934D01*
X580876Y571929D01*
X579120Y572278D01*
X577364Y571929D01*
X575876Y570934D01*
X574881Y569446D01*
X574532Y567690D01*
X574881Y565934D01*
X575806Y564549D01*
Y431416D01*
X575056Y430800D01*
X573300Y430451D01*
X571812Y429456D01*
X570817Y427968D01*
X570468Y426212D01*
X570817Y424456D01*
X571742Y423072D01*
Y422505D01*
X567588Y418350D01*
X562220D01*
X561931Y419620D01*
X563141Y420428D01*
X564135Y421916D01*
X564484Y423672D01*
X564135Y425428D01*
X563141Y426916D01*
X561652Y427911D01*
X559896Y428260D01*
X558140Y427911D01*
X556756Y426986D01*
X540097D01*
X522216Y444867D01*
X521891Y446501D01*
X520896Y447989D01*
X519408Y448984D01*
X517652Y449333D01*
X515896Y448984D01*
X514408Y447989D01*
X513413Y446501D01*
X513064Y444745D01*
X513413Y442989D01*
X514408Y441501D01*
X515896Y440506D01*
X517530Y440181D01*
X536382Y421329D01*
X537457Y420611D01*
X538725Y420358D01*
X556756D01*
X557861Y419620D01*
X557573Y418350D01*
X534254D01*
X532870Y419275D01*
X531114Y419624D01*
X529358Y419275D01*
X527870Y418280D01*
X526875Y416792D01*
X526526Y415036D01*
X526875Y413280D01*
X527870Y411792D01*
X529358Y410797D01*
X531114Y410448D01*
X532870Y410797D01*
X534254Y411722D01*
X568960D01*
X570228Y411975D01*
X571303Y412693D01*
X574633Y416023D01*
X575806Y415537D01*
Y414221D01*
X574881Y412836D01*
X574532Y411080D01*
X574881Y409324D01*
X575876Y407836D01*
X576106Y407682D01*
X576230Y406418D01*
X548836Y379024D01*
X380883D01*
X379498Y379950D01*
X377743Y380299D01*
X375987Y379950D01*
X374498Y378955D01*
X373504Y377467D01*
X373154Y375711D01*
X373504Y373955D01*
X374498Y372466D01*
X375987Y371472D01*
X377743Y371123D01*
X379498Y371472D01*
X380883Y372397D01*
X550065D01*
X550333Y372060D01*
X550655Y371191D01*
X531265Y351802D01*
X239776D01*
X238508Y351549D01*
X237433Y350831D01*
X232607Y346005D01*
X231889Y344930D01*
X231636Y343662D01*
Y237744D01*
X231889Y236476D01*
X232606Y235402D01*
X232931Y233768D01*
X233926Y232280D01*
X235414Y231285D01*
X237170Y230936D01*
X238926Y231285D01*
X240414Y232280D01*
X241409Y233768D01*
X241758Y235524D01*
X241409Y237280D01*
X240414Y238768D01*
X238926Y239763D01*
X238264Y239895D01*
Y242571D01*
X239534Y243250D01*
X240052Y242903D01*
X241808Y242554D01*
X243564Y242903D01*
X245052Y243898D01*
X246047Y245386D01*
X246396Y247142D01*
X246047Y248898D01*
X245052Y250386D01*
X243564Y251381D01*
X241930Y251706D01*
X240804Y252833D01*
Y331906D01*
X242074Y332893D01*
X242924Y332724D01*
X244680Y333073D01*
X246168Y334068D01*
X246225Y334153D01*
X257703D01*
X258189Y332979D01*
X257753Y332543D01*
X257035Y331468D01*
X256782Y330200D01*
Y313690D01*
X257035Y312422D01*
X257753Y311347D01*
X274606Y294494D01*
X274931Y292860D01*
X275926Y291372D01*
X277414Y290377D01*
X279170Y290028D01*
X280926Y290377D01*
X282414Y291372D01*
X283409Y292860D01*
X283758Y294616D01*
X283409Y296372D01*
X282414Y297860D01*
X280926Y298855D01*
X279292Y299180D01*
X263410Y315063D01*
Y323756D01*
X264666Y324162D01*
X266154Y323167D01*
X267910Y322818D01*
X269666Y323167D01*
X271051Y324092D01*
X408021D01*
X408827Y323111D01*
X408772Y322834D01*
X409121Y321078D01*
X410116Y319590D01*
X411604Y318595D01*
X413360Y318246D01*
X415116Y318595D01*
X416604Y319590D01*
X417599Y321078D01*
X417693Y321552D01*
X539235D01*
X539721Y320379D01*
X513993Y294652D01*
X322419D01*
X321034Y295577D01*
X319278Y295926D01*
X317522Y295577D01*
X316034Y294582D01*
X315039Y293094D01*
X314690Y291338D01*
X315039Y289582D01*
X316034Y288094D01*
X317522Y287099D01*
X319278Y286750D01*
X321034Y287099D01*
X322419Y288024D01*
X515366D01*
X516634Y288277D01*
X517709Y288995D01*
X544679Y315964D01*
X557525D01*
X558077Y315292D01*
X558166Y314694D01*
X498545Y255073D01*
X497827Y253998D01*
X497574Y252730D01*
Y240727D01*
X497065Y240516D01*
X495482Y239301D01*
X494267Y237718D01*
X493503Y235874D01*
X493243Y233895D01*
X493503Y231916D01*
X493714Y231407D01*
X487642Y225335D01*
X487438Y225029D01*
X486168Y225415D01*
Y227063D01*
X486677Y227274D01*
X488260Y228489D01*
X489475Y230072D01*
X490239Y231916D01*
X490499Y233895D01*
X490239Y235874D01*
X489475Y237718D01*
X488260Y239301D01*
X486677Y240516D01*
X484833Y241280D01*
X482854Y241540D01*
X480875Y241280D01*
X479031Y240516D01*
X477448Y239301D01*
X476233Y237718D01*
X475469Y235874D01*
X475209Y233895D01*
X475469Y231916D01*
X475860Y230973D01*
X475671Y230026D01*
Y211693D01*
X474401Y210848D01*
X473303Y210992D01*
X473195Y211014D01*
X465815D01*
X465384Y212284D01*
X466194Y212906D01*
X467243Y214272D01*
X467902Y215863D01*
X468112Y217463D01*
X468134Y217570D01*
Y227063D01*
X468643Y227274D01*
X470226Y228489D01*
X471441Y230072D01*
X472205Y231916D01*
X472465Y233895D01*
X472205Y235874D01*
X471441Y237718D01*
X470226Y239301D01*
X468643Y240516D01*
X466799Y241280D01*
X464820Y241540D01*
X462841Y241280D01*
X460997Y240516D01*
X459414Y239301D01*
X458199Y237718D01*
X457435Y235874D01*
X457175Y233895D01*
X457435Y231916D01*
X458199Y230072D01*
X459414Y228489D01*
X460997Y227274D01*
X461506Y227063D01*
Y217654D01*
X461463Y217637D01*
X461446Y217594D01*
X459505D01*
X459397Y217572D01*
X457797Y217362D01*
X456206Y216703D01*
X454840Y215655D01*
X453792Y214288D01*
X453292Y213082D01*
X451960Y212619D01*
X419411Y245167D01*
X418336Y245885D01*
X417068Y246138D01*
X370933D01*
X369548Y247063D01*
X367792Y247412D01*
X366690Y247193D01*
X366402Y247378D01*
X365704Y248252D01*
X365978Y249630D01*
X365629Y251386D01*
X364635Y252875D01*
X363146Y253869D01*
X361390Y254218D01*
X359634Y253869D01*
X358146Y252875D01*
X357151Y251386D01*
X356802Y249630D01*
X357151Y247874D01*
X358077Y246490D01*
Y196436D01*
X292297Y130657D01*
X291579Y129582D01*
X291326Y128314D01*
Y115350D01*
X289890D01*
Y105350D01*
Y97850D01*
X299390D01*
Y99537D01*
X302340D01*
Y96680D01*
X312340D01*
Y106680D01*
X311992D01*
X311340Y107680D01*
X311340Y107950D01*
Y110680D01*
X307340D01*
X303340D01*
Y107950D01*
X303340Y107680D01*
X302688Y106680D01*
X302340D01*
Y106164D01*
X299390D01*
Y115350D01*
X297954D01*
Y126941D01*
X363733Y192721D01*
X364452Y193796D01*
X364704Y195064D01*
Y238128D01*
X365824Y238727D01*
X366036Y238585D01*
X367792Y238236D01*
X369548Y238585D01*
X370933Y239510D01*
X415695D01*
X453378Y201827D01*
Y178054D01*
X453631Y176786D01*
X454349Y175711D01*
X463824Y166236D01*
X464899Y165517D01*
X466167Y165265D01*
X622985D01*
X624253Y165517D01*
X625328Y166236D01*
X638105Y179013D01*
X638823Y180088D01*
X639076Y181356D01*
X640322Y181300D01*
Y159361D01*
X636675Y155714D01*
X420852D01*
X420641Y156223D01*
X419426Y157806D01*
X417843Y159021D01*
X415999Y159785D01*
X414020Y160045D01*
X412041Y159785D01*
X410197Y159021D01*
X408614Y157806D01*
X407399Y156223D01*
X406635Y154379D01*
X406375Y152400D01*
X406635Y150421D01*
X406846Y149912D01*
X393578Y136644D01*
X391944Y136319D01*
X390456Y135324D01*
X389461Y133836D01*
X389112Y132080D01*
X389461Y130324D01*
X390456Y128836D01*
X391944Y127841D01*
X393700Y127492D01*
X395456Y127841D01*
X396944Y128836D01*
X397939Y130324D01*
X398264Y131958D01*
X411532Y145226D01*
X412041Y145015D01*
X414020Y144755D01*
X415999Y145015D01*
X417843Y145779D01*
X419426Y146994D01*
X420641Y148577D01*
X420852Y149086D01*
X626078D01*
X626564Y147913D01*
X624136Y145484D01*
X623141Y143996D01*
X622792Y142240D01*
Y136769D01*
X621108Y136434D01*
X619021Y135039D01*
X617626Y132952D01*
X617136Y130490D01*
Y98110D01*
X617626Y95648D01*
X619021Y93561D01*
X620940Y92278D01*
X620926Y91612D01*
X620729Y91008D01*
X133058D01*
X127841Y91465D01*
X123061Y92746D01*
X118577Y94837D01*
X114524Y97675D01*
X111877Y100321D01*
X112403Y101591D01*
X186690D01*
X187665Y101785D01*
X188492Y102338D01*
X189045Y103165D01*
X189239Y104140D01*
Y619242D01*
X189045Y620218D01*
X188492Y621045D01*
X187665Y621597D01*
X186690Y621791D01*
X104359D01*
Y629394D01*
X105398Y630123D01*
X106613Y629683D01*
X106615Y629683D01*
X106616Y629682D01*
X106622Y629680D01*
X106958Y629629D01*
X107168Y629542D01*
X107641Y629479D01*
X108102Y629331D01*
X112008Y628876D01*
X112424Y628909D01*
X112770Y628864D01*
X113069Y628903D01*
X113455Y628867D01*
X116968Y629234D01*
X117454Y629385D01*
X117980Y629454D01*
X118049Y629483D01*
X118278Y629508D01*
X118280Y629508D01*
X118287Y629513D01*
X118296Y629514D01*
X118298Y629514D01*
X118304Y629517D01*
X118309Y629518D01*
X121658Y630599D01*
X121660Y630600D01*
X121660Y630600D01*
X121667Y630602D01*
X121832Y630694D01*
X122017Y630731D01*
X122366Y630964D01*
X122445Y630996D01*
X122921Y631156D01*
X125986Y632913D01*
X126338Y633219D01*
X126602Y633422D01*
X127097Y633713D01*
X129733Y636065D01*
X129890Y636275D01*
X129982Y636345D01*
X130287Y636743D01*
X130652Y637076D01*
X130656Y637082D01*
X130657Y637083D01*
X130658Y637084D01*
X132745Y639922D01*
X132917Y640288D01*
X133117Y640549D01*
X133222Y640804D01*
X133439Y641106D01*
X134898Y644323D01*
X135016Y644829D01*
X135231Y645347D01*
X135239Y645414D01*
X135331Y645621D01*
X136094Y649071D01*
X136106Y649650D01*
X136139Y649904D01*
X136249Y650423D01*
X136249Y650430D01*
X136248Y650434D01*
X136249Y650438D01*
X136282Y653957D01*
X136276Y653991D01*
X136283Y654026D01*
X136188Y654503D01*
X136154Y654757D01*
X136153Y655326D01*
X135456Y658789D01*
X135348Y659047D01*
X135330Y659186D01*
X135148Y659624D01*
X135966Y660832D01*
X989541D01*
X989879Y660420D01*
X990228Y658664D01*
X991223Y657176D01*
X992711Y656181D01*
X994467Y655832D01*
X996223Y656181D01*
X996538Y656392D01*
X998165Y654765D01*
X997683Y653451D01*
X996464Y653209D01*
X994976Y652214D01*
X993981Y650726D01*
X993632Y648970D01*
X993981Y647214D01*
X994906Y645829D01*
Y623570D01*
X995159Y622302D01*
X995877Y621227D01*
X998007Y619097D01*
X997638Y617882D01*
X997239Y617802D01*
X995254Y616476D01*
X993928Y614491D01*
X993462Y612150D01*
X993928Y609809D01*
X995254Y607824D01*
X997239Y606498D01*
X999580Y606033D01*
X1001921Y606498D01*
X1003906Y607824D01*
X1005066Y609562D01*
X1006336Y609348D01*
Y603650D01*
X1004580D01*
Y587650D01*
X1019080D01*
Y603650D01*
X1012964D01*
Y608966D01*
X1014234Y609352D01*
X1015254Y607824D01*
X1017239Y606498D01*
X1019580Y606033D01*
X1021921Y606498D01*
X1023906Y607824D01*
X1025232Y609809D01*
X1025697Y612150D01*
X1025232Y614491D01*
X1023906Y616476D01*
X1021921Y617802D01*
X1019580Y618268D01*
X1017239Y617802D01*
X1015254Y616476D01*
X1013928Y614491D01*
X1013810Y613899D01*
X1012485Y613747D01*
X1011993Y614483D01*
X1007000Y619477D01*
X1007486Y620650D01*
X1019080D01*
Y631214D01*
X1020649Y632784D01*
X1021080Y632698D01*
X1022836Y633047D01*
X1024324Y634042D01*
X1025319Y635530D01*
X1025668Y637286D01*
X1025319Y639042D01*
X1024324Y640530D01*
X1022836Y641525D01*
X1022138Y641664D01*
X1004144Y659658D01*
X1004630Y660832D01*
X1012476D01*
X1017808Y660355D01*
D02*
G37*
G36*
X632468Y632846D02*
X632545Y632460D01*
X631739Y631478D01*
X598492D01*
X582737Y647233D01*
X583223Y648407D01*
X616907D01*
X632468Y632846D01*
D02*
G37*
G36*
X643066Y651458D02*
X642855Y650949D01*
X642595Y648970D01*
X642855Y646991D01*
X643619Y645147D01*
X644834Y643564D01*
X646417Y642349D01*
X648261Y641585D01*
X650240Y641325D01*
X652219Y641585D01*
X654063Y642349D01*
X655646Y643564D01*
X656861Y645147D01*
X657625Y646991D01*
X657717Y647688D01*
X868606D01*
X869345Y646418D01*
X868828Y645171D01*
X868568Y643193D01*
X868828Y641214D01*
X869039Y640705D01*
X825500Y597166D01*
X774216D01*
X773690Y598436D01*
X804932Y629678D01*
X806077Y629470D01*
X806359Y629309D01*
X807270Y627946D01*
X808758Y626951D01*
X810514Y626602D01*
X812270Y626951D01*
X813758Y627946D01*
X814753Y629434D01*
X815102Y631190D01*
X814753Y632946D01*
X813828Y634330D01*
Y638048D01*
X813575Y639316D01*
X812857Y640391D01*
X808793Y644455D01*
X807718Y645173D01*
X806450Y645426D01*
X781812D01*
X780544Y645173D01*
X779469Y644455D01*
X778458Y643444D01*
X777949Y643655D01*
X775970Y643915D01*
X773991Y643655D01*
X772147Y642891D01*
X770564Y641676D01*
X769349Y640093D01*
X768585Y638249D01*
X768325Y636270D01*
X768585Y634291D01*
X769224Y632748D01*
X768659Y631478D01*
X642325D01*
X641519Y632460D01*
X641620Y632968D01*
X641271Y634724D01*
X640276Y636212D01*
X638788Y637207D01*
X637154Y637532D01*
X634093Y640593D01*
X634391Y642091D01*
X635013Y642349D01*
X636596Y643564D01*
X637811Y645147D01*
X638575Y646991D01*
X638835Y648970D01*
X638575Y650949D01*
X638364Y651458D01*
X639421Y652514D01*
X642361D01*
X643066Y651458D01*
D02*
G37*
G36*
X710409Y436457D02*
X676853Y402901D01*
X676135Y401826D01*
X675882Y400558D01*
Y368647D01*
X674957Y367262D01*
X674608Y365506D01*
X674957Y363750D01*
X675952Y362262D01*
X677440Y361267D01*
X679196Y360918D01*
X680952Y361267D01*
X682440Y362262D01*
X683435Y363750D01*
X683784Y365506D01*
X683435Y367262D01*
X682510Y368647D01*
Y399185D01*
X708491Y425167D01*
X709664Y424681D01*
Y349840D01*
X709917Y348572D01*
X710635Y347497D01*
X712934Y345198D01*
X712408Y343928D01*
X677335D01*
X676067Y343675D01*
X674992Y342957D01*
X662755Y330720D01*
X644659D01*
X644173Y331893D01*
X648011Y335731D01*
X648729Y336806D01*
X648982Y338074D01*
Y339840D01*
X648960Y339948D01*
X648750Y341547D01*
X648091Y343138D01*
X647042Y344505D01*
X646232Y345126D01*
X646663Y346396D01*
X663951D01*
X664058Y346418D01*
X665658Y346628D01*
X667249Y347287D01*
X668615Y348336D01*
X669663Y349702D01*
X670322Y351293D01*
X670533Y352892D01*
X670555Y353000D01*
X670533Y353108D01*
X670322Y354707D01*
X669663Y356298D01*
X668615Y357664D01*
X667249Y358713D01*
X665658Y359372D01*
X664058Y359582D01*
X663951Y359604D01*
X649042D01*
X649025Y359647D01*
X648982Y359664D01*
Y377190D01*
Y403768D01*
X649907Y405152D01*
X650256Y406908D01*
X649907Y408664D01*
X648912Y410152D01*
X647424Y411147D01*
X645668Y411496D01*
X643912Y411147D01*
X642424Y410152D01*
X641429Y408664D01*
X641080Y406908D01*
X641429Y405152D01*
X642354Y403768D01*
Y377190D01*
Y370145D01*
X641673Y369586D01*
X639917Y369237D01*
X638533Y368312D01*
X589438D01*
X588840Y369432D01*
X588947Y369592D01*
X589272Y371226D01*
X616261Y398215D01*
X616979Y399290D01*
X617232Y400558D01*
Y420116D01*
X616979Y421384D01*
X616452Y422173D01*
X616901Y423443D01*
X622553D01*
X622763Y422934D01*
X623979Y421351D01*
X625562Y420135D01*
X627406Y419372D01*
X629385Y419111D01*
X631363Y419372D01*
X633207Y420135D01*
X634791Y421351D01*
X636006Y422934D01*
X636769Y424778D01*
X637030Y426757D01*
X636769Y428735D01*
X636559Y429244D01*
X644945Y437630D01*
X696402D01*
X696526Y437446D01*
X698014Y436451D01*
X699770Y436102D01*
X701526Y436451D01*
X703014Y437446D01*
X703138Y437630D01*
X709923D01*
X710409Y436457D01*
D02*
G37*
G36*
X1009829Y437121D02*
X1011044Y435538D01*
X1011928Y434860D01*
X1011497Y433590D01*
X890881D01*
X888013Y436457D01*
X888499Y437630D01*
X1009618D01*
X1009829Y437121D01*
D02*
G37*
G36*
X887165Y427933D02*
X888240Y427215D01*
X889508Y426962D01*
X1009777D01*
X1010480Y425692D01*
X1010040Y424628D01*
X1009945Y423910D01*
X1016450D01*
Y422910D01*
X1017450D01*
Y416405D01*
X1018168Y416499D01*
X1019769Y417162D01*
X1021143Y418217D01*
X1022198Y419592D01*
X1022803Y421054D01*
X1023791Y421508D01*
X1024056Y421598D01*
X1037858Y407796D01*
Y349116D01*
X1037422Y348758D01*
X1036151Y348505D01*
X1033396Y351260D01*
X1033625Y352530D01*
X1034640D01*
Y365530D01*
X1030692D01*
X1030206Y366703D01*
X1030818Y367316D01*
X1031537Y368391D01*
X1031564Y368530D01*
X1034640D01*
Y381530D01*
X1015140D01*
Y377964D01*
X1013460D01*
X1012192Y377711D01*
X1011117Y376993D01*
X1010798Y376674D01*
X1009164Y376349D01*
X1007676Y375354D01*
X1006681Y373866D01*
X1006332Y372110D01*
X1006681Y370354D01*
X1007676Y368866D01*
X1008412Y368374D01*
Y366846D01*
X1007676Y366355D01*
X1006681Y364866D01*
X1006332Y363110D01*
X1006681Y361354D01*
X1007676Y359866D01*
X1008248Y359484D01*
Y357956D01*
X1007676Y357574D01*
X1006681Y356086D01*
X1006332Y354330D01*
X1006681Y352574D01*
X1007676Y351086D01*
X1009164Y350091D01*
X1010920Y349742D01*
X1012347Y350026D01*
X1012646Y349966D01*
X1023865D01*
X1024276Y350048D01*
X1025310Y349871D01*
X1025685Y349132D01*
X1025839Y348359D01*
X1026672Y347112D01*
X1032053Y341731D01*
X1032053Y341731D01*
X1033300Y340898D01*
X1034609Y340638D01*
X1035666Y339931D01*
X1037422Y339582D01*
X1037858Y339224D01*
Y157354D01*
X1023632Y143128D01*
X1022362Y143654D01*
Y227076D01*
X1022109Y228344D01*
X1021391Y229419D01*
X973618Y277192D01*
X974033Y278574D01*
X975373Y279129D01*
X976956Y280344D01*
X978171Y281927D01*
X978935Y283771D01*
X979195Y285750D01*
X978935Y287729D01*
X978724Y288238D01*
X985323Y294837D01*
X986041Y295912D01*
X986294Y297180D01*
Y371510D01*
X987219Y372894D01*
X987568Y374650D01*
X987219Y376406D01*
X986224Y377894D01*
X984736Y378889D01*
X982980Y379238D01*
X981224Y378889D01*
X979736Y377894D01*
X978741Y376406D01*
X978392Y374650D01*
X978741Y372894D01*
X979666Y371510D01*
Y362719D01*
X978493Y362233D01*
X976114Y364612D01*
X975789Y366246D01*
X974794Y367734D01*
X973306Y368729D01*
X971550Y369078D01*
X969794Y368729D01*
X968306Y367734D01*
X967311Y366246D01*
X966962Y364490D01*
X967311Y362734D01*
X968306Y361246D01*
X969794Y360251D01*
X971428Y359926D01*
X977167Y354187D01*
Y331730D01*
X975897Y331605D01*
X975789Y332146D01*
X974794Y333634D01*
X973306Y334629D01*
X971550Y334978D01*
X969794Y334629D01*
X968306Y333634D01*
X967311Y332146D01*
X967257Y331873D01*
X966042Y331505D01*
X943094Y354452D01*
X942769Y356086D01*
X941774Y357574D01*
X940286Y358569D01*
X938530Y358918D01*
X936774Y358569D01*
X935286Y357574D01*
X934291Y356086D01*
X933942Y354330D01*
X934291Y352574D01*
X935286Y351086D01*
X936774Y350091D01*
X938408Y349766D01*
X964376Y323798D01*
X964165Y323289D01*
X963905Y321310D01*
X964165Y319331D01*
X964929Y317487D01*
X966144Y315904D01*
X967727Y314689D01*
X969571Y313925D01*
X971550Y313665D01*
X973529Y313925D01*
X975207Y314620D01*
X975842Y314420D01*
X976568Y314005D01*
X976656Y313322D01*
X974038Y310704D01*
X973529Y310915D01*
X971550Y311175D01*
X969571Y310915D01*
X969062Y310704D01*
X915154Y364612D01*
X914829Y366246D01*
X913834Y367734D01*
X912346Y368729D01*
X910590Y369078D01*
X908834Y368729D01*
X907346Y367734D01*
X906351Y366246D01*
X906002Y364490D01*
X906351Y362734D01*
X907346Y361246D01*
X908834Y360251D01*
X910468Y359926D01*
X964376Y306018D01*
X964165Y305509D01*
X963905Y303530D01*
X964165Y301551D01*
X964929Y299707D01*
X966144Y298124D01*
X967727Y296909D01*
X969571Y296145D01*
X971550Y295885D01*
X973529Y296145D01*
X975373Y296909D01*
X976956Y298124D01*
X978171Y299707D01*
X978396Y300251D01*
X979666Y299998D01*
Y298553D01*
X974038Y292924D01*
X973529Y293135D01*
X971550Y293395D01*
X969571Y293135D01*
X969062Y292924D01*
X882134Y379852D01*
X881809Y381486D01*
X880814Y382974D01*
X879326Y383969D01*
X877570Y384318D01*
X875814Y383969D01*
X874326Y382974D01*
X873331Y381486D01*
X872982Y379730D01*
X873008Y379598D01*
X871838Y378973D01*
X830383Y420427D01*
X829308Y421145D01*
X828040Y421398D01*
X817238D01*
X815854Y422323D01*
X814098Y422672D01*
X812342Y422323D01*
X810854Y421328D01*
X809859Y419840D01*
X809510Y418084D01*
X809859Y416328D01*
X810854Y414840D01*
X812342Y413845D01*
X814098Y413496D01*
X815854Y413845D01*
X817238Y414770D01*
X826667D01*
X884631Y356807D01*
X884145Y355634D01*
X785514D01*
X785514Y355634D01*
X784043Y355341D01*
X782796Y354508D01*
X782796Y354508D01*
X778332Y350044D01*
X777499Y348797D01*
X777206Y347326D01*
X777206Y347326D01*
Y345247D01*
X776811Y344656D01*
X776462Y342900D01*
X776811Y341144D01*
X777806Y339656D01*
X779294Y338661D01*
X781050Y338312D01*
X782806Y338661D01*
X783590Y339185D01*
X784374Y338661D01*
X786130Y338312D01*
X787886Y338661D01*
X789374Y339656D01*
X790369Y341144D01*
X790711Y342866D01*
X883598D01*
X905967Y320497D01*
X905967Y320497D01*
X907917Y318547D01*
X907917Y318547D01*
X922122Y304341D01*
X922143Y304320D01*
Y302552D01*
X914977Y295386D01*
X914082Y294538D01*
X914070Y294538D01*
X914070Y294538D01*
X914052Y294526D01*
X914046Y294505D01*
X913304Y293539D01*
X912017Y291861D01*
X910741Y288781D01*
X910306Y285476D01*
X910741Y282171D01*
X912017Y279091D01*
X914046Y276447D01*
Y276447D01*
X914046D01*
X916691Y274417D01*
X919770Y273142D01*
X923075Y272707D01*
X926380Y273142D01*
X928684Y274096D01*
X929656Y273124D01*
X928702Y270821D01*
X928267Y267516D01*
X928702Y264211D01*
X929977Y261131D01*
X931267Y259450D01*
X932007Y258486D01*
D01*
X932970Y257747D01*
X934651Y256457D01*
X937731Y255181D01*
X941036Y254746D01*
X944341Y255181D01*
X947304Y256409D01*
X947655Y256221D01*
X948322Y255548D01*
X947595Y253793D01*
X947160Y250488D01*
X947595Y247183D01*
X948658Y244617D01*
X948870Y244103D01*
X948038Y243102D01*
X947407Y242841D01*
X945824Y241626D01*
X944609Y240043D01*
X943845Y238199D01*
X943585Y236220D01*
X943845Y234241D01*
X944056Y233732D01*
X935287Y224963D01*
X934113Y225449D01*
Y229400D01*
X934622Y229611D01*
X936206Y230826D01*
X937421Y232409D01*
X938185Y234253D01*
X938445Y236232D01*
X938185Y238211D01*
X937421Y240055D01*
X936206Y241638D01*
X934622Y242853D01*
X932779Y243617D01*
X930800Y243878D01*
X928821Y243617D01*
X926977Y242853D01*
X925394Y241638D01*
X924179Y240055D01*
X923415Y238211D01*
X923154Y236232D01*
X923415Y234253D01*
X924179Y232409D01*
X925394Y230826D01*
X926977Y229611D01*
X927486Y229400D01*
Y208272D01*
X923450Y204236D01*
X921817Y203911D01*
X920328Y202917D01*
X919333Y201428D01*
X918984Y199672D01*
X919333Y197917D01*
X920328Y196428D01*
X921817Y195434D01*
X923572Y195084D01*
X925328Y195434D01*
X926817Y196428D01*
X927811Y197917D01*
X928136Y199550D01*
X930995Y202409D01*
X932168Y201923D01*
Y168505D01*
X927740Y164076D01*
X926106Y163751D01*
X924722Y162826D01*
X859028D01*
X857760Y162573D01*
X856685Y161855D01*
X846525Y151695D01*
X845807Y150620D01*
X845554Y149352D01*
Y129451D01*
X841063D01*
Y170123D01*
X840811Y171391D01*
X840092Y172466D01*
X835943Y176615D01*
X836429Y177788D01*
X915811D01*
X917079Y178041D01*
X918154Y178759D01*
X923808Y184412D01*
X925441Y184737D01*
X926929Y185732D01*
X927924Y187220D01*
X928273Y188976D01*
X927924Y190732D01*
X926929Y192220D01*
X925441Y193215D01*
X923685Y193564D01*
X921929Y193215D01*
X920441Y192220D01*
X919446Y190732D01*
X919121Y189098D01*
X914439Y184416D01*
X880109D01*
X879430Y185686D01*
X879777Y186204D01*
X880126Y187960D01*
X880044Y188374D01*
X881196Y189090D01*
X881367Y188959D01*
X883211Y188195D01*
X885190Y187935D01*
X887169Y188195D01*
X889013Y188959D01*
X890596Y190174D01*
X891811Y191757D01*
X892022Y192266D01*
X899548D01*
X899616Y191923D01*
X900611Y190435D01*
X902099Y189440D01*
X903855Y189091D01*
X905611Y189440D01*
X907099Y190435D01*
X908094Y191923D01*
X908443Y193679D01*
X908094Y195435D01*
X907099Y196923D01*
X905611Y197918D01*
X903855Y198267D01*
X903799Y198256D01*
X903222Y198641D01*
X901954Y198894D01*
X892022D01*
X891811Y199403D01*
X890596Y200986D01*
X889013Y202201D01*
X887169Y202965D01*
X885190Y203225D01*
X883211Y202965D01*
X881367Y202201D01*
X879784Y200986D01*
X878569Y199403D01*
X878358Y198894D01*
X837033D01*
X781245Y254681D01*
X781871Y255851D01*
X782320Y255762D01*
X784076Y256111D01*
X785564Y257106D01*
X786559Y258594D01*
X786908Y260350D01*
X786559Y262106D01*
X785634Y263491D01*
Y316992D01*
X785381Y318260D01*
X784663Y319335D01*
X734326Y369673D01*
Y378074D01*
X734073Y379342D01*
X733355Y380417D01*
X733096Y380676D01*
X733160Y381000D01*
X732811Y382756D01*
X731816Y384244D01*
X731696Y385466D01*
X744717Y398486D01*
X764956D01*
X766340Y397561D01*
X768096Y397212D01*
X769852Y397561D01*
X771340Y398556D01*
X772335Y400044D01*
X772684Y401800D01*
X772335Y403556D01*
X771340Y405044D01*
X769852Y406039D01*
X768096Y406388D01*
X766340Y406039D01*
X764956Y405114D01*
X747755D01*
X747269Y406287D01*
X748641Y407658D01*
X785783D01*
X787168Y406733D01*
X788924Y406384D01*
X790680Y406733D01*
X792168Y407728D01*
X793163Y409216D01*
X793512Y410972D01*
X793163Y412728D01*
X792168Y414216D01*
X790680Y415211D01*
X788924Y415560D01*
X787168Y415211D01*
X785783Y414286D01*
X747268D01*
X746000Y414033D01*
X744925Y413315D01*
X717465Y385855D01*
X716292Y386341D01*
Y425348D01*
X719939Y428994D01*
X780450D01*
X781834Y428069D01*
X783590Y427720D01*
X785346Y428069D01*
X786834Y429064D01*
X787829Y430552D01*
X788178Y432308D01*
X788586Y432804D01*
X882293D01*
X887165Y427933D01*
D02*
G37*
G36*
X602984Y502659D02*
Y424688D01*
X603237Y423420D01*
X603955Y422345D01*
X606241Y420059D01*
X606678Y419767D01*
X605869Y418556D01*
X605544Y416923D01*
X594783Y406161D01*
X593610Y406647D01*
Y407831D01*
X594535Y409216D01*
X594884Y410972D01*
X594535Y412728D01*
X593540Y414216D01*
X592052Y415211D01*
X590296Y415560D01*
X589860Y415918D01*
Y417035D01*
X590785Y418420D01*
X591134Y420176D01*
X590785Y421932D01*
X589790Y423420D01*
X588302Y424415D01*
X586546Y424764D01*
X585990Y425221D01*
Y487323D01*
X601811Y503145D01*
X602984Y502659D01*
D02*
G37*
G36*
X610604Y410814D02*
Y401931D01*
X584586Y375912D01*
X582952Y375587D01*
X581464Y374592D01*
X580469Y373104D01*
X580120Y371348D01*
X580469Y369592D01*
X580576Y369432D01*
X579978Y368312D01*
X567965D01*
X567479Y369485D01*
X609334Y411340D01*
X610604Y410814D01*
D02*
G37*
G36*
X639917Y360759D02*
X641673Y360410D01*
X642404Y359260D01*
X642586Y357873D01*
X643245Y356282D01*
X644294Y354916D01*
X645104Y354294D01*
X644673Y353024D01*
X623558D01*
X623450Y353002D01*
X621851Y352792D01*
X620260Y352133D01*
X618894Y351085D01*
X617845Y349718D01*
X617186Y348127D01*
X616976Y346528D01*
X616954Y346420D01*
X616976Y346312D01*
X617186Y344713D01*
X617722Y343420D01*
X617158Y342150D01*
X553720D01*
X552452Y341897D01*
X551377Y341179D01*
X544728Y334530D01*
X539503D01*
X539017Y335703D01*
X564999Y361684D01*
X638533D01*
X639917Y360759D01*
D02*
G37*
G36*
X590276Y334252D02*
X590026Y332994D01*
X590226Y331990D01*
X589310Y330720D01*
X551949D01*
X551463Y331893D01*
X555093Y335522D01*
X589480D01*
X590276Y334252D01*
D02*
G37*
G36*
X713967Y337010D02*
X714092Y335746D01*
X698542Y320196D01*
X671163D01*
X670778Y321466D01*
X671010Y321622D01*
X672005Y323110D01*
X672354Y324866D01*
X672005Y326622D01*
X671010Y328110D01*
X670948Y328152D01*
X670823Y329416D01*
X678708Y337300D01*
X713533D01*
X713967Y337010D01*
D02*
G37*
G36*
X627222Y310813D02*
X611595Y295186D01*
X611595Y295186D01*
X603473Y287064D01*
X601713D01*
X600013Y288764D01*
X599922Y288825D01*
X599043Y289500D01*
X598742Y290995D01*
X619734Y311987D01*
X626736D01*
X627222Y310813D01*
D02*
G37*
G36*
X632099Y305173D02*
X632448Y304871D01*
Y182729D01*
X621612Y171892D01*
X559679D01*
X559001Y173162D01*
X559229Y173504D01*
X559578Y175260D01*
X559229Y177016D01*
X558304Y178400D01*
Y227063D01*
X558813Y227274D01*
X560396Y228489D01*
X561611Y230072D01*
X562375Y231916D01*
X562635Y233895D01*
X562375Y235874D01*
X562164Y236383D01*
X578448Y252667D01*
X578816Y253034D01*
X579346Y253565D01*
X579346Y253565D01*
X579407Y253656D01*
X580389Y254936D01*
X581048Y256527D01*
X581273Y258234D01*
X581140Y259247D01*
X582342Y259840D01*
X597273Y244910D01*
X597365Y244848D01*
X598644Y243867D01*
X600235Y243208D01*
X601943Y242983D01*
X603650Y243208D01*
X605241Y243867D01*
X606521Y244849D01*
X606612Y244910D01*
X606612Y244910D01*
X606612Y244910D01*
X606613Y244910D01*
X606668Y244984D01*
X607374Y245914D01*
X607655Y246281D01*
X608314Y247872D01*
X608539Y249579D01*
X608314Y251287D01*
X608134Y251721D01*
X609106Y252693D01*
X609541Y252513D01*
X611248Y252288D01*
X612955Y252513D01*
X614546Y253172D01*
X615827Y254154D01*
X615918Y254215D01*
X615918Y254215D01*
X615918Y254215D01*
X615918Y254216D01*
X615974Y254289D01*
X616680Y255220D01*
X616961Y255587D01*
X617620Y257178D01*
X617845Y258885D01*
X617620Y260592D01*
X616961Y262183D01*
X615979Y263463D01*
X615918Y263554D01*
X600987Y278485D01*
X601580Y279688D01*
X602593Y279554D01*
X604300Y279779D01*
X605891Y280438D01*
X607171Y281420D01*
X607263Y281481D01*
X607263Y281481D01*
Y281481D01*
X616281Y290499D01*
X616281Y290499D01*
X631057Y305276D01*
X632099Y305173D01*
D02*
G37*
G36*
X671071Y302397D02*
X672146Y301679D01*
X673414Y301426D01*
X725110D01*
X726378Y301679D01*
X726936Y302052D01*
X728206Y301412D01*
Y276352D01*
X728459Y275084D01*
X728681Y274752D01*
X727694Y273942D01*
X706620Y295016D01*
X706295Y296650D01*
X705300Y298138D01*
X703812Y299133D01*
X702056Y299482D01*
X700300Y299133D01*
X698812Y298138D01*
X697817Y296650D01*
X697468Y294894D01*
X697817Y293138D01*
X698812Y291650D01*
X700300Y290655D01*
X701934Y290330D01*
X797294Y194969D01*
Y174850D01*
X796313Y174044D01*
X796291Y174049D01*
X791210D01*
X789244Y173658D01*
X787577Y172544D01*
X786463Y170877D01*
X786226Y169684D01*
X767346D01*
Y202946D01*
X767093Y204214D01*
X766375Y205289D01*
X666682Y304982D01*
X667100Y306360D01*
X667106Y306362D01*
X671071Y302397D01*
D02*
G37*
G36*
X613166Y314791D02*
X579082Y280708D01*
X579082Y280707D01*
X561454Y263079D01*
X561411Y263096D01*
X561368Y263079D01*
X552779Y271667D01*
X552688Y271728D01*
X551449Y272679D01*
X551260Y272862D01*
X551100Y274126D01*
X587370Y310396D01*
X589004Y310721D01*
X590492Y311716D01*
X591487Y313204D01*
X591836Y314960D01*
X591832Y314983D01*
X592637Y315964D01*
X612680D01*
X613166Y314791D01*
D02*
G37*
G36*
X779006Y315619D02*
Y263491D01*
X778081Y262106D01*
X777732Y260350D01*
X777821Y259901D01*
X776651Y259275D01*
X754138Y281789D01*
Y338829D01*
X755311Y339315D01*
X779006Y315619D01*
D02*
G37*
G36*
X656711Y303874D02*
X656902Y303588D01*
X658390Y302593D01*
X660024Y302268D01*
X722246Y240046D01*
X721436Y239059D01*
X721104Y239281D01*
X719836Y239534D01*
X683532D01*
X683407Y240804D01*
X683746Y240871D01*
X685234Y241866D01*
X686229Y243354D01*
X686578Y245110D01*
X686229Y246866D01*
X685234Y248354D01*
X683746Y249349D01*
X681990Y249698D01*
X680234Y249349D01*
X678746Y248354D01*
X677751Y246866D01*
X677426Y245232D01*
X675588Y243394D01*
X675079Y243605D01*
X673100Y243865D01*
X671121Y243605D01*
X669277Y242841D01*
X667694Y241626D01*
X666479Y240043D01*
X665715Y238199D01*
X665455Y236220D01*
X665715Y234241D01*
X666479Y232397D01*
X667694Y230814D01*
X669277Y229599D01*
X671121Y228835D01*
X673100Y228575D01*
X675079Y228835D01*
X676923Y229599D01*
X678506Y230814D01*
X679721Y232397D01*
X679932Y232906D01*
X718464D01*
X745986Y205383D01*
Y191101D01*
X745061Y189716D01*
X744712Y187960D01*
X745061Y186204D01*
X746056Y184716D01*
X747544Y183721D01*
X749300Y183372D01*
X751056Y183721D01*
X752544Y184716D01*
X753539Y186204D01*
X753888Y187960D01*
X753539Y189716D01*
X752614Y191101D01*
Y206756D01*
X752361Y208024D01*
X752139Y208356D01*
X753126Y209166D01*
X760718Y201573D01*
Y169510D01*
X759793Y168126D01*
X759444Y166370D01*
X759793Y164614D01*
X760788Y163126D01*
X762276Y162131D01*
X764032Y161782D01*
X765788Y162131D01*
X767172Y163056D01*
X786226D01*
X786463Y161863D01*
X787577Y160196D01*
X789244Y159082D01*
X790870Y158759D01*
X790745Y157489D01*
X715948D01*
X714973Y157295D01*
X714146Y156742D01*
X713593Y155915D01*
X713399Y154940D01*
Y135091D01*
X713593Y134115D01*
X714146Y133288D01*
X736698Y110736D01*
X737525Y110183D01*
X738501Y109989D01*
X760479D01*
X760676Y109950D01*
X760927D01*
X761313Y109873D01*
X761677Y109722D01*
X762005Y109503D01*
X762106Y109403D01*
X762106Y109402D01*
X762283Y109225D01*
X762502Y108897D01*
X762653Y108533D01*
X762730Y108147D01*
Y107753D01*
X762653Y107367D01*
X762502Y107003D01*
X762283Y106675D01*
X762182Y106574D01*
X762182Y106574D01*
X762005Y106397D01*
X761677Y106178D01*
X761445Y106081D01*
X761070Y105830D01*
X760988Y105749D01*
X760887Y105696D01*
X760639Y105400D01*
X760366Y105127D01*
X760322Y105021D01*
X760249Y104933D01*
X760199Y104774D01*
X760180Y104748D01*
X760132Y104561D01*
X759986Y104208D01*
Y104094D01*
X759951Y103984D01*
X759945Y103921D01*
X759951Y103852D01*
X759934Y103785D01*
X759953Y103648D01*
X759667Y103062D01*
X759191Y102524D01*
X759170Y102508D01*
X758904Y102378D01*
X737231D01*
X708398Y131211D01*
X708574Y132830D01*
X709127Y133657D01*
X709321Y134633D01*
Y154940D01*
X709127Y155915D01*
X708574Y156742D01*
X707747Y157295D01*
X706772Y157489D01*
X662207D01*
X661721Y158662D01*
X667454Y164396D01*
X668449Y165884D01*
X668798Y167640D01*
X668449Y169396D01*
X667454Y170884D01*
X665966Y171879D01*
X664210Y172228D01*
X662454Y171879D01*
X660966Y170884D01*
X648220Y158138D01*
X646950Y158664D01*
Y295501D01*
X655447Y303998D01*
X656711Y303874D01*
D02*
G37*
G36*
X977663Y248789D02*
X977862Y248602D01*
X979627Y246837D01*
X979627Y246837D01*
X1004002Y222462D01*
X1004141Y221764D01*
X1005136Y220276D01*
X1006624Y219281D01*
X1008380Y218932D01*
X1010136Y219281D01*
X1011624Y220276D01*
X1012619Y221764D01*
X1012803Y222689D01*
X1013728Y222873D01*
X1014464Y223365D01*
X1015734Y222686D01*
Y143613D01*
X1012850Y140728D01*
X972312D01*
X971044Y140475D01*
X969969Y139757D01*
X968088Y137877D01*
X968088Y137877D01*
X955080Y150884D01*
X954254Y151437D01*
X953278Y151631D01*
X947404D01*
X947280Y151606D01*
X947154Y151618D01*
X946796Y151510D01*
X946428Y151437D01*
X946323Y151367D01*
X946202Y151330D01*
X945912Y151092D01*
X945839Y151043D01*
X944306Y152068D01*
X942340Y152459D01*
X937260D01*
X935294Y152068D01*
X933761Y151043D01*
X933688Y151092D01*
X933398Y151330D01*
X933277Y151367D01*
X933172Y151437D01*
X932804Y151510D01*
X932446Y151618D01*
X932320Y151606D01*
X932196Y151631D01*
X871220D01*
X870245Y151437D01*
X869418Y150884D01*
X868865Y150057D01*
X868671Y149082D01*
Y124883D01*
X868865Y123908D01*
X869418Y123081D01*
X870483Y122015D01*
X870594Y121848D01*
X870772Y121671D01*
X870911Y121462D01*
X870911Y121462D01*
X870991Y121343D01*
X871142Y120979D01*
X871191Y120733D01*
X871298Y120475D01*
X871364Y120143D01*
X871423Y120054D01*
X871453Y119951D01*
X871698Y119643D01*
X871916Y119316D01*
X872005Y119257D01*
X872072Y119172D01*
X872416Y118982D01*
X872743Y118764D01*
X872849Y118743D01*
X872943Y118691D01*
X873840Y118404D01*
Y111264D01*
X867790D01*
Y114799D01*
X867790Y114799D01*
X867790Y115450D01*
X866790Y116102D01*
X866790Y116720D01*
Y120950D01*
X859790D01*
Y121951D01*
X858790D01*
Y128450D01*
X853452D01*
X852790Y128450D01*
X852182Y129468D01*
Y147979D01*
X860401Y156198D01*
X924722D01*
X926106Y155273D01*
X927862Y154924D01*
X929618Y155273D01*
X931106Y156268D01*
X932101Y157756D01*
X932426Y159390D01*
X937825Y164789D01*
X938543Y165864D01*
X938796Y167132D01*
Y219100D01*
X948742Y229046D01*
X949251Y228835D01*
X951230Y228575D01*
X953209Y228835D01*
X955053Y229599D01*
X956636Y230814D01*
X957851Y232397D01*
X958615Y234241D01*
X958875Y236220D01*
X958792Y236852D01*
X959690Y237750D01*
X959929Y237719D01*
X963234Y238154D01*
X966314Y239429D01*
X967995Y240719D01*
X968958Y241459D01*
X968967Y241470D01*
X969832Y242383D01*
X976440Y248990D01*
X977663Y248789D01*
D02*
G37*
G36*
X518476Y263836D02*
X518932Y263242D01*
X518992Y262058D01*
X516579Y259645D01*
X515861Y258570D01*
X515608Y257302D01*
Y240727D01*
X515099Y240516D01*
X513516Y239301D01*
X512301Y237718D01*
X511537Y235874D01*
X511277Y233895D01*
X511537Y231916D01*
X511748Y231407D01*
X509642Y229301D01*
X508924Y228226D01*
X508672Y226958D01*
Y217800D01*
X508693Y217693D01*
X508904Y216093D01*
X509563Y214502D01*
X510611Y213136D01*
X511421Y212514D01*
X510990Y211244D01*
X495775D01*
X495667Y211222D01*
X494568Y211078D01*
X493298Y211923D01*
Y221619D01*
X498400Y226721D01*
X498909Y226510D01*
X500888Y226250D01*
X502867Y226510D01*
X504711Y227274D01*
X506294Y228489D01*
X507509Y230072D01*
X508273Y231916D01*
X508533Y233895D01*
X508273Y235874D01*
X507509Y237718D01*
X506294Y239301D01*
X504711Y240516D01*
X504202Y240727D01*
Y251357D01*
X516981Y264137D01*
X518476Y263836D01*
D02*
G37*
G36*
X747510Y343246D02*
Y301922D01*
X747014Y301514D01*
X745258Y301165D01*
X743770Y300170D01*
X742775Y298682D01*
X742426Y296926D01*
X742775Y295170D01*
X743700Y293785D01*
Y275336D01*
X743953Y274068D01*
X744671Y272993D01*
X827216Y190448D01*
X827005Y189939D01*
X826745Y187960D01*
X826798Y187557D01*
X825595Y186963D01*
X734834Y277724D01*
Y354126D01*
X736104Y354652D01*
X747510Y343246D01*
D02*
G37*
G36*
X553798Y242664D02*
X553343Y241324D01*
X553011Y241280D01*
X551167Y240516D01*
X549584Y239301D01*
X548369Y237718D01*
X547605Y235874D01*
X547345Y233895D01*
X547605Y231916D01*
X548369Y230072D01*
X549584Y228489D01*
X551167Y227274D01*
X551676Y227063D01*
Y178400D01*
X550751Y177016D01*
X550402Y175260D01*
X550751Y173504D01*
X550979Y173162D01*
X550301Y171892D01*
X525847D01*
X525321Y173162D01*
X528532Y176374D01*
X528803Y176440D01*
X528846Y176440D01*
X530018Y176262D01*
X530741Y175180D01*
X532229Y174186D01*
X533985Y173837D01*
X535741Y174186D01*
X537229Y175180D01*
X538224Y176669D01*
X538573Y178425D01*
X538246Y180072D01*
X538712Y180165D01*
X540200Y181160D01*
X541195Y182648D01*
X541544Y184404D01*
X541195Y186160D01*
X540270Y187544D01*
Y227063D01*
X540779Y227274D01*
X542362Y228489D01*
X543577Y230072D01*
X544341Y231916D01*
X544601Y233895D01*
X544341Y235874D01*
X544130Y236383D01*
X547469Y239722D01*
X547469D01*
X547469Y239722D01*
X547530Y239813D01*
X548512Y241093D01*
X549171Y242684D01*
X549396Y244391D01*
X549263Y245404D01*
X550466Y245997D01*
X553798Y242664D01*
D02*
G37*
G36*
X966286Y136074D02*
X946555Y116344D01*
X930912D01*
X930411Y116845D01*
X928757Y117530D01*
X926967D01*
X925313Y116845D01*
X924047Y115579D01*
X923362Y113925D01*
Y112135D01*
X923111Y111760D01*
X914683D01*
X914297Y113030D01*
X915025Y113516D01*
X938800Y137291D01*
Y143780D01*
X932311D01*
X909880Y121348D01*
X878840D01*
X877084Y120999D01*
X876727Y120760D01*
X874840D01*
X874840Y120760D01*
X873718Y121119D01*
Y121291D01*
X873546Y121708D01*
X873457Y122152D01*
X873206Y122528D01*
X873033Y122945D01*
X872714Y123265D01*
X872463Y123640D01*
X871220Y124883D01*
Y149082D01*
X932196D01*
X933239Y147812D01*
X933141Y147320D01*
Y145780D01*
X939800D01*
X946459D01*
Y147320D01*
X946361Y147812D01*
X947404Y149082D01*
X953278D01*
X966286Y136074D01*
D02*
G37*
G36*
X706772Y134633D02*
X705502Y134107D01*
X697099Y142510D01*
X690610D01*
Y136021D01*
X697964Y128668D01*
X697419Y127436D01*
X696976Y127524D01*
X696533Y127436D01*
X696081D01*
X695664Y127263D01*
X695220Y127175D01*
X694844Y126924D01*
X694427Y126751D01*
X694108Y126431D01*
X693732Y126180D01*
X689412Y121860D01*
X689338Y121880D01*
X687342D01*
X685414Y121363D01*
X683686Y120365D01*
X682274Y118954D01*
X681277Y117226D01*
X680760Y115298D01*
Y113302D01*
X681277Y111374D01*
X682274Y109646D01*
X683686Y108235D01*
X685414Y107237D01*
X687342Y106720D01*
X689338D01*
X691266Y107237D01*
X692994Y108235D01*
X694406Y109646D01*
X695403Y111374D01*
X695920Y113302D01*
Y115298D01*
X695900Y115372D01*
X696976Y116447D01*
X719540Y93883D01*
X719054Y92710D01*
X657812D01*
X657427Y93980D01*
X657878Y94282D01*
X659052Y96038D01*
X659464Y98110D01*
Y113300D01*
X650240D01*
Y114300D01*
X649240D01*
Y135904D01*
X646430D01*
X644358Y135492D01*
X642602Y134318D01*
X641350Y134731D01*
Y137160D01*
X659130Y154940D01*
X706772D01*
Y134633D01*
D02*
G37*
G36*
X824427Y178759D02*
X824427Y178759D01*
X834436Y168750D01*
Y129451D01*
X829749D01*
X829319Y130542D01*
Y149860D01*
X829125Y150835D01*
X828572Y151662D01*
X823492Y156742D01*
X822665Y157295D01*
X821690Y157489D01*
X804331D01*
X803922Y157988D01*
Y196342D01*
X803669Y197610D01*
X803447Y197942D01*
X804434Y198752D01*
X824427Y178759D01*
D02*
G37*
G36*
X700719Y125846D02*
X700820Y125811D01*
X732086Y94546D01*
X733574Y93551D01*
X735330Y93202D01*
X795734D01*
X796315Y91988D01*
X795948Y91254D01*
X795596Y91008D01*
X722451D01*
X722273Y91133D01*
X721634Y92278D01*
X721895Y92908D01*
X722089Y93883D01*
X721895Y94859D01*
X721342Y95686D01*
X698778Y118250D01*
X697952Y118802D01*
X696976Y118996D01*
X696001Y118802D01*
X695174Y118250D01*
X695142Y118218D01*
X693505Y118377D01*
X693033Y118993D01*
X692417Y119465D01*
X692258Y121102D01*
X695357Y124200D01*
X695524Y124312D01*
X695701Y124489D01*
X695910Y124629D01*
X695910Y124629D01*
X696029Y124708D01*
X696393Y124859D01*
X696779Y124936D01*
X697143D01*
X697359Y124888D01*
X697636Y124936D01*
X697916D01*
X698121Y125021D01*
X698339Y125059D01*
X698576Y125209D01*
X698835Y125317D01*
X698992Y125473D01*
X699179Y125592D01*
X699205Y125630D01*
X700194Y125923D01*
X700719Y125846D01*
D02*
G37*
G36*
X826770Y149860D02*
Y119862D01*
X825580Y118803D01*
X824150D01*
Y120490D01*
X814344D01*
X810541Y124294D01*
X809466Y125012D01*
X808197Y125264D01*
X793040D01*
Y129451D01*
X788354D01*
Y141047D01*
X802246Y154940D01*
X821690D01*
X826770Y149860D01*
D02*
G37*
G36*
X791700Y153767D02*
X782697Y144763D01*
X781978Y143688D01*
X781726Y142420D01*
Y129451D01*
X777040D01*
Y114451D01*
Y102378D01*
X763620D01*
X762479Y103648D01*
X762486Y103711D01*
X762862Y103962D01*
X763279Y104135D01*
X763598Y104455D01*
X763974Y104706D01*
X764225Y105082D01*
X764545Y105401D01*
X764718Y105818D01*
X764969Y106194D01*
X765057Y106637D01*
X765230Y107055D01*
Y107507D01*
X765318Y107950D01*
X765230Y108393D01*
Y108845D01*
X765057Y109263D01*
X764969Y109706D01*
X764718Y110082D01*
X764545Y110499D01*
X764225Y110819D01*
X763974Y111194D01*
X763598Y111445D01*
X763279Y111765D01*
X762862Y111938D01*
X762486Y112189D01*
X762043Y112277D01*
X761625Y112450D01*
X761173D01*
X760730Y112538D01*
X738501D01*
X715948Y135091D01*
Y154940D01*
X791214D01*
X791700Y153767D01*
D02*
G37*
G36*
X1041182Y149646D02*
Y119707D01*
X1040725Y114491D01*
X1039445Y109711D01*
X1037354Y105227D01*
X1034516Y101174D01*
X1031017Y97675D01*
X1026964Y94837D01*
X1022479Y92746D01*
X1017699Y91465D01*
X1012483Y91008D01*
X829319D01*
Y94130D01*
X830589Y94809D01*
X831090Y94475D01*
X832358Y94222D01*
X844804D01*
X846072Y94475D01*
X847147Y95193D01*
X851211Y99257D01*
X851929Y100332D01*
X851953Y100450D01*
X867790D01*
Y104636D01*
X873840D01*
Y101760D01*
X883840D01*
Y112172D01*
X889419D01*
X891805Y109786D01*
X893294Y108791D01*
X895050Y108442D01*
X896806Y108791D01*
X898294Y109786D01*
X899289Y111274D01*
X899467Y112172D01*
X911780D01*
X911888Y112193D01*
X912243Y111020D01*
X912303Y110909D01*
X912328Y110785D01*
X912536Y110473D01*
X912712Y110143D01*
X912810Y110063D01*
X912880Y109958D01*
X913192Y109750D01*
X913481Y109512D01*
X913602Y109475D01*
X913707Y109405D01*
X914074Y109332D01*
X914433Y109223D01*
X914559Y109236D01*
X914683Y109211D01*
X923111D01*
X923358Y109260D01*
X923609D01*
X923841Y109356D01*
X924087Y109405D01*
X924296Y109545D01*
X924528Y109641D01*
X924651Y109764D01*
X926106Y108791D01*
X927862Y108442D01*
X929618Y108791D01*
X931003Y109716D01*
X947928D01*
X949196Y109969D01*
X950271Y110687D01*
X973684Y134100D01*
X986275D01*
X986761Y132927D01*
X976508Y122674D01*
X974874Y122349D01*
X973386Y121354D01*
X972391Y119866D01*
X972306Y119439D01*
X967740D01*
X965773Y119048D01*
X964106Y117934D01*
X962992Y116266D01*
X962601Y114300D01*
Y109220D01*
X962992Y107254D01*
X964106Y105586D01*
X965773Y104472D01*
X967740Y104081D01*
X972820D01*
X974787Y104472D01*
X976454Y105586D01*
X977568Y107254D01*
X977959Y109220D01*
Y113786D01*
X978386Y113871D01*
X979874Y114866D01*
X980869Y116354D01*
X981194Y117988D01*
X994005Y130798D01*
X999987D01*
X1000442Y129528D01*
X998915Y128275D01*
X996478Y125306D01*
X994667Y121918D01*
X993552Y118243D01*
X993176Y114420D01*
X993552Y110597D01*
X994667Y106922D01*
X996478Y103534D01*
X998915Y100565D01*
X1001884Y98128D01*
X1005272Y96317D01*
X1008948Y95202D01*
X1012770Y94825D01*
X1016593Y95202D01*
X1020269Y96317D01*
X1023656Y98128D01*
X1026625Y100565D01*
X1029062Y103534D01*
X1030873Y106922D01*
X1031988Y110597D01*
X1032365Y114420D01*
X1031988Y118243D01*
X1030873Y121918D01*
X1029062Y125306D01*
X1026625Y128275D01*
X1023656Y130712D01*
X1022597Y131278D01*
X1022411Y132534D01*
X1040008Y150132D01*
X1041182Y149646D01*
D02*
G37*
G36*
X824606Y103444D02*
X824980Y103166D01*
Y101600D01*
X825233Y100332D01*
X825951Y99257D01*
X826770Y98438D01*
Y91008D01*
X822122D01*
X820420Y92710D01*
X798993D01*
X798608Y93980D01*
X799455Y94546D01*
X805810Y100902D01*
X819150D01*
X820906Y101251D01*
X821263Y101490D01*
X823150D01*
Y102942D01*
X823937Y103443D01*
X824431Y103485D01*
X824606Y103444D01*
D02*
G37*
G36*
X643414Y142829D02*
X639548Y138962D01*
X638995Y138135D01*
X638801Y137160D01*
Y134731D01*
X638820Y134637D01*
X638808Y134542D01*
X638916Y134152D01*
X638995Y133756D01*
X639048Y133676D01*
X639074Y133583D01*
X639323Y133265D01*
X639548Y132929D01*
X639627Y132875D01*
X639686Y132800D01*
X640038Y132601D01*
X640372Y132378D01*
X639996Y130490D01*
Y98110D01*
X640486Y95648D01*
X641881Y93561D01*
X643800Y92278D01*
X643786Y91612D01*
X643589Y91008D01*
X634031D01*
X633834Y91612D01*
X633820Y92278D01*
X635739Y93561D01*
X637134Y95648D01*
X637624Y98110D01*
Y130490D01*
X637134Y132952D01*
X635739Y135039D01*
X633652Y136434D01*
X631968Y136769D01*
Y140339D01*
X635630Y144002D01*
X642928D01*
X643414Y142829D01*
D02*
G37*
%LPC*%
G36*
X726595Y618760D02*
X721090D01*
Y613255D01*
X721808Y613349D01*
X723408Y614012D01*
X724783Y615067D01*
X725838Y616442D01*
X726501Y618042D01*
X726595Y618760D01*
D02*
G37*
G36*
X719090D02*
X713585D01*
X713679Y618042D01*
X714342Y616442D01*
X715397Y615067D01*
X716772Y614012D01*
X718372Y613349D01*
X719090Y613255D01*
Y618760D01*
D02*
G37*
G36*
X538635Y593360D02*
X533130D01*
Y587855D01*
X533848Y587949D01*
X535448Y588612D01*
X536823Y589667D01*
X537878Y591042D01*
X538541Y592642D01*
X538635Y593360D01*
D02*
G37*
G36*
X220980Y572278D02*
X219224Y571929D01*
X217736Y570934D01*
X216741Y569446D01*
X216392Y567690D01*
X216741Y565934D01*
X217736Y564446D01*
X219224Y563451D01*
X220858Y563126D01*
X223777Y560207D01*
X224852Y559489D01*
X226120Y559236D01*
X232544D01*
X232902Y558800D01*
X233251Y557044D01*
X234246Y555556D01*
X235734Y554561D01*
X237490Y554212D01*
X239246Y554561D01*
X240630Y555486D01*
X256088D01*
X257131Y554216D01*
X257056Y553842D01*
X251657Y548443D01*
X250939Y547368D01*
X250686Y546100D01*
Y525780D01*
X250939Y524512D01*
X251657Y523437D01*
X361196Y413898D01*
X361521Y412264D01*
X362516Y410776D01*
X364004Y409781D01*
X365760Y409432D01*
X367516Y409781D01*
X368935Y410729D01*
X370354Y409781D01*
X372110Y409432D01*
X373866Y409781D01*
X375354Y410776D01*
X376349Y412264D01*
X376698Y414020D01*
X376349Y415776D01*
X375354Y417264D01*
X373866Y418259D01*
X372232Y418584D01*
X262394Y528423D01*
Y542053D01*
X263594Y542856D01*
X264589Y544344D01*
X264938Y546100D01*
X264589Y547856D01*
X264169Y548484D01*
X264439Y550191D01*
X264864Y550476D01*
X265859Y551964D01*
X266208Y553720D01*
X266109Y554216D01*
X267152Y555486D01*
X377088D01*
X385797Y546777D01*
X385311Y545604D01*
X315560D01*
X314176Y546529D01*
X312420Y546878D01*
X310664Y546529D01*
X309176Y545534D01*
X308181Y544046D01*
X307832Y542290D01*
X308181Y540534D01*
X309176Y539046D01*
X310664Y538051D01*
X312420Y537702D01*
X314176Y538051D01*
X315560Y538976D01*
X318855D01*
X319262Y538480D01*
X319611Y536724D01*
X320606Y535236D01*
X322094Y534241D01*
X323850Y533892D01*
X325606Y534241D01*
X326991Y535166D01*
X360578D01*
X389136Y506608D01*
X389461Y504974D01*
X390456Y503486D01*
X391944Y502491D01*
X393700Y502142D01*
X395456Y502491D01*
X396944Y503486D01*
X397939Y504974D01*
X398288Y506730D01*
X397939Y508486D01*
X396944Y509974D01*
X395456Y510969D01*
X393822Y511294D01*
X367313Y537803D01*
X367799Y538976D01*
X385978D01*
X395486Y529468D01*
X395811Y527834D01*
X396806Y526346D01*
X398294Y525351D01*
X400050Y525002D01*
X401806Y525351D01*
X403294Y526346D01*
X403750Y527028D01*
X405362Y527212D01*
X405646Y526928D01*
X405971Y525294D01*
X406966Y523806D01*
X408454Y522811D01*
X410210Y522462D01*
X411966Y522811D01*
X413454Y523806D01*
X414449Y525294D01*
X414798Y527050D01*
X414449Y528806D01*
X413454Y530294D01*
X411966Y531289D01*
X410332Y531614D01*
X383883Y558063D01*
X384369Y559236D01*
X403200D01*
X404584Y558311D01*
X406340Y557962D01*
X408096Y558311D01*
X409584Y559306D01*
X410579Y560794D01*
X410928Y562550D01*
X410579Y564306D01*
X409584Y565794D01*
X408096Y566789D01*
X406340Y567138D01*
X404584Y566789D01*
X403200Y565864D01*
X227493D01*
X225544Y567812D01*
X225219Y569446D01*
X224224Y570934D01*
X222736Y571929D01*
X220980Y572278D01*
D02*
G37*
G36*
X863560Y567650D02*
X701862D01*
Y522010D01*
X863560D01*
Y567650D01*
D02*
G37*
G36*
X1018990Y520759D02*
X1013910D01*
X1011944Y520368D01*
X1010276Y519254D01*
X1009163Y517587D01*
X1009031Y516924D01*
X807664D01*
X806193Y516631D01*
X804946Y515798D01*
X785326Y496177D01*
X784628Y496039D01*
X784037Y495644D01*
X624388D01*
X624388Y495644D01*
X622917Y495351D01*
X621670Y494518D01*
X621670Y494518D01*
X615146Y487994D01*
X614448Y487855D01*
X612960Y486860D01*
X611965Y485372D01*
X611616Y483616D01*
X611965Y481860D01*
X612960Y480372D01*
X614448Y479377D01*
X616204Y479028D01*
X617960Y479377D01*
X619448Y480372D01*
X620443Y481860D01*
X620582Y482558D01*
X625980Y487956D01*
X784037D01*
X784628Y487561D01*
X786384Y487212D01*
X788140Y487561D01*
X789628Y488556D01*
X790623Y490044D01*
X790762Y490741D01*
X809256Y509236D01*
X1009031D01*
X1009163Y508573D01*
X1010276Y506906D01*
X1011944Y505792D01*
X1013910Y505401D01*
X1018990D01*
X1020957Y505792D01*
X1022624Y506906D01*
X1023738Y508573D01*
X1024129Y510540D01*
Y515620D01*
X1023738Y517587D01*
X1022624Y519254D01*
X1020957Y520368D01*
X1018990Y520759D01*
D02*
G37*
G36*
X1016450Y502691D02*
X1014471Y502431D01*
X1012627Y501667D01*
X1011044Y500452D01*
X1009829Y498869D01*
X1009065Y497025D01*
X1008805Y495046D01*
X1009065Y493067D01*
X1009276Y492558D01*
X1002377Y485660D01*
X771356D01*
X770088Y485407D01*
X769013Y484689D01*
X765688Y481364D01*
X764054Y481039D01*
X762566Y480045D01*
X761571Y478556D01*
X761222Y476800D01*
X761571Y475044D01*
X762566Y473556D01*
X764054Y472561D01*
X765810Y472212D01*
X767566Y472561D01*
X769054Y473556D01*
X770049Y475044D01*
X770374Y476678D01*
X772728Y479032D01*
X1003750D01*
X1005018Y479285D01*
X1006093Y480003D01*
X1013962Y487872D01*
X1014471Y487661D01*
X1016450Y487401D01*
X1018429Y487661D01*
X1020273Y488425D01*
X1021856Y489640D01*
X1023071Y491223D01*
X1023835Y493067D01*
X1024096Y495046D01*
X1023835Y497025D01*
X1023071Y498869D01*
X1021856Y500452D01*
X1020273Y501667D01*
X1018429Y502431D01*
X1016450Y502691D01*
D02*
G37*
G36*
Y484657D02*
X1014471Y484397D01*
X1012627Y483633D01*
X1011044Y482418D01*
X1009829Y480835D01*
X1009065Y478991D01*
X1008805Y477012D01*
X1009065Y475033D01*
X1009276Y474524D01*
X1004156Y469404D01*
X716880D01*
X715496Y470329D01*
X713740Y470678D01*
X711984Y470329D01*
X710496Y469334D01*
X709501Y467846D01*
X709152Y466090D01*
X709501Y464334D01*
X710017Y463562D01*
X709338Y462292D01*
X674814D01*
X673429Y463217D01*
X671673Y463566D01*
X669917Y463217D01*
X668429Y462222D01*
X667434Y460734D01*
X667085Y458978D01*
X667434Y457222D01*
X668429Y455734D01*
X669917Y454739D01*
X671673Y454390D01*
X673429Y454739D01*
X674814Y455664D01*
X1009618D01*
X1009829Y455155D01*
X1011044Y453572D01*
X1012627Y452357D01*
X1014471Y451593D01*
X1016450Y451333D01*
X1018429Y451593D01*
X1020273Y452357D01*
X1021856Y453572D01*
X1023071Y455155D01*
X1023835Y456999D01*
X1024096Y458978D01*
X1023835Y460957D01*
X1023071Y462801D01*
X1021856Y464384D01*
X1020273Y465599D01*
X1018429Y466363D01*
X1016450Y466623D01*
X1014471Y466363D01*
X1012627Y465599D01*
X1011044Y464384D01*
X1009829Y462801D01*
X1009618Y462292D01*
X1007979D01*
X1007594Y463562D01*
X1007871Y463747D01*
X1013962Y469838D01*
X1014471Y469627D01*
X1016450Y469367D01*
X1018429Y469627D01*
X1020273Y470391D01*
X1021856Y471606D01*
X1023071Y473189D01*
X1023835Y475033D01*
X1024096Y477012D01*
X1023835Y478991D01*
X1023071Y480835D01*
X1021856Y482418D01*
X1020273Y483633D01*
X1018429Y484397D01*
X1016450Y484657D01*
D02*
G37*
G36*
X357378Y410480D02*
X355622Y410131D01*
X355031Y409736D01*
X247203D01*
X246612Y410131D01*
X244856Y410480D01*
X243100Y410131D01*
X241612Y409136D01*
X240617Y407648D01*
X240268Y405892D01*
X240617Y404136D01*
X241612Y402648D01*
X243100Y401653D01*
X244856Y401304D01*
X246612Y401653D01*
X247203Y402048D01*
X355031D01*
X355622Y401653D01*
X357378Y401304D01*
X359134Y401653D01*
X360622Y402648D01*
X361617Y404136D01*
X361966Y405892D01*
X361617Y407648D01*
X360622Y409136D01*
X359134Y410131D01*
X357378Y410480D01*
D02*
G37*
G36*
X297976Y228740D02*
X295997Y228480D01*
X294153Y227716D01*
X292569Y226501D01*
X291354Y224918D01*
X290591Y223074D01*
X290330Y221095D01*
X290591Y219116D01*
X291354Y217272D01*
X292569Y215689D01*
X294153Y214474D01*
X295997Y213710D01*
X297976Y213449D01*
X299954Y213710D01*
X301798Y214474D01*
X303382Y215689D01*
X304597Y217272D01*
X304807Y217781D01*
X346224D01*
X347609Y216856D01*
X349365Y216507D01*
X351121Y216856D01*
X352609Y217850D01*
X353604Y219339D01*
X353953Y221095D01*
X353604Y222851D01*
X352609Y224339D01*
X351121Y225334D01*
X349365Y225683D01*
X347609Y225334D01*
X346224Y224408D01*
X304807D01*
X304597Y224918D01*
X303382Y226501D01*
X301798Y227716D01*
X299954Y228480D01*
X297976Y228740D01*
D02*
G37*
G36*
Y211652D02*
X295997Y211391D01*
X294153Y210627D01*
X292569Y209412D01*
X291354Y207829D01*
X290591Y205985D01*
X290330Y204006D01*
X290591Y202027D01*
X291354Y200184D01*
X292569Y198600D01*
X294153Y197385D01*
X295997Y196621D01*
X297976Y196361D01*
X299954Y196621D01*
X301798Y197385D01*
X303382Y198600D01*
X304597Y200184D01*
X304807Y200693D01*
X343106D01*
X344490Y199767D01*
X346246Y199418D01*
X348002Y199767D01*
X349491Y200762D01*
X350485Y202250D01*
X350834Y204006D01*
X350485Y205762D01*
X349491Y207250D01*
X348002Y208245D01*
X346246Y208594D01*
X344490Y208245D01*
X343106Y207320D01*
X304807D01*
X304597Y207829D01*
X303382Y209412D01*
X301798Y210627D01*
X299954Y211391D01*
X297976Y211652D01*
D02*
G37*
G36*
X311340Y115680D02*
X308340D01*
Y112680D01*
X311340D01*
Y115680D01*
D02*
G37*
G36*
X306340D02*
X303340D01*
Y112680D01*
X306340D01*
Y115680D01*
D02*
G37*
G36*
X1015450Y421910D02*
X1009945D01*
X1010040Y421192D01*
X1010703Y419592D01*
X1011757Y418217D01*
X1013132Y417162D01*
X1014732Y416499D01*
X1015450Y416405D01*
Y421910D01*
D02*
G37*
G36*
X693870Y207529D02*
X654870D01*
X653699Y207296D01*
X652707Y206633D01*
X652044Y205641D01*
X651811Y204470D01*
Y196850D01*
X652044Y195679D01*
X652707Y194687D01*
X653699Y194024D01*
X654870Y193791D01*
X693870D01*
X695041Y194024D01*
X696033Y194687D01*
X696696Y195679D01*
X696929Y196850D01*
Y204470D01*
X696696Y205641D01*
X696033Y206633D01*
X695041Y207296D01*
X693870Y207529D01*
D02*
G37*
G36*
X1008110Y160175D02*
Y154670D01*
X1013615D01*
X1013521Y155388D01*
X1012858Y156988D01*
X1011803Y158363D01*
X1010428Y159418D01*
X1008828Y160081D01*
X1008110Y160175D01*
D02*
G37*
G36*
X1006110D02*
X1005392Y160081D01*
X1003792Y159418D01*
X1002417Y158363D01*
X1001362Y156988D01*
X1000699Y155388D01*
X1000605Y154670D01*
X1006110D01*
Y160175D01*
D02*
G37*
G36*
X1013615Y152670D02*
X1008110D01*
Y147165D01*
X1008828Y147259D01*
X1010428Y147922D01*
X1011803Y148977D01*
X1012858Y150352D01*
X1013521Y151952D01*
X1013615Y152670D01*
D02*
G37*
G36*
X1006110D02*
X1000605D01*
X1000699Y151952D01*
X1001362Y150352D01*
X1002417Y148977D01*
X1003792Y147922D01*
X1005392Y147259D01*
X1006110Y147165D01*
Y152670D01*
D02*
G37*
G36*
X860790Y128450D02*
Y122950D01*
X866790D01*
Y128450D01*
X860790D01*
D02*
G37*
G36*
X947289Y143780D02*
X940800D01*
Y137291D01*
X946716Y131376D01*
X948204Y130381D01*
X949960Y130032D01*
X951716Y130381D01*
X953204Y131376D01*
X954199Y132864D01*
X954548Y134620D01*
X954199Y136376D01*
X953204Y137864D01*
X947289Y143780D01*
D02*
G37*
G36*
X692150Y150169D02*
X690610D01*
Y144510D01*
X696269D01*
Y146050D01*
X695956Y147626D01*
X695063Y148963D01*
X693726Y149856D01*
X692150Y150169D01*
D02*
G37*
G36*
X688610D02*
X687070D01*
X685494Y149856D01*
X684157Y148963D01*
X683580Y148098D01*
X679450D01*
X677694Y147749D01*
X676206Y146754D01*
X660623Y131172D01*
X659245Y131590D01*
X659052Y132562D01*
X657878Y134318D01*
X656122Y135492D01*
X654050Y135904D01*
X651240D01*
Y115300D01*
X659464D01*
Y117035D01*
X681350Y138922D01*
X683580D01*
X684157Y138057D01*
X685494Y137164D01*
X687070Y136851D01*
X688610D01*
Y143510D01*
Y150169D01*
D02*
G37*
%LPD*%
D12*
X929369Y309715D02*
G03*
X929354Y309730I-6294J-6279D01*
G01*
Y297143D02*
G03*
X930106Y308878I-6279J6294D01*
G01*
X920371Y288160D02*
G03*
X920375Y282788I2705J-2684D01*
G01*
X920375Y282788D02*
G03*
X920381Y282782I2700J2688D01*
G01*
D02*
G03*
X920387Y282776I2694J2694D01*
G01*
D02*
G03*
X925776Y282788I2688J2700D01*
G01*
X925778Y282791D02*
G03*
X925776Y282788I1787J-1805D01*
G01*
X936129Y293141D02*
G03*
X936123Y293135I1801J-1791D01*
G01*
X947862Y293891D02*
G03*
X936129Y293141I-5441J-7030D01*
G01*
X948706Y293147D02*
G03*
X948699Y293154I-6286J-6286D01*
G01*
X948714Y293139D02*
G03*
X948706Y293147I-6294J-6279D01*
G01*
X948699Y280567D02*
G03*
X949450Y292302I-6279J6294D01*
G01*
X938331Y270199D02*
G03*
X938335Y264828I2705J-2684D01*
G01*
X938335Y264828D02*
G03*
X938342Y264821I2700J2688D01*
G01*
D02*
G03*
X938348Y264815I2694J2694D01*
G01*
X938348Y264815D02*
G03*
X943736Y264828I2688J2700D01*
G01*
X943739Y264830D02*
G03*
X943736Y264828I1787J-1805D01*
G01*
X954089Y275181D02*
G03*
X954083Y275175I1801J-1791D01*
G01*
X966667Y275186D02*
G03*
X954089Y275181I-6286J-6286D01*
G01*
X966660Y262607D02*
G03*
X966667Y275186I-6279J6294D01*
G01*
X957224Y253171D02*
G03*
X957229Y247800I2705J-2684D01*
G01*
X957229Y247800D02*
G03*
X957235Y247794I2700J2688D01*
G01*
D02*
G03*
X957241Y247788I2694J2694D01*
G01*
X957241Y247788D02*
G03*
X962629Y247800I2688J2700D01*
G01*
X962632Y247803D02*
G03*
X962629Y247800I1787J-1805D01*
G01*
X982398Y256585D02*
G03*
X970663Y255834I-5441J-7030D01*
G01*
X983250D02*
G03*
X983236Y255849I-6294J-6279D01*
G01*
X925754Y306146D02*
G03*
X925758Y306142I1811J1781D01*
G01*
X925763Y300736D02*
G03*
X925758Y306142I-2688J2700D01*
G01*
X925763Y300736D02*
G03*
X925760Y300733I1802J-1790D01*
G01*
X916800Y291773D02*
G03*
X916794Y291767I1785J-1807D01*
G01*
D02*
G03*
X916789Y279190I6281J-6291D01*
G01*
D02*
G03*
X929369Y279197I6286J6286D01*
G01*
X945103Y289566D02*
G03*
X939737Y289565I-2683J-2706D01*
G01*
X945114Y289555D02*
G03*
X945103Y289566I-2694J-2694D01*
G01*
X945126Y289543D02*
G03*
X945114Y289555I-2706J-2682D01*
G01*
X945108Y284160D02*
G03*
X945126Y289543I-2688J2700D01*
G01*
X945108Y284160D02*
G03*
X945105Y284157I1802J-1790D01*
G01*
X934761Y273813D02*
G03*
X934755Y273807I1785J-1807D01*
G01*
D02*
G03*
X934750Y261229I6281J-6291D01*
G01*
D02*
G03*
X947329Y261237I6286J6286D01*
G01*
X963063Y271606D02*
G03*
X957697Y271605I-2683J-2706D01*
G01*
X963075Y271594D02*
G03*
X963063Y271606I-2694J-2694D01*
G01*
X963086Y271583D02*
G03*
X963075Y271594I-2706J-2682D01*
G01*
X963069Y266200D02*
G03*
X963086Y271583I-2688J2700D01*
G01*
X963069Y266200D02*
G03*
X963066Y266197I1802J-1790D01*
G01*
X953654Y256785D02*
G03*
X953648Y256779I1785J-1807D01*
G01*
D02*
G03*
X953643Y244202I6281J-6291D01*
G01*
D02*
G03*
X966222Y244209I6286J6286D01*
G01*
X974254Y252240D02*
G03*
X974257Y252243I-1787J1805D01*
G01*
X979662Y252238D02*
G03*
X974257Y252243I-2706J-2683D01*
G01*
X979662Y252238D02*
G03*
X979666Y252234I1785J1807D01*
G01*
X1029390Y349830D02*
X1034771Y344449D01*
X1029390Y349830D02*
Y359030D01*
X1034771Y344449D02*
X1037142D01*
X1037422Y344170D01*
X997775Y660591D02*
X1021080Y637286D01*
X994467Y660420D02*
X994638Y660591D01*
X1021080Y637286D02*
Y637286D01*
X994638Y660591D02*
X997775D01*
X1019437Y637007D02*
X1020801D01*
X1011080Y628650D02*
X1019437Y637007D01*
X1020801D02*
X1021080Y637286D01*
X912277Y326807D02*
X914227Y324857D01*
X914227D02*
X929354Y309730D01*
X929369Y309715D02*
X930106Y308979D01*
Y308878D02*
Y308979D01*
X920371Y288160D02*
X929354Y297143D01*
X920375Y282788D02*
X920375Y282788D01*
X925778Y282791D02*
X936123Y293135D01*
X947862Y293891D02*
X947962D01*
X947962D02*
X948699Y293154D01*
X948714Y293139D02*
X949450Y292403D01*
Y292302D02*
Y292403D01*
X938331Y270199D02*
X948699Y280567D01*
X938335Y264828D02*
X938335Y264828D01*
X938348Y264815D02*
X938348Y264815D01*
X943739Y264830D02*
X954083Y275175D01*
X957224Y253171D02*
X966660Y262607D01*
X957229Y247800D02*
X957229Y247800D01*
X957241Y247788D02*
X957241Y247788D01*
X962632Y247803D02*
X970663Y255834D01*
X982398Y256585D02*
X982499D01*
X982499D02*
X983236Y255849D01*
X983250Y255834D02*
X983987Y255097D01*
Y255097D02*
X985937Y253147D01*
X908685Y323215D02*
X910635Y321265D01*
Y321265D02*
Y321265D01*
X910635Y321265D02*
X925754Y306146D01*
X916800Y291773D02*
X925760Y300733D01*
X929369Y279197D02*
X939737Y289565D01*
X945103Y289566D02*
Y289566D01*
X945126Y289543D02*
X945126Y289543D01*
X934761Y273813D02*
X945105Y284157D01*
X947329Y261237D02*
X957697Y271605D01*
X963063Y271605D02*
Y271606D01*
X963086Y271583D02*
Y271583D01*
X953654Y256785D02*
X963066Y266197D01*
X966222Y244209D02*
X974254Y252240D01*
X979666Y252234D02*
X980395Y251505D01*
X980395D01*
X982345Y249555D01*
X887294Y351790D02*
X912277Y326807D01*
X985937Y253147D02*
X1011972Y227112D01*
X885190Y346710D02*
X908685Y323215D01*
X982345Y249555D02*
X1008380Y223520D01*
X785514Y351790D02*
X887294D01*
X787618Y346710D02*
X885190D01*
X781050Y342900D02*
Y347326D01*
X785514Y351790D01*
X786409Y345501D02*
X787618Y346710D01*
X786409Y343179D02*
Y345501D01*
X786130Y342900D02*
X786409Y343179D01*
X807664Y513080D02*
X1016450D01*
X786384Y491800D02*
X807664Y513080D01*
X624388Y491800D02*
X786384D01*
X616204Y483616D02*
X624388Y491800D01*
X790702Y627634D02*
X799846Y636778D01*
X565420Y646176D02*
X567944Y648700D01*
X575834D01*
X565420Y638048D02*
Y646176D01*
X596900Y627634D02*
X790702D01*
X575834Y648700D02*
X596900Y627634D01*
X521732Y594360D02*
X565420Y638048D01*
X507044Y594360D02*
X521732D01*
X244856Y405892D02*
X357378D01*
X858520Y558471D02*
Y548474D01*
X853522D01*
X851855Y550140D01*
Y556805D01*
X853522Y558471D01*
X858520D01*
X843525Y548474D02*
X846857D01*
X848523Y550140D01*
Y553473D01*
X846857Y555139D01*
X843525D01*
X841859Y553473D01*
Y551807D01*
X848523D01*
X838526Y548474D02*
X833528D01*
X831862Y550140D01*
X833528Y551807D01*
X836860D01*
X838526Y553473D01*
X836860Y555139D01*
X831862D01*
X828530Y548474D02*
X825197D01*
X826863D01*
Y555139D01*
X828530D01*
X816867Y545142D02*
X815201D01*
X813534Y546808D01*
Y555139D01*
X818533D01*
X820199Y553473D01*
Y550140D01*
X818533Y548474D01*
X813534D01*
X810202D02*
Y555139D01*
X805204D01*
X803538Y553473D01*
Y548474D01*
X795207D02*
X798539D01*
X800206Y550140D01*
Y553473D01*
X798539Y555139D01*
X795207D01*
X793541Y553473D01*
Y551807D01*
X800206D01*
X783544Y558471D02*
Y548474D01*
X788542D01*
X790209Y550140D01*
Y553473D01*
X788542Y555139D01*
X783544D01*
X770215Y558471D02*
Y548474D01*
X765217D01*
X763551Y550140D01*
Y551807D01*
X765217Y553473D01*
X770215D01*
X765217D01*
X763551Y555139D01*
Y556805D01*
X765217Y558471D01*
X770215D01*
X760218Y555139D02*
Y550140D01*
X758552Y548474D01*
X753554D01*
Y546808D01*
X755220Y545142D01*
X756886D01*
X753554Y548474D02*
Y555139D01*
X858520Y537047D02*
X855188D01*
X856854D01*
Y527050D01*
X858520D01*
X855188D01*
X850189Y537047D02*
Y527050D01*
X845191D01*
X843525Y528716D01*
Y530382D01*
Y532048D01*
X845191Y533714D01*
X850189D01*
X840193D02*
Y527050D01*
Y530382D01*
X838526Y532048D01*
X836860Y533714D01*
X835194D01*
X828530Y527050D02*
X825197D01*
X823531Y528716D01*
Y532048D01*
X825197Y533714D01*
X828530D01*
X830196Y532048D01*
Y528716D01*
X828530Y527050D01*
X820199D02*
Y533714D01*
X815201D01*
X813534Y532048D01*
Y527050D01*
X810202Y533714D02*
X803538Y527050D01*
X806870Y530382D01*
X803538Y533714D01*
X810202Y527050D01*
X790209Y537047D02*
X786876D01*
X788542D01*
Y527050D01*
X790209D01*
X786876D01*
X781878D02*
Y533714D01*
X776880D01*
X775213Y532048D01*
Y527050D01*
X765217Y533714D02*
X770215D01*
X771881Y532048D01*
Y528716D01*
X770215Y527050D01*
X765217D01*
X761885D02*
Y528716D01*
X760218D01*
Y527050D01*
X761885D01*
D71*
X294640Y102850D02*
D03*
Y110350D02*
D03*
D115*
X1019580Y612150D02*
D03*
X999580D02*
D03*
D117*
X711360Y200660D02*
D03*
X731360D02*
D03*
X711360Y205660D02*
D03*
X731360D02*
D03*
X711360Y195660D02*
D03*
X731360D02*
D03*
X716360Y205660D02*
D03*
X721360D02*
D03*
Y200660D02*
D03*
X726360D02*
D03*
X716360D02*
D03*
X726360Y205660D02*
D03*
X716360Y195660D02*
D03*
X721360D02*
D03*
X726360D02*
D03*
D119*
X645668Y359580D02*
G03*
X648958Y356290I3290J0D01*
G01*
X667241Y353000D02*
G03*
X663951Y356290I-3290J0D01*
G01*
Y349710D02*
G03*
X667241Y353000I0J3290D01*
G01*
X623558Y349710D02*
G03*
X620268Y346420I0J-3290D01*
G01*
Y346420D02*
G03*
X623558Y343130I3290J0D01*
G01*
X645668Y339840D02*
G03*
X642378Y343130I-3290J0D01*
G01*
X511985Y217800D02*
G03*
X515275Y214510I3290J0D01*
G01*
X523788Y211220D02*
G03*
X520498Y214510I-3290J0D01*
G01*
Y207930D02*
G03*
X523788Y211220I0J3290D01*
G01*
X495775Y207930D02*
G03*
X492485Y204640I0J-3290D01*
G01*
Y204640D02*
G03*
X495775Y201350I3290J0D01*
G01*
X523788Y198060D02*
G03*
X520498Y201350I-3290J0D01*
G01*
Y194770D02*
G03*
X523788Y198060I0J3290D01*
G01*
X495775Y194770D02*
G03*
X492485Y191480I0J-3290D01*
G01*
Y191480D02*
G03*
X495775Y188190I3290J0D01*
G01*
X511985Y184900D02*
G03*
X508695Y188190I-3290J0D01*
G01*
X461530Y214280D02*
G03*
X464820Y217570I0J3290D01*
G01*
X459505Y214280D02*
G03*
X456215Y210990I0J-3290D01*
G01*
Y210990D02*
G03*
X459505Y207700I3290J0D01*
G01*
X476485Y204410D02*
G03*
X473195Y207700I-3290J0D01*
G01*
Y201120D02*
G03*
X476485Y204410I0J3290D01*
G01*
X468110Y201120D02*
G03*
X464820Y197830I0J-3290D01*
G01*
X600267Y283824D02*
G03*
X604920Y283824I2326J2326D01*
G01*
X597670Y286421D02*
G03*
X593018Y286421I-2326J-2326D01*
G01*
X593018Y286421D02*
G03*
X593018Y281768I2326J-2326D01*
G01*
X613574Y256558D02*
G03*
X613574Y261211I-2326J2326D01*
G01*
X608922Y256558D02*
G03*
X613574Y256558I2326J2326D01*
G01*
X588365Y277115D02*
G03*
X583712Y277115I-2326J-2326D01*
G01*
X583712Y277115D02*
G03*
X583712Y272463I2326J-2326D01*
G01*
X604269Y247253D02*
G03*
X604269Y251906I-2326J2326D01*
G01*
X599616Y247253D02*
G03*
X604269Y247253I2326J2326D01*
G01*
X579059Y267810D02*
G03*
X574407Y267810I-2326J-2326D01*
G01*
X574407Y267810D02*
G03*
X574407Y263157I2326J-2326D01*
G01*
X577003Y255908D02*
G03*
X577003Y260561I-2326J2326D01*
G01*
X559084Y260676D02*
G03*
X563737Y260676I2326J2326D01*
G01*
X550436Y269324D02*
G03*
X545783Y269324I-2326J-2326D01*
G01*
X545783Y269324D02*
G03*
X545783Y264671I2326J-2326D01*
G01*
X561681Y244121D02*
G03*
X561681Y248774I-2326J2326D01*
G01*
X557028Y244121D02*
G03*
X561681Y244121I2326J2326D01*
G01*
X540813Y260336D02*
G03*
X536160Y260336I-2326J-2326D01*
G01*
X536160Y260336D02*
G03*
X536160Y255684I2326J-2326D01*
G01*
X545126Y242065D02*
G03*
X545126Y246718I-2326J2326D01*
G01*
X563740Y306773D02*
G03*
X568393Y306773I2326J2326D01*
G01*
X563430Y307083D02*
G03*
X558777Y307083I-2326J-2326D01*
G01*
X558777Y307083D02*
G03*
X558777Y302431I2326J-2326D01*
G01*
X562654Y293901D02*
G03*
X562654Y298554I-2326J2326D01*
G01*
X558001Y293901D02*
G03*
X562654Y293901I2326J2326D01*
G01*
X554124Y297778D02*
G03*
X549472Y297778I-2326J-2326D01*
G01*
X549472Y297778D02*
G03*
X549472Y293125I2326J-2326D01*
G01*
X553348Y284596D02*
G03*
X553348Y289249I-2326J2326D01*
G01*
X548695Y284596D02*
G03*
X553348Y284596I2326J2326D01*
G01*
X544819Y288472D02*
G03*
X540166Y288472I-2326J-2326D01*
G01*
X540166Y288472D02*
G03*
X540166Y283820I2326J-2326D01*
G01*
X544043Y275290D02*
G03*
X544043Y279943I-2326J2326D01*
G01*
X539390Y275290D02*
G03*
X544043Y275290I2326J2326D01*
G01*
X535513Y279167D02*
G03*
X530860Y279167I-2326J-2326D01*
G01*
X530860Y279167D02*
G03*
X530860Y274514I2326J-2326D01*
G01*
X534737Y265985D02*
G03*
X534737Y270637I-2326J2326D01*
G01*
X530084Y265985D02*
G03*
X534737Y265985I2326J2326D01*
G01*
X526208Y269861D02*
G03*
X521555Y269861I-2326J-2326D01*
G01*
X521555Y269861D02*
G03*
X521555Y265209I2326J-2326D01*
G01*
X521865Y260245D02*
G03*
X521865Y264898I-2326J2326D01*
G01*
X1011398Y353852D02*
X1012075D01*
X1012646Y353280D01*
X1023865D01*
X1024890Y366073D02*
X1028475Y369659D01*
Y374115D01*
X1029390Y375030D01*
X1018390Y362280D02*
X1020390Y360280D01*
X1023865Y353280D02*
X1024890Y354305D01*
X1020390Y359030D02*
Y360280D01*
X1011597Y363110D02*
X1012427Y362280D01*
X1018390D01*
X1024890Y354305D02*
Y366073D01*
X1010920Y363110D02*
X1011597D01*
X1010920Y354330D02*
X1011398Y353852D01*
X1013460Y374650D02*
X1020010D01*
X1020390Y375030D01*
X1010920Y372110D02*
X1013460Y374650D01*
X1041172Y155982D02*
Y409168D01*
X1019302Y134112D02*
X1041172Y155982D01*
X1020064Y430276D02*
X1041172Y409168D01*
X1009650Y597830D02*
Y612140D01*
X998220Y623570D02*
Y648970D01*
Y623570D02*
X1009650Y612140D01*
Y597830D02*
X1011830Y595650D01*
X645668Y359580D02*
Y377190D01*
X648958Y356290D02*
X663951D01*
X667241Y353000D02*
Y353000D01*
X623558Y349710D02*
X663951D01*
X620268Y346420D02*
Y346420D01*
X623558Y343130D02*
X642378D01*
X645668Y339090D02*
Y339840D01*
Y377190D02*
Y406908D01*
Y338074D02*
Y339090D01*
X581426Y278364D02*
X618362Y315300D01*
X511985Y217800D02*
Y224790D01*
X515275Y214510D02*
X520498D01*
X523788Y211220D02*
Y211220D01*
X495775Y207930D02*
X520498D01*
X492485Y204640D02*
Y204640D01*
X495775Y201350D02*
X520498D01*
X523788Y198060D02*
Y198060D01*
X495775Y194770D02*
X520498D01*
X492485Y191480D02*
Y191480D01*
X495775Y188190D02*
X508695D01*
X511985Y184150D02*
Y184900D01*
Y224790D02*
Y226958D01*
Y178425D02*
Y184150D01*
X464820Y217570D02*
Y224790D01*
X459505Y214280D02*
X461530D01*
X456215Y210990D02*
Y210990D01*
X459505Y207700D02*
X473195D01*
X476485Y204410D02*
Y204410D01*
X468110Y201120D02*
X473195D01*
X464820Y190500D02*
Y197830D01*
Y224790D02*
Y233895D01*
Y181590D02*
Y190500D01*
X604920Y283824D02*
X613938Y292842D01*
X597670Y286421D02*
X600267Y283824D01*
X593018Y286421D02*
X593018Y286421D01*
X593018Y281768D02*
X613574Y261211D01*
X613574Y256558D02*
X613574Y256558D01*
X588365Y277115D02*
X608922Y256558D01*
X583712Y277115D02*
X583712Y277115D01*
X583712Y272463D02*
X604269Y251906D01*
X604269Y247253D02*
X604269Y247253D01*
X579059Y267810D02*
X599616Y247253D01*
X574407Y267810D02*
X574407Y267810D01*
X574407Y263157D02*
X577003Y260561D01*
X577003Y260561D02*
X577003Y260561D01*
X576473Y255377D02*
X577003Y255908D01*
X613938Y292842D02*
X633895Y312800D01*
X554990Y233895D02*
X576473Y255377D01*
X563737Y260676D02*
X581426Y278364D01*
X550436Y269324D02*
X559084Y260676D01*
X545783Y269324D02*
X545783Y269324D01*
X545783Y264671D02*
X561681Y248774D01*
X561681Y244121D02*
X561681Y244121D01*
X540813Y260336D02*
X557028Y244121D01*
X536160Y260336D02*
X536160Y260336D01*
X536160Y255684D02*
X545126Y246718D01*
X545126Y246718D02*
X545126Y246718D01*
X544596Y241534D02*
X545126Y242065D01*
X536956Y233895D02*
X544596Y241534D01*
X526288Y254000D02*
X587248Y314960D01*
X568393Y306773D02*
X576834Y315214D01*
X563430Y307083D02*
X563740Y306773D01*
X558777Y307083D02*
X558777Y307083D01*
X558777Y302431D02*
X562654Y298554D01*
X562654Y293901D02*
X562654Y293901D01*
X554124Y297778D02*
X558001Y293901D01*
X549472Y297778D02*
X549472Y297778D01*
X549472Y293125D02*
X553348Y289249D01*
X553348Y284596D02*
X553348Y284596D01*
X544819Y288472D02*
X548695Y284596D01*
X540166Y288472D02*
X540166Y288472D01*
X540166Y283820D02*
X544043Y279943D01*
X544043Y275290D02*
X544043Y275290D01*
X535513Y279167D02*
X539390Y275290D01*
X530860Y279167D02*
X530860Y279167D01*
X530860Y274514D02*
X534737Y270637D01*
X534737Y265985D02*
X534737Y265985D01*
X526208Y269861D02*
X530084Y265985D01*
X521555Y269861D02*
X521555Y269861D01*
X521555Y265209D02*
X521865Y264898D01*
X521865Y264898D02*
X521865Y264898D01*
X521335Y259715D02*
X521865Y260245D01*
X518922Y257302D02*
X521335Y259715D01*
X518922Y233895D02*
Y257302D01*
X500888Y233895D02*
Y252730D01*
X562864Y314706D01*
X640588Y332994D02*
X645668Y338074D01*
X594614Y332994D02*
X640588D01*
X782320Y260350D02*
Y316992D01*
X731012Y368300D02*
X782320Y316992D01*
X699770Y440690D02*
X700024Y440944D01*
X679196Y400558D02*
X714756Y436118D01*
X883666D01*
X889508Y430276D01*
X747268Y410972D02*
X788924D01*
X700024Y440944D02*
X1016450D01*
X814098Y418084D02*
X828040D01*
X728572Y380514D02*
X731012Y378074D01*
X728572Y380514D02*
Y381000D01*
X718058Y361950D02*
Y376514D01*
X743344Y401800D01*
X731012Y368300D02*
Y378074D01*
X743344Y401800D02*
X768096D01*
X715518Y355346D02*
Y379222D01*
X747268Y410972D01*
X828040Y418084D02*
X1019048Y227076D01*
Y142240D02*
Y227076D01*
X1014222Y137414D02*
X1019048Y142240D01*
X923572Y199672D02*
X930800Y206900D01*
X935482Y167132D02*
Y220472D01*
X951230Y236220D01*
X930800Y206900D02*
Y236232D01*
X927862Y159512D02*
X935482Y167132D01*
X726634Y368808D02*
X750824Y344618D01*
X715518Y355346D02*
X723900Y346964D01*
X712978Y349840D02*
X720892Y341926D01*
X712978Y426720D02*
X718566Y432308D01*
X712978Y349840D02*
Y426720D01*
X643572Y440944D02*
X699516D01*
X699770Y440690D01*
X713740Y466090D02*
X1005528D01*
X1016450Y477012D01*
X671673Y458978D02*
X1016450D01*
X938530Y354330D02*
X971550Y321310D01*
X897128Y590296D02*
Y646176D01*
X673414Y304740D02*
X725110D01*
X667512Y310642D02*
X673414Y304740D01*
X725110D02*
X728980Y308610D01*
X677335Y340614D02*
X716673D01*
X664127Y327406D02*
X677335Y340614D01*
X267910Y327406D02*
X664127D01*
X415392Y324866D02*
X667766D01*
X413360Y322834D02*
X415392Y324866D01*
X259080Y544830D02*
X260350Y546100D01*
X259080Y527050D02*
X372110Y414020D01*
X259080Y527050D02*
Y544830D01*
X582676Y415036D02*
X582930Y414782D01*
X582676Y488696D02*
X659384Y565404D01*
X582930Y408432D02*
Y414782D01*
X582676Y415036D02*
Y488696D01*
X377743Y375711D02*
X550209D01*
X582930Y408432D01*
X254000Y546100D02*
X261620Y553720D01*
X254000Y525780D02*
X365760Y414020D01*
X254000Y525780D02*
Y546100D01*
X801571Y642112D02*
X803596Y640087D01*
X781812Y642112D02*
X801571D01*
X806450D02*
X810514Y638048D01*
X801571Y642112D02*
X806450D01*
X775970Y636270D02*
X781812Y642112D01*
X810514Y631190D02*
Y638048D01*
X803596Y633028D02*
Y640087D01*
X770262Y599694D02*
X803596Y633028D01*
X700532Y599694D02*
X770262D01*
X606298Y505460D02*
X700532Y599694D01*
X613918Y400558D02*
Y420116D01*
X611632Y422402D02*
X613918Y420116D01*
X606298Y424688D02*
X608584Y422402D01*
X606298Y424688D02*
Y505460D01*
X608584Y422402D02*
X611632D01*
X584708Y371348D02*
X613918Y400558D01*
X992632Y134112D02*
X1019302D01*
X976630Y118110D02*
X992632Y134112D01*
X889508Y430276D02*
X1020064D01*
X679196Y365506D02*
Y400558D01*
X970280Y111760D02*
X976630Y118110D01*
X972312Y137414D02*
X1014222D01*
X947928Y113030D02*
X972312Y137414D01*
X927862Y113030D02*
X947928D01*
X387350Y542290D02*
X400050Y529590D01*
X312420Y542290D02*
X387350D01*
X361950Y538480D02*
X393700Y506730D01*
X323850Y538480D02*
X361950D01*
X226120Y562550D02*
X406340D01*
X220980Y567690D02*
X226120Y562550D01*
X378460Y558800D02*
X410210Y527050D01*
X237490Y558800D02*
X378460D01*
X771356Y482346D02*
X1003750D01*
X1016450Y495046D01*
X765810Y476800D02*
X771356Y482346D01*
X553735Y640370D02*
Y641350D01*
X525545Y612180D02*
X553735Y640370D01*
X452160Y612180D02*
X525545D01*
X422910Y606837D02*
Y610870D01*
X442020Y602040D02*
X452160Y612180D01*
X422910Y606837D02*
X427706Y602040D01*
X442020D01*
X719836Y236220D02*
X749300Y206756D01*
Y187960D02*
Y206756D01*
X673100Y236220D02*
X681990Y245110D01*
X673100Y236220D02*
X719836D01*
X629385Y426757D02*
X643572Y440944D01*
X610152Y426757D02*
X629385D01*
X610108Y426800D02*
X610152Y426757D01*
X297976Y204006D02*
X346246D01*
X297976Y221095D02*
X349365D01*
X361390Y195064D02*
Y249630D01*
X294640Y128314D02*
X361390Y195064D01*
X294640Y110350D02*
Y128314D01*
X306170Y102850D02*
X307340Y101680D01*
X294640Y102850D02*
X306170D01*
X833120Y107950D02*
X837749D01*
X825580Y115490D02*
X833120Y107950D01*
X819150Y115490D02*
X825580D01*
X796371Y107950D02*
X803910Y115490D01*
X785040Y107950D02*
X796371D01*
X877650Y107950D02*
X878840Y106760D01*
X859790Y107950D02*
X877650D01*
X718058Y361950D02*
X728980Y351028D01*
Y308610D02*
Y351028D01*
X657404Y310642D02*
X667512D01*
X393700Y132080D02*
X414020Y152400D01*
X643636Y157988D02*
Y296874D01*
X414020Y152400D02*
X638048D01*
X643636Y157988D01*
Y296874D02*
X657404Y310642D01*
X526288Y178816D02*
Y254000D01*
X521970Y174498D02*
X526288Y178816D01*
X482854D02*
X487172Y174498D01*
X521970D01*
X478985Y230026D02*
X482854Y233895D01*
Y178816D02*
Y233895D01*
X478985Y178425D02*
Y230026D01*
Y172329D02*
Y178425D01*
X464820Y181590D02*
X467985Y178425D01*
X719328Y313182D02*
X723900Y317754D01*
Y346964D01*
X654562Y313182D02*
X719328D01*
X633895Y312800D02*
X654180D01*
X654562Y313182D01*
X554990Y175260D02*
Y233895D01*
X720892Y337860D02*
Y341926D01*
X699915Y316883D02*
X720892Y337860D01*
X618362Y315300D02*
X650479D01*
X652061Y316883D01*
X699915D01*
X718566Y432308D02*
X783590D01*
X536956Y184404D02*
Y233895D01*
X533985Y230924D02*
X536956Y233895D01*
X533985Y178425D02*
Y230924D01*
X489985Y222992D02*
X500888Y233895D01*
X489985Y178425D02*
Y222992D01*
X511985Y226958D02*
X518922Y233895D01*
X971550Y321310D02*
Y330390D01*
X982980Y297180D02*
Y374650D01*
X971550Y285750D02*
X982980Y297180D01*
X877570Y379730D02*
X971550Y285750D01*
Y364490D02*
X980480Y355560D01*
Y312460D02*
Y355560D01*
X971550Y303530D02*
X980480Y312460D01*
X910590Y364490D02*
X971550Y303530D01*
X568960Y415036D02*
X575056Y421132D01*
Y426212D01*
X531114Y415036D02*
X568960D01*
X538725Y423672D02*
X559896D01*
X517652Y444745D02*
X538725Y423672D01*
X579120Y411080D02*
Y567690D01*
X427736Y641350D02*
X496631D01*
X416560Y630174D02*
X427736Y641350D01*
X416560Y584708D02*
Y630174D01*
Y584708D02*
X420878Y580390D01*
X618280Y651720D02*
X637032Y632968D01*
X526036Y651720D02*
X618280D01*
X515666Y641350D02*
X526036Y651720D01*
X507792Y633476D02*
X515666Y641350D01*
X433578Y535432D02*
Y574043D01*
X433070Y633476D02*
X507792D01*
X419100Y588521D02*
Y619506D01*
X433070Y633476D01*
X419100Y588521D02*
X433578Y574043D01*
X534701Y624870D02*
Y641350D01*
X524510Y614680D02*
X534701Y624870D01*
X450850Y614680D02*
X524510D01*
X441960Y605790D02*
X450850Y614680D01*
X429260Y605790D02*
X441960D01*
X900938Y585470D02*
Y650240D01*
X897636Y582168D02*
X900938Y585470D01*
X895350Y655828D02*
X900938Y650240D01*
X631190Y648970D02*
X638048Y655828D01*
X895350D01*
X892302Y651002D02*
X897128Y646176D01*
X652272Y651002D02*
X892302D01*
X650240Y648970D02*
X652272Y651002D01*
X590296Y402590D02*
Y410972D01*
X532892Y345186D02*
X590296Y402590D01*
X243840Y345186D02*
X532892D01*
X237490Y338836D02*
X243840Y345186D01*
X237490Y251460D02*
Y338836D01*
Y251460D02*
X241808Y247142D01*
X586546Y402396D02*
Y420176D01*
X532638Y348488D02*
X586546Y402396D01*
X239776Y348488D02*
X532638D01*
X234950Y343662D02*
X239776Y348488D01*
X234950Y237744D02*
X237170Y235524D01*
X234950Y237744D02*
Y343662D01*
X622985Y168579D02*
X635762Y181356D01*
Y308102D01*
X466167Y168579D02*
X622985D01*
X367792Y242824D02*
X417068D01*
X456692Y178054D02*
Y203200D01*
Y178054D02*
X466167Y168579D01*
X417068Y242824D02*
X456692Y203200D01*
X563626Y364998D02*
X641673D01*
X533594Y334966D02*
X563626Y364998D01*
X314706Y334966D02*
X533594D01*
X311972Y332232D02*
X314706Y334966D01*
X262128Y332232D02*
X311972D01*
X260096Y313690D02*
X279170Y294616D01*
X260096Y330200D02*
X262128Y332232D01*
X260096Y313690D02*
Y330200D01*
X243078Y337466D02*
X530774D01*
X610108Y416800D01*
X242924Y337312D02*
X243078Y337466D01*
X543306Y319278D02*
X631673D01*
X515366Y291338D02*
X543306Y319278D01*
X319278Y291338D02*
X515366D01*
X553720Y338836D02*
X636673D01*
X546100Y331216D02*
X553720Y338836D01*
X319278Y331216D02*
X546100D01*
X859028Y159512D02*
X927862D01*
X848868Y149352D02*
X859028Y159512D01*
X848868Y101600D02*
Y149352D01*
X828294Y101600D02*
Y105664D01*
X844804Y97536D02*
X848868Y101600D01*
X832358Y97536D02*
X844804D01*
X702056Y294894D02*
X800608Y196342D01*
Y157988D02*
Y196342D01*
X785040Y142420D02*
X800608Y157988D01*
X814832Y111506D02*
X815848Y110490D01*
X823468D01*
X814832Y111506D02*
Y115316D01*
X828294Y101600D02*
X832358Y97536D01*
X823468Y110490D02*
X828294Y105664D01*
X785040Y121951D02*
Y142420D01*
X808197Y121951D02*
X814832Y115316D01*
X785040Y121951D02*
X808197D01*
X834390Y187960D02*
X875538D01*
X747014Y275336D02*
X834390Y187960D01*
X747014Y275336D02*
Y296926D01*
X901954Y195580D02*
X903855Y193679D01*
X885190Y195580D02*
X901954D01*
X750824Y280416D02*
X835660Y195580D01*
X885190D01*
X750824Y280416D02*
Y344618D01*
X915811Y181102D02*
X923685Y188976D01*
X731520Y276352D02*
Y355346D01*
X722884Y363982D02*
X731520Y355346D01*
X826770Y181102D02*
X915811D01*
X826770D02*
X837749Y170123D01*
X731520Y276352D02*
X826770Y181102D01*
X837749Y121951D02*
Y170123D01*
X876213Y643193D02*
X883076Y636330D01*
X826873Y593852D02*
X876213Y643193D01*
X761492Y593852D02*
X826873D01*
X764032Y166370D02*
Y202946D01*
Y166370D02*
X793751D01*
X660146Y306832D02*
X764032Y202946D01*
D121*
X859790Y121951D02*
D03*
Y107950D02*
D03*
X785040Y121951D02*
D03*
Y107950D02*
D03*
X837749Y121951D02*
D03*
Y107950D02*
D03*
D141*
X627380Y114300D02*
D03*
X650240D02*
D03*
D148*
X696976Y122936D02*
X728492Y91420D01*
X754380D01*
X735330Y97790D02*
X753110D01*
X796210D01*
X803910Y105490D01*
X810180Y431372D02*
X818642Y422910D01*
X891320Y116760D02*
X911780D01*
X312246Y111680D02*
X312530Y114533D01*
X994410Y186690D02*
X1007110Y173990D01*
Y153670D02*
Y173990D01*
X974090Y186690D02*
X994410D01*
X1001841Y153670D02*
X1007110D01*
X987152Y154888D02*
X1000623D01*
X344932Y115062D02*
Y141478D01*
X321310Y91440D02*
X344932Y115062D01*
X288290Y91440D02*
X321310D01*
X273050Y106680D02*
X288290Y91440D01*
X273050Y106680D02*
Y219710D01*
X302260Y248920D01*
X723900Y284480D02*
Y300990D01*
X774700Y171450D02*
Y200660D01*
X645160Y148590D02*
X664210Y167640D01*
X633730Y148590D02*
X645160D01*
X627380Y142240D02*
X633730Y148590D01*
X627380Y114300D02*
Y142240D01*
X891320Y116760D02*
X895050Y113030D01*
X878840Y116760D02*
X891320D01*
X939800Y144780D02*
X949960Y134620D01*
X911780Y116760D02*
X939800Y144780D01*
X803910Y105490D02*
X819150D01*
X679450Y143510D02*
X689610D01*
X735330Y97790D01*
X650240Y114300D02*
X679450Y143510D01*
X818642Y422910D02*
X1016450D01*
X720090Y619760D02*
X737108D01*
X692828D02*
X720090D01*
X694690Y289560D02*
X738942Y245308D01*
X694690Y289560D02*
Y298450D01*
X1000623Y154888D02*
X1001841Y153670D01*
X985934D02*
X987152Y154888D01*
X865632Y153670D02*
X985934D01*
X859790Y121951D02*
X867664D01*
X869219Y120396D01*
X859790Y147828D02*
X865632Y153670D01*
X859790D02*
X865632D01*
X711360Y133190D02*
Y195660D01*
X859790Y121951D02*
Y147828D01*
X711360Y133190D02*
X736600Y107950D01*
X688340Y114300D02*
X696976Y122936D01*
X736600Y107950D02*
X760730D01*
X650664Y577596D02*
X692828Y619760D01*
X572770Y641350D02*
X594360Y619760D01*
X692828D01*
X532130Y594360D02*
X572770Y635000D01*
Y641350D01*
X518668Y580898D02*
X532130Y594360D01*
X484378Y580898D02*
X518668D01*
X463296Y601980D02*
X484378Y580898D01*
X221970Y385572D02*
X256930D01*
X681990Y308864D02*
X703834D01*
X612140Y203200D02*
X624840Y215900D01*
X575310Y203200D02*
X612140D01*
X397256Y193802D02*
X452882D01*
X344932Y141478D02*
X397256Y193802D01*
X312530Y114533D02*
X314960Y138938D01*
X312246Y111680D02*
X314865Y114300D01*
X307340Y111680D02*
X312246D01*
D150*
X1012770Y114420D02*
D03*
D151*
X1010920Y354330D02*
D03*
Y363110D02*
D03*
Y372110D02*
D03*
X1037422Y344170D02*
D03*
X754380Y91420D02*
D03*
X753110Y97790D02*
D03*
X994467Y660420D02*
D03*
X302260Y248920D02*
D03*
X346246Y204006D02*
D03*
X241808Y247142D02*
D03*
X367792Y242824D02*
D03*
X237170Y235524D02*
D03*
X349365Y221095D02*
D03*
X344932Y141478D02*
D03*
X314960Y138938D02*
D03*
X279170Y294616D02*
D03*
X319278Y331216D02*
D03*
X361390Y249630D02*
D03*
X319278Y291338D02*
D03*
X637032Y632968D02*
D03*
X650664Y577596D02*
D03*
X659384Y565404D02*
D03*
X782320Y260350D02*
D03*
X478985Y172329D02*
D03*
X788924Y410972D02*
D03*
X810180Y431372D02*
D03*
X814098Y418084D02*
D03*
X1011972Y227112D02*
D03*
X781050Y342900D02*
D03*
X1008380Y223520D02*
D03*
X786130Y342900D02*
D03*
X728572Y381000D02*
D03*
X726634Y368808D02*
D03*
X699770Y440690D02*
D03*
X713740Y466090D02*
D03*
X938530Y354330D02*
D03*
X897128Y590296D02*
D03*
X974090Y186690D02*
D03*
X723900Y284480D02*
D03*
Y300990D02*
D03*
X774700Y171450D02*
D03*
Y200660D02*
D03*
X716673Y340614D02*
D03*
X267910Y327406D02*
D03*
X664210Y167640D02*
D03*
X667766Y324866D02*
D03*
X413360Y322834D02*
D03*
X372110Y414020D02*
D03*
X260350Y546100D02*
D03*
X377743Y375711D02*
D03*
X365760Y414020D02*
D03*
X261620Y553720D02*
D03*
X810514Y631190D02*
D03*
X584708Y371348D02*
D03*
X786384Y491800D02*
D03*
X616204Y483616D02*
D03*
X1021080Y637286D02*
D03*
X799846Y636778D02*
D03*
X357378Y405892D02*
D03*
X244856D02*
D03*
X895050Y113030D02*
D03*
X949960Y134620D02*
D03*
X976630Y118110D02*
D03*
X679196Y365506D02*
D03*
X927862Y113030D02*
D03*
X400050Y529590D02*
D03*
X312420Y542290D02*
D03*
X393700Y506730D02*
D03*
X323850Y538480D02*
D03*
X406340Y562550D02*
D03*
X220980Y567690D02*
D03*
X410210Y527050D02*
D03*
X237490Y558800D02*
D03*
X671673Y458978D02*
D03*
X765810Y476800D02*
D03*
X422910Y610870D02*
D03*
X749300Y187960D02*
D03*
X681990Y245110D02*
D03*
X610108Y426800D02*
D03*
X998220Y648970D02*
D03*
X768096Y401800D02*
D03*
X393700Y132080D02*
D03*
X587248Y314960D02*
D03*
X478985Y178425D02*
D03*
X467985D02*
D03*
X554990Y175260D02*
D03*
X783590Y432308D02*
D03*
X536956Y184404D02*
D03*
X533985Y178425D02*
D03*
X562864Y314706D02*
D03*
X489985Y178425D02*
D03*
X645668Y406908D02*
D03*
X594614Y332994D02*
D03*
X576834Y315214D02*
D03*
X511985Y178425D02*
D03*
X971550Y330390D02*
D03*
X982980Y374650D02*
D03*
X877570Y379730D02*
D03*
X971550Y364490D02*
D03*
X910590D02*
D03*
X575056Y426212D02*
D03*
X531114Y415036D02*
D03*
X559896Y423672D02*
D03*
X517652Y444745D02*
D03*
X737108Y619760D02*
D03*
X703834Y308864D02*
D03*
X694690Y298450D02*
D03*
X738942Y245308D02*
D03*
X869219Y120396D02*
D03*
X859790Y153670D02*
D03*
X696976Y122936D02*
D03*
X760730Y107950D02*
D03*
X463296Y601980D02*
D03*
X256930Y385572D02*
D03*
X221970D02*
D03*
X681990Y308864D02*
D03*
X624840Y215900D02*
D03*
X575310Y203200D02*
D03*
X452882Y193802D02*
D03*
X314865Y114300D02*
D03*
X579120Y567690D02*
D03*
Y411080D02*
D03*
X420878Y580390D02*
D03*
X433578Y535432D02*
D03*
X429260Y605790D02*
D03*
X897636Y582168D02*
D03*
X590296Y410972D02*
D03*
X586546Y420176D02*
D03*
X635762Y308102D02*
D03*
X641673Y364998D02*
D03*
X610108Y416800D02*
D03*
X242924Y337312D02*
D03*
X631673Y319278D02*
D03*
X636673Y338836D02*
D03*
X927862Y159512D02*
D03*
X702056Y294894D02*
D03*
X875538Y187960D02*
D03*
X747014Y296926D02*
D03*
X903855Y193679D02*
D03*
X923572Y199672D02*
D03*
X923685Y188976D02*
D03*
X722884Y363982D02*
D03*
X883076Y636330D02*
D03*
X761492Y593852D02*
D03*
X764032Y166370D02*
D03*
X660146Y306832D02*
D03*
D152*
X1016450Y422910D02*
D03*
X673100Y236220D02*
D03*
X885190Y195580D02*
D03*
X951230Y236220D02*
D03*
X930800Y236232D02*
D03*
X834390Y187960D02*
D03*
X1007110Y153670D02*
D03*
X688340Y114300D02*
D03*
X532130Y594360D02*
D03*
X720090Y619760D02*
D03*
X971550Y321310D02*
D03*
X876213Y643193D02*
D03*
X971550Y303530D02*
D03*
X629385Y426757D02*
D03*
X971550Y285750D02*
D03*
X775970Y636270D02*
D03*
X518922Y233895D02*
D03*
X500888D02*
D03*
X414020Y152400D02*
D03*
X536956Y233895D02*
D03*
X554990D02*
D03*
X464820D02*
D03*
X482854D02*
D03*
X297976Y221095D02*
D03*
X515666Y641350D02*
D03*
X534701D02*
D03*
X297976Y204006D02*
D03*
X553735Y641350D02*
D03*
X572770D02*
D03*
X631190Y648970D02*
D03*
X650240D02*
D03*
X1016450Y495046D02*
D03*
Y477012D02*
D03*
Y458978D02*
D03*
Y440944D02*
D03*
D153*
Y513080D02*
D03*
X507044Y594360D02*
D03*
X939800Y144780D02*
D03*
X689610Y143510D02*
D03*
X793751Y166370D02*
D03*
X970280Y111760D02*
D03*
X496631Y641350D02*
D03*
D154*
X307340Y111680D02*
D03*
Y101680D02*
D03*
X878840Y106760D02*
D03*
Y116760D02*
D03*
X803910Y115490D02*
D03*
Y105490D02*
D03*
X819150Y115490D02*
D03*
Y105490D02*
D03*
D155*
X1029390Y375030D02*
D03*
X1020390D02*
D03*
Y359030D02*
D03*
X1029390D02*
D03*
D156*
X1011080Y628650D02*
D03*
D157*
X1011830Y595650D02*
D03*
M02*
