G04*
G04 #@! TF.GenerationSoftware,Altium Limited,Altium Designer,21.1.1 (26)*
G04*
G04 Layer_Color=65535*
%FSLAX44Y44*%
%MOMM*%
G71*
G04*
G04 #@! TF.SameCoordinates,6A85A449-59C4-447A-B511-F0FC370A597D*
G04*
G04*
G04 #@! TF.FilePolarity,Positive*
G04*
G01*
G75*
%ADD10C,0.2500*%
%ADD11C,0.2000*%
%ADD12C,0.2540*%
G36*
X135195Y373508D02*
X135753D01*
Y373397D01*
X136089D01*
Y373285D01*
X136312D01*
Y373173D01*
X136424D01*
Y373061D01*
X136535D01*
Y372950D01*
X136647D01*
Y372838D01*
X136759D01*
Y372726D01*
X136870D01*
Y372615D01*
X136982D01*
Y372503D01*
X137094D01*
Y372391D01*
X137317D01*
Y372280D01*
X137429D01*
Y372056D01*
X137541D01*
Y371945D01*
X137652D01*
Y371721D01*
X137764D01*
Y371051D01*
X137876D01*
Y370381D01*
X137764D01*
Y370046D01*
X137652D01*
Y369934D01*
X137429D01*
Y369822D01*
X137205D01*
Y369711D01*
X137094D01*
Y369599D01*
X136982D01*
Y369487D01*
X136870D01*
Y369264D01*
X136759D01*
Y369040D01*
X136647D01*
Y368817D01*
X136535D01*
Y368705D01*
X136312D01*
Y368594D01*
X136089D01*
Y368482D01*
X135977D01*
Y368370D01*
X135865D01*
Y368259D01*
X135753D01*
Y367924D01*
X135642D01*
Y367365D01*
X135753D01*
Y367030D01*
X135865D01*
Y366807D01*
X135977D01*
Y366695D01*
X136647D01*
Y366807D01*
X136759D01*
Y366918D01*
X136870D01*
Y367142D01*
X136982D01*
Y367589D01*
X137094D01*
Y367924D01*
X137205D01*
Y368147D01*
X137317D01*
Y368259D01*
X137541D01*
Y368370D01*
X137764D01*
Y368482D01*
X137876D01*
Y368594D01*
X137987D01*
Y368705D01*
X138099D01*
Y368817D01*
X138211D01*
Y369152D01*
X138322D01*
Y369264D01*
X138434D01*
Y369376D01*
X138658D01*
Y369487D01*
X139328D01*
Y369376D01*
X141115D01*
Y369264D01*
X141450D01*
Y369152D01*
X141673D01*
Y369040D01*
X141785D01*
Y368929D01*
X141897D01*
Y368817D01*
X142008D01*
Y368482D01*
X142120D01*
Y368035D01*
X142232D01*
Y367589D01*
X142343D01*
Y367365D01*
X142455D01*
Y367253D01*
X142567D01*
Y367030D01*
X142678D01*
Y366918D01*
X142790D01*
Y366807D01*
X142902D01*
Y366695D01*
X143014D01*
Y365913D01*
X142902D01*
Y365801D01*
X142790D01*
Y365690D01*
X142678D01*
Y365578D01*
X142567D01*
Y365355D01*
X142455D01*
Y365243D01*
X142343D01*
Y365019D01*
X142232D01*
Y364573D01*
X142120D01*
Y364238D01*
X142008D01*
Y363903D01*
X141897D01*
Y363791D01*
X141785D01*
Y363679D01*
X141673D01*
Y363568D01*
X141562D01*
Y363456D01*
X141338D01*
Y363344D01*
X141003D01*
Y363232D01*
X139216D01*
Y363121D01*
X138769D01*
Y363232D01*
X138434D01*
Y363344D01*
X138322D01*
Y363568D01*
X138211D01*
Y363791D01*
X138099D01*
Y364014D01*
X137987D01*
Y364126D01*
X137764D01*
Y364238D01*
X137541D01*
Y364349D01*
X137317D01*
Y364461D01*
X137205D01*
Y364684D01*
X137094D01*
Y365019D01*
X136982D01*
Y365466D01*
X136870D01*
Y365690D01*
X136759D01*
Y365801D01*
X136647D01*
Y365913D01*
X136089D01*
Y365801D01*
X135977D01*
Y365690D01*
X135865D01*
Y365578D01*
X135753D01*
Y365243D01*
X135642D01*
Y364684D01*
X135753D01*
Y364349D01*
X135865D01*
Y364238D01*
X135977D01*
Y364126D01*
X136200D01*
Y364014D01*
X136312D01*
Y363903D01*
X136535D01*
Y363791D01*
X136647D01*
Y363568D01*
X136759D01*
Y363344D01*
X136870D01*
Y363121D01*
X136982D01*
Y363009D01*
X137094D01*
Y362897D01*
X137317D01*
Y362786D01*
X137541D01*
Y362674D01*
X137652D01*
Y362562D01*
X137764D01*
Y362339D01*
X137876D01*
Y361557D01*
X137764D01*
Y360998D01*
X137652D01*
Y360775D01*
X137541D01*
Y360552D01*
X137429D01*
Y360440D01*
X137317D01*
Y360328D01*
X137205D01*
Y360217D01*
X137094D01*
Y360105D01*
X136982D01*
Y359993D01*
X136870D01*
Y359882D01*
X136647D01*
Y359770D01*
X136535D01*
Y359658D01*
X136424D01*
Y359547D01*
X136312D01*
Y359435D01*
X136089D01*
Y359323D01*
X135753D01*
Y359211D01*
X135418D01*
Y359100D01*
X134860D01*
Y358988D01*
X134637D01*
Y359100D01*
X134302D01*
Y359211D01*
X134190D01*
Y359323D01*
X134078D01*
Y359435D01*
X133966D01*
Y359547D01*
X133855D01*
Y359658D01*
X133631D01*
Y359770D01*
X133520D01*
Y359882D01*
X133296D01*
Y359993D01*
X133184D01*
Y360105D01*
X132961D01*
Y360217D01*
X132850D01*
Y360328D01*
X132738D01*
Y360552D01*
X132626D01*
Y360663D01*
X132514D01*
Y360775D01*
X132403D01*
Y360887D01*
X132291D01*
Y360998D01*
X132179D01*
Y361110D01*
X132068D01*
Y361222D01*
X131956D01*
Y361334D01*
X131844D01*
Y361557D01*
X131733D01*
Y362562D01*
X131621D01*
Y362897D01*
X131509D01*
Y363009D01*
X131397D01*
Y363121D01*
X131286D01*
Y363232D01*
X131174D01*
Y363344D01*
X131062D01*
Y363456D01*
X130951D01*
Y363568D01*
X130839D01*
Y363791D01*
X130727D01*
Y364908D01*
X130616D01*
Y367700D01*
X130727D01*
Y368929D01*
X130839D01*
Y369040D01*
X130951D01*
Y369264D01*
X131174D01*
Y369376D01*
X131286D01*
Y369487D01*
X131397D01*
Y369599D01*
X131509D01*
Y369711D01*
X131621D01*
Y370046D01*
X131733D01*
Y371051D01*
X131844D01*
Y371274D01*
X131956D01*
Y371386D01*
X132068D01*
Y371498D01*
X132179D01*
Y371609D01*
X132291D01*
Y371721D01*
X132403D01*
Y371833D01*
X132514D01*
Y371945D01*
X132626D01*
Y372056D01*
X132738D01*
Y372280D01*
X132850D01*
Y372391D01*
X132961D01*
Y372503D01*
X133073D01*
Y372615D01*
X133296D01*
Y372726D01*
X133408D01*
Y372838D01*
X133631D01*
Y372950D01*
X133743D01*
Y373061D01*
X133855D01*
Y373173D01*
X133966D01*
Y373285D01*
X134078D01*
Y373397D01*
X134190D01*
Y373508D01*
X134413D01*
Y373620D01*
X135195D01*
Y373508D01*
D02*
G37*
G36*
X129610Y377976D02*
X131397D01*
Y377864D01*
X131733D01*
Y377753D01*
X131956D01*
Y377641D01*
X132068D01*
Y377529D01*
X132179D01*
Y377417D01*
X132291D01*
Y377194D01*
X132403D01*
Y376971D01*
X132514D01*
Y374402D01*
X132403D01*
Y374290D01*
X132291D01*
Y374178D01*
X132179D01*
Y374067D01*
X132068D01*
Y373955D01*
X131956D01*
Y373843D01*
X131844D01*
Y373732D01*
X131733D01*
Y373620D01*
X131621D01*
Y373508D01*
X131509D01*
Y373397D01*
X131397D01*
Y373173D01*
X131286D01*
Y373061D01*
X131174D01*
Y372950D01*
X130951D01*
Y372838D01*
X130839D01*
Y372726D01*
X130727D01*
Y372615D01*
X130616D01*
Y372503D01*
X130504D01*
Y372280D01*
X130392D01*
Y371945D01*
X130281D01*
Y371609D01*
X130169D01*
Y371386D01*
X130057D01*
Y371163D01*
X129945D01*
Y371051D01*
X129834D01*
Y370939D01*
X129722D01*
Y370716D01*
X129610D01*
Y370604D01*
X129499D01*
Y370381D01*
X129387D01*
Y369934D01*
X129275D01*
Y369487D01*
X129164D01*
Y369040D01*
X129052D01*
Y368370D01*
X128940D01*
Y368035D01*
X128828D01*
Y367812D01*
X128717D01*
Y367700D01*
X128605D01*
Y367477D01*
X128493D01*
Y367365D01*
X128382D01*
Y367030D01*
X128270D01*
Y365578D01*
X128382D01*
Y365243D01*
X128493D01*
Y365131D01*
X128605D01*
Y364908D01*
X128717D01*
Y364796D01*
X128828D01*
Y364573D01*
X128940D01*
Y364349D01*
X129052D01*
Y363791D01*
X129164D01*
Y363121D01*
X129275D01*
Y362674D01*
X129387D01*
Y362227D01*
X129499D01*
Y362004D01*
X129610D01*
Y361892D01*
X129722D01*
Y361780D01*
X129834D01*
Y361669D01*
X129945D01*
Y361445D01*
X130057D01*
Y361334D01*
X130169D01*
Y361110D01*
X130281D01*
Y360663D01*
X130392D01*
Y360328D01*
X130504D01*
Y360105D01*
X130616D01*
Y359993D01*
X130727D01*
Y359882D01*
X130839D01*
Y359770D01*
X131062D01*
Y359658D01*
X131174D01*
Y359547D01*
X131286D01*
Y359435D01*
X131397D01*
Y359323D01*
X131509D01*
Y359100D01*
X131621D01*
Y358988D01*
X131733D01*
Y358876D01*
X131844D01*
Y358765D01*
X131956D01*
Y358653D01*
X132179D01*
Y358541D01*
X132291D01*
Y358430D01*
X132403D01*
Y358206D01*
X132514D01*
Y357983D01*
X132626D01*
Y357536D01*
X132514D01*
Y356531D01*
X132626D01*
Y356419D01*
X132514D01*
Y355749D01*
X132403D01*
Y355414D01*
X132291D01*
Y355302D01*
X132179D01*
Y355079D01*
X132068D01*
Y354967D01*
X131844D01*
Y354855D01*
X131733D01*
Y354744D01*
X131397D01*
Y354632D01*
X129499D01*
Y354520D01*
X129275D01*
Y354632D01*
X128828D01*
Y354744D01*
X128717D01*
Y354855D01*
X128605D01*
Y354967D01*
X128493D01*
Y355191D01*
X128382D01*
Y355302D01*
X128270D01*
Y355414D01*
X128158D01*
Y355526D01*
X128047D01*
Y355637D01*
X127823D01*
Y355749D01*
X127711D01*
Y355861D01*
X127600D01*
Y355972D01*
X127488D01*
Y356084D01*
X127376D01*
Y356307D01*
X127265D01*
Y356419D01*
X127153D01*
Y356531D01*
X127041D01*
Y356642D01*
X126930D01*
Y356754D01*
X126818D01*
Y356866D01*
X126595D01*
Y356978D01*
X126483D01*
Y357201D01*
X126371D01*
Y357313D01*
X126259D01*
Y357536D01*
X126148D01*
Y357759D01*
X126036D01*
Y357983D01*
X125924D01*
Y358094D01*
X125813D01*
Y358206D01*
X125701D01*
Y358318D01*
X125589D01*
Y358430D01*
X125478D01*
Y358653D01*
X125366D01*
Y358988D01*
X125254D01*
Y360663D01*
X125143D01*
Y360775D01*
X125031D01*
Y360887D01*
X124919D01*
Y360998D01*
X124808D01*
Y361110D01*
X124584D01*
Y361222D01*
X124472D01*
Y361334D01*
X124361D01*
Y361445D01*
X124249D01*
Y361780D01*
X124137D01*
Y362562D01*
X124249D01*
Y370046D01*
X124137D01*
Y370939D01*
X124249D01*
Y371163D01*
X124361D01*
Y371274D01*
X124472D01*
Y371386D01*
X124584D01*
Y371498D01*
X124808D01*
Y371609D01*
X124919D01*
Y371721D01*
X125031D01*
Y371833D01*
X125143D01*
Y371945D01*
X125254D01*
Y373732D01*
X125366D01*
Y374067D01*
X125478D01*
Y374290D01*
X125589D01*
Y374402D01*
X125701D01*
Y374514D01*
X125813D01*
Y374625D01*
X125924D01*
Y374737D01*
X126036D01*
Y374849D01*
X126148D01*
Y375072D01*
X126259D01*
Y375295D01*
X126371D01*
Y375519D01*
X126483D01*
Y375630D01*
X126595D01*
Y375742D01*
X126818D01*
Y375854D01*
X126930D01*
Y375965D01*
X127041D01*
Y376077D01*
X127153D01*
Y376189D01*
X127265D01*
Y376301D01*
X127376D01*
Y376524D01*
X127488D01*
Y376636D01*
X127600D01*
Y376747D01*
X127711D01*
Y376859D01*
X127823D01*
Y376971D01*
X128047D01*
Y377082D01*
X128158D01*
Y377194D01*
X128270D01*
Y377306D01*
X128382D01*
Y377417D01*
X128493D01*
Y377641D01*
X128605D01*
Y377753D01*
X128717D01*
Y377864D01*
X128828D01*
Y377976D01*
X129052D01*
Y378088D01*
X129610D01*
Y377976D01*
D02*
G37*
G36*
X126706Y382891D02*
X126818D01*
Y382667D01*
X126930D01*
Y382444D01*
X127041D01*
Y382220D01*
X127153D01*
Y381774D01*
X127265D01*
Y380880D01*
X127153D01*
Y380210D01*
X127041D01*
Y379986D01*
X126930D01*
Y379763D01*
X126818D01*
Y379651D01*
X126706D01*
Y379540D01*
X126595D01*
Y379428D01*
X126483D01*
Y379316D01*
X126259D01*
Y379093D01*
X126148D01*
Y378981D01*
X126036D01*
Y378870D01*
X125924D01*
Y378646D01*
X125813D01*
Y378535D01*
X125701D01*
Y378423D01*
X125589D01*
Y378311D01*
X125366D01*
Y378088D01*
X125254D01*
Y377976D01*
X125143D01*
Y377864D01*
X125031D01*
Y377641D01*
X124919D01*
Y377529D01*
X124808D01*
Y377417D01*
X124696D01*
Y377306D01*
X124584D01*
Y377194D01*
X124472D01*
Y377082D01*
X124249D01*
Y376971D01*
X124137D01*
Y376747D01*
X124026D01*
Y376524D01*
X123914D01*
Y376077D01*
X123802D01*
Y375854D01*
X123691D01*
Y375630D01*
X123579D01*
Y375519D01*
X123467D01*
Y375407D01*
X123356D01*
Y375295D01*
X123244D01*
Y375184D01*
X123132D01*
Y374960D01*
X123020D01*
Y374737D01*
X122909D01*
Y374290D01*
X122797D01*
Y373843D01*
X122685D01*
Y373620D01*
X122574D01*
Y373508D01*
X122462D01*
Y373397D01*
X122350D01*
Y373173D01*
X122239D01*
Y373061D01*
X122127D01*
Y372950D01*
X122015D01*
Y372726D01*
X121903D01*
Y372280D01*
X121792D01*
Y371386D01*
X121680D01*
Y370716D01*
X121568D01*
Y370381D01*
X121457D01*
Y370157D01*
X121345D01*
Y370046D01*
X121233D01*
Y369934D01*
X121122D01*
Y369822D01*
X121010D01*
Y369599D01*
X120898D01*
Y369376D01*
X120787D01*
Y363232D01*
X120898D01*
Y363009D01*
X121010D01*
Y362897D01*
X121122D01*
Y362786D01*
X121233D01*
Y362562D01*
X121345D01*
Y362451D01*
X121457D01*
Y362339D01*
X121568D01*
Y362004D01*
X121680D01*
Y361334D01*
X121792D01*
Y360328D01*
X121903D01*
Y359882D01*
X122015D01*
Y359658D01*
X122127D01*
Y359547D01*
X122239D01*
Y359435D01*
X122350D01*
Y359323D01*
X122462D01*
Y359211D01*
X122574D01*
Y358988D01*
X122685D01*
Y358765D01*
X122797D01*
Y358318D01*
X122909D01*
Y357983D01*
X123020D01*
Y357648D01*
X123132D01*
Y357536D01*
X123244D01*
Y357424D01*
X123356D01*
Y357313D01*
X123467D01*
Y357201D01*
X123579D01*
Y356978D01*
X123691D01*
Y356866D01*
X123802D01*
Y356531D01*
X123914D01*
Y356084D01*
X124026D01*
Y355861D01*
X124137D01*
Y355749D01*
X124249D01*
Y355637D01*
X124361D01*
Y355526D01*
X124472D01*
Y355414D01*
X124584D01*
Y355302D01*
X124808D01*
Y355191D01*
X124919D01*
Y354967D01*
X125031D01*
Y354855D01*
X125143D01*
Y354632D01*
X125254D01*
Y354520D01*
X125366D01*
Y354409D01*
X125478D01*
Y354297D01*
X125589D01*
Y354185D01*
X125701D01*
Y354073D01*
X125813D01*
Y353962D01*
X125924D01*
Y353850D01*
X126036D01*
Y353738D01*
X126148D01*
Y353515D01*
X126259D01*
Y353403D01*
X126371D01*
Y353292D01*
X126483D01*
Y353180D01*
X126706D01*
Y353068D01*
X126818D01*
Y352957D01*
X126930D01*
Y352733D01*
X127041D01*
Y352510D01*
X127153D01*
Y351616D01*
X127265D01*
Y350834D01*
X127153D01*
Y350499D01*
X127041D01*
Y350276D01*
X126930D01*
Y350052D01*
X126818D01*
Y349941D01*
X126706D01*
Y349717D01*
X126595D01*
Y349159D01*
X122574D01*
Y349606D01*
X122462D01*
Y349829D01*
X122350D01*
Y350052D01*
X122239D01*
Y350164D01*
X122127D01*
Y350276D01*
X122015D01*
Y350388D01*
X121903D01*
Y350499D01*
X121792D01*
Y350611D01*
X121568D01*
Y350723D01*
X121457D01*
Y350834D01*
X121345D01*
Y351058D01*
X121233D01*
Y351281D01*
X121122D01*
Y351616D01*
X121010D01*
Y351951D01*
X120898D01*
Y352175D01*
X120787D01*
Y352286D01*
X120675D01*
Y352398D01*
X120451D01*
Y352510D01*
X120228D01*
Y352621D01*
X120116D01*
Y352733D01*
X120005D01*
Y352957D01*
X119893D01*
Y353180D01*
X119781D01*
Y353403D01*
X119670D01*
Y353515D01*
X119558D01*
Y353627D01*
X119446D01*
Y353738D01*
X119334D01*
Y353850D01*
X119223D01*
Y353962D01*
X119111D01*
Y354073D01*
X118999D01*
Y354409D01*
X118888D01*
Y355079D01*
X118776D01*
Y355414D01*
X118664D01*
Y355637D01*
X118553D01*
Y355749D01*
X118441D01*
Y355861D01*
X118218D01*
Y355972D01*
X118106D01*
Y356084D01*
X117994D01*
Y356307D01*
X117882D01*
Y356531D01*
X117771D01*
Y358430D01*
X117659D01*
Y358653D01*
X117547D01*
Y358765D01*
X117436D01*
Y358876D01*
X117324D01*
Y358988D01*
X117101D01*
Y359100D01*
X116989D01*
Y359211D01*
X116877D01*
Y359323D01*
X116766D01*
Y359658D01*
X116654D01*
Y361669D01*
X116766D01*
Y362451D01*
X116654D01*
Y362897D01*
X116542D01*
Y363121D01*
X116431D01*
Y363232D01*
X116319D01*
Y363456D01*
X116207D01*
Y363568D01*
X116095D01*
Y363679D01*
X115984D01*
Y364014D01*
X115872D01*
Y364573D01*
X115984D01*
Y368035D01*
X115872D01*
Y368594D01*
X115984D01*
Y368929D01*
X116095D01*
Y369040D01*
X116207D01*
Y369152D01*
X116319D01*
Y369376D01*
X116431D01*
Y369487D01*
X116542D01*
Y369711D01*
X116654D01*
Y370157D01*
X116766D01*
Y370939D01*
X116654D01*
Y373061D01*
X116766D01*
Y373285D01*
X116877D01*
Y373508D01*
X117101D01*
Y373620D01*
X117212D01*
Y373732D01*
X117436D01*
Y373843D01*
X117547D01*
Y373955D01*
X117659D01*
Y374178D01*
X117771D01*
Y376189D01*
X117882D01*
Y376412D01*
X117994D01*
Y376524D01*
X118106D01*
Y376636D01*
X118218D01*
Y376747D01*
X118329D01*
Y376859D01*
X118441D01*
Y376971D01*
X118553D01*
Y377082D01*
X118664D01*
Y377194D01*
X118776D01*
Y377529D01*
X118888D01*
Y378311D01*
X118999D01*
Y378535D01*
X119111D01*
Y378758D01*
X119334D01*
Y378870D01*
X119446D01*
Y378981D01*
X119558D01*
Y379093D01*
X119670D01*
Y379316D01*
X119781D01*
Y379540D01*
X119893D01*
Y379651D01*
X120005D01*
Y379875D01*
X120116D01*
Y379986D01*
X120228D01*
Y380098D01*
X120451D01*
Y380210D01*
X120563D01*
Y380322D01*
X120787D01*
Y380545D01*
X120898D01*
Y380657D01*
X121010D01*
Y381103D01*
X121122D01*
Y381438D01*
X121233D01*
Y381662D01*
X121345D01*
Y381774D01*
X121457D01*
Y381885D01*
X121568D01*
Y381997D01*
X121680D01*
Y382109D01*
X121792D01*
Y382220D01*
X121903D01*
Y382332D01*
X122015D01*
Y382444D01*
X122127D01*
Y382555D01*
X122239D01*
Y382667D01*
X122350D01*
Y383002D01*
X122462D01*
Y383449D01*
X126706D01*
Y382891D01*
D02*
G37*
G36*
X503565Y269600D02*
X503693D01*
Y269584D01*
X503884D01*
Y269568D01*
X503948D01*
Y269552D01*
X504012D01*
Y269536D01*
X504060D01*
Y269520D01*
X504124D01*
Y269504D01*
X504203D01*
Y269488D01*
X504267D01*
Y269472D01*
X504331D01*
Y269456D01*
X504379D01*
Y269440D01*
X504411D01*
Y269424D01*
X504443D01*
Y269408D01*
X504459D01*
Y269392D01*
X504491D01*
Y269376D01*
X504523D01*
Y269360D01*
X504554D01*
Y269345D01*
X504586D01*
Y269328D01*
X504618D01*
Y269313D01*
X504650D01*
Y269297D01*
X504682D01*
Y269281D01*
X504698D01*
Y269265D01*
X504714D01*
Y269249D01*
X504730D01*
Y269233D01*
X504762D01*
Y269217D01*
X504778D01*
Y269201D01*
X504810D01*
Y269185D01*
X504842D01*
Y269169D01*
X504858D01*
Y269153D01*
X504874D01*
Y269137D01*
X504906D01*
Y269121D01*
X504921D01*
Y269105D01*
X504938D01*
Y269089D01*
X504953D01*
Y269073D01*
X504969D01*
Y269057D01*
X504985D01*
Y269041D01*
X505001D01*
Y269025D01*
X505017D01*
Y269009D01*
X505033D01*
Y268993D01*
X505049D01*
Y268977D01*
X505065D01*
Y268962D01*
X505081D01*
Y268946D01*
X505097D01*
Y268930D01*
X505113D01*
Y268914D01*
X505129D01*
Y268898D01*
X505145D01*
Y268866D01*
X505161D01*
Y268850D01*
X505177D01*
Y268834D01*
X505193D01*
Y268802D01*
X505209D01*
Y268786D01*
X505225D01*
Y268770D01*
X505241D01*
Y268754D01*
X505257D01*
Y268722D01*
X505273D01*
Y268706D01*
X505289D01*
Y268690D01*
X505304D01*
Y268658D01*
X505321D01*
Y268610D01*
X505336D01*
Y268578D01*
X505352D01*
Y268547D01*
X505368D01*
Y268515D01*
X505384D01*
Y268499D01*
X505400D01*
Y268483D01*
X505416D01*
Y268467D01*
X505432D01*
Y268435D01*
X505448D01*
Y268387D01*
X505464D01*
Y268339D01*
X505480D01*
Y268291D01*
X505496D01*
Y268243D01*
X505512D01*
Y268211D01*
X505528D01*
Y268179D01*
X505544D01*
Y268148D01*
X505560D01*
Y268100D01*
X505576D01*
Y268052D01*
X505592D01*
Y267956D01*
X505608D01*
Y267828D01*
X505624D01*
Y265865D01*
X505608D01*
Y263360D01*
X505624D01*
Y260886D01*
X505608D01*
Y258397D01*
X505624D01*
Y255875D01*
X505608D01*
Y253370D01*
X505624D01*
Y250912D01*
X505608D01*
Y248375D01*
X505624D01*
Y245933D01*
X505608D01*
Y243683D01*
X505624D01*
Y243667D01*
X505640D01*
Y243651D01*
X505719D01*
Y243667D01*
X505735D01*
Y243683D01*
X505751D01*
Y243699D01*
X505767D01*
Y243715D01*
X505783D01*
Y243731D01*
X505799D01*
Y243747D01*
X505815D01*
Y243779D01*
X505831D01*
Y243795D01*
X505847D01*
Y243811D01*
X505863D01*
Y243827D01*
X505879D01*
Y243843D01*
X505895D01*
Y243874D01*
X505911D01*
Y243890D01*
X505927D01*
Y243906D01*
X505943D01*
Y243922D01*
X505959D01*
Y243938D01*
X505975D01*
Y243954D01*
X505991D01*
Y243970D01*
X506023D01*
Y244002D01*
X506039D01*
Y244018D01*
X506055D01*
Y244034D01*
X506071D01*
Y244050D01*
X506087D01*
Y244066D01*
X506102D01*
Y244082D01*
X506118D01*
Y244098D01*
X506134D01*
Y244114D01*
X506150D01*
Y244130D01*
X506166D01*
Y244146D01*
X506182D01*
Y244162D01*
X506198D01*
Y244178D01*
X506214D01*
Y244194D01*
X506230D01*
Y244226D01*
X506246D01*
Y244242D01*
X506262D01*
Y244258D01*
X506278D01*
Y244273D01*
X506294D01*
Y244289D01*
X506310D01*
Y244305D01*
X506326D01*
Y244321D01*
X506342D01*
Y244337D01*
X506358D01*
Y244353D01*
X506374D01*
Y244369D01*
X506390D01*
Y244385D01*
X506406D01*
Y244401D01*
X506438D01*
Y244417D01*
X506454D01*
Y244433D01*
X506469D01*
Y244449D01*
X506485D01*
Y244465D01*
X506501D01*
Y244481D01*
X506517D01*
Y244497D01*
X506533D01*
Y244513D01*
X506549D01*
Y244545D01*
X506565D01*
Y244561D01*
X506581D01*
Y244577D01*
X506613D01*
Y244593D01*
X506629D01*
Y244609D01*
X506645D01*
Y244625D01*
X506661D01*
Y244641D01*
X506677D01*
Y244657D01*
X506693D01*
Y244688D01*
X506709D01*
Y244704D01*
X506725D01*
Y244720D01*
X506741D01*
Y244736D01*
X506757D01*
Y244752D01*
X506773D01*
Y244768D01*
X506789D01*
Y244784D01*
X506805D01*
Y244800D01*
X506821D01*
Y244816D01*
X506837D01*
Y244832D01*
X506852D01*
Y244848D01*
X506869D01*
Y244864D01*
X506884D01*
Y244880D01*
X506900D01*
Y244896D01*
X506916D01*
Y244912D01*
X506932D01*
Y244928D01*
X506948D01*
Y244944D01*
X506964D01*
Y244960D01*
X506980D01*
Y244976D01*
X506996D01*
Y244992D01*
X507012D01*
Y245007D01*
X507028D01*
Y245023D01*
X507044D01*
Y245040D01*
X507060D01*
Y245055D01*
X507076D01*
Y245071D01*
X507092D01*
Y245087D01*
X507108D01*
Y245103D01*
X507124D01*
Y245119D01*
X507140D01*
Y245135D01*
X507156D01*
Y245151D01*
X507172D01*
Y245167D01*
X507188D01*
Y245183D01*
X507204D01*
Y245199D01*
X507220D01*
Y245215D01*
X507235D01*
Y245231D01*
X507252D01*
Y245247D01*
X507267D01*
Y245263D01*
X507283D01*
Y245279D01*
X507299D01*
Y245295D01*
X507315D01*
Y245311D01*
X507331D01*
Y245327D01*
X507347D01*
Y245343D01*
X507363D01*
Y245359D01*
X507379D01*
Y245375D01*
X507395D01*
Y245390D01*
X507411D01*
Y245406D01*
X507427D01*
Y245422D01*
X507443D01*
Y245438D01*
X507459D01*
Y245454D01*
X507475D01*
Y245470D01*
X507491D01*
Y245486D01*
X507507D01*
Y245502D01*
X507523D01*
Y245518D01*
X507539D01*
Y245534D01*
X507555D01*
Y245550D01*
X507587D01*
Y245566D01*
X507603D01*
Y245598D01*
X507618D01*
Y245614D01*
X507635D01*
Y245630D01*
X507650D01*
Y245646D01*
X507666D01*
Y245662D01*
X507682D01*
Y245678D01*
X507698D01*
Y245694D01*
X507714D01*
Y245710D01*
X507730D01*
Y245726D01*
X507746D01*
Y245742D01*
X507762D01*
Y245758D01*
X507778D01*
Y245774D01*
X507794D01*
Y245790D01*
X507810D01*
Y245805D01*
X507826D01*
Y245821D01*
X507842D01*
Y245837D01*
X507858D01*
Y245853D01*
X507874D01*
Y245869D01*
X507906D01*
Y245885D01*
X507922D01*
Y245901D01*
X507938D01*
Y245917D01*
X507970D01*
Y245933D01*
X507986D01*
Y245949D01*
X508002D01*
Y245965D01*
X508018D01*
Y245981D01*
X508033D01*
Y245997D01*
X508049D01*
Y246029D01*
X508065D01*
Y246045D01*
X508097D01*
Y246061D01*
X508113D01*
Y246077D01*
X508129D01*
Y246093D01*
X508145D01*
Y246109D01*
X508161D01*
Y246125D01*
X508177D01*
Y246141D01*
X508193D01*
Y246157D01*
X508209D01*
Y246173D01*
X508225D01*
Y246189D01*
X508241D01*
Y246204D01*
X508257D01*
Y246220D01*
X508273D01*
Y246236D01*
X508289D01*
Y246252D01*
X508305D01*
Y246268D01*
X508321D01*
Y246284D01*
X508337D01*
Y246300D01*
X508353D01*
Y246316D01*
X508369D01*
Y246332D01*
X508385D01*
Y246348D01*
X508400D01*
Y246364D01*
X508416D01*
Y246380D01*
X508432D01*
Y246396D01*
X508448D01*
Y246412D01*
X508464D01*
Y246428D01*
X508480D01*
Y246444D01*
X508496D01*
Y246460D01*
X508512D01*
Y246492D01*
X508528D01*
Y246508D01*
X508544D01*
Y246524D01*
X508576D01*
Y246540D01*
X508592D01*
Y246556D01*
X508608D01*
Y246572D01*
X508624D01*
Y246587D01*
X508640D01*
Y246603D01*
X508656D01*
Y246635D01*
X508672D01*
Y246651D01*
X508688D01*
Y246667D01*
X508704D01*
Y246683D01*
X508720D01*
Y246699D01*
X508736D01*
Y246715D01*
X508752D01*
Y246731D01*
X508768D01*
Y246747D01*
X508783D01*
Y246763D01*
X508800D01*
Y246779D01*
X508815D01*
Y246795D01*
X508831D01*
Y246811D01*
X508847D01*
Y246827D01*
X508879D01*
Y246843D01*
X508927D01*
Y246859D01*
X508943D01*
Y246875D01*
X508975D01*
Y246891D01*
X508991D01*
Y246907D01*
X509007D01*
Y246923D01*
X509023D01*
Y246938D01*
X509055D01*
Y246954D01*
X509087D01*
Y246970D01*
X509119D01*
Y246986D01*
X509166D01*
Y247002D01*
X509198D01*
Y247018D01*
X509246D01*
Y247034D01*
X509278D01*
Y247050D01*
X509310D01*
Y247066D01*
X509342D01*
Y247082D01*
X509390D01*
Y247098D01*
X509470D01*
Y247114D01*
X509581D01*
Y247130D01*
X509741D01*
Y247146D01*
X509933D01*
Y247130D01*
X510060D01*
Y247114D01*
X510188D01*
Y247098D01*
X510284D01*
Y247082D01*
X510316D01*
Y247066D01*
X510348D01*
Y247050D01*
X510363D01*
Y247034D01*
X510379D01*
Y247018D01*
X510411D01*
Y247002D01*
X510459D01*
Y246986D01*
X510523D01*
Y246970D01*
X510571D01*
Y246954D01*
X510603D01*
Y246938D01*
X510635D01*
Y246923D01*
X510651D01*
Y246907D01*
X510667D01*
Y246891D01*
X510683D01*
Y246875D01*
X510699D01*
Y246859D01*
X510731D01*
Y246843D01*
X510762D01*
Y246827D01*
X510778D01*
Y246811D01*
X510810D01*
Y246795D01*
X510826D01*
Y246779D01*
X510842D01*
Y246763D01*
X510858D01*
Y246747D01*
X510874D01*
Y246731D01*
X510890D01*
Y246715D01*
X510906D01*
Y246699D01*
X510938D01*
Y246683D01*
X510954D01*
Y246667D01*
X510970D01*
Y246651D01*
X510986D01*
Y246619D01*
X511002D01*
Y246603D01*
X511018D01*
Y246572D01*
X511034D01*
Y246556D01*
X511050D01*
Y246540D01*
X511066D01*
Y246524D01*
X511082D01*
Y246508D01*
X511097D01*
Y246492D01*
X511114D01*
Y246460D01*
X511129D01*
Y246444D01*
X511145D01*
Y246412D01*
X511161D01*
Y246380D01*
X511177D01*
Y246348D01*
X511193D01*
Y246332D01*
X511209D01*
Y246316D01*
X511225D01*
Y246300D01*
X511241D01*
Y246284D01*
X511257D01*
Y246252D01*
X511273D01*
Y246204D01*
X511289D01*
Y246157D01*
X511305D01*
Y246109D01*
X511321D01*
Y246061D01*
X511337D01*
Y246013D01*
X511353D01*
Y245981D01*
X511369D01*
Y245949D01*
X511385D01*
Y245917D01*
X511401D01*
Y245901D01*
X511417D01*
Y245853D01*
X511433D01*
Y245790D01*
X511449D01*
Y245279D01*
X511433D01*
Y245167D01*
X511417D01*
Y245103D01*
X511401D01*
Y245071D01*
X511385D01*
Y245023D01*
X511369D01*
Y244992D01*
X511353D01*
Y244960D01*
X511337D01*
Y244912D01*
X511321D01*
Y244864D01*
X511305D01*
Y244816D01*
X511289D01*
Y244768D01*
X511273D01*
Y244736D01*
X511257D01*
Y244720D01*
X511241D01*
Y244704D01*
X511225D01*
Y244688D01*
X511209D01*
Y244672D01*
X511193D01*
Y244641D01*
X511177D01*
Y244609D01*
X511161D01*
Y244593D01*
X511145D01*
Y244561D01*
X511129D01*
Y244529D01*
X511114D01*
Y244513D01*
X511082D01*
Y244497D01*
X511066D01*
Y244481D01*
X511050D01*
Y244465D01*
X511034D01*
Y244449D01*
X511018D01*
Y244433D01*
X511002D01*
Y244417D01*
X510986D01*
Y244401D01*
X510970D01*
Y244385D01*
X510954D01*
Y244369D01*
X510938D01*
Y244353D01*
X510922D01*
Y244337D01*
X510906D01*
Y244321D01*
X510890D01*
Y244305D01*
X510874D01*
Y244289D01*
X510858D01*
Y244258D01*
X510842D01*
Y244242D01*
X510826D01*
Y244226D01*
X510810D01*
Y244210D01*
X510778D01*
Y244194D01*
X510762D01*
Y244178D01*
X510746D01*
Y244162D01*
X510731D01*
Y244146D01*
X510714D01*
Y244130D01*
X510699D01*
Y244114D01*
X510683D01*
Y244098D01*
X510667D01*
Y244066D01*
X510651D01*
Y244050D01*
X510619D01*
Y244034D01*
X510603D01*
Y244018D01*
X510587D01*
Y244002D01*
X510571D01*
Y243986D01*
X510555D01*
Y243970D01*
X510539D01*
Y243954D01*
X510523D01*
Y243922D01*
X510507D01*
Y243906D01*
X510491D01*
Y243890D01*
X510475D01*
Y243874D01*
X510459D01*
Y243859D01*
X510443D01*
Y243843D01*
X510427D01*
Y243827D01*
X510411D01*
Y243811D01*
X510395D01*
Y243795D01*
X510379D01*
Y243779D01*
X510363D01*
Y243763D01*
X510348D01*
Y243747D01*
X510316D01*
Y243731D01*
X510300D01*
Y243715D01*
X510284D01*
Y243699D01*
X510268D01*
Y243683D01*
X510252D01*
Y243667D01*
X510236D01*
Y243635D01*
X510220D01*
Y243619D01*
X510204D01*
Y243603D01*
X510188D01*
Y243587D01*
X510172D01*
Y243571D01*
X510140D01*
Y243555D01*
X510124D01*
Y243539D01*
X510108D01*
Y243523D01*
X510092D01*
Y243507D01*
X510076D01*
Y243475D01*
X510060D01*
Y243460D01*
X510044D01*
Y243444D01*
X510028D01*
Y243428D01*
X510012D01*
Y243412D01*
X509996D01*
Y243396D01*
X509980D01*
Y243380D01*
X509964D01*
Y243364D01*
X509949D01*
Y243348D01*
X509933D01*
Y243316D01*
X509917D01*
Y243300D01*
X509901D01*
Y243284D01*
X509885D01*
Y243268D01*
X509869D01*
Y243252D01*
X509853D01*
Y243236D01*
X509837D01*
Y243220D01*
X509821D01*
Y243204D01*
X509805D01*
Y243188D01*
X509789D01*
Y243172D01*
X509773D01*
Y243156D01*
X509757D01*
Y243140D01*
X509741D01*
Y243124D01*
X509725D01*
Y243109D01*
X509709D01*
Y243092D01*
X509677D01*
Y243077D01*
X509661D01*
Y243045D01*
X509645D01*
Y243029D01*
X509629D01*
Y243013D01*
X509613D01*
Y242997D01*
X509597D01*
Y242981D01*
X509581D01*
Y242965D01*
X509566D01*
Y242949D01*
X509549D01*
Y242933D01*
X509534D01*
Y242917D01*
X509518D01*
Y242901D01*
X509502D01*
Y242885D01*
X509486D01*
Y242869D01*
X509470D01*
Y242853D01*
X509454D01*
Y242837D01*
X509438D01*
Y242821D01*
X509422D01*
Y242805D01*
X509406D01*
Y242789D01*
X509390D01*
Y242773D01*
X509358D01*
Y242741D01*
X509342D01*
Y242725D01*
X509326D01*
Y242710D01*
X509310D01*
Y242694D01*
X509294D01*
Y242678D01*
X509278D01*
Y242662D01*
X509262D01*
Y242646D01*
X509246D01*
Y242630D01*
X509230D01*
Y242614D01*
X509214D01*
Y242598D01*
X509198D01*
Y242582D01*
X509183D01*
Y242566D01*
X509166D01*
Y242550D01*
X509151D01*
Y242534D01*
X509135D01*
Y242518D01*
X509119D01*
Y242502D01*
X509103D01*
Y242486D01*
X509087D01*
Y242470D01*
X509055D01*
Y242454D01*
X509039D01*
Y242422D01*
X509023D01*
Y242406D01*
X509007D01*
Y242390D01*
X508991D01*
Y242374D01*
X508975D01*
Y242358D01*
X508959D01*
Y242342D01*
X508943D01*
Y242327D01*
X508927D01*
Y242311D01*
X508895D01*
Y242279D01*
X508879D01*
Y242263D01*
X508863D01*
Y242247D01*
X508847D01*
Y242231D01*
X508831D01*
Y242215D01*
X508815D01*
Y242199D01*
X508800D01*
Y242183D01*
X508783D01*
Y242167D01*
X508768D01*
Y242151D01*
X508752D01*
Y242135D01*
X508736D01*
Y242119D01*
X508720D01*
Y242103D01*
X508704D01*
Y242087D01*
X508688D01*
Y242071D01*
X508672D01*
Y242055D01*
X508656D01*
Y242039D01*
X508624D01*
Y242023D01*
X508608D01*
Y242007D01*
X508592D01*
Y241991D01*
X508576D01*
Y241975D01*
X508560D01*
Y241959D01*
X508544D01*
Y241943D01*
X508528D01*
Y241928D01*
X508512D01*
Y241912D01*
X508496D01*
Y241896D01*
X508480D01*
Y241880D01*
X508464D01*
Y241864D01*
X508432D01*
Y241848D01*
X508416D01*
Y241816D01*
X508400D01*
Y241800D01*
X508385D01*
Y241784D01*
X508369D01*
Y241768D01*
X508353D01*
Y241752D01*
X508337D01*
Y241736D01*
X508321D01*
Y241720D01*
X508305D01*
Y241704D01*
X508289D01*
Y241688D01*
X508273D01*
Y241672D01*
X508257D01*
Y241656D01*
X508241D01*
Y241640D01*
X508225D01*
Y241624D01*
X508209D01*
Y241608D01*
X508193D01*
Y241592D01*
X508177D01*
Y241576D01*
X508161D01*
Y241560D01*
X508145D01*
Y241544D01*
X508129D01*
Y241528D01*
X508113D01*
Y241513D01*
X508097D01*
Y241497D01*
X508081D01*
Y241481D01*
X508065D01*
Y241465D01*
X508049D01*
Y241449D01*
X508033D01*
Y241433D01*
X508002D01*
Y241417D01*
X507986D01*
Y241401D01*
X507970D01*
Y241385D01*
X507954D01*
Y241369D01*
X507938D01*
Y241337D01*
X507922D01*
Y241321D01*
X507906D01*
Y241305D01*
X507890D01*
Y241289D01*
X507858D01*
Y241273D01*
X507842D01*
Y241257D01*
X507826D01*
Y241241D01*
X507810D01*
Y241225D01*
X507794D01*
Y241193D01*
X507778D01*
Y241178D01*
X507762D01*
Y241161D01*
X507746D01*
Y241145D01*
X507714D01*
Y241130D01*
X507698D01*
Y241114D01*
X507682D01*
Y241098D01*
X507666D01*
Y241082D01*
X507650D01*
Y241066D01*
X507635D01*
Y241050D01*
X507618D01*
Y241018D01*
X507603D01*
Y240986D01*
X507587D01*
Y240970D01*
X507571D01*
Y240954D01*
X507555D01*
Y240938D01*
X507539D01*
Y240922D01*
X507523D01*
Y240906D01*
X507507D01*
Y240890D01*
X507491D01*
Y240874D01*
X507475D01*
Y240858D01*
X507459D01*
Y240842D01*
X507443D01*
Y240826D01*
X507427D01*
Y240810D01*
X507411D01*
Y240795D01*
X507395D01*
Y240779D01*
X507379D01*
Y240763D01*
X507363D01*
Y240747D01*
X507347D01*
Y240731D01*
X507331D01*
Y240715D01*
X507315D01*
Y240699D01*
X507299D01*
Y240683D01*
X507283D01*
Y240667D01*
X507267D01*
Y240651D01*
X507252D01*
Y240635D01*
X507235D01*
Y240619D01*
X507220D01*
Y240603D01*
X507204D01*
Y240587D01*
X507188D01*
Y240571D01*
X507172D01*
Y240555D01*
X507156D01*
Y240539D01*
X507140D01*
Y240523D01*
X507124D01*
Y240507D01*
X507108D01*
Y240491D01*
X507092D01*
Y240475D01*
X507076D01*
Y240459D01*
X507060D01*
Y240443D01*
X507044D01*
Y240427D01*
X507028D01*
Y240411D01*
X507012D01*
Y240396D01*
X506996D01*
Y240380D01*
X506980D01*
Y240364D01*
X506964D01*
Y240348D01*
X506948D01*
Y240332D01*
X506916D01*
Y240316D01*
X506900D01*
Y240300D01*
X506884D01*
Y240268D01*
X506869D01*
Y240252D01*
X506852D01*
Y240236D01*
X506837D01*
Y240220D01*
X506821D01*
Y240204D01*
X506805D01*
Y240188D01*
X506789D01*
Y240172D01*
X506773D01*
Y240156D01*
X506757D01*
Y240140D01*
X506741D01*
Y240124D01*
X506725D01*
Y240108D01*
X506709D01*
Y240092D01*
X506693D01*
Y240076D01*
X506677D01*
Y240060D01*
X506661D01*
Y240044D01*
X506645D01*
Y240028D01*
X506613D01*
Y240012D01*
X506597D01*
Y239996D01*
X506581D01*
Y239965D01*
X506565D01*
Y239949D01*
X506549D01*
Y239933D01*
X506533D01*
Y239917D01*
X506517D01*
Y239901D01*
X506501D01*
Y239885D01*
X506485D01*
Y239869D01*
X506469D01*
Y239853D01*
X506454D01*
Y239837D01*
X506438D01*
Y239821D01*
X506422D01*
Y239805D01*
X506406D01*
Y239789D01*
X506390D01*
Y239773D01*
X506374D01*
Y239757D01*
X506358D01*
Y239741D01*
X506342D01*
Y239725D01*
X506326D01*
Y239709D01*
X506310D01*
Y239693D01*
X506294D01*
Y239677D01*
X506278D01*
Y239661D01*
X506262D01*
Y239645D01*
X506246D01*
Y239629D01*
X506230D01*
Y239613D01*
X506214D01*
Y239598D01*
X506198D01*
Y239582D01*
X506166D01*
Y239566D01*
X506150D01*
Y239550D01*
X506134D01*
Y239534D01*
X506118D01*
Y239518D01*
X506102D01*
Y239502D01*
X506087D01*
Y239486D01*
X506071D01*
Y239470D01*
X506055D01*
Y239454D01*
X506039D01*
Y239438D01*
X506007D01*
Y239422D01*
X505991D01*
Y239406D01*
X505975D01*
Y239390D01*
X505959D01*
Y239374D01*
X505943D01*
Y239342D01*
X505927D01*
Y239326D01*
X505911D01*
Y239310D01*
X505895D01*
Y239294D01*
X505879D01*
Y239278D01*
X505863D01*
Y239262D01*
X505847D01*
Y239247D01*
X505831D01*
Y239230D01*
X505815D01*
Y239215D01*
X505799D01*
Y239199D01*
X505783D01*
Y239183D01*
X505767D01*
Y239167D01*
X505751D01*
Y239151D01*
X505735D01*
Y239135D01*
X505719D01*
Y239119D01*
X505687D01*
Y239103D01*
X505672D01*
Y239087D01*
X505656D01*
Y239055D01*
X505640D01*
Y239039D01*
X505624D01*
Y239023D01*
X505608D01*
Y239007D01*
X505592D01*
Y238991D01*
X505576D01*
Y238975D01*
X505544D01*
Y238959D01*
X505528D01*
Y238943D01*
X505512D01*
Y238927D01*
X505496D01*
Y238895D01*
X505480D01*
Y238879D01*
X505464D01*
Y238864D01*
X505448D01*
Y238848D01*
X505432D01*
Y238832D01*
X505400D01*
Y238816D01*
X505384D01*
Y238800D01*
X505368D01*
Y238784D01*
X505352D01*
Y238768D01*
X505336D01*
Y238752D01*
X505321D01*
Y238720D01*
X505304D01*
Y238704D01*
X505289D01*
Y238688D01*
X505273D01*
Y238672D01*
X505257D01*
Y238656D01*
X505225D01*
Y238640D01*
X505209D01*
Y238624D01*
X505193D01*
Y238592D01*
X505177D01*
Y238576D01*
X505161D01*
Y238560D01*
X505145D01*
Y238544D01*
X505129D01*
Y238528D01*
X505113D01*
Y238512D01*
X505097D01*
Y238496D01*
X505081D01*
Y238480D01*
X505065D01*
Y238465D01*
X505049D01*
Y238449D01*
X505033D01*
Y238433D01*
X505017D01*
Y238401D01*
X505001D01*
Y238385D01*
X504985D01*
Y238369D01*
X504969D01*
Y238353D01*
X504953D01*
Y238337D01*
X504921D01*
Y238321D01*
X504906D01*
Y238305D01*
X504890D01*
Y238289D01*
X504874D01*
Y238273D01*
X504858D01*
Y238257D01*
X504842D01*
Y238225D01*
X504826D01*
Y238209D01*
X504810D01*
Y238193D01*
X504794D01*
Y238177D01*
X504778D01*
Y238161D01*
X504762D01*
Y238145D01*
X504746D01*
Y238129D01*
X504730D01*
Y238113D01*
X504714D01*
Y238097D01*
X504698D01*
Y238081D01*
X504682D01*
Y238065D01*
X504666D01*
Y238050D01*
X504650D01*
Y238034D01*
X504634D01*
Y238018D01*
X504618D01*
Y238002D01*
X504602D01*
Y237986D01*
X504586D01*
Y237970D01*
X504570D01*
Y237954D01*
X504554D01*
Y237938D01*
X504538D01*
Y237922D01*
X504523D01*
Y237906D01*
X504507D01*
Y237890D01*
X504491D01*
Y237874D01*
X504475D01*
Y237858D01*
X504459D01*
Y237842D01*
X504443D01*
Y237826D01*
X504427D01*
Y237810D01*
X504411D01*
Y237794D01*
X504395D01*
Y237778D01*
X504379D01*
Y237762D01*
X504363D01*
Y237746D01*
X504347D01*
Y237730D01*
X504331D01*
Y237714D01*
X504315D01*
Y237698D01*
X504299D01*
Y237682D01*
X504283D01*
Y237667D01*
X504267D01*
Y237651D01*
X504251D01*
Y237635D01*
X504235D01*
Y237619D01*
X504219D01*
Y237603D01*
X504203D01*
Y237587D01*
X504187D01*
Y237571D01*
X504171D01*
Y237555D01*
X504156D01*
Y237539D01*
X504140D01*
Y237523D01*
X504124D01*
Y237507D01*
X504108D01*
Y237491D01*
X504092D01*
Y237475D01*
X504076D01*
Y237459D01*
X504060D01*
Y237443D01*
X504044D01*
Y237427D01*
X504012D01*
Y237411D01*
X503996D01*
Y237395D01*
X503980D01*
Y237379D01*
X503964D01*
Y237363D01*
X503948D01*
Y237347D01*
X503932D01*
Y237331D01*
X503916D01*
Y237316D01*
X503900D01*
Y237299D01*
X503884D01*
Y237283D01*
X503852D01*
Y237268D01*
X503820D01*
Y237252D01*
X503788D01*
Y237236D01*
X503773D01*
Y237220D01*
X503741D01*
Y237204D01*
X503581D01*
Y237220D01*
X503549D01*
Y237236D01*
X503517D01*
Y237252D01*
X503485D01*
Y237268D01*
X503453D01*
Y237283D01*
X503421D01*
Y237299D01*
X503390D01*
Y237316D01*
X503358D01*
Y237331D01*
X503342D01*
Y237347D01*
X503326D01*
Y237363D01*
X503310D01*
Y237379D01*
X503294D01*
Y237411D01*
X503278D01*
Y237427D01*
X503246D01*
Y237443D01*
X503230D01*
Y237459D01*
X503214D01*
Y237475D01*
X503182D01*
Y237491D01*
X503166D01*
Y237507D01*
X503150D01*
Y237523D01*
X503134D01*
Y237555D01*
X503118D01*
Y237571D01*
X503102D01*
Y237587D01*
X503070D01*
Y237603D01*
X503054D01*
Y237619D01*
X503038D01*
Y237635D01*
X503022D01*
Y237651D01*
X503007D01*
Y237667D01*
X502990D01*
Y237682D01*
X502975D01*
Y237714D01*
X502959D01*
Y237730D01*
X502943D01*
Y237746D01*
X502927D01*
Y237762D01*
X502895D01*
Y237778D01*
X502879D01*
Y237794D01*
X502863D01*
Y237826D01*
X502847D01*
Y237842D01*
X502831D01*
Y237858D01*
X502815D01*
Y237874D01*
X502799D01*
Y237890D01*
X502783D01*
Y237906D01*
X502751D01*
Y237922D01*
X502735D01*
Y237938D01*
X502719D01*
Y237970D01*
X502703D01*
Y237986D01*
X502687D01*
Y238002D01*
X502671D01*
Y238018D01*
X502655D01*
Y238034D01*
X502639D01*
Y238050D01*
X502623D01*
Y238065D01*
X502607D01*
Y238081D01*
X502592D01*
Y238097D01*
X502576D01*
Y238113D01*
X502560D01*
Y238129D01*
X502544D01*
Y238145D01*
X502528D01*
Y238161D01*
X502512D01*
Y238177D01*
X502496D01*
Y238193D01*
X502480D01*
Y238209D01*
X502464D01*
Y238225D01*
X502448D01*
Y238241D01*
X502432D01*
Y238257D01*
X502416D01*
Y238273D01*
X502400D01*
Y238289D01*
X502384D01*
Y238321D01*
X502368D01*
Y238337D01*
X502352D01*
Y238353D01*
X502320D01*
Y238369D01*
X502304D01*
Y238385D01*
X502288D01*
Y238401D01*
X502272D01*
Y238417D01*
X502256D01*
Y238433D01*
X502240D01*
Y238449D01*
X502225D01*
Y238465D01*
X502209D01*
Y238480D01*
X502193D01*
Y238496D01*
X502177D01*
Y238512D01*
X502161D01*
Y238528D01*
X502129D01*
Y238544D01*
X502113D01*
Y238560D01*
X502097D01*
Y238576D01*
X502081D01*
Y238592D01*
X502065D01*
Y238608D01*
X502049D01*
Y238624D01*
X502033D01*
Y238640D01*
X502017D01*
Y238656D01*
X501985D01*
Y238672D01*
X501969D01*
Y238688D01*
X501953D01*
Y238704D01*
X501937D01*
Y238720D01*
X501921D01*
Y238736D01*
X501905D01*
Y238768D01*
X501889D01*
Y238784D01*
X501873D01*
Y238800D01*
X501857D01*
Y238816D01*
X501842D01*
Y238832D01*
X501810D01*
Y238848D01*
X501794D01*
Y238864D01*
X501778D01*
Y238879D01*
X501762D01*
Y238895D01*
X501746D01*
Y238911D01*
X501730D01*
Y238943D01*
X501714D01*
Y238959D01*
X501682D01*
Y238975D01*
X501666D01*
Y239007D01*
X501650D01*
Y239023D01*
X501634D01*
Y239039D01*
X501618D01*
Y239055D01*
X501602D01*
Y239071D01*
X501586D01*
Y239087D01*
X501570D01*
Y239103D01*
X501554D01*
Y239119D01*
X501538D01*
Y239135D01*
X501506D01*
Y239151D01*
X501490D01*
Y239183D01*
X501474D01*
Y239199D01*
X501459D01*
Y239215D01*
X501442D01*
Y239230D01*
X501427D01*
Y239247D01*
X501411D01*
Y239262D01*
X501395D01*
Y239278D01*
X501363D01*
Y239294D01*
X501347D01*
Y239310D01*
X501331D01*
Y239326D01*
X501315D01*
Y239342D01*
X501299D01*
Y239358D01*
X501283D01*
Y239374D01*
X501267D01*
Y239406D01*
X501251D01*
Y239422D01*
X501235D01*
Y239438D01*
X501219D01*
Y239454D01*
X501203D01*
Y239470D01*
X501187D01*
Y239486D01*
X501171D01*
Y239518D01*
X501155D01*
Y239534D01*
X501139D01*
Y239550D01*
X501123D01*
Y239566D01*
X501107D01*
Y239582D01*
X501076D01*
Y239598D01*
X501059D01*
Y239613D01*
X501044D01*
Y239629D01*
X501028D01*
Y239645D01*
X501012D01*
Y239677D01*
X500996D01*
Y239693D01*
X500980D01*
Y239709D01*
X500964D01*
Y239725D01*
X500948D01*
Y239741D01*
X500932D01*
Y239757D01*
X500900D01*
Y239773D01*
X500884D01*
Y239805D01*
X500868D01*
Y239821D01*
X500852D01*
Y239837D01*
X500836D01*
Y239853D01*
X500820D01*
Y239869D01*
X500804D01*
Y239885D01*
X500788D01*
Y239901D01*
X500772D01*
Y239917D01*
X500756D01*
Y239933D01*
X500740D01*
Y239949D01*
X500724D01*
Y239965D01*
X500708D01*
Y239981D01*
X500692D01*
Y240012D01*
X500676D01*
Y240028D01*
X500645D01*
Y240044D01*
X500629D01*
Y240060D01*
X500613D01*
Y240076D01*
X500597D01*
Y240092D01*
X500581D01*
Y240108D01*
X500565D01*
Y240124D01*
X500549D01*
Y240140D01*
X500533D01*
Y240156D01*
X500517D01*
Y240172D01*
X500501D01*
Y240188D01*
X500485D01*
Y240204D01*
X500469D01*
Y240220D01*
X500453D01*
Y240236D01*
X500437D01*
Y240252D01*
X500421D01*
Y240268D01*
X500405D01*
Y240284D01*
X500389D01*
Y240300D01*
X500373D01*
Y240316D01*
X500357D01*
Y240332D01*
X500341D01*
Y240348D01*
X500325D01*
Y240364D01*
X500309D01*
Y240380D01*
X500294D01*
Y240396D01*
X500278D01*
Y240411D01*
X500262D01*
Y240427D01*
X500246D01*
Y240443D01*
X500230D01*
Y240475D01*
X500214D01*
Y240491D01*
X500198D01*
Y240507D01*
X500166D01*
Y240523D01*
X500150D01*
Y240539D01*
X500134D01*
Y240555D01*
X500118D01*
Y240571D01*
X500102D01*
Y240587D01*
X500086D01*
Y240603D01*
X500070D01*
Y240619D01*
X500054D01*
Y240635D01*
X500038D01*
Y240651D01*
X500022D01*
Y240667D01*
X500006D01*
Y240683D01*
X499990D01*
Y240699D01*
X499974D01*
Y240715D01*
X499958D01*
Y240731D01*
X499942D01*
Y240747D01*
X499926D01*
Y240763D01*
X499911D01*
Y240779D01*
X499895D01*
Y240795D01*
X499879D01*
Y240810D01*
X499863D01*
Y240826D01*
X499847D01*
Y240842D01*
X499831D01*
Y240858D01*
X499815D01*
Y240874D01*
X499799D01*
Y240890D01*
X499783D01*
Y240906D01*
X499767D01*
Y240922D01*
X499751D01*
Y240938D01*
X499735D01*
Y240954D01*
X499719D01*
Y240970D01*
X499687D01*
Y240986D01*
X499671D01*
Y241002D01*
X499655D01*
Y241018D01*
X499639D01*
Y241034D01*
X499623D01*
Y241050D01*
X499607D01*
Y241066D01*
X499591D01*
Y241082D01*
X499575D01*
Y241098D01*
X499559D01*
Y241114D01*
X499543D01*
Y241130D01*
X499528D01*
Y241145D01*
X499496D01*
Y241161D01*
X499480D01*
Y241193D01*
X499464D01*
Y241209D01*
X499448D01*
Y241225D01*
X499432D01*
Y241241D01*
X499416D01*
Y241257D01*
X499400D01*
Y241273D01*
X499384D01*
Y241289D01*
X499352D01*
Y241305D01*
X499336D01*
Y241321D01*
X499320D01*
Y241337D01*
X499304D01*
Y241353D01*
X499288D01*
Y241369D01*
X499272D01*
Y241401D01*
X499256D01*
Y241417D01*
X499240D01*
Y241433D01*
X499224D01*
Y241449D01*
X499208D01*
Y241465D01*
X499192D01*
Y241481D01*
X499176D01*
Y241497D01*
X499160D01*
Y241513D01*
X499145D01*
Y241528D01*
X499128D01*
Y241544D01*
X499113D01*
Y241560D01*
X499081D01*
Y241576D01*
X499065D01*
Y241592D01*
X499049D01*
Y241608D01*
X499033D01*
Y241640D01*
X499017D01*
Y241656D01*
X499001D01*
Y241672D01*
X498985D01*
Y241688D01*
X498969D01*
Y241704D01*
X498953D01*
Y241720D01*
X498921D01*
Y241736D01*
X498905D01*
Y241752D01*
X498889D01*
Y241768D01*
X498873D01*
Y241784D01*
X498857D01*
Y241800D01*
X498841D01*
Y241816D01*
X498825D01*
Y241832D01*
X498809D01*
Y241848D01*
X498793D01*
Y241864D01*
X498777D01*
Y241896D01*
X498761D01*
Y241912D01*
X498745D01*
Y241928D01*
X498730D01*
Y241943D01*
X498714D01*
Y241975D01*
X498698D01*
Y241991D01*
X498682D01*
Y242007D01*
X498666D01*
Y242023D01*
X498650D01*
Y242039D01*
X498618D01*
Y242055D01*
X498602D01*
Y242071D01*
X498586D01*
Y242087D01*
X498570D01*
Y242119D01*
X498554D01*
Y242135D01*
X498538D01*
Y242151D01*
X498522D01*
Y242167D01*
X498506D01*
Y242183D01*
X498490D01*
Y242199D01*
X498474D01*
Y242215D01*
X498458D01*
Y242231D01*
X498442D01*
Y242247D01*
X498426D01*
Y242263D01*
X498410D01*
Y242279D01*
X498394D01*
Y242311D01*
X498378D01*
Y242327D01*
X498363D01*
Y242342D01*
X498331D01*
Y242358D01*
X498315D01*
Y242374D01*
X498299D01*
Y242390D01*
X498283D01*
Y242406D01*
X498267D01*
Y242422D01*
X498251D01*
Y242438D01*
X498235D01*
Y242454D01*
X498219D01*
Y242486D01*
X498187D01*
Y242502D01*
X498171D01*
Y242518D01*
X498155D01*
Y242534D01*
X498139D01*
Y242550D01*
X498123D01*
Y242566D01*
X498107D01*
Y242582D01*
X498091D01*
Y242598D01*
X498075D01*
Y242614D01*
X498059D01*
Y242630D01*
X498043D01*
Y242646D01*
X498027D01*
Y242662D01*
X498011D01*
Y242678D01*
X497995D01*
Y242694D01*
X497980D01*
Y242710D01*
X497963D01*
Y242725D01*
X497948D01*
Y242741D01*
X497932D01*
Y242757D01*
X497916D01*
Y242773D01*
X497900D01*
Y242789D01*
X497884D01*
Y242805D01*
X497868D01*
Y242821D01*
X497836D01*
Y242837D01*
X497820D01*
Y242853D01*
X497804D01*
Y242885D01*
X497788D01*
Y242901D01*
X497772D01*
Y242917D01*
X497756D01*
Y242933D01*
X497740D01*
Y242949D01*
X497724D01*
Y242965D01*
X497708D01*
Y242981D01*
X497692D01*
Y242997D01*
X497676D01*
Y243013D01*
X497660D01*
Y243029D01*
X497644D01*
Y243045D01*
X497628D01*
Y243061D01*
X497612D01*
Y243077D01*
X497597D01*
Y243092D01*
X497580D01*
Y243109D01*
X497565D01*
Y243124D01*
X497549D01*
Y243140D01*
X497533D01*
Y243156D01*
X497517D01*
Y243172D01*
X497501D01*
Y243188D01*
X497485D01*
Y243204D01*
X497469D01*
Y243220D01*
X497453D01*
Y243236D01*
X497437D01*
Y243252D01*
X497421D01*
Y243268D01*
X497405D01*
Y243284D01*
X497389D01*
Y243300D01*
X497373D01*
Y243316D01*
X497357D01*
Y243332D01*
X497341D01*
Y243348D01*
X497325D01*
Y243364D01*
X497309D01*
Y243380D01*
X497293D01*
Y243396D01*
X497277D01*
Y243412D01*
X497261D01*
Y243428D01*
X497245D01*
Y243444D01*
X497214D01*
Y243460D01*
X497197D01*
Y243475D01*
X497182D01*
Y243491D01*
X497166D01*
Y243507D01*
X497150D01*
Y243523D01*
X497134D01*
Y243539D01*
X497102D01*
Y243555D01*
X497086D01*
Y243571D01*
X497070D01*
Y243587D01*
X497054D01*
Y243603D01*
X497038D01*
Y243619D01*
X497022D01*
Y243635D01*
X497006D01*
Y243667D01*
X496990D01*
Y243683D01*
X496974D01*
Y243699D01*
X496958D01*
Y243715D01*
X496926D01*
Y243731D01*
X496910D01*
Y243747D01*
X496894D01*
Y243763D01*
X496878D01*
Y243779D01*
X496862D01*
Y243795D01*
X496847D01*
Y243811D01*
X496830D01*
Y243843D01*
X496814D01*
Y243859D01*
X496799D01*
Y243874D01*
X496783D01*
Y243890D01*
X496767D01*
Y243906D01*
X496751D01*
Y243922D01*
X496735D01*
Y243938D01*
X496719D01*
Y243954D01*
X496703D01*
Y243970D01*
X496687D01*
Y243986D01*
X496671D01*
Y244002D01*
X496655D01*
Y244018D01*
X496639D01*
Y244034D01*
X496607D01*
Y244050D01*
X496591D01*
Y244066D01*
X496575D01*
Y244098D01*
X496559D01*
Y244114D01*
X496543D01*
Y244130D01*
X496527D01*
Y244146D01*
X496511D01*
Y244162D01*
X496495D01*
Y244178D01*
X496463D01*
Y244194D01*
X496447D01*
Y244210D01*
X496432D01*
Y244226D01*
X496416D01*
Y244242D01*
X496400D01*
Y244258D01*
X496384D01*
Y244289D01*
X496368D01*
Y244305D01*
X496352D01*
Y244321D01*
X496320D01*
Y244337D01*
X496304D01*
Y244353D01*
X496288D01*
Y244385D01*
X496272D01*
Y244401D01*
X496256D01*
Y244417D01*
X496240D01*
Y244449D01*
X496224D01*
Y244465D01*
X496208D01*
Y244481D01*
X496192D01*
Y244497D01*
X496176D01*
Y244513D01*
X496160D01*
Y244545D01*
X496144D01*
Y244577D01*
X496128D01*
Y244609D01*
X496112D01*
Y244641D01*
X496096D01*
Y244657D01*
X496080D01*
Y244688D01*
X496064D01*
Y244704D01*
X496049D01*
Y244720D01*
X496033D01*
Y244736D01*
X496017D01*
Y244768D01*
X496001D01*
Y244800D01*
X495985D01*
Y244848D01*
X495969D01*
Y244912D01*
X495953D01*
Y244960D01*
X495937D01*
Y245007D01*
X495921D01*
Y245040D01*
X495905D01*
Y245071D01*
X495889D01*
Y245103D01*
X495873D01*
Y245151D01*
X495857D01*
Y245215D01*
X495841D01*
Y245343D01*
X495825D01*
Y245646D01*
X495841D01*
Y245790D01*
X495857D01*
Y245885D01*
X495873D01*
Y245949D01*
X495889D01*
Y245997D01*
X495905D01*
Y246045D01*
X495921D01*
Y246093D01*
X495937D01*
Y246125D01*
X495953D01*
Y246173D01*
X495969D01*
Y246220D01*
X495985D01*
Y246268D01*
X496001D01*
Y246300D01*
X496017D01*
Y246316D01*
X496033D01*
Y246332D01*
X496049D01*
Y246348D01*
X496064D01*
Y246364D01*
X496080D01*
Y246396D01*
X496096D01*
Y246428D01*
X496112D01*
Y246444D01*
X496128D01*
Y246476D01*
X496144D01*
Y246492D01*
X496160D01*
Y246508D01*
X496176D01*
Y246524D01*
X496192D01*
Y246540D01*
X496224D01*
Y246556D01*
X496240D01*
Y246572D01*
X496256D01*
Y246603D01*
X496272D01*
Y246619D01*
X496288D01*
Y246635D01*
X496304D01*
Y246651D01*
X496320D01*
Y246667D01*
X496336D01*
Y246683D01*
X496368D01*
Y246699D01*
X496384D01*
Y246715D01*
X496400D01*
Y246731D01*
X496416D01*
Y246747D01*
X496432D01*
Y246763D01*
X496447D01*
Y246779D01*
X496463D01*
Y246795D01*
X496479D01*
Y246811D01*
X496511D01*
Y246827D01*
X496543D01*
Y246843D01*
X496575D01*
Y246859D01*
X496591D01*
Y246875D01*
X496607D01*
Y246891D01*
X496623D01*
Y246907D01*
X496655D01*
Y246923D01*
X496671D01*
Y246938D01*
X496703D01*
Y246954D01*
X496735D01*
Y246970D01*
X496783D01*
Y246986D01*
X496847D01*
Y247002D01*
X496878D01*
Y247018D01*
X496926D01*
Y247034D01*
X496958D01*
Y247050D01*
X496990D01*
Y247066D01*
X497038D01*
Y247082D01*
X497070D01*
Y247098D01*
X497166D01*
Y247114D01*
X497437D01*
Y247130D01*
X497597D01*
Y247114D01*
X497708D01*
Y247098D01*
X497788D01*
Y247082D01*
X497852D01*
Y247066D01*
X497900D01*
Y247050D01*
X497932D01*
Y247034D01*
X497963D01*
Y247018D01*
X497995D01*
Y247002D01*
X498043D01*
Y246986D01*
X498091D01*
Y246970D01*
X498155D01*
Y246954D01*
X498187D01*
Y246938D01*
X498219D01*
Y246923D01*
X498251D01*
Y246907D01*
X498267D01*
Y246891D01*
X498283D01*
Y246875D01*
X498299D01*
Y246859D01*
X498331D01*
Y246843D01*
X498363D01*
Y246827D01*
X498378D01*
Y246811D01*
X498410D01*
Y246795D01*
X498426D01*
Y246779D01*
X498442D01*
Y246763D01*
X498458D01*
Y246747D01*
X498474D01*
Y246731D01*
X498490D01*
Y246715D01*
X498506D01*
Y246699D01*
X498522D01*
Y246683D01*
X498538D01*
Y246667D01*
X498570D01*
Y246651D01*
X498586D01*
Y246635D01*
X498602D01*
Y246619D01*
X498634D01*
Y246603D01*
X498650D01*
Y246587D01*
X498666D01*
Y246572D01*
X498682D01*
Y246556D01*
X498698D01*
Y246540D01*
X498714D01*
Y246524D01*
X498730D01*
Y246508D01*
X498745D01*
Y246492D01*
X498761D01*
Y246476D01*
X498777D01*
Y246460D01*
X498809D01*
Y246444D01*
X498825D01*
Y246428D01*
X498841D01*
Y246396D01*
X498857D01*
Y246380D01*
X498873D01*
Y246364D01*
X498889D01*
Y246348D01*
X498905D01*
Y246332D01*
X498921D01*
Y246316D01*
X498937D01*
Y246300D01*
X498953D01*
Y246284D01*
X498985D01*
Y246268D01*
X499001D01*
Y246252D01*
X499017D01*
Y246220D01*
X499033D01*
Y246204D01*
X499049D01*
Y246189D01*
X499065D01*
Y246173D01*
X499097D01*
Y246157D01*
X499113D01*
Y246141D01*
X499128D01*
Y246125D01*
X499145D01*
Y246109D01*
X499160D01*
Y246093D01*
X499176D01*
Y246077D01*
X499192D01*
Y246045D01*
X499208D01*
Y246029D01*
X499224D01*
Y246013D01*
X499240D01*
Y245997D01*
X499256D01*
Y245981D01*
X499288D01*
Y245949D01*
X499304D01*
Y245933D01*
X499320D01*
Y245917D01*
X499336D01*
Y245901D01*
X499352D01*
Y245885D01*
X499368D01*
Y245853D01*
X499384D01*
Y245837D01*
X499400D01*
Y245821D01*
X499416D01*
Y245805D01*
X499432D01*
Y245790D01*
X499448D01*
Y245774D01*
X499464D01*
Y245758D01*
X499480D01*
Y245742D01*
X499496D01*
Y245726D01*
X499511D01*
Y245710D01*
X499528D01*
Y245694D01*
X499543D01*
Y245678D01*
X499559D01*
Y245662D01*
X499575D01*
Y245646D01*
X499591D01*
Y245630D01*
X499607D01*
Y245614D01*
X499623D01*
Y245598D01*
X499639D01*
Y245582D01*
X499655D01*
Y245566D01*
X499671D01*
Y245550D01*
X499687D01*
Y245534D01*
X499703D01*
Y245518D01*
X499719D01*
Y245502D01*
X499735D01*
Y245486D01*
X499751D01*
Y245470D01*
X499767D01*
Y245454D01*
X499783D01*
Y245438D01*
X499799D01*
Y245422D01*
X499815D01*
Y245406D01*
X499831D01*
Y245390D01*
X499847D01*
Y245375D01*
X499863D01*
Y245359D01*
X499879D01*
Y245343D01*
X499895D01*
Y245327D01*
X499911D01*
Y245311D01*
X499926D01*
Y245295D01*
X499942D01*
Y245279D01*
X499958D01*
Y245263D01*
X499974D01*
Y245247D01*
X499990D01*
Y245231D01*
X500006D01*
Y245215D01*
X500022D01*
Y245199D01*
X500038D01*
Y245183D01*
X500054D01*
Y245167D01*
X500070D01*
Y245151D01*
X500086D01*
Y245135D01*
X500102D01*
Y245119D01*
X500118D01*
Y245103D01*
X500134D01*
Y245087D01*
X500150D01*
Y245071D01*
X500166D01*
Y245055D01*
X500182D01*
Y245040D01*
X500198D01*
Y245023D01*
X500214D01*
Y245007D01*
X500230D01*
Y244992D01*
X500246D01*
Y244976D01*
X500262D01*
Y244960D01*
X500278D01*
Y244944D01*
X500294D01*
Y244928D01*
X500309D01*
Y244912D01*
X500325D01*
Y244896D01*
X500341D01*
Y244880D01*
X500357D01*
Y244864D01*
X500373D01*
Y244848D01*
X500389D01*
Y244832D01*
X500405D01*
Y244816D01*
X500421D01*
Y244800D01*
X500437D01*
Y244784D01*
X500453D01*
Y244768D01*
X500469D01*
Y244752D01*
X500485D01*
Y244736D01*
X500501D01*
Y244720D01*
X500517D01*
Y244704D01*
X500533D01*
Y244688D01*
X500549D01*
Y244672D01*
X500565D01*
Y244657D01*
X500581D01*
Y244641D01*
X500613D01*
Y244625D01*
X500629D01*
Y244609D01*
X500645D01*
Y244593D01*
X500661D01*
Y244577D01*
X500676D01*
Y244561D01*
X500692D01*
Y244545D01*
X500708D01*
Y244513D01*
X500724D01*
Y244497D01*
X500740D01*
Y244481D01*
X500756D01*
Y244465D01*
X500772D01*
Y244449D01*
X500788D01*
Y244433D01*
X500804D01*
Y244417D01*
X500820D01*
Y244401D01*
X500836D01*
Y244385D01*
X500852D01*
Y244369D01*
X500868D01*
Y244353D01*
X500884D01*
Y244337D01*
X500900D01*
Y244321D01*
X500916D01*
Y244305D01*
X500932D01*
Y244289D01*
X500948D01*
Y244273D01*
X500964D01*
Y244258D01*
X500980D01*
Y244242D01*
X500996D01*
Y244226D01*
X501012D01*
Y244210D01*
X501028D01*
Y244194D01*
X501044D01*
Y244178D01*
X501059D01*
Y244162D01*
X501076D01*
Y244146D01*
X501091D01*
Y244130D01*
X501123D01*
Y244114D01*
X501139D01*
Y244098D01*
X501155D01*
Y244082D01*
X501171D01*
Y244066D01*
X501187D01*
Y244050D01*
X501219D01*
Y244034D01*
X501235D01*
Y244018D01*
X501251D01*
Y244002D01*
X501267D01*
Y243986D01*
X501283D01*
Y243970D01*
X501299D01*
Y243954D01*
X501315D01*
Y243938D01*
X501331D01*
Y243922D01*
X501347D01*
Y243906D01*
X501363D01*
Y243890D01*
X501379D01*
Y243874D01*
X501395D01*
Y243843D01*
X501411D01*
Y243827D01*
X501427D01*
Y243811D01*
X501442D01*
Y243779D01*
X501459D01*
Y243763D01*
X501474D01*
Y243747D01*
X501490D01*
Y243715D01*
X501506D01*
Y243699D01*
X501522D01*
Y243683D01*
X501570D01*
Y243667D01*
X501586D01*
Y243683D01*
X501618D01*
Y243699D01*
X501634D01*
Y243715D01*
X501650D01*
Y243986D01*
X501634D01*
Y244082D01*
X501650D01*
Y245614D01*
X501634D01*
Y245726D01*
X501650D01*
Y246077D01*
X501666D01*
Y246380D01*
X501650D01*
Y247545D01*
X501666D01*
Y248247D01*
X501650D01*
Y251072D01*
X501666D01*
Y251311D01*
X501650D01*
Y252460D01*
X501666D01*
Y253258D01*
X501650D01*
Y253609D01*
X501634D01*
Y253689D01*
X501650D01*
Y256003D01*
X501666D01*
Y256242D01*
X501650D01*
Y256354D01*
X501666D01*
Y257376D01*
X501650D01*
Y257455D01*
X501666D01*
Y258269D01*
X501650D01*
Y258524D01*
X501634D01*
Y258588D01*
X501650D01*
Y260934D01*
X501666D01*
Y261158D01*
X501650D01*
Y261238D01*
X501666D01*
Y262227D01*
X501650D01*
Y262450D01*
X501666D01*
Y263216D01*
X501650D01*
Y265514D01*
X501634D01*
Y265594D01*
X501650D01*
Y266009D01*
X501666D01*
Y267541D01*
X501650D01*
Y267669D01*
X501666D01*
Y267892D01*
X501682D01*
Y267956D01*
X501698D01*
Y268004D01*
X501714D01*
Y268052D01*
X501730D01*
Y268100D01*
X501746D01*
Y268148D01*
X501762D01*
Y268227D01*
X501778D01*
Y268323D01*
X501794D01*
Y268387D01*
X501810D01*
Y268435D01*
X501825D01*
Y268467D01*
X501842D01*
Y268483D01*
X501857D01*
Y268499D01*
X501873D01*
Y268531D01*
X501889D01*
Y268547D01*
X501905D01*
Y268578D01*
X501921D01*
Y268626D01*
X501937D01*
Y268658D01*
X501953D01*
Y268690D01*
X501969D01*
Y268722D01*
X501985D01*
Y268738D01*
X502001D01*
Y268754D01*
X502017D01*
Y268770D01*
X502033D01*
Y268802D01*
X502049D01*
Y268818D01*
X502065D01*
Y268834D01*
X502081D01*
Y268866D01*
X502097D01*
Y268882D01*
X502113D01*
Y268898D01*
X502129D01*
Y268914D01*
X502145D01*
Y268930D01*
X502161D01*
Y268946D01*
X502177D01*
Y268962D01*
X502193D01*
Y268977D01*
X502209D01*
Y268993D01*
X502225D01*
Y269009D01*
X502240D01*
Y269025D01*
X502256D01*
Y269041D01*
X502272D01*
Y269057D01*
X502288D01*
Y269073D01*
X502304D01*
Y269089D01*
X502320D01*
Y269105D01*
X502336D01*
Y269121D01*
X502352D01*
Y269137D01*
X502368D01*
Y269153D01*
X502400D01*
Y269169D01*
X502416D01*
Y269185D01*
X502432D01*
Y269201D01*
X502448D01*
Y269217D01*
X502480D01*
Y269233D01*
X502496D01*
Y269249D01*
X502512D01*
Y269265D01*
X502544D01*
Y269281D01*
X502560D01*
Y269297D01*
X502576D01*
Y269313D01*
X502607D01*
Y269328D01*
X502639D01*
Y269345D01*
X502671D01*
Y269360D01*
X502703D01*
Y269376D01*
X502735D01*
Y269392D01*
X502767D01*
Y269408D01*
X502799D01*
Y269424D01*
X502815D01*
Y269440D01*
X502847D01*
Y269456D01*
X502879D01*
Y269472D01*
X502927D01*
Y269488D01*
X502990D01*
Y269504D01*
X503054D01*
Y269520D01*
X503134D01*
Y269536D01*
X503198D01*
Y269552D01*
X503246D01*
Y269568D01*
X503294D01*
Y269584D01*
X503342D01*
Y269600D01*
X503421D01*
Y269616D01*
X503565D01*
Y269600D01*
D02*
G37*
D10*
X988110Y144560D02*
G03*
X988110Y144560I-1250J0D01*
G01*
X469235Y214985D02*
G03*
X469235Y214985I-1250J0D01*
G01*
X941100Y480310D02*
G03*
X941100Y480310I-1250J0D01*
G01*
X1014120Y381110D02*
G03*
X1014120Y381110I-1250J0D01*
G01*
X588423Y491800D02*
G03*
X588423Y491800I-1250J0D01*
G01*
X434930Y628520D02*
G03*
X434930Y628520I-1250J0D01*
G01*
X737687Y223603D02*
G03*
X737687Y223603I-1250J0D01*
G01*
X896050Y140100D02*
G03*
X896050Y140100I-1250J0D01*
G01*
X211820Y133930D02*
G03*
X211820Y133930I-1250J0D01*
G01*
X504380Y432243D02*
G03*
X504380Y432243I-1250J0D01*
G01*
X843130Y261010D02*
G03*
X843130Y261010I-1250J0D01*
G01*
X299830Y376530D02*
G03*
X299830Y376530I-1250J0D01*
G01*
D11*
X489732Y192485D02*
G03*
X490732Y191485I1000J0D01*
G01*
X517732D02*
G03*
X518732Y192485I0J1000D01*
G01*
X459732Y205107D02*
G03*
X456285Y206485I-3447J-3622D01*
G01*
X516732Y192485D02*
G03*
X517732Y191485I1000J0D01*
G01*
X490732D02*
G03*
X491732Y192485I0J1000D01*
G01*
X462189Y194617D02*
G03*
X466285Y192485I4096J2868D01*
G01*
X542885D02*
G03*
X546878Y194476I0J5000D01*
G01*
X973860Y147060D02*
Y178060D01*
X976860Y147060D02*
Y178060D01*
X973860D02*
X976860D01*
X973860Y147060D02*
X976860D01*
X491732Y192485D02*
X516732D01*
X549835Y92485D02*
X552535D01*
X440485D02*
Y95685D01*
X439285D02*
X440485D01*
Y92485D02*
X442335D01*
X490135D02*
X522835D01*
X557585D02*
Y95685D01*
X558785D02*
Y187485D01*
X552535Y92485D02*
X557585D01*
X442335D02*
X463135D01*
X439285Y95685D02*
Y96485D01*
X518732Y192485D02*
X542885D01*
X557585Y95685D02*
X558785D01*
X466285Y192485D02*
X489732D01*
X439285Y114485D02*
Y133485D01*
X439345Y151485D02*
Y191985D01*
X455135Y206485D02*
X456285D01*
X261410Y339710D02*
X266910D01*
X279160Y343960D02*
Y353710D01*
X249160D02*
X257410D01*
X270910D02*
X279160D01*
X249160Y343960D02*
Y353710D01*
X949850Y487060D02*
X967850D01*
Y473060D02*
Y474060D01*
Y486060D02*
Y487060D01*
X949850Y473060D02*
X967850D01*
X949850D02*
Y474060D01*
Y486060D02*
Y487060D01*
X994450Y496530D02*
Y618530D01*
X872450Y496530D02*
X909700D01*
X957200D02*
X994450D01*
X872450D02*
Y618530D01*
X909700D01*
X957200D02*
X994450D01*
X1031620Y383110D02*
X1036870D01*
X1031620Y352110D02*
X1036870D01*
Y383110D01*
X605673Y497050D02*
Y502800D01*
Y360800D02*
Y366550D01*
X741923Y360800D02*
X747673D01*
X605673D02*
X611423D01*
X747673Y497050D02*
Y502800D01*
Y360800D02*
Y366550D01*
X741923Y502800D02*
X747673D01*
X605673D02*
X611423D01*
X421930Y619520D02*
X426430D01*
X411180Y596770D02*
Y612270D01*
X421930Y589520D02*
X426430D01*
X437180Y596770D02*
Y612270D01*
X782461Y103653D02*
Y128715D01*
X764399Y103653D02*
Y128715D01*
X796548Y504703D02*
X811272D01*
X796548Y490977D02*
X811272D01*
X539524Y378040D02*
X550136D01*
X539524Y389652D02*
X550136D01*
X813150Y636943D02*
X825150D01*
X813150Y649442D02*
X825150D01*
X741310Y216410D02*
X742110D01*
X700610D02*
X701410D01*
X700610Y184910D02*
Y189010D01*
Y212310D02*
Y216410D01*
X741310Y184910D02*
X742110D01*
X700610D02*
X701410D01*
X742110D02*
Y189010D01*
Y212310D02*
Y216410D01*
X793850Y474291D02*
X813970D01*
X793850Y457291D02*
X813970D01*
X219220Y402902D02*
X236220D01*
X219220Y386903D02*
X236220D01*
X539633Y405711D02*
X550134D01*
X539580Y392155D02*
X550080D01*
X530539Y364535D02*
X559121D01*
X530539Y345953D02*
X559121D01*
X478900Y457590D02*
Y474590D01*
X460900Y457590D02*
Y474590D01*
X867600Y135100D02*
X872300D01*
X943800D02*
X948500D01*
Y108350D02*
Y135100D01*
X867600Y108350D02*
Y135100D01*
X316170Y149630D02*
X332170D01*
Y272330D02*
Y279630D01*
X316170D02*
X332170D01*
Y149630D02*
Y156930D01*
X102170Y149630D02*
X200170D01*
X102170D02*
Y279630D01*
X200170D01*
X717320Y144340D02*
X720320D01*
X717320Y152840D02*
X720320D01*
X493630Y418242D02*
Y422243D01*
X443630Y418242D02*
Y422243D01*
X747930Y255950D02*
Y267950D01*
X735430Y255950D02*
Y267950D01*
X763170Y255950D02*
Y267950D01*
X750670Y255950D02*
Y267950D01*
X778410Y255950D02*
Y267950D01*
X765910Y255950D02*
Y267950D01*
X973200Y199780D02*
Y216780D01*
X957200Y199780D02*
Y216780D01*
X933070Y166760D02*
Y183760D01*
X949070Y166760D02*
Y183760D01*
X827118Y110094D02*
Y130215D01*
X844118Y110094D02*
Y130215D01*
X824274Y103653D02*
Y128715D01*
X806212Y103653D02*
Y128715D01*
X803367Y103653D02*
Y128715D01*
X785305Y103653D02*
Y128715D01*
X846364Y262664D02*
Y273276D01*
X857976Y262664D02*
Y273276D01*
X401094Y120106D02*
X411706D01*
X401094Y108494D02*
X411706D01*
X316004Y338364D02*
X326616D01*
X316004Y349976D02*
X326616D01*
X445044Y599214D02*
Y609826D01*
X456656Y599214D02*
Y609826D01*
X704941Y299820D02*
Y319940D01*
X721941Y299820D02*
Y319940D01*
X539524Y438694D02*
X550136D01*
X539524Y450306D02*
X550136D01*
X539524Y408214D02*
X550136D01*
X539524Y419826D02*
X550136D01*
X616494Y304574D02*
Y315186D01*
X628106Y304574D02*
Y315186D01*
X724444Y304574D02*
Y315186D01*
X736056Y304574D02*
Y315186D01*
X798604Y488406D02*
X809216D01*
X798604Y476794D02*
X809216D01*
X626799Y557304D02*
Y567916D01*
X638411Y557304D02*
Y567916D01*
X612684Y557304D02*
Y567916D01*
X624296Y557304D02*
Y567916D01*
X738627Y302518D02*
Y317242D01*
X752353Y302518D02*
Y317242D01*
X539633Y342450D02*
X550134D01*
X539580Y328893D02*
X550080D01*
X539524Y314778D02*
X550136D01*
X539524Y326390D02*
X550136D01*
X937880Y638600D02*
Y644100D01*
X942130Y626350D02*
X951880D01*
Y648100D02*
Y656350D01*
Y626350D02*
Y634600D01*
X942130Y656350D02*
X951880D01*
X313070Y402158D02*
Y407657D01*
X299070Y419908D02*
X308820D01*
X299070Y389907D02*
Y398158D01*
Y411657D02*
Y419908D01*
Y389907D02*
X308820D01*
X373620Y605580D02*
Y615330D01*
X395370D02*
X403620D01*
X373620D02*
X381870D01*
X403620Y605580D02*
Y615330D01*
X385870Y601330D02*
X391370D01*
X832880Y268260D02*
Y272760D01*
X810130Y283510D02*
X825630D01*
X802880Y268260D02*
Y272760D01*
X810130Y257510D02*
X825630D01*
X307580Y364780D02*
Y369280D01*
X314830Y354030D02*
X330330D01*
X337580Y364780D02*
Y369280D01*
X314830Y380030D02*
X330330D01*
X365492Y360030D02*
X370992D01*
X383242Y364280D02*
Y374030D01*
X353242D02*
X361492D01*
X374992D02*
X383242D01*
X353242Y364280D02*
Y374030D01*
X401110Y360030D02*
X406610D01*
X418860Y364280D02*
Y374030D01*
X388860D02*
X397110D01*
X410610D02*
X418860D01*
X388860Y364280D02*
Y374030D01*
X443036Y232867D02*
X441370Y234533D01*
X438038D01*
X436372Y232867D01*
Y231201D01*
X438038Y229534D01*
X441370D01*
X443036Y227868D01*
Y226202D01*
X441370Y224536D01*
X438038D01*
X436372Y226202D01*
X446369Y234533D02*
Y224536D01*
X451367D01*
X453033Y226202D01*
Y232867D01*
X451367Y234533D01*
X446369D01*
X456366Y224536D02*
X459698D01*
X458032D01*
Y234533D01*
X456366Y232867D01*
X593649Y533318D02*
Y524988D01*
X595316Y523322D01*
X598648D01*
X600314Y524988D01*
Y533318D01*
X608644Y523322D02*
Y533318D01*
X603646Y528320D01*
X610311D01*
X698186Y233598D02*
Y225268D01*
X699852Y223602D01*
X703184D01*
X704850Y225268D01*
Y233598D01*
X708182Y223602D02*
X711515D01*
X709848D01*
Y233598D01*
X708182Y231932D01*
X966470Y102788D02*
X963138D01*
X964804D01*
Y94458D01*
X963138Y92792D01*
X961472D01*
X959806Y94458D01*
X969802Y92792D02*
X973135D01*
X971468D01*
Y102788D01*
X969802Y101122D01*
X902655Y152589D02*
Y145924D01*
X903988Y144591D01*
X906654D01*
X907987Y145924D01*
Y152589D01*
X915984Y144591D02*
X910653D01*
X915984Y149923D01*
Y151256D01*
X914652Y152589D01*
X911986D01*
X910653Y151256D01*
X105492Y295199D02*
X113822D01*
X115488Y296866D01*
Y300198D01*
X113822Y301864D01*
X105492D01*
X107158Y305196D02*
X105492Y306862D01*
Y310194D01*
X107158Y311861D01*
X108824D01*
X110490Y310194D01*
Y308528D01*
Y310194D01*
X112156Y311861D01*
X113822D01*
X115488Y310194D01*
Y306862D01*
X113822Y305196D01*
D12*
X461900Y436242D02*
X475360D01*
X461900Y404243D02*
X475360D01*
X291145Y364327D02*
X284480D01*
Y354330D01*
X291145D01*
X284480Y359328D02*
X287812D01*
X294477Y354330D02*
Y364327D01*
X301141Y354330D01*
Y364327D01*
X440690Y589117D02*
Y579120D01*
X445688D01*
X447355Y580786D01*
Y582452D01*
X445688Y584118D01*
X440690D01*
X445688D01*
X447355Y585784D01*
Y587451D01*
X445688Y589117D01*
X440690D01*
X455685D02*
X452353D01*
X450687Y587451D01*
Y580786D01*
X452353Y579120D01*
X455685D01*
X457351Y580786D01*
Y587451D01*
X455685Y589117D01*
X465682D02*
X462350D01*
X460684Y587451D01*
Y580786D01*
X462350Y579120D01*
X465682D01*
X467348Y580786D01*
Y587451D01*
X465682Y589117D01*
X470680D02*
X477345D01*
X474013D01*
Y579120D01*
X808200Y238382D02*
Y248378D01*
X813198D01*
X814864Y246712D01*
Y243380D01*
X813198Y241714D01*
X808200D01*
X811532D02*
X814864Y238382D01*
X824861Y246712D02*
X823195Y248378D01*
X819863D01*
X818196Y246712D01*
Y245046D01*
X819863Y243380D01*
X823195D01*
X824861Y241714D01*
Y240048D01*
X823195Y238382D01*
X819863D01*
X818196Y240048D01*
X828193Y248378D02*
X834858D01*
X831525D01*
Y238382D01*
X697230Y139700D02*
X703895D01*
X739362Y140007D02*
X746026D01*
X742694Y143339D02*
Y136675D01*
M02*
